<?xml version="1.0" encoding="UTF-8" standalone="no"?>
<svg
   width="24"
   height="24"
   viewBox="0 0 24 24"
   fill="none"
   version="1.1"
   id="svg11"
   sodipodi:docname="add-circle.svg"
   inkscape:version="1.1.1 (3bf5ae0d25, 2021-09-20)"
   xmlns:inkscape="http://www.inkscape.org/namespaces/inkscape"
   xmlns:sodipodi="http://sodipodi.sourceforge.net/DTD/sodipodi-0.dtd"
   xmlns="http://www.w3.org/2000/svg"
   xmlns:svg="http://www.w3.org/2000/svg">
  <sodipodi:namedview
     id="namedview13"
     pagecolor="#ffffff"
     bordercolor="#666666"
     borderopacity="1.0"
     inkscape:pageshadow="2"
     inkscape:pageopacity="0.0"
     inkscape:pagecheckerboard="0"
     showgrid="false"
     inkscape:zoom="34.333333"
     inkscape:cx="11.985437"
     inkscape:cy="12.014563"
     inkscape:window-width="1920"
     inkscape:window-height="1009"
     inkscape:window-x="-8"
     inkscape:window-y="-8"
     inkscape:window-maximized="1"
     inkscape:current-layer="svg11" />
  <path
     style="color:#000000;fill:#f7f6f2;stroke-linecap:round;stroke-linejoin:round;-inkscape-stroke:none"
     d="M 12,0.69921875 C 5.7651252,0.69921875 0.69921875,5.7650679 0.69921875,12 0.69921875,18.234818 5.7651213,23.300781 12,23.300781 18.234917,23.300781 23.300781,18.234816 23.300781,12 23.300781,5.7650696 18.234913,0.69921875 12,0.69921875 Z m 0,0.99999995 c 5.694475,0 10.300781,4.6062836 10.300781,10.3007813 0,5.694372 -4.60631,10.300781 -10.300781,10.300781 C 6.3055707,22.300781 1.6992187,17.694371 1.6992187,12 1.6992187,6.305504 6.3055667,1.6992187 12,1.6992187 Z m 0,6.7148438 a 0.5,0.5 0 0 0 -0.5,0.5 V 11.5 H 8.9140625 a 0.5,0.5 0 0 0 -0.5,0.5 0.5,0.5 0 0 0 0.5,0.5 H 11.5 v 2.585938 a 0.5,0.5 0 0 0 0.5,0.5 0.5,0.5 0 0 0 0.5,-0.5 V 12.5 h 2.585938 a 0.5,0.5 0 0 0 0.5,-0.5 0.5,0.5 0 0 0 -0.5,-0.5 H 12.5 V 8.9140625 a 0.5,0.5 0 0 0 -0.5,-0.5 z"
     id="path2" />
  <defs
     id="defs9">
    <clipPath
       id="clip0_74_1740">
      <rect
         width="24"
         height="24"
         fill="white"
         id="rect6" />
    </clipPath>
  </defs>
</svg>
