<?xml version="1.0" encoding="UTF-8" standalone="no"?>
<svg
   width="16"
   height="16"
   viewBox="0 0 16 16"
   fill="none"
   version="1.1"
   id="svg2"
   sodipodi:docname="cart.svg"
   inkscape:version="1.4.2 (f4327f4, 2025-05-13)"
   xmlns:inkscape="http://www.inkscape.org/namespaces/inkscape"
   xmlns:sodipodi="http://sodipodi.sourceforge.net/DTD/sodipodi-0.dtd"
   xmlns="http://www.w3.org/2000/svg"
   xmlns:svg="http://www.w3.org/2000/svg">
  <defs
     id="defs2" />
  <sodipodi:namedview
     id="namedview2"
     pagecolor="#ffffff"
     bordercolor="#000000"
     borderopacity="0.25"
     inkscape:showpageshadow="2"
     inkscape:pageopacity="0.0"
     inkscape:pagecheckerboard="0"
     inkscape:deskcolor="#d1d1d1"
     inkscape:zoom="72.9375"
     inkscape:cx="8"
     inkscape:cy="8"
     inkscape:window-width="3440"
     inkscape:window-height="1369"
     inkscape:window-x="-8"
     inkscape:window-y="-8"
     inkscape:window-maximized="1"
     inkscape:current-layer="svg2" />
  <path
     style="baseline-shift:baseline;display:inline;overflow:visible;vector-effect:none;fill:#e4e4e4;stroke-linecap:round;stroke-linejoin:round;enable-background:accumulate;stop-color:#000000;stop-opacity:1;opacity:1"
     d="M 3.3339844,4.1660156 C 2.3273816,4.1660156 1.5,4.9934017 1.5,6 v 7.333984 c 0,1.006611 0.8274087,1.833985 1.8339844,1.833985 h 9.3320316 c 1.006588,0 1.833984,-0.827396 1.833984,-1.833985 V 6 c 0,-1.0065756 -0.827369,-1.8339844 -1.833984,-1.8339844 z m 0,1 H 12.666016 C 13.1322,5.1660156 13.5,5.5338156 13.5,6 v 7.333984 c 0,0.466212 -0.367773,0.833985 -0.833984,0.833985 H 3.3339844 C 2.8678,14.167969 2.5,13.800173 2.5,13.333984 V 6 C 2.5,5.5338383 2.8678272,5.1660156 3.3339844,5.1660156 Z"
     id="path1" />
  <path
     style="baseline-shift:baseline;display:inline;overflow:visible;vector-effect:none;fill:#e4e4e4;stroke-linecap:round;stroke-linejoin:round;enable-background:accumulate;stop-color:#000000;stop-opacity:1;opacity:1"
     d="M 8,0.83398438 C 6.2570217,0.83398437 4.8339844,2.2570217 4.8339844,4 v 2.6660156 a 0.5,0.5 0 0 0 0.5,0.5 0.5,0.5 0 0 0 0.5,-0.5 V 4 C 5.8339844,2.7974583 6.7974583,1.8339844 8,1.8339844 9.2025181,1.8339844 10.166016,2.797456 10.166016,4 v 2.4589844 a 0.5,0.5 0 0 0 0.5,0.5 0.5,0.5 0 0 0 0.5,-0.5 V 4 C 11.166016,2.257024 9.7429619,0.83398437 8,0.83398438 Z"
     id="path2" />
</svg>
