<svg width="18" height="16" viewBox="0 0 18 16" fill="none" xmlns="http://www.w3.org/2000/svg">
<path d="M0.8436 6.24192H17.1564V5.15769H0.8436V6.24192ZM16.8 5.9199V6.39588H18V5.9199H16.8ZM14.8632 14.9158H3.1368V16H14.8632V14.9158ZM1.2 6.39588V5.9199H0V6.39588H1.2ZM3.4752 15.1044C1.97892 12.4005 1.19996 9.41894 1.2 6.39588H0C0 9.58786 0.822 12.7354 2.4024 15.5902L3.4752 15.1044ZM3.1368 14.9158C3.2808 14.9158 3.4116 14.9895 3.4752 15.1044L2.4024 15.5902C2.47126 15.7129 2.57625 15.8161 2.70582 15.8884C2.83538 15.9607 2.98451 15.9993 3.1368 16V14.9158ZM14.5248 15.1044C14.5568 15.0481 14.6052 15.0007 14.6649 14.9674C14.7245 14.9342 14.7931 14.9163 14.8632 14.9158V16C15.1752 16 15.4584 15.8417 15.5976 15.5902L14.5248 15.1044ZM16.8 6.39588C16.8 9.41872 16.02 12.4004 14.5248 15.1044L15.5976 15.5902C17.1775 12.7355 18 9.58759 18 6.39588H16.8ZM17.1564 6.24192C17.0619 6.24192 16.9712 6.20799 16.9044 6.1476C16.8375 6.08721 16.8 6.00531 16.8 5.9199H18C18 5.71775 17.9111 5.52388 17.7529 5.38094C17.5947 5.23799 17.3801 5.15769 17.1564 5.15769V6.24192ZM0.8436 5.15769C0.619863 5.15769 0.40529 5.23799 0.247085 5.38094C0.088879 5.52388 0 5.71775 0 5.9199H1.2C1.2 6.00531 1.16245 6.08721 1.09561 6.1476C1.02877 6.20799 0.938123 6.24192 0.8436 6.24192V5.15769ZM4.7148 5.97845L8.3148 0.557295L7.284 0L3.684 5.42116L4.7148 5.97845ZM9.6852 0.557295L13.2852 5.97845L14.3148 5.42116L10.7148 0L9.6852 0.557295Z" fill="#F9F0E2"/>
</svg>
