<?xml version="1.0" encoding="UTF-8" standalone="no"?>
<svg
   width="17"
   height="19"
   viewBox="0 0 17 19"
   fill="none"
   version="1.1"
   id="svg4"
   sodipodi:docname="cart.svg"
   inkscape:version="1.1.1 (3bf5ae0d25, 2021-09-20)"
   xmlns:inkscape="http://www.inkscape.org/namespaces/inkscape"
   xmlns:sodipodi="http://sodipodi.sourceforge.net/DTD/sodipodi-0.dtd"
   xmlns="http://www.w3.org/2000/svg"
   xmlns:svg="http://www.w3.org/2000/svg">
  <defs
     id="defs8" />
  <sodipodi:namedview
     id="namedview6"
     pagecolor="#ffffff"
     bordercolor="#666666"
     borderopacity="1.0"
     inkscape:pageshadow="2"
     inkscape:pageopacity="0.0"
     inkscape:pagecheckerboard="0"
     showgrid="false"
     inkscape:zoom="43.368421"
     inkscape:cx="8.496966"
     inkscape:cy="9.5115291"
     inkscape:window-width="1920"
     inkscape:window-height="1009"
     inkscape:window-x="-8"
     inkscape:window-y="-8"
     inkscape:window-maximized="1"
     inkscape:current-layer="svg4" />
  <path
     style="color:#000000;fill:#f7f6f2;stroke-linecap:round;stroke-linejoin:round;-inkscape-stroke:none"
     d="M 8.5,0.5 C 6.3888329,0.5 4.6660156,2.2228173 4.6660156,4.3339844 v 0.3320312 h -2 C 1.4753191,4.6660156 0.5,5.6432879 0.5,6.8339844 V 16 c 0,1.190711 0.9753155,2.166016 2.1660156,2.166016 H 14.333984 C 15.524699,18.166016 16.5,17.190714 16.5,16 V 6.8339844 C 16.5,5.6432842 15.524695,4.6660156 14.333984,4.6660156 H 12.332031 V 4.3339844 C 12.332031,2.2228137 10.611167,0.5 8.5,0.5 Z m 0,1 c 1.570729,0 2.832031,1.2632587 2.832031,2.8339844 V 4.6660156 H 5.6660156 V 4.3339844 C 5.6660156,2.7632551 6.9292708,1.5 8.5,1.5 Z M 2.6660156,5.6660156 h 2 v 2 a 0.5,0.5 0 0 0 0.5,0.5 0.5,0.5 0 0 0 0.5,-0.5 v -2 h 5.6660154 v 1.7421875 a 0.5,0.5 0 0 0 0.5,0.5 0.5,0.5 0 0 0 0.5,-0.5 V 5.6660156 h 2.001953 c 0.650288,0 1.166016,0.5177108 1.166016,1.1679688 V 16 c 0,0.650284 -0.515732,1.166016 -1.166016,1.166016 H 2.6660156 C 2.0157576,17.166016 1.5,16.650288 1.5,16 V 6.8339844 C 1.5,6.1837227 2.015754,5.6660156 2.6660156,5.6660156 Z"
     id="path868" />
</svg>
