<svg width="16" height="16" viewBox="0 0 16 16" fill="none" xmlns="http://www.w3.org/2000/svg">
<path d="M8.00001 1.33325C4.38668 1.33325 1.33334 4.38658 1.33334 7.99992C1.33334 11.6133 4.38668 14.6666 8.00001 14.6666C11.6133 14.6666 14.6667 11.6133 14.6667 7.99992C14.6667 4.38658 11.6133 1.33325 8.00001 1.33325ZM8.00001 13.3333C5.10668 13.3333 2.66668 10.8933 2.66668 7.99992C2.66668 5.10659 5.10668 2.66659 8.00001 2.66659C10.8933 2.66659 13.3333 5.10659 13.3333 7.99992C13.3333 10.8933 10.8933 13.3333 8.00001 13.3333Z" fill="#F9F0E2"/>
<path d="M8.66668 4.66675H7.33334V8.66675H11.3333V7.33341H8.66668V4.66675Z" fill="#F9F0E2"/>
</svg>
