<?xml version="1.0" encoding="UTF-8" standalone="no"?>
<svg
   width="24"
   height="24"
   viewBox="0 0 24 24"
   fill="none"
   version="1.1"
   id="svg4"
   sodipodi:docname="close.svg"
   inkscape:version="1.1.1 (3bf5ae0d25, 2021-09-20)"
   xmlns:inkscape="http://www.inkscape.org/namespaces/inkscape"
   xmlns:sodipodi="http://sodipodi.sourceforge.net/DTD/sodipodi-0.dtd"
   xmlns="http://www.w3.org/2000/svg"
   xmlns:svg="http://www.w3.org/2000/svg">
  <defs
     id="defs8" />
  <sodipodi:namedview
     id="namedview6"
     pagecolor="#ffffff"
     bordercolor="#666666"
     borderopacity="1.0"
     inkscape:pageshadow="2"
     inkscape:pageopacity="0.0"
     inkscape:pagecheckerboard="0"
     showgrid="false"
     inkscape:zoom="34.333333"
     inkscape:cx="11.985437"
     inkscape:cy="12.014563"
     inkscape:window-width="1920"
     inkscape:window-height="1009"
     inkscape:window-x="-8"
     inkscape:window-y="-8"
     inkscape:window-maximized="1"
     inkscape:current-layer="svg4" />
  <path
     style="color:#000000;fill:#f7f6f2;stroke-linecap:round;stroke-linejoin:round;-inkscape-stroke:none"
     d="m 4.8007812,4.3007812 a 0.5,0.5 0 0 0 -0.3535156,0.1464844 0.5,0.5 0 0 0 0,0.7070313 L 11.292969,12 4.4472656,18.845703 a 0.5,0.5 0 0 0 0,0.707031 0.5,0.5 0 0 0 0.7070313,0 L 12,12.707031 l 6.845703,6.845703 a 0.5,0.5 0 0 0 0.707031,0 0.5,0.5 0 0 0 0,-0.707031 L 12.707031,12 19.552734,5.1542969 a 0.5,0.5 0 0 0 0,-0.7070313 0.5,0.5 0 0 0 -0.707031,0 L 12,11.292969 5.1542969,4.4472656 A 0.5,0.5 0 0 0 4.8007812,4.3007812 Z"
     id="path2" />
</svg>
