<svg width="10" height="11" viewBox="0 0 10 11" fill="none" xmlns="http://www.w3.org/2000/svg">
<path d="M2.91667 1.1681C2.76196 1.1681 2.61358 1.22955 2.50419 1.33895C2.39479 1.44835 2.33333 1.59672 2.33333 1.75143C2.33333 1.90614 2.39479 2.05451 2.50419 2.16391C2.61358 2.2733 2.76196 2.33476 2.91667 2.33476C3.07138 2.33476 3.21975 2.2733 3.32915 2.16391C3.43854 2.05451 3.5 1.90614 3.5 1.75143C3.5 1.59672 3.43854 1.44835 3.32915 1.33895C3.21975 1.22955 3.07138 1.1681 2.91667 1.1681ZM1.26583 1.1681C1.38635 0.826535 1.60985 0.530766 1.90552 0.321557C2.20118 0.112348 2.55447 0 2.91667 0C3.27887 0 3.63215 0.112348 3.92782 0.321557C4.22349 0.530766 4.44698 0.826535 4.5675 1.1681H8.75C8.90471 1.1681 9.05308 1.22955 9.16248 1.33895C9.27188 1.44835 9.33333 1.59672 9.33333 1.75143C9.33333 1.90614 9.27188 2.05451 9.16248 2.16391C9.05308 2.2733 8.90471 2.33476 8.75 2.33476H4.5675C4.44698 2.67632 4.22349 2.97209 3.92782 3.1813C3.63215 3.39051 3.27887 3.50286 2.91667 3.50286C2.55447 3.50286 2.20118 3.39051 1.90552 3.1813C1.60985 2.97209 1.38635 2.67632 1.26583 2.33476H0.583333C0.428624 2.33476 0.280251 2.2733 0.170854 2.16391C0.0614583 2.05451 0 1.90614 0 1.75143C0 1.59672 0.0614583 1.44835 0.170854 1.33895C0.280251 1.22955 0.428624 1.1681 0.583333 1.1681H1.26583ZM6.41667 4.6681C6.26196 4.6681 6.11358 4.72955 6.00419 4.83895C5.89479 4.94835 5.83333 5.09672 5.83333 5.25143C5.83333 5.40614 5.89479 5.55451 6.00419 5.66391C6.11358 5.7733 6.26196 5.83476 6.41667 5.83476C6.57138 5.83476 6.71975 5.7733 6.82915 5.66391C6.93854 5.55451 7 5.40614 7 5.25143C7 5.09672 6.93854 4.94835 6.82915 4.83895C6.71975 4.72955 6.57138 4.6681 6.41667 4.6681ZM4.76583 4.6681C4.88635 4.32654 5.10985 4.03077 5.40552 3.82156C5.70118 3.61235 6.05447 3.5 6.41667 3.5C6.77887 3.5 7.13215 3.61235 7.42782 3.82156C7.72348 4.03077 7.94698 4.32654 8.0675 4.6681H8.75C8.90471 4.6681 9.05308 4.72955 9.16248 4.83895C9.27188 4.94835 9.33333 5.09672 9.33333 5.25143C9.33333 5.40614 9.27188 5.55451 9.16248 5.66391C9.05308 5.7733 8.90471 5.83476 8.75 5.83476H8.0675C7.94698 6.17632 7.72348 6.47209 7.42782 6.6813C7.13215 6.89051 6.77887 7.00286 6.41667 7.00286C6.05447 7.00286 5.70118 6.89051 5.40552 6.6813C5.10985 6.47209 4.88635 6.17632 4.76583 5.83476H0.583333C0.428624 5.83476 0.280251 5.7733 0.170854 5.66391C0.0614583 5.55451 0 5.40614 0 5.25143C0 5.09672 0.0614583 4.94835 0.170854 4.83895C0.280251 4.72955 0.428624 4.6681 0.583333 4.6681H4.76583ZM2.91667 8.1681C2.76196 8.1681 2.61358 8.22955 2.50419 8.33895C2.39479 8.44835 2.33333 8.59672 2.33333 8.75143C2.33333 8.90614 2.39479 9.05451 2.50419 9.16391C2.61358 9.2733 2.76196 9.33476 2.91667 9.33476C3.07138 9.33476 3.21975 9.2733 3.32915 9.16391C3.43854 9.05451 3.5 8.90614 3.5 8.75143C3.5 8.59672 3.43854 8.44835 3.32915 8.33895C3.21975 8.22955 3.07138 8.1681 2.91667 8.1681ZM1.26583 8.1681C1.38635 7.82654 1.60985 7.53077 1.90552 7.32156C2.20118 7.11235 2.55447 7 2.91667 7C3.27887 7 3.63215 7.11235 3.92782 7.32156C4.22349 7.53077 4.44698 7.82654 4.5675 8.1681H8.75C8.90471 8.1681 9.05308 8.22955 9.16248 8.33895C9.27188 8.44835 9.33333 8.59672 9.33333 8.75143C9.33333 8.90614 9.27188 9.05451 9.16248 9.16391C9.05308 9.2733 8.90471 9.33476 8.75 9.33476H4.5675C4.44698 9.67632 4.22349 9.97209 3.92782 10.1813C3.63215 10.3905 3.27887 10.5029 2.91667 10.5029C2.55447 10.5029 2.20118 10.3905 1.90552 10.1813C1.60985 9.97209 1.38635 9.67632 1.26583 9.33476H0.583333C0.428624 9.33476 0.280251 9.2733 0.170854 9.16391C0.0614583 9.05451 0 8.90614 0 8.75143C0 8.59672 0.0614583 8.44835 0.170854 8.33895C0.280251 8.22955 0.428624 8.1681 0.583333 8.1681H1.26583Z" fill="black"/>
</svg>
