<?xml version="1.0" encoding="UTF-8" standalone="no"?>
<svg
   width="27"
   height="27"
   viewBox="0 0 27 27"
   fill="none"
   version="1.1"
   id="svg4"
   sodipodi:docname="filter.svg"
   inkscape:version="1.1.1 (3bf5ae0d25, 2021-09-20)"
   xmlns:inkscape="http://www.inkscape.org/namespaces/inkscape"
   xmlns:sodipodi="http://sodipodi.sourceforge.net/DTD/sodipodi-0.dtd"
   xmlns="http://www.w3.org/2000/svg"
   xmlns:svg="http://www.w3.org/2000/svg">
  <defs
     id="defs8" />
  <sodipodi:namedview
     id="namedview6"
     pagecolor="#ffffff"
     bordercolor="#666666"
     borderopacity="1.0"
     inkscape:pageshadow="2"
     inkscape:pageopacity="0.0"
     inkscape:pagecheckerboard="0"
     showgrid="false"
     inkscape:zoom="30.518519"
     inkscape:cx="13.483617"
     inkscape:cy="13.516383"
     inkscape:window-width="1920"
     inkscape:window-height="1009"
     inkscape:window-x="-8"
     inkscape:window-y="-8"
     inkscape:window-maximized="1"
     inkscape:current-layer="svg4" />
  <path
     style="color:#000000;fill:#ffffff;stroke-linecap:round;stroke-miterlimit:10;-inkscape-stroke:none"
     d="m 17.958984,2.8652344 c -0.8491,0 -1.663309,0.3370854 -2.263671,0.9375 -0.401497,0.401523 -0.48483,0.974147 -0.628907,1.5136718 H 3.09375 a 0.75,0.75 0 0 0 -0.75,0.75 0.75,0.75 0 0 0 0.75,0.75 h 11.972656 c 0.144027,0.5397488 0.227268,1.1139516 0.628907,1.5156251 0.600357,0.600397 1.414563,0.9374999 2.263671,0.9375 0.420509,0 0.837996,-0.083163 1.226563,-0.2441407 0.388635,-0.1609518 0.741725,-0.3961135 1.039062,-0.6933593 0.297343,-0.2973949 0.532416,-0.6506696 0.69336,-1.0390626 0.0625,-0.1509584 0.05703,-0.3185395 0.0957,-0.4765625 h 2.892578 a 0.75,0.75 0 0 0 0.75,-0.75 0.75,0.75 0 0 0 -0.75,-0.75 H 21.011719 C 20.973089,5.1589074 20.98027,4.9922712 20.917969,4.8417969 20.757025,4.4534039 20.521963,4.1001269 20.224609,3.8027344 19.927268,3.5054708 19.574182,3.2703268 19.185547,3.109375 18.796967,2.9483919 18.379478,2.8652344 17.958984,2.8652344 Z m 0,1.5 c 0.223506,0 0.445925,0.043389 0.652344,0.1289062 0.20606,0.085339 0.392767,0.2114715 0.550781,0.3691406 0.158047,0.1580671 0.283485,0.346028 0.369141,0.5527344 0.08559,0.2067222 0.130859,0.4269019 0.130859,0.6503906 0,0.2234757 -0.04528,0.4456447 -0.130859,0.6523438 -0.08566,0.2067064 -0.211084,0.3946497 -0.369141,0.5527344 -0.158018,0.1576668 -0.344721,0.2838017 -0.550781,0.3691406 -0.206433,0.085522 -0.428853,0.1289063 -0.652344,0.1289062 -0.45189,0 -0.883683,-0.1785848 -1.203125,-0.4980468 -0.319474,-0.3195017 -0.5,-0.7532734 -0.5,-1.2050782 0,-0.4518178 0.180533,-0.8836369 0.5,-1.203125 0.319437,-0.3194645 0.751227,-0.4980468 1.203125,-0.4980468 z M 7.5527344,10.296875 c -0.8490739,0 -1.663297,0.339117 -2.2636719,0.939453 C 4.8875672,11.637885 4.8042321,12.210487 4.6601562,12.75 H 3.09375 a 0.75,0.75 0 0 0 -0.75,0.75 0.75,0.75 0 0 0 0.75,0.75 h 1.5664062 c 0.144078,0.539544 0.2273659,1.112158 0.6289063,1.513672 0.6003749,0.600336 1.414598,0.939453 2.2636719,0.939453 0.8490739,0 1.6652501,-0.339117 2.265625,-0.939453 C 10.219847,15.362211 10.301225,14.789447 10.445313,14.25 H 23.90625 a 0.75,0.75 0 0 0 0.75,-0.75 0.75,0.75 0 0 0 -0.75,-0.75 H 10.445313 C 10.301228,12.210584 10.219802,11.637831 9.8183594,11.236328 9.2179845,10.635992 8.4018083,10.296875 7.5527344,10.296875 Z m 0,1.5 c 0.4518048,0 0.8836408,0.180537 1.203125,0.5 0.3195179,0.319567 0.5,0.751342 0.5,1.203125 0,0.451914 -0.1805495,0.883695 -0.5,1.203125 -0.3194842,0.319463 -0.7513202,0.5 -1.203125,0.5 -0.4518048,0 -0.8836408,-0.180537 -1.203125,-0.5 -0.3194621,-0.319441 -0.5,-0.751234 -0.5,-1.203125 0,-0.45176 0.1804705,-0.883547 0.5,-1.203125 0.3194842,-0.319463 0.7513202,-0.5 1.203125,-0.5 z m 7.4335936,5.933594 c -0.849046,0 -1.66521,0.337215 -2.265625,0.9375 -0.401551,0.401638 -0.482907,0.975983 -0.626953,1.515625 h -9 a 0.75,0.75 0 0 0 -0.75,0.75 0.75,0.75 0 0 0 0.75,0.75 h 9 c 0.144095,0.539414 0.225549,1.11218 0.626953,1.513672 0.599993,0.599862 1.415733,0.939453 2.265625,0.939453 0.849185,0 1.663143,-0.336971 2.263672,-0.9375 0.401729,-0.401729 0.484695,-0.975614 0.628906,-1.515625 h 6.027344 a 0.75,0.75 0 0 0 0.75,-0.75 0.75,0.75 0 0 0 -0.75,-0.75 h -6.027344 c -0.144305,-0.53978 -0.22746,-1.114179 -0.628906,-1.515625 -0.600529,-0.60053 -1.414487,-0.9375 -2.263672,-0.9375 z m 0,1.5 c 0.452014,0 0.883456,0.178377 1.203125,0.498047 0.319962,0.319961 0.5,0.753525 0.5,1.205078 0,0.451552 -0.180461,0.885539 -0.5,1.205078 -0.319669,0.319669 -0.751111,0.498047 -1.203125,0.498047 -0.450907,0 -0.885071,-0.180063 -1.205078,-0.5 -0.319514,-0.319584 -0.498047,-0.751373 -0.498047,-1.203125 0,-0.451753 0.178533,-0.885495 0.498047,-1.205078 0.319584,-0.319515 0.753326,-0.498047 1.205078,-0.498047 z"
     id="path2" />
</svg>
