<?xml version="1.0" encoding="UTF-8" standalone="no"?>
<svg
   width="24"
   height="24"
   viewBox="0 0 24 24"
   fill="none"
   version="1.1"
   id="svg4"
   sodipodi:docname="filter.svg"
   inkscape:version="1.1.1 (3bf5ae0d25, 2021-09-20)"
   xmlns:inkscape="http://www.inkscape.org/namespaces/inkscape"
   xmlns:sodipodi="http://sodipodi.sourceforge.net/DTD/sodipodi-0.dtd"
   xmlns="http://www.w3.org/2000/svg"
   xmlns:svg="http://www.w3.org/2000/svg">
  <defs
     id="defs8" />
  <sodipodi:namedview
     id="namedview6"
     pagecolor="#ffffff"
     bordercolor="#666666"
     borderopacity="1.0"
     inkscape:pageshadow="2"
     inkscape:pageopacity="0.0"
     inkscape:pagecheckerboard="0"
     showgrid="false"
     inkscape:zoom="34.333333"
     inkscape:cx="11.985437"
     inkscape:cy="12.014563"
     inkscape:window-width="1920"
     inkscape:window-height="1009"
     inkscape:window-x="-8"
     inkscape:window-y="-8"
     inkscape:window-maximized="1"
     inkscape:current-layer="svg4" />
  <path
     style="color:#000000;fill:#543d2f;stroke-linecap:round;stroke-linejoin:round;-inkscape-stroke:none"
     d="m 15.599609,5.5 c -1.566316,0 -2.833976,1.11879 -3.09375,2.5722656 H 3 a 0.5,0.5 0 0 0 -0.5,0.5 0.5,0.5 0 0 0 0.5,0.5 h 9.505859 c 0.260113,1.4530894 1.527711,2.5703124 3.09375,2.5703124 1.565955,0 2.833536,-1.11734 3.09375,-2.5703124 H 21 a 0.5,0.5 0 0 0 0.5,-0.5 0.5,0.5 0 0 0 -0.5,-0.5 H 18.693359 C 18.433485,6.6189069 17.165841,5.5 15.599609,5.5 Z m 0,1 c 1.233852,0 2.201172,0.9358307 2.201172,2.0722656 0,1.136435 -0.967329,2.0703124 -2.201172,2.0703124 -1.233842,0 -2.199218,-0.9338774 -2.199218,-2.0703124 C 13.400391,7.4358307 14.365758,6.5 15.599609,6.5 Z m -7.1992184,5.857422 c -1.5659308,0 -2.8335316,1.117314 -3.09375,2.570312 H 3 a 0.5,0.5 0 0 0 -0.5,0.5 0.5,0.5 0 0 0 0.5,0.5 H 5.3066406 C 5.5665183,17.381066 6.8341753,18.5 8.4003906,18.5 c 1.5662999,0 2.8339734,-1.118818 3.0937504,-2.572266 H 21 a 0.5,0.5 0 0 0 0.5,-0.5 0.5,0.5 0 0 0 -0.5,-0.5 H 11.494141 C 11.234024,13.474619 9.9664061,12.357422 8.4003906,12.357422 Z m 0,1 c 1.2338094,0 2.1992184,0.933836 2.1992184,2.070312 0,1.136356 -0.965409,2.072266 -2.1992184,2.072266 -1.2338093,0 -2.2011719,-0.93591 -2.2011719,-2.072266 0,-1.136476 0.9673626,-2.070312 2.2011719,-2.070312 z"
     id="path2" />
</svg>
