<?xml version="1.0" encoding="UTF-8" standalone="no"?>
<svg
   width="17"
   height="16"
   viewBox="0 0 17 16"
   fill="none"
   version="1.1"
   id="svg4"
   sodipodi:docname="heart.svg"
   inkscape:version="1.1.1 (3bf5ae0d25, 2021-09-20)"
   xmlns:inkscape="http://www.inkscape.org/namespaces/inkscape"
   xmlns:sodipodi="http://sodipodi.sourceforge.net/DTD/sodipodi-0.dtd"
   xmlns="http://www.w3.org/2000/svg"
   xmlns:svg="http://www.w3.org/2000/svg">
  <defs
     id="defs8" />
  <sodipodi:namedview
     id="namedview6"
     pagecolor="#ffffff"
     bordercolor="#666666"
     borderopacity="1.0"
     inkscape:pageshadow="2"
     inkscape:pageopacity="0.0"
     inkscape:pagecheckerboard="0"
     showgrid="false"
     inkscape:zoom="51.5"
     inkscape:cx="8.4951456"
     inkscape:cy="7.9902913"
     inkscape:window-width="1920"
     inkscape:window-height="1009"
     inkscape:window-x="-8"
     inkscape:window-y="-8"
     inkscape:window-maximized="1"
     inkscape:current-layer="svg4" />
  <path
     style="color:#000000;fill:#f9f0e2;-inkscape-stroke:none"
     d="M 4.7597656,0 C 4.1350004,0 3.5165871,0.12981518 2.9394531,0.38085938 2.3624115,0.63193628 1.8367973,1.0003202 1.3945312,1.4648437 0.95195811,1.929743 0.60235925,2.4815815 0.36328125,3.0878906 0.12424622,3.6941429 5.9536188e-5,4.3428022 0,5 0,5.6573623 0.12407246,6.3074463 0.36328125,6.9140625 0.60235927,7.5203834 0.95195811,8.0722101 1.3945312,8.5371094 L 8.4980469,15.998047 15.605469,8.5371094 C 16.047021,8.0731968 16.399228,7.5215788 16.638672,6.9140625 16.878103,6.3067575 17,5.6584973 17,5.0019531 17,4.3445849 16.875876,3.694488 16.636719,3.0878906 16.397451,2.4815885 16.047537,1.9292693 15.605469,1.4648437 15.163211,1.0003428 14.63772,0.63194155 14.060547,0.38085938 13.483342,0.12976762 12.865023,0.00193035 12.240234,0.00195313 h -0.002 C 11.057319,0.00203698 9.9158054,0.46450566 9.0429688,1.2949219 l -0.00586,0.00586 L 8.8789063,1.4589844 8.5,1.8554687 8.1269531,1.4648437 C 7.6851574,1.0008194 7.1592339,0.6320775 6.5820312,0.38085938 6.0047862,0.12969239 5.3863124,7.5494797e-5 4.7617187,0 Z m 0,1.5 C 5.177611,1.5000505 5.594181,1.5860808 5.984375,1.7558594 6.3746513,1.9257208 6.732759,2.176332 7.0390625,2.4980469 L 7.4121094,2.890625 8.4980469,4.0292969 9.5839844,2.8925781 9.9511719,2.5078125 10.078125,2.3808594 l 0.0039,-0.00195 c 0.602353,-0.5714982 1.369043,-0.8768971 2.158203,-0.8769532 0.417811,-1.52e-5 0.832062,0.085946 1.222657,0.2558594 C 13.853717,1.9278299 14.21339,2.1784618 14.519531,2.5 14.825662,2.8216137 15.072456,3.2066219 15.242188,3.6367188 15.41183,4.0670003 15.5,4.5329825 15.5,5.0019531 c 0,0.4697347 -0.08844,0.9336873 -0.257812,1.3632813 -0.169157,0.4291827 -0.415809,0.8143321 -0.722657,1.1367187 L 8.5,13.824219 2.4804688,7.5019531 C 2.1745226,7.1805732 1.9275541,6.7937593 1.7578125,6.3632812 1.5881457,5.9330185 1.5,5.4689366 1.5,5 1.5000425,4.5312589 1.5881419,4.0670455 1.7578125,3.6367188 1.9275541,3.2062489 2.1745226,2.8194268 2.4804688,2.4980469 2.786522,2.1765912 3.146352,1.9258821 3.5371094,1.7558594 3.9274945,1.586048 4.3420719,1.5 4.7597656,1.5 Z"
     id="path2" />
</svg>
