<svg width="17" height="16" viewBox="0 0 17 16" fill="none" xmlns="http://www.w3.org/2000/svg">
<path d="M4.75977 0C4.135 0 3.51659 0.129815 2.93945 0.380859C2.36241 0.631936 1.8368 1.00032 1.39453 1.46484C0.951958 1.92974 0.602359 2.48158 0.363281 3.08789C0.124246 3.69414 5.95362e-05 4.3428 0 5C0 5.65736 0.124072 6.30745 0.363281 6.91406C0.602359 7.52038 0.951958 8.07221 1.39453 8.53711L8.49805 15.998L15.6055 8.53711C16.047 8.0732 16.3992 7.52158 16.6387 6.91406C16.8781 6.30676 17 5.6585 17 5.00195C17 4.34458 16.8759 3.69449 16.6367 3.08789C16.3975 2.48159 16.0475 1.92927 15.6055 1.46484C15.1632 1.00034 14.6377 0.631942 14.0605 0.380859C13.4833 0.129768 12.865 0.00193035 12.2402 0.00195313H12.2382C11.0573 0.00203698 9.91581 0.464506 9.04297 1.29492L9.03711 1.30078L8.87891 1.45898L8.5 1.85547L8.12695 1.46484C7.68516 1.00082 7.15923 0.632077 6.58203 0.380859C6.00479 0.129692 5.38631 7.54948e-05 4.76172 0H4.75977Z" fill="#F9F0E2"/>
</svg>
