<?xml version="1.0" encoding="UTF-8" standalone="no"?>
<svg
   width="24"
   height="24"
   viewBox="0 0 24 24"
   fill="none"
   version="1.1"
   id="svg1"
   sodipodi:docname="heart.svg"
   inkscape:version="1.4.2 (f4327f4, 2025-05-13)"
   xmlns:inkscape="http://www.inkscape.org/namespaces/inkscape"
   xmlns:sodipodi="http://sodipodi.sourceforge.net/DTD/sodipodi-0.dtd"
   xmlns="http://www.w3.org/2000/svg"
   xmlns:svg="http://www.w3.org/2000/svg">
  <defs
     id="defs1" />
  <sodipodi:namedview
     id="namedview1"
     pagecolor="#ffffff"
     bordercolor="#000000"
     borderopacity="0.25"
     inkscape:showpageshadow="2"
     inkscape:pageopacity="0.0"
     inkscape:pagecheckerboard="0"
     inkscape:deskcolor="#d1d1d1"
     inkscape:zoom="48.625"
     inkscape:cx="12"
     inkscape:cy="12"
     inkscape:window-width="3440"
     inkscape:window-height="1369"
     inkscape:window-x="-8"
     inkscape:window-y="-8"
     inkscape:window-maximized="1"
     inkscape:current-layer="svg1" />
  <path
     style="baseline-shift:baseline;display:inline;overflow:visible;vector-effect:none;fill:#e4e4e4;stroke-linecap:round;stroke-linejoin:round;enable-background:accumulate;stop-color:#000000;stop-opacity:1;opacity:1"
     d="M 7.5,4 C 4.4718474,4 2,6.4718474 2,9.5 c 0,1.129195 0.3423547,2.186395 0.9296875,3.056641 3.311e-4,4.94e-4 0.00162,0.0015 0.00195,0.002 3.437e-4,5.09e-4 -3.439e-4,0.0014 0,0.002 0.320029,0.477359 0.8985218,1.118418 1.7148438,2.025391 0.8176274,0.908422 1.8249541,1.998929 2.8066406,3.050781 1.9633731,2.103703 3.824219,4.052734 3.824219,4.052734 a 1,1 0 0 0 0.01953,0 1,1 0 0 0 0.01367,0.0332 A 1,1 0 0 0 12,21.707031 a 1,1 0 0 0 0.689453,0.01563 1,1 0 0 0 0.01367,-0.0332 1,1 0 0 0 0.01953,0 c 0,0 1.860846,-1.949031 3.824219,-4.052734 0.981687,-1.051852 1.989013,-2.142359 2.806641,-3.050781 0.816322,-0.906973 1.394814,-1.548032 1.714843,-2.025391 v -0.002 C 21.656515,11.68797 22,10.630056 22,9.5 22,6.4718474 19.528153,4 16.5,4 14.599558,4 13.027002,5.0297251 12,6.3632812 10.972998,5.0297251 9.4004419,4 7.5,4 Z m 0,2 c 1.2010256,0 2.2094765,0.6361245 2.943359,1.6035156 a 1.0001,1.0001 0 0 0 0,0.00195 l 0.759766,1.0000001 a 1,1 0 0 0 0.179688,0.1035156 1,1 0 0 0 0.01172,0.087891 1,1 0 0 0 0.25,0.066406 A 1,1 0 0 0 12,8.9550781 a 1,1 0 0 0 0.355469,-0.091797 1,1 0 0 0 0.25,-0.066406 1,1 0 0 0 0.01172,-0.087891 1,1 0 0 0 0.179687,-0.1035156 l 0.759766,-1.0000001 a 1.0001,1.0001 0 0 0 0,-0.00195 C 14.290524,6.6361245 15.298974,6 16.5,6 18.451847,6 20,7.5481526 20,9.5 c 0,0.729283 -0.216677,1.390367 -0.587891,1.939453 a 1.0001,1.0001 0 0 0 -0.0039,0.0039 c -0.08529,0.127407 -0.737705,0.912173 -1.541016,1.804688 -0.80331,0.892515 -1.804186,1.976539 -2.781249,3.023437 C 13.502399,17.968205 12.518897,18.999567 12,19.544922 11.481103,18.999567 10.497601,17.968205 8.9140625,16.271484 7.936999,15.224586 6.9361226,14.140562 6.1328125,13.248047 5.3295024,12.355532 4.6770859,11.570766 4.5917969,11.443359 a 1.0001,1.0001 0 0 0 -0.00391,-0.0039 C 4.2166774,10.890367 4,10.229283 4,9.5 4,7.5481526 5.5481526,6 7.5,6 Z"
     id="path1" />
</svg>
