<?xml version="1.0" encoding="UTF-8" standalone="no"?>
<svg
   width="24"
   height="24"
   viewBox="0 0 24 24"
   fill="none"
   version="1.1"
   id="svg4"
   sodipodi:docname="info.svg"
   inkscape:version="1.1.1 (3bf5ae0d25, 2021-09-20)"
   xmlns:inkscape="http://www.inkscape.org/namespaces/inkscape"
   xmlns:sodipodi="http://sodipodi.sourceforge.net/DTD/sodipodi-0.dtd"
   xmlns="http://www.w3.org/2000/svg"
   xmlns:svg="http://www.w3.org/2000/svg">
  <defs
     id="defs8" />
  <sodipodi:namedview
     id="namedview6"
     pagecolor="#ffffff"
     bordercolor="#666666"
     borderopacity="1.0"
     inkscape:pageshadow="2"
     inkscape:pageopacity="0.0"
     inkscape:pagecheckerboard="0"
     showgrid="false"
     inkscape:zoom="34.333333"
     inkscape:cx="11.985437"
     inkscape:cy="12.014563"
     inkscape:window-width="1920"
     inkscape:window-height="1009"
     inkscape:window-x="-8"
     inkscape:window-y="-8"
     inkscape:window-maximized="1"
     inkscape:current-layer="svg4" />
  <path
     style="color:#000000;fill:#543d2f;stroke-linecap:round;stroke-linejoin:round;-inkscape-stroke:none"
     d="M 12,1.5 C 6.206936,1.5 1.5,6.206936 1.5,12 1.5,17.793016 6.206933,22.5 12,22.5 17.793019,22.5 22.5,17.793019 22.5,12 22.5,6.206933 17.793016,1.5 12,1.5 Z m 0,1 c 5.252573,0 9.5,4.2473781 9.5,9.5 0,5.252569 -4.247431,9.5 -9.5,9.5 C 6.7473781,21.5 2.5,17.252573 2.5,12 2.5,6.747375 6.747375,2.5 12,2.5 Z m 0,3 A 0.5,0.5 0 0 0 11.5,6 v 0.019531 a 0.5,0.5 0 0 0 0.5,0.5 0.5,0.5 0 0 0 0.5,-0.5 V 6 A 0.5,0.5 0 0 0 12,5.5 Z m 0,4 A 0.5,0.5 0 0 0 11.5,10 v 8 A 0.5,0.5 0 0 0 12,18.5 0.5,0.5 0 0 0 12.5,18 V 10 A 0.5,0.5 0 0 0 12,9.5 Z"
     id="path2" />
</svg>
