<svg width="19" height="19" viewBox="0 0 19 19" fill="none" xmlns="http://www.w3.org/2000/svg">
<path d="M12.4688 9.50405C12.4688 10.2917 12.156 11.0472 11.5992 11.6042C11.0425 12.1612 10.2874 12.4741 9.5 12.4741C8.71264 12.4741 7.95753 12.1612 7.40078 11.6042C6.84403 11.0472 6.53125 10.2917 6.53125 9.50405C6.53191 9.33443 6.54807 9.16943 6.57974 9.00905H5.54167V12.9661C5.54167 13.2413 5.76432 13.4641 6.03943 13.4641H12.9616C13.0934 13.4638 13.2198 13.4112 13.3129 13.3179C13.406 13.2245 13.4583 13.098 13.4583 12.9661V9.00905H12.4203C12.4519 9.16943 12.4681 9.33443 12.4688 9.50405ZM9.5 11.4841C9.75997 11.484 10.0174 11.4327 10.2575 11.3331C10.4977 11.2335 10.7159 11.0876 10.8997 10.9036C11.0835 10.7197 11.2292 10.5013 11.3287 10.261C11.4281 10.0207 11.4792 9.76314 11.4792 9.50306C11.4791 9.24297 11.4278 8.98545 11.3283 8.74519C11.2287 8.50493 11.0829 8.28664 10.899 8.10278C10.7151 7.91891 10.4968 7.77309 10.2566 7.67362C10.0164 7.57415 9.75898 7.52298 9.49901 7.52305C8.97397 7.52318 8.47049 7.73197 8.09932 8.10347C7.72816 8.47498 7.51971 8.97879 7.51984 9.50405C7.51997 10.0293 7.72867 10.533 8.10002 10.9043C8.47137 11.2757 8.97496 11.4842 9.5 11.4841ZM11.875 7.42504H13.0615C13.1006 7.42517 13.1393 7.41758 13.1754 7.40271C13.2116 7.38785 13.2444 7.36599 13.2721 7.3384C13.2997 7.31081 13.3217 7.27802 13.3367 7.24192C13.3517 7.20582 13.3594 7.16712 13.3594 7.12804V5.94102C13.3595 5.90185 13.3519 5.86304 13.337 5.82683C13.322 5.79062 13.3001 5.75771 13.2724 5.73002C13.2447 5.70232 13.2119 5.68037 13.1757 5.66545C13.1395 5.65052 13.1007 5.6429 13.0615 5.64303H11.875C11.8358 5.6429 11.7971 5.65052 11.7609 5.66545C11.7247 5.68037 11.6918 5.70232 11.6641 5.73002C11.6364 5.75771 11.6145 5.79062 11.5995 5.82683C11.5846 5.86304 11.577 5.90185 11.5771 5.94102V7.12804C11.5781 7.29139 11.7117 7.42504 11.875 7.42504ZM9.5 0C6.98044 0 4.56408 1.00132 2.78249 2.78367C1.00089 4.56603 0 6.98342 0 9.50405C0 12.0247 1.00089 14.4421 2.78249 16.2244C4.56408 18.0068 6.98044 19.0081 9.5 19.0081C10.7476 19.0081 11.9829 18.7623 13.1355 18.2846C14.2881 17.807 15.3354 17.107 16.2175 16.2244C17.0997 15.3419 17.7994 14.2942 18.2769 13.1411C18.7543 11.988 19 10.7521 19 9.50405C19 8.25596 18.7543 7.02009 18.2769 5.86701C17.7994 4.71392 17.0997 3.6662 16.2175 2.78367C15.3354 1.90114 14.2881 1.20108 13.1355 0.723453C11.9829 0.24583 10.7476 0 9.5 0ZM14.4479 13.3542C14.4479 13.9591 13.9531 14.4541 13.3485 14.4541H5.65151C5.04687 14.4541 4.55208 13.9591 4.55208 13.3542V5.65392C4.55208 5.04903 5.04687 4.55402 5.65151 4.55402H13.3485C13.9531 4.55402 14.4479 5.04903 14.4479 5.65392V13.3542Z" fill="#E4E4E4"/>
</svg>
