<?xml version="1.0" encoding="UTF-8" standalone="no"?>
<svg
   width="24"
   height="24"
   viewBox="0 0 24 24"
   fill="none"
   version="1.1"
   id="svg2"
   sodipodi:docname="location.svg"
   inkscape:version="1.4.2 (f4327f4, 2025-05-13)"
   xmlns:inkscape="http://www.inkscape.org/namespaces/inkscape"
   xmlns:sodipodi="http://sodipodi.sourceforge.net/DTD/sodipodi-0.dtd"
   xmlns="http://www.w3.org/2000/svg"
   xmlns:svg="http://www.w3.org/2000/svg">
  <defs
     id="defs2" />
  <sodipodi:namedview
     id="namedview2"
     pagecolor="#ffffff"
     bordercolor="#000000"
     borderopacity="0.25"
     inkscape:showpageshadow="2"
     inkscape:pageopacity="0.0"
     inkscape:pagecheckerboard="0"
     inkscape:deskcolor="#d1d1d1"
     inkscape:zoom="48.625"
     inkscape:cx="12"
     inkscape:cy="12"
     inkscape:window-width="3440"
     inkscape:window-height="1369"
     inkscape:window-x="-8"
     inkscape:window-y="-8"
     inkscape:window-maximized="1"
     inkscape:current-layer="svg2" />
  <path
     style="baseline-shift:baseline;display:inline;overflow:visible;vector-effect:none;fill:#720806;stroke-linecap:round;stroke-linejoin:round;enable-background:accumulate;stop-color:#000000;stop-opacity:1;opacity:1"
     d="M 12,1 C 9.6134389,1 7.3242744,1.9491519 5.6367187,3.6367188 3.9491519,5.3242744 3,7.6134389 3,10 c 0,2.866284 1.5230369,5.562821 3.2070312,7.775391 1.6839944,2.212569 3.5766265,3.950243 4.5390628,4.78125 a 1.0001,1.0001 0 0 0 0.05273,0.04102 C 11.145125,22.858028 11.56641,23 12,23 c 0.43359,0 0.854875,-0.141972 1.201172,-0.402344 a 1.0001,1.0001 0 0 0 0.05273,-0.04102 c 0.962436,-0.831007 2.855068,-2.568681 4.539063,-4.78125 C 19.476963,15.562821 21,12.866284 21,10 21,7.6134232 20.050725,5.3242639 18.363281,3.6367188 16.675706,1.9491436 14.386535,1 12,1 Z m 0,2 c 1.856865,0 3.636194,0.7377564 4.949219,2.0507812 C 18.262175,6.3638161 19,8.1431168 19,10 19,12.126716 17.753631,14.527272 16.203125,16.564453 14.671685,18.576584 12.908437,20.201254 12,20.988281 11.091563,20.201254 9.3283149,18.576584 7.796875,16.564453 6.2463693,14.527272 5,12.126716 5,10 5,8.1431011 5.7377481,6.3638056 7.0507812,5.0507812 8.3638056,3.7377481 10.143101,3 12,3 Z"
     id="path1" />
  <path
     style="baseline-shift:baseline;display:inline;overflow:visible;vector-effect:none;fill:#720806;stroke-linecap:round;stroke-linejoin:round;enable-background:accumulate;stop-color:#000000;stop-opacity:1;opacity:1"
     d="m 12,6 c -2.1973269,0 -4,1.8027269 -4,4 0,2.197307 1.8026932,4 4,4 2.197307,0 4,-1.802693 4,-4 0,-2.1972731 -1.802673,-4 -4,-4 z m 0,2 c 1.116473,0 2,0.8835731 2,2 0,1.116493 -0.883507,2 -2,2 -1.116493,0 -2,-0.883507 -2,-2 0,-1.1164269 0.883527,-2 2,-2 z"
     id="path2" />
</svg>
