<?xml version="1.0" encoding="UTF-8" standalone="no"?>
<svg
   width="24"
   height="24"
   viewBox="0 0 24 24"
   fill="none"
   version="1.1"
   id="svg6"
   sodipodi:docname="location.svg"
   inkscape:version="1.1.1 (3bf5ae0d25, 2021-09-20)"
   xmlns:inkscape="http://www.inkscape.org/namespaces/inkscape"
   xmlns:sodipodi="http://sodipodi.sourceforge.net/DTD/sodipodi-0.dtd"
   xmlns="http://www.w3.org/2000/svg"
   xmlns:svg="http://www.w3.org/2000/svg">
  <defs
     id="defs10" />
  <sodipodi:namedview
     id="namedview8"
     pagecolor="#ffffff"
     bordercolor="#666666"
     borderopacity="1.0"
     inkscape:pageshadow="2"
     inkscape:pageopacity="0.0"
     inkscape:pagecheckerboard="0"
     showgrid="false"
     inkscape:zoom="34.333333"
     inkscape:cx="11.985437"
     inkscape:cy="12.014563"
     inkscape:window-width="1920"
     inkscape:window-height="1009"
     inkscape:window-x="-8"
     inkscape:window-y="-8"
     inkscape:window-maximized="1"
     inkscape:current-layer="svg6" />
  <path
     style="color:#000000;fill:#720806;stroke-linecap:round;stroke-linejoin:round;-inkscape-stroke:none"
     d="M 12,1 C 9.6134413,1 7.3242727,1.9491535 5.6367187,3.6367188 3.9491535,5.3242727 3,7.6134413 3,10 c 0,2.866281 1.5230386,5.562824 3.2070312,7.775391 1.6839927,2.212567 3.5766274,3.950244 4.5390628,4.78125 a 1.0001,1.0001 0 0 0 0.05273,0.04102 C 11.145124,22.858028 11.566411,23 12,23 c 0.433589,0 0.854876,-0.141972 1.201172,-0.402344 a 1.0001,1.0001 0 0 0 0.05273,-0.04102 c 0.962435,-0.831006 2.85507,-2.568683 4.539063,-4.78125 C 19.476961,15.562824 21,12.866281 21,10 21,7.6134256 20.050724,5.3242623 18.363281,3.6367188 16.675708,1.9491453 14.386532,1 12,1 Z m 0,2 c 1.856863,0 3.636195,0.7377577 4.949219,2.0507812 C 18.262173,6.3638147 19,8.1431186 19,10 19,12.126714 17.753629,14.527274 16.203125,16.564453 14.671687,18.576582 12.908436,20.201254 12,20.988281 11.091564,20.201254 9.3283134,18.576582 7.796875,16.564453 6.2463709,14.527274 5,12.126714 5,10 5,8.1431029 5.7377495,6.3638043 7.0507812,5.0507812 8.3638043,3.7377495 10.143103,3 12,3 Z"
     id="path2" />
  <path
     style="color:#000000;fill:#720806;stroke-linecap:round;stroke-linejoin:round;-inkscape-stroke:none"
     d="m 12,6 c -2.1973247,0 -4,1.8027291 -4,4 0,2.197305 1.8026954,4 4,4 2.197305,0 4,-1.802695 4,-4 0,-2.1972709 -1.802675,-4 -4,-4 z m 0,2 c 1.116472,0 2,0.8835742 2,2 0,1.116492 -0.883508,2 -2,2 -1.116492,0 -2,-0.883508 -2,-2 0,-1.1164258 0.883528,-2 2,-2 z"
     id="path4" />
</svg>
