<svg width="40" height="40" viewBox="0 0 40 40" fill="none" xmlns="http://www.w3.org/2000/svg">
<path d="M25.0003 19.1667C25.2213 19.1667 25.4333 19.2545 25.5896 19.4108C25.7459 19.567 25.8337 19.779 25.8337 20C25.8337 20.221 25.7459 20.433 25.5896 20.5893C25.4333 20.7456 25.2213 20.8334 25.0003 20.8334H15.0003C14.7793 20.8334 14.5673 20.7456 14.4111 20.5893C14.2548 20.433 14.167 20.221 14.167 20C14.167 19.779 14.2548 19.567 14.4111 19.4108C14.5673 19.2545 14.7793 19.1667 15.0003 19.1667H25.0003Z" fill="#E4E4E4" fill-opacity="0.8"/>
<path d="M20 36.5567C16.7258 36.557 13.5249 35.5864 10.8023 33.7676C8.07965 31.9488 5.95749 29.3634 4.70418 26.3385C3.45087 23.3136 3.12269 19.985 3.76114 16.7736C4.3996 13.5622 5.97601 10.6122 8.29104 8.29669C10.6061 5.9812 13.5557 4.40419 16.767 3.76509C19.9783 3.12599 23.307 3.4535 26.3322 4.7062C29.3573 5.9589 31.9431 8.08054 33.7624 10.8028C35.5818 13.5251 36.553 16.7257 36.5534 20C36.5485 24.389 34.8031 28.597 31.6999 31.7008C28.5966 34.8046 24.3891 36.5509 20 36.5567ZM20 5.11333C17.0553 5.113 14.1765 5.98595 11.7279 7.62177C9.27926 9.2576 7.37073 11.5828 6.24366 14.3034C5.11659 17.0239 4.82161 20.0176 5.39603 22.9058C5.97044 25.794 7.38845 28.447 9.47073 30.5293C11.553 32.6116 14.206 34.0296 17.0942 34.604C19.9824 35.1784 22.9761 34.8834 25.6967 33.7564C28.4172 32.6293 30.7424 30.7208 32.3783 28.2721C34.0141 25.8235 34.887 22.9448 34.8867 20C34.8814 16.0534 33.3113 12.27 30.5206 9.47938C27.73 6.68873 23.9466 5.11862 20 5.11333Z" fill="#E4E4E4" fill-opacity="0.8"/>
</svg>
