<svg width="37" height="37" viewBox="0 0 37 37" fill="none" xmlns="http://www.w3.org/2000/svg">
<path d="M18.5 0C28.7175 0 37 8.28247 37 18.5C37 28.7175 28.7175 37 18.5 37C8.28247 37 0 28.7175 0 18.5C1.28852e-06 8.28247 8.28247 1.28844e-06 18.5 0ZM15.5 11.5723C15.1906 11.3937 14.8094 11.3937 14.5 11.5723C14.1907 11.7509 14 12.0813 14 12.4385V24.5625C14.0002 24.9196 14.1907 25.2502 14.5 25.4287C14.8092 25.6071 15.1908 25.6071 15.5 25.4287L26 19.3662C26.3092 19.1876 26.4998 18.857 26.5 18.5C26.4998 18.1431 26.3091 17.8134 26 17.6348L15.5 11.5723Z" fill="black"/>
</svg>
