<?xml version="1.0" encoding="UTF-8" standalone="no"?>
<svg
   width="28"
   height="31"
   viewBox="0 0 28 31"
   fill="none"
   version="1.1"
   id="svg1"
   sodipodi:docname="plus-circle.svg"
   inkscape:version="1.4.3 (0d15f75, 2025-12-25)"
   xmlns:inkscape="http://www.inkscape.org/namespaces/inkscape"
   xmlns:sodipodi="http://sodipodi.sourceforge.net/DTD/sodipodi-0.dtd"
   xmlns="http://www.w3.org/2000/svg"
   xmlns:svg="http://www.w3.org/2000/svg">
  <defs
     id="defs1" />
  <sodipodi:namedview
     id="namedview1"
     pagecolor="#ffffff"
     bordercolor="#000000"
     borderopacity="0.25"
     inkscape:showpageshadow="2"
     inkscape:pageopacity="0.0"
     inkscape:pagecheckerboard="0"
     inkscape:deskcolor="#d1d1d1"
     inkscape:zoom="37.645161"
     inkscape:cx="13.999143"
     inkscape:cy="15.5"
     inkscape:window-width="3440"
     inkscape:window-height="1369"
     inkscape:window-x="-8"
     inkscape:window-y="-8"
     inkscape:window-maximized="1"
     inkscape:current-layer="svg1" />
  <path
     style="baseline-shift:baseline;display:inline;overflow:visible;vector-effect:none;fill:#e4e4e4;fill-opacity:0.8;enable-background:accumulate;stop-color:#000000;stop-opacity:1;opacity:1"
     d="M 14,0 C 6.2739358,0 0,6.2739358 0,14 0,21.726064 6.2739358,28 14,28 21.726064,28 28,21.726064 28,14 28,6.2739358 21.726064,0 14,0 Z m 0,1 C 21.185624,1 27,6.8143759 27,14 27,21.185624 21.185624,27 14,27 6.8143759,27 1,21.185624 1,14 1,6.8143759 6.8143759,1 14,1 Z"
     id="circle1" />
  <path
     d="M10.91 13.99V12.87H17.7V13.99H10.91ZM13.71 10H14.9V16.86H13.71V10Z"
     fill="#E4E4E4"
     fill-opacity="0.8"
     id="path1" />
</svg>
