<?xml version="1.0" encoding="UTF-8" standalone="no"?>
<svg
   width="46"
   height="45"
   viewBox="0 0 46 45"
   fill="none"
   version="1.1"
   id="svg2"
   sodipodi:docname="plus.svg"
   inkscape:version="1.4.2 (f4327f4, 2025-05-13)"
   xmlns:inkscape="http://www.inkscape.org/namespaces/inkscape"
   xmlns:sodipodi="http://sodipodi.sourceforge.net/DTD/sodipodi-0.dtd"
   xmlns="http://www.w3.org/2000/svg"
   xmlns:svg="http://www.w3.org/2000/svg">
  <defs
     id="defs2" />
  <sodipodi:namedview
     id="namedview2"
     pagecolor="#ffffff"
     bordercolor="#000000"
     borderopacity="0.25"
     inkscape:showpageshadow="2"
     inkscape:pageopacity="0.0"
     inkscape:pagecheckerboard="0"
     inkscape:deskcolor="#d1d1d1"
     inkscape:zoom="25.933333"
     inkscape:cx="23.001285"
     inkscape:cy="22.5"
     inkscape:window-width="3440"
     inkscape:window-height="1369"
     inkscape:window-x="-8"
     inkscape:window-y="-8"
     inkscape:window-maximized="1"
     inkscape:current-layer="svg2" />
  <path
     style="baseline-shift:baseline;display:inline;overflow:visible;vector-effect:none;fill:#e4e4e4;stroke-linecap:round;stroke-linejoin:round;enable-background:accumulate;stop-color:#000000;stop-opacity:1;opacity:1"
     d="m 23,8.65625 a 0.25,0.25 0 0 0 -0.25,0.25 V 22.25 H 9.1035156 a 0.25,0.25 0 0 0 -0.25,0.25 0.25,0.25 0 0 0 0.25,0.25 H 22.75 v 13.34375 a 0.25,0.25 0 0 0 0.25,0.25 0.25,0.25 0 0 0 0.25,-0.25 V 22.75 h 13.646484 a 0.25,0.25 0 0 0 0.25,-0.25 0.25,0.25 0 0 0 -0.25,-0.25 H 23.25 V 8.90625 A 0.25,0.25 0 0 0 23,8.65625 Z M 39.984375,33.5625 a 0.25,0.25 0 0 0 -0.160156,0.314453 l 2.326172,7.21875 -7.617188,-2.089844 a 0.25,0.25 0 0 0 -0.306641,0.173828 0.25,0.25 0 0 0 0.173829,0.308594 l 8.0625,2.210938 a 0.250025,0.250025 0 0 0 0.304687,-0.316407 l -2.46875,-7.660156 A 0.25,0.25 0 0 0 39.984375,33.5625 Z"
     id="path1" />
  <path
     style="baseline-shift:baseline;display:inline;overflow:visible;vector-effect:none;fill:#e4e4e4;stroke-linecap:round;stroke-linejoin:round;enable-background:accumulate;stop-color:#000000;stop-opacity:1;opacity:1"
     d="M 22.044922,2.1152344 C 16.868257,2.3472331 11.965533,4.4577843 8.2910156,8.0351563 4.6165188,11.612568 2.4341241,16.401793 2.171875,21.46875 1.9096258,26.535707 3.5844875,31.516983 6.8710937,35.439453 10.157741,39.361923 14.819064,41.94519 19.945312,42.6875 25.07166,43.42981 30.297245,42.277311 34.603516,39.455078 a 0.25,0.25 0 0 0 0.07227,-0.345703 0.25,0.25 0 0 0 -0.345703,-0.07227 c -4.203329,2.754767 -9.306448,3.879188 -14.3125,3.154297 C 15.011627,41.466516 10.462453,38.944117 7.2558594,35.117187 4.0493056,31.290258 2.414231,26.434383 2.6699219,21.494141 2.9256127,16.553897 5.0530887,11.883426 8.6386719,8.3925781 12.224275,4.9017701 17.011071,2.8417956 22.066406,2.6152344 c 5.055336,-0.2265613 10.015039,1.397027 13.91211,4.5527343 3.897169,3.1557073 6.453498,7.6168913 7.169921,12.5136723 0.716325,4.896777 -0.457767,9.879109 -3.292968,13.976562 a 0.25,0.25 0 0 0 0.06445,0.347656 0.25,0.25 0 0 0 0.347656,-0.06445 c 2.906399,-4.200347 4.109675,-9.309809 3.375,-14.332031 -0.734776,-5.022219 -3.354425,-9.596585 -7.347656,-12.8300781 -3.99313,-3.2334927 -9.073336,-4.8960613 -14.25,-4.6640625 z"
     id="path2" />
</svg>
