<svg width="9" height="10" viewBox="0 0 9 10" fill="none" xmlns="http://www.w3.org/2000/svg">
<path d="M2.1 0.199999H3.29V10H2.1V0.199999ZM2.688 1.32V0.199999H4.83C5.46467 0.199999 6.048 0.293333 6.58 0.48C7.12133 0.666666 7.55533 0.97 7.882 1.39C8.20867 1.81 8.372 2.37 8.372 3.07C8.372 3.76067 8.20867 4.32067 7.882 4.75C7.55533 5.17 7.12133 5.47333 6.58 5.66C6.048 5.84667 5.46467 5.94 4.83 5.94H2.688V4.82H4.83C5.32467 4.82 5.74933 4.75933 6.104 4.638C6.468 4.50733 6.748 4.316 6.944 4.064C7.14933 3.80267 7.252 3.47133 7.252 3.07C7.252 2.66867 7.14933 2.342 6.944 2.09C6.748 1.82867 6.468 1.63733 6.104 1.516C5.74933 1.38533 5.32467 1.32 4.83 1.32H2.688ZM3.08 8.53V7.48H5.88V8.53H3.08ZM0.42 5.94V4.89H3.22V5.94H0.42ZM0.42 8.53V7.48H3.22V8.53H0.42Z" fill="#D8D3BF"/>
</svg>
