<?xml version="1.0" encoding="UTF-8" standalone="no"?>
<svg
   width="16"
   height="16"
   viewBox="0 0 16 16"
   fill="none"
   version="1.1"
   id="svg12"
   sodipodi:docname="shopping-bag.svg"
   inkscape:version="1.1.1 (3bf5ae0d25, 2021-09-20)"
   xmlns:inkscape="http://www.inkscape.org/namespaces/inkscape"
   xmlns:sodipodi="http://sodipodi.sourceforge.net/DTD/sodipodi-0.dtd"
   xmlns="http://www.w3.org/2000/svg"
   xmlns:svg="http://www.w3.org/2000/svg">
  <defs
     id="defs16" />
  <sodipodi:namedview
     id="namedview14"
     pagecolor="#ffffff"
     bordercolor="#666666"
     borderopacity="1.0"
     inkscape:pageshadow="2"
     inkscape:pageopacity="0.0"
     inkscape:pagecheckerboard="0"
     showgrid="false"
     inkscape:zoom="51.5"
     inkscape:cx="7.9902913"
     inkscape:cy="7.9902913"
     inkscape:window-width="1920"
     inkscape:window-height="1009"
     inkscape:window-x="-8"
     inkscape:window-y="-8"
     inkscape:window-maximized="1"
     inkscape:current-layer="svg12" />
  <path
     style="color:#000000;fill:#e4e4e4;stroke-linecap:round;-inkscape-stroke:none"
     d="M 0.5,0 A 0.5,0.5 0 0 0 0,0.5 0.5,0.5 0 0 0 0.5,1 h 1.4160156 c 0.3162347,0 0.5428737,0.0015 0.6835938,0.017578 0.1407201,0.01608 0.1770736,0.036119 0.2109375,0.060547 0.033989,0.024519 0.061354,0.051273 0.1210937,0.1796875 0.05974,0.128415 0.1344153,0.3426988 0.234375,0.6425781 l 0.4941407,1.484375 A 0.5,0.5 0 0 0 4.2929687,3.7011719 0.5,0.5 0 0 0 4.609375,3.0683594 L 4.1152344,1.5859375 C 4.0152743,1.2860574 3.9395839,1.0503364 3.8398438,0.8359375 3.7401036,0.6215386 3.5986221,0.41285275 3.3945313,0.265625 3.1903054,0.11830516 2.9479252,0.0522477 2.7128906,0.02539063 2.4778561,-0.00146645 2.2322503,0 1.9160156,0 Z"
     id="path2" />
  <path
     style="color:#000000;fill:#e4e4e4;stroke-linecap:round;stroke-linejoin:round;-inkscape-stroke:none"
     d="m 5.5996094,9.0878906 c -0.1472099,0 -0.2305015,-3.501e-4 -0.3222657,0.00586 a 0.50005,0.50005 0 0 0 -0.00391,0 C 4.8465218,9.1253441 4.4371191,9.2750545 4.0898437,9.5253906 3.7425081,9.7757156 3.4715615,10.116725 3.3066406,10.511719 c -0.037755,0.09003 -0.06302,0.167465 -0.109375,0.304687 -0.031863,0.08943 -0.058203,0.18173 -0.082031,0.273438 a 0.50005,0.50005 0 0 0 -0.00586,0.01953 c -0.041151,0.192431 -0.042397,0.393335 -0.00195,0.585938 0.04054,0.191993 0.121618,0.374033 0.2363281,0.533203 0.1147861,0.159274 0.2621525,0.293388 0.4316406,0.392578 0.1701302,0.09948 0.3593151,0.16176 0.5546875,0.183594 a 0.50005,0.50005 0 0 0 0.00195,0 c 0.097042,0.01049 0.1709746,0.0098 0.3027344,0.0098 h 8.5878904 a 0.5,0.5 0 0 0 0.5,-0.5 0.5,0.5 0 0 0 -0.5,-0.5 H 4.6347656 c -0.1304428,0 -0.1875971,-0.0034 -0.1933594,-0.0039 h -0.00195 c -0.05629,-0.0066 -0.1096338,-0.02433 -0.1582031,-0.05273 -0.049218,-0.02874 -0.093564,-0.06695 -0.1269531,-0.113282 -0.033398,-0.04634 -0.05662,-0.100296 -0.068359,-0.15625 -0.011717,-0.0558 -0.010016,-0.112 0.00195,-0.167968 0.0159,-0.05897 0.034035,-0.116456 0.054687,-0.173829 a 0.50005,0.50005 0 0 0 0.00391,-0.0098 c 0.047901,-0.141798 0.067436,-0.203564 0.082031,-0.238281 a 0.50005,0.50005 0 0 0 0.00195,-0.002 c 0.093779,-0.224605 0.2479288,-0.418292 0.4453125,-0.560546 0.196958,-0.141979 0.427831,-0.227833 0.6699219,-0.246094 0.042716,-0.0029 0.1066964,-0.002 0.2539063,-0.002 h 4.8964846 a 0.5,0.5 0 0 0 0.5,-0.5000004 0.5,0.5 0 0 0 -0.5,-0.5 z"
     id="path4" />
  <path
     style="color:#000000;fill:#e4e4e4;stroke-linecap:round;-inkscape-stroke:none"
     d="m 6.453125,2.7265625 c -0.9332491,0 -1.6425097,-0.00408 -2.2246094,0.082031 C 3.646416,2.8947083 3.1302786,3.1088216 2.8300781,3.5625 h -0.00195 v 0.00195 C 2.5293769,4.0186284 2.535523,4.5776935 2.6855469,5.1464844 2.8355708,5.7152753 3.1182941,6.3639118 3.4863281,7.2226562 l 0.1542969,0.359375 c 0.4579983,1.068646 0.7073611,1.7154585 1.3261719,2.1230469 0.618072,0.4079309 1.3114505,0.3828129 2.4746093,0.3828129 h 2.7636718 c 1.028699,0 1.641366,0.01893 2.216797,-0.3144535 0.575919,-0.3337308 0.862377,-0.8763134 1.373047,-1.7695312 l 0.257812,-0.4511719 h -0.002 C 14.56925,6.6458022 14.96715,5.9614555 15.201172,5.3613281 15.435194,4.7612007 15.503805,4.1596376 15.210938,3.6542969 14.917456,3.1491726 14.361848,2.9110047 13.724609,2.8164063 13.087371,2.7218078 12.295049,2.7265625 11.25,2.7265625 Z m 0,1 H 11.25 c 1.045049,0 1.820236,0.00302 2.326172,0.078125 0.505935,0.075106 0.668613,0.1778674 0.769531,0.3515625 0.100533,0.1734686 0.109631,0.3653229 -0.07617,0.8417969 -0.185802,0.476474 -0.567507,1.1517277 -1.085937,2.0585937 L 12.925781,7.5078125 C 12.415052,8.4011329 12.190802,8.7512344 11.919922,8.9082031 11.648354,9.0655395 11.233777,9.0878906 10.205078,9.0878906 H 7.4414062 c -1.1631588,0 -1.633181,-0.026921 -1.9238281,-0.21875 C 5.2258498,8.6769896 5.0165946,8.2561519 4.5585937,7.1875 L 4.40625,6.8300781 C 4.0382248,5.9713543 3.7690271,5.3330106 3.6523438,4.890625 3.5359535,4.4493507 3.5600104,4.2741242 3.6640625,4.1152344 3.7691416,3.9564334 3.9220707,3.8638803 4.375,3.796875 4.8279293,3.7298697 5.5198759,3.7265625 6.453125,3.7265625 Z"
     id="path6" />
  <g
     id="path8">
    <path
       style="color:#000000;fill:#000000;-inkscape-stroke:none"
       d="m 12.7688,14.1761 c 0.2255,3e-4 0.4082,0.1837 0.4082,0.4092 -2e-4,0.2254 -0.1828,0.408 -0.4082,0.4082 -0.2256,0 -0.4089,-0.1827 -0.4092,-0.4082 0,-0.2257 0.1835,-0.4092 0.4092,-0.4092 z"
       id="path859" />
    <path
       style="color:#000000;fill:#e4e4e4;-inkscape-stroke:none"
       d="m 12.769531,13.675781 c -0.496708,0 -0.910156,0.413448 -0.910156,0.910157 6.6e-4,0.496092 0.41461,0.908203 0.910156,0.908203 0.495198,-4.4e-4 0.907764,-0.413005 0.908203,-0.908203 0,-0.495567 -0.411962,-0.909497 -0.908203,-0.910157 z m -0.002,0.81836 h 0.002 c 0.04435,0 0.08978,0.04475 0.08984,0.08984 v 0.002 c 0,0.04531 -0.04453,0.08984 -0.08984,0.08984 h -0.002 c -0.04524,-6e-5 -0.08984,-0.04528 -0.08984,-0.08984 v -0.002 c 4e-5,-0.0444 0.04545,-0.0898 0.08984,-0.08984 z"
       id="path861" />
  </g>
  <g
     id="path10">
    <path
       style="color:#000000;fill:#000000;-inkscape-stroke:none"
       d="m 5.49951,14.1761 c 0.22552,3e-4 0.4082,0.1837 0.4082,0.4092 -2.4e-4,0.2254 -0.18284,0.408 -0.4082,0.4082 -0.22557,0 -0.40893,-0.1827 -0.40918,-0.4082 0,-0.2257 0.18345,-0.4092 0.40918,-0.4092 z"
       id="path853" />
    <path
       style="color:#000000;fill:#e4e4e4;-inkscape-stroke:none"
       d="m 5.5,13.675781 c -0.4967022,0 -0.9101563,0.413522 -0.9101563,0.910157 5.502e-4,0.496241 0.4146041,0.908203 0.9101563,0.908203 0.4952059,-4.4e-4 0.9076759,-0.413054 0.9082031,-0.908203 0,-0.495537 -0.4119663,-0.909497 -0.9082031,-0.910157 z m 0,0.81836 c 0.044413,0 0.089794,0.0446 0.089844,0.08984 v 0.002 c 0,0.04523 -0.044601,0.08984 -0.089844,0.08984 h -0.00195 c -0.045197,-6e-5 -0.089844,-0.04531 -0.089844,-0.08984 v -0.002 c 4.72e-5,-0.04435 0.047311,-0.0898 0.091797,-0.08984 z"
       id="path855" />
  </g>
</svg>
