<?xml version="1.0" encoding="UTF-8" standalone="no"?>
<svg
   width="22"
   height="22"
   viewBox="0 0 22 22"
   fill="none"
   version="1.1"
   id="svg5"
   sodipodi:docname="shopping-bag.svg"
   inkscape:version="1.4.3 (0d15f75, 2025-12-25)"
   xmlns:inkscape="http://www.inkscape.org/namespaces/inkscape"
   xmlns:sodipodi="http://sodipodi.sourceforge.net/DTD/sodipodi-0.dtd"
   xmlns="http://www.w3.org/2000/svg"
   xmlns:svg="http://www.w3.org/2000/svg">
  <defs
     id="defs5" />
  <sodipodi:namedview
     id="namedview5"
     pagecolor="#ffffff"
     bordercolor="#000000"
     borderopacity="0.25"
     inkscape:showpageshadow="2"
     inkscape:pageopacity="0.0"
     inkscape:pagecheckerboard="0"
     inkscape:deskcolor="#d1d1d1"
     inkscape:zoom="53.045455"
     inkscape:cx="10.990574"
     inkscape:cy="11"
     inkscape:window-width="3440"
     inkscape:window-height="1369"
     inkscape:window-x="-8"
     inkscape:window-y="-8"
     inkscape:window-maximized="1"
     inkscape:current-layer="svg5" />
  <path
     style="baseline-shift:baseline;display:inline;overflow:visible;vector-effect:none;fill:#e4e4e4;stroke-linecap:round;enable-background:accumulate;stop-color:#000000;stop-opacity:1;opacity:1"
     d="M 0.5,0 A 0.5,0.5 0 0 0 0,0.5 0.5,0.5 0 0 0 0.5,1 h 1.984375 c 0.443055,0 0.7644049,0.00265 0.9804688,0.027344 0.2160638,0.024689 0.3070761,0.060279 0.3886718,0.1191407 0.08173,0.058959 0.1446101,0.1329256 0.2363281,0.3300781 0.091718,0.1971525 0.1958929,0.5036941 0.3359375,0.9238281 L 5.1191406,4.4765625 A 0.5,0.5 0 0 0 5.75,4.7929687 0.5,0.5 0 0 0 6.0664062,4.1621094 L 5.375,2.0839844 C 5.2349547,1.6638484 5.1278132,1.337825 4.9960937,1.0546875 4.8643743,0.77155 4.6912829,0.51760286 4.4394531,0.3359375 4.1874888,0.15417589 3.8885037,0.06866961 3.578125,0.03320312 3.2677463,-0.00226336 2.92743,0 2.484375,0 Z"
     id="path1" />
  <path
     style="baseline-shift:baseline;display:inline;overflow:visible;vector-effect:none;fill:#e4e4e4;stroke-linecap:round;stroke-linejoin:round;enable-background:accumulate;stop-color:#000000;stop-opacity:1;opacity:1"
     d="m 7.6445312,12.732422 c -0.20624,0 -0.3186721,-0.0022 -0.4375,0.0059 a 0.50005,0.50005 0 0 0 -0.00391,0.002 c -0.5612253,0.04151 -1.1001734,0.237445 -1.5566406,0.566407 -0.456474,0.329086 -0.8124915,0.777561 -1.0292969,1.296875 -0.048701,0.115817 -0.080921,0.219948 -0.1464844,0.414062 -0.043466,0.121468 -0.080853,0.244282 -0.1132812,0.369141 a 0.50005,0.50005 0 0 0 -0.00586,0.02148 c -0.051813,0.242212 -0.052839,0.491921 -0.00195,0.734375 0.050876,0.242471 0.1520311,0.470904 0.296875,0.671875 0.1448381,0.200982 0.331009,0.369203 0.5449218,0.494141 0.2139328,0.124949 0.4513107,0.204872 0.6972657,0.232422 a 0.50005,0.50005 0 0 0 0.00195,0 c 0.1168361,0.01245 0.2177438,0.0098 0.4023437,0.0098 H 18.324219 a 0.5,0.5 0 0 0 0.5,-0.5 0.5,0.5 0 0 0 -0.5,-0.5 H 6.2929687 c -0.1833776,0 -0.2665881,-0.0012 -0.2929687,-0.0039 h -0.00195 C 5.8911273,16.534638 5.7880019,16.499449 5.6953125,16.445312 5.6020654,16.390851 5.5221263,16.318087 5.4589844,16.230469 5.3958282,16.14284 5.3503092,16.043229 5.328125,15.9375 c -0.022194,-0.105745 -0.020634,-0.214724 0.00195,-0.320312 0.024284,-0.09119 0.051999,-0.180669 0.083984,-0.269532 a 0.50005,0.50005 0 0 0 0.00391,-0.0098 c 0.066837,-0.197886 0.095955,-0.287874 0.1210938,-0.347657 a 0.50005,0.50005 0 0 0 0.00195,-0.002 c 0.1456547,-0.348886 0.3847002,-0.64998 0.6914063,-0.871093 0.3062067,-0.220674 0.6666261,-0.352677 1.0429687,-0.38086 0.069592,-0.0047 0.1629007,-0.0039 0.3691406,-0.0039 h 6.8613278 a 0.5,0.5 0 0 0 0.5,-0.5 0.5,0.5 0 0 0 -0.5,-0.5 z"
     id="path2" />
  <path
     style="baseline-shift:baseline;display:inline;overflow:visible;vector-effect:none;fill:#e4e4e4;stroke-linecap:round;enable-background:accumulate;stop-color:#000000;stop-opacity:1;opacity:1"
     d="m 8.8398438,3.8183594 c -1.307515,0 -2.2982519,-0.00354 -3.0878907,0.1132812 C 4.9623143,4.0484577 4.311158,4.3258585 3.9296875,4.9023437 3.5500412,5.4795133 3.5523553,6.1854864 3.7558594,6.9570312 3.9593635,7.7285761 4.3535165,8.6367191 4.8691406,9.8398438 l 0.2148438,0.5019532 c 0.64166,1.4972 0.9837564,2.358902 1.7851562,2.886719 0.7999265,0.527085 1.7269393,0.501953 3.3554684,0.501953 h 3.871094 c 1.4412,0 2.260633,0.02156 3.005859,-0.410156 0.74586,-0.432078 1.134142,-1.154807 1.84961,-2.40625 L 19.3125,10.28125 C 20.038815,9.0106438 20.590006,8.0523305 20.908203,7.2363281 21.2264,6.4203257 21.309343,5.6609852 20.9375,5.0195312 20.564971,4.3782829 19.8645,4.0719856 18.998047,3.9433594 c -0.866453,-0.1286263 -1.97335,-0.125 -3.4375,-0.125 z m 0,1 h 6.7207032 c 1.46415,0 2.555868,0.0061 3.291015,0.1152343 0.735148,0.1091338 1.040732,0.278099 1.220704,0.5878907 0.179457,0.309576 0.174274,0.6592174 -0.0957,1.3515625 -0.269977,0.6923451 -0.806918,1.6415556 -1.533203,2.9121094 l -0.359375,0.6328127 c -0.715532,1.251556 -1.043634,1.781787 -1.484375,2.037109 -0.441373,0.255689 -1.062706,0.275391 -2.503906,0.275391 h -3.871094 c -1.6295796,0 -2.3337798,-0.02388 -2.8066403,-0.335938 v -0.002 C 6.9436686,12.080195 6.6436131,11.444466 6.0019531,9.9472656 l -0.2148437,-0.5 C 5.2714935,8.2441603 4.8928196,7.3482651 4.7226562,6.703125 4.552758,6.0589901 4.5807832,5.7350145 4.765625,5.453125 c 2.885e-4,-4.399e-4 -2.892e-4,-0.00151 0,-0.00195 C 4.9520078,5.1706733 5.2393377,5.0193804 5.8984375,4.921875 6.5589062,4.824167 7.5323287,4.8183594 8.8398438,4.8183594 Z"
     id="path3" />
  <g
     id="path4"
     style="opacity:1">
    <path
       style="baseline-shift:baseline;display:inline;overflow:visible;vector-effect:none;fill:#000000;enable-background:accumulate;stop-color:#000000;stop-opacity:1"
       d="m 17.6885,19.4601 c 0.4268,2e-4 0.7724,0.3466 0.7724,0.7735 -10e-5,0.4267 -0.3457,0.7723 -0.7724,0.7724 -0.4269,0 -0.7733,-0.3456 -0.7735,-0.7724 0,-0.427 0.3465,-0.7735 0.7735,-0.7735 z"
       id="path8" />
    <path
       style="baseline-shift:baseline;display:inline;overflow:visible;vector-effect:none;fill:#e4e4e4;enable-background:accumulate;stop-color:#000000;stop-opacity:1"
       d="m 17.689453,18.960937 c -0.697492,0 -1.275391,0.575946 -1.275391,1.273438 3.27e-4,0.697214 0.578639,1.271484 1.275391,1.271484 0.696616,-1.63e-4 1.271321,-0.574868 1.271484,-1.271484 0,-0.696752 -0.57427,-1.273111 -1.271484,-1.273438 z m -0.002,1 h 0.002 c 0.155541,9e-4 0.271484,0.116951 0.271484,0.273438 -3.6e-5,0.15622 -0.115559,0.27062 -0.271484,0.271484 -0.15593,0 -0.271725,-0.116782 -0.273437,-0.271484 8.28e-4,-0.155109 0.116375,-0.272609 0.271484,-0.273438 z"
       id="path9" />
  </g>
  <g
     id="path5"
     style="opacity:1">
    <path
       style="baseline-shift:baseline;display:inline;overflow:visible;vector-effect:none;fill:#000000;enable-background:accumulate;stop-color:#000000;stop-opacity:1"
       d="m 7.50391,19.4601 c 0.42685,2e-4 0.77246,0.3466 0.77246,0.7735 -1.6e-4,0.4267 -0.34571,0.7723 -0.77246,0.7724 -0.4269,0 -0.77328,-0.3456 -0.77344,-0.7724 0,-0.427 0.34644,-0.7735 0.77344,-0.7735 z"
       id="path6" />
    <path
       style="baseline-shift:baseline;display:inline;overflow:visible;vector-effect:none;fill:#e4e4e4;enable-background:accumulate;stop-color:#000000;stop-opacity:1"
       d="m 7.5039062,18.960937 c -0.6974918,0 -1.2734375,0.575993 -1.2734375,1.273438 2.614e-4,0.697224 0.5766851,1.271484 1.2734375,1.271484 0.6966341,-1.63e-4 1.2731764,-0.574945 1.2734376,-1.271484 0,-0.69676 -0.5762053,-1.273111 -1.2734376,-1.273438 z m 0,1 c 0.1564678,7.4e-5 0.2734375,0.116398 0.2734375,0.273438 -5.88e-5,0.156861 -0.1165715,0.271448 -0.2734375,0.271484 -0.1570475,0 -0.2733788,-0.115108 -0.2734375,-0.271484 0,-0.156555 0.1169294,-0.273438 0.2734375,-0.273438 z"
       id="path7" />
  </g>
</svg>
