<?xml version="1.0" encoding="UTF-8" standalone="no"?>
<svg
   width="24"
   height="24"
   viewBox="0 0 24 24"
   fill="none"
   version="1.1"
   id="svg4"
   sodipodi:docname="switch.svg"
   inkscape:version="1.1.1 (3bf5ae0d25, 2021-09-20)"
   xmlns:inkscape="http://www.inkscape.org/namespaces/inkscape"
   xmlns:sodipodi="http://sodipodi.sourceforge.net/DTD/sodipodi-0.dtd"
   xmlns="http://www.w3.org/2000/svg"
   xmlns:svg="http://www.w3.org/2000/svg">
  <defs
     id="defs8" />
  <sodipodi:namedview
     id="namedview6"
     pagecolor="#ffffff"
     bordercolor="#666666"
     borderopacity="1.0"
     inkscape:pageshadow="2"
     inkscape:pageopacity="0.0"
     inkscape:pagecheckerboard="0"
     showgrid="false"
     inkscape:zoom="34.333333"
     inkscape:cx="11.985437"
     inkscape:cy="12.014563"
     inkscape:window-width="1920"
     inkscape:window-height="1009"
     inkscape:window-x="-8"
     inkscape:window-y="-8"
     inkscape:window-maximized="1"
     inkscape:current-layer="svg4" />
  <path
     style="color:#000000;fill:#543d2f;stroke-linecap:round;stroke-linejoin:round;-inkscape-stroke:none"
     d="M 7.5546875,4.5 A 0.5,0.5 0 0 0 7.2050781,4.6445312 l -0.00391,0.00391 a 0.5,0.5 0 0 0 -0.00195,0 0.5,0.5 0 0 0 0,0.00195 L 3.6484375,8.1445313 a 0.5,0.5 0 0 0 -0.00391,0.7070312 0.5,0.5 0 0 0 0.7070312,0.00391 L 7.0546875,6.1933594 V 19 a 0.5,0.5 0 0 0 0.5,0.5 0.5,0.5 0 0 0 0.5,-0.5 V 6.1914062 l 2.7050785,2.6640626 a 0.5,0.5 0 0 0 0.707031,-0.00391 0.5,0.5 0 0 0 -0.0059,-0.7070312 l -3.5449224,-3.4902344 -0.00391,-0.00586 a 0.5,0.5 0 0 0 -0.00195,0 A 0.5,0.5 0 0 0 7.90625,4.6445312 0.5,0.5 0 0 0 7.5546875,4.5 Z m 8.8906245,0 A 0.5,0.5 0 0 0 15.945313,5 v 12.808594 l -2.705079,-2.664063 a 0.5,0.5 0 0 0 -0.707031,0.0039 0.5,0.5 0 0 0 0.0059,0.707031 l 3.548828,3.49414 a 0.5,0.5 0 0 0 0,0.002 h 0.002 l 0.002,0.002 a 0.5,0.5 0 0 0 0.0039,0.002 0.5,0.5 0 0 0 0.349609,0.144531 0.5,0.5 0 0 0 0.34961,-0.144531 l 0.0039,-0.0039 a 0.5,0.5 0 0 0 0.002,0 v -0.002 l 0.0039,-0.0039 3.546875,-3.490234 a 0.5,0.5 0 0 0 0.0039,-0.707031 0.5,0.5 0 0 0 -0.707032,-0.0039 l -2.703125,2.66211 V 5 a 0.5,0.5 0 0 0 -0.5,-0.5 z"
     id="path2" />
</svg>
