<svg width="20" height="19" viewBox="0 0 20 19" fill="none" xmlns="http://www.w3.org/2000/svg">
<path d="M10 0C4.48 0 0 4.25781 0 9.50405C0 14.7503 4.48 19.0081 10 19.0081C15.52 19.0081 20 14.7503 20 9.50405C20 4.25781 15.52 0 10 0ZM14.64 6.46275C14.49 7.96439 13.84 11.6139 13.51 13.2962C13.37 14.009 13.09 14.2466 12.83 14.2751C12.25 14.3226 11.81 13.9139 11.25 13.5623C10.37 13.011 9.87 12.6689 9.02 12.1367C8.03 11.5189 8.67 11.1768 9.24 10.6255C9.39 10.483 11.95 8.26852 12 8.06894C12.0069 8.03871 12.006 8.00732 11.9973 7.97751C11.9886 7.9477 11.9724 7.92036 11.95 7.89786C11.89 7.85034 11.81 7.86935 11.74 7.87886C11.65 7.89786 10.25 8.78174 7.52 10.5305C7.12 10.7871 6.76 10.9202 6.44 10.9106C6.08 10.9011 5.4 10.7206 4.89 10.559C4.26 10.3689 3.77 10.2644 3.81 9.93173C3.83 9.76066 4.08 9.58958 4.55 9.40901C7.47 8.20199 9.41 7.40365 10.38 7.02349C13.16 5.92102 13.73 5.73094 14.11 5.73094C14.19 5.73094 14.38 5.74995 14.5 5.84499C14.6 5.92102 14.63 6.02557 14.64 6.1016C14.63 6.15862 14.65 6.3297 14.64 6.46275Z" fill="#E4E4E4"/>
</svg>
