<?xml version="1.0" encoding="UTF-8" standalone="no"?>
<svg
   width="24"
   height="24"
   viewBox="0 0 24 24"
   fill="none"
   version="1.1"
   id="svg6"
   sodipodi:docname="whatsapp.svg"
   inkscape:version="1.1.1 (3bf5ae0d25, 2021-09-20)"
   xmlns:inkscape="http://www.inkscape.org/namespaces/inkscape"
   xmlns:sodipodi="http://sodipodi.sourceforge.net/DTD/sodipodi-0.dtd"
   xmlns="http://www.w3.org/2000/svg"
   xmlns:svg="http://www.w3.org/2000/svg">
  <defs
     id="defs10" />
  <sodipodi:namedview
     id="namedview8"
     pagecolor="#ffffff"
     bordercolor="#666666"
     borderopacity="1.0"
     inkscape:pageshadow="2"
     inkscape:pageopacity="0.0"
     inkscape:pagecheckerboard="0"
     showgrid="false"
     inkscape:lockguides="true"
     inkscape:zoom="34.333333"
     inkscape:cx="11.985437"
     inkscape:cy="12.014563"
     inkscape:window-width="1920"
     inkscape:window-height="1009"
     inkscape:window-x="-8"
     inkscape:window-y="-8"
     inkscape:window-maximized="1"
     inkscape:current-layer="svg6" />
  <path
     style="color:#000000;fill:#543d2f;-inkscape-stroke:none"
     d="M 12.003906,1 C 10.53038,1 9.0965002,1.2703207 7.7441406,1.8105469 6.4391872,2.3317222 5.2621047,3.0710242 4.2480469,4.0273437 3.2355458,4.9821958 2.4333057,6.0956778 1.875,7.3359375 v 0.00195 C 1.2988753,8.6230118 1,10.001224 1,11.414063 c 0,2.376304 0.8928221,4.640899 2.4492188,6.482421 L 2.4550781,23.34375 7.7460937,20.974609 c 1.3487255,0.54094 2.7651543,0.863282 4.2500003,0.863282 1.473526,0 2.907395,-0.270311 4.259765,-0.810547 1.30496,-0.521191 2.482089,-1.260448 3.496094,-2.216797 1.012524,-0.954853 1.814714,-2.068332 2.373047,-3.308594 V 15.5 C 22.70088,14.215491 22.999727,12.83784 23,11.425781 v -0.002 c 0.0088,-1.422324 -0.290383,-2.7946568 -0.865234,-4.0859374 v -0.00195 C 21.576433,6.0956875 20.774243,4.9821983 19.761719,4.0273437 h -0.002 C 18.747563,3.0818018 17.57049,2.3324586 16.263672,1.8105469 14.911821,1.2707959 13.476685,1 12.003906,1 Z m 0,1 c 1.351567,0 2.657605,0.2457311 3.890625,0.7382813 1.19298,0.4764472 2.259045,1.157695 3.181641,2.0195312 0.921294,0.8692981 1.643591,1.8711812 2.146484,2.9882812 h -0.002 C 21.741388,8.9156999 22.008144,10.140345 22,11.419922 v 0.002 0.002 c 0,1.272461 -0.267454,2.508869 -0.787109,3.667969 -0.503266,1.117936 -1.22421,2.120489 -2.146485,2.990234 -0.920593,0.868249 -1.986802,1.54037 -3.18164,2.017578 -1.233028,0.492563 -2.537001,0.738282 -3.888672,0.738282 -1.450933,0 -2.8283442,-0.279492 -4.1269534,-0.837891 L 7.6679687,19.914062 3.7792969,21.654297 4.5097656,17.658203 4.3476562,17.476562 C 2.8256405,15.774648 2,13.639676 2,11.414063 2,10.141504 2.2674552,8.9052501 2.7871094,7.7460937 3.2903427,6.6281758 4.0113368,5.6256055 4.9335937,4.7558594 5.854274,3.8876007 6.9204303,3.2154649 8.1152344,2.7382813 9.3482522,2.2457285 10.652235,2 12.003906,2 Z"
     id="path2" />
  <path
     style="color:#000000;fill:#543d2f;-inkscape-stroke:none"
     d="M 8.3027344,6.4785156 C 7.9644662,6.5324587 7.6621593,6.6835773 7.4375,6.8808594 6.9881813,7.2754236 6.7394988,7.789592 6.5898437,8.1328125 l -0.00195,0.00586 -0.00195,0.00391 c -0.5018263,1.2155158 -0.114562,2.6021929 0.6621094,3.8730469 0.7766713,1.270854 1.9687184,2.471333 3.2871091,3.382813 1.318391,0.911479 2.76101,1.542737 4.101563,1.585937 1.340553,0.0432 2.606816,-0.623109 3.175781,-2.101562 l 0.01367,-0.03516 0.0078,-0.03516 c 0.05758,-0.255727 0.0865,-0.469944 0.05664,-0.689453 -0.02986,-0.219509 -0.134659,-0.41583 -0.238281,-0.554688 l -0.04883,-0.06445 -0.06445,-0.04687 c -0.401445,-0.280308 -0.793369,-0.378916 -1.042968,-0.507812 h -0.002 l -0.002,-0.002 c -0.458876,-0.230624 -0.801889,-0.375334 -1.052734,-0.46875 l -0.002,-0.002 -0.0039,-0.002 c -0.0409,-0.01453 -0.183347,-0.07551 -0.345703,-0.121093 -0.08118,-0.02279 -0.170319,-0.04432 -0.285157,-0.04883 -0.114837,-0.0045 -0.282239,0.0022 -0.455078,0.138671 l -0.0039,0.002 -0.0039,0.0039 c -0.299864,0.246609 -0.479736,0.558096 -0.671875,0.824219 -0.138971,0.192482 -0.216947,0.25589 -0.285156,0.322265 -0.845785,-0.221112 -1.712832,-0.786883 -2.400391,-1.455078 l -0.002,-0.002 v -0.002 c -0.196513,-0.187675 -0.712781,-0.932817 -0.900391,-1.220703 0.01203,-0.02693 -0.0018,0.03113 0.03906,-0.01563 C 10.2079,10.798948 10.327114,10.68104 10.443359,10.5 10.768252,10.11759 10.87388,9.6670332 10.804688,9.3417969 10.734086,9.009939 10.588693,8.7759916 10.603516,8.8300781 l -0.01172,-0.041016 -0.01758,-0.037109 C 10.458955,8.5037373 10.252818,8.0350286 10.068359,7.6464844 l -0.01367,-0.025391 -0.01367,-0.023437 C 10.013296,7.5527593 9.9656729,7.417539 9.8867188,7.2382812 9.8080463,7.059663 9.6688446,6.8042909 9.3808594,6.6582031 9.012677,6.4682181 8.6404073,6.4246674 8.3027344,6.4785156 Z m 0.6210937,1.0683594 0.00195,0.00195 h 0.00391 c -0.016136,-0.00811 -0.00222,-0.01081 0.042969,0.091797 0.045193,0.1026069 0.090417,0.2777291 0.2167968,0.4824219 L 9.1640625,8.0742188 C 9.3391639,8.4430538 9.5434327,8.9036914 9.6679688,9.171875 L 9.6386719,9.09375 c 0.083222,0.3036763 0.1725011,0.3845764 0.1875,0.4550781 0.014999,0.070502 0.048994,0.097279 -0.140625,0.3125 l -0.041016,0.046875 -0.027344,0.054687 c 0.035307,-0.068022 -0.1051276,0.1117704 -0.25,0.2773434 -0.1448724,0.165574 -0.3879987,0.357836 -0.34375,0.802735 l 0.00977,0.101562 0.050781,0.08984 c 0.1973901,0.359677 0.7400992,1.181079 1.2011716,1.623047 6.25e-4,6.07e-4 0.0013,0.0013 0.002,0.002 6.24e-4,5.97e-4 0.0013,0.0014 0.002,0.002 0.805903,0.782543 1.846395,1.57907 3.066406,1.816406 l 0.140625,0.02539 0.132812,-0.05078 c 0.443927,-0.169545 0.639399,-0.50377 0.84961,-0.794922 0.170787,-0.236549 0.305228,-0.405395 0.404297,-0.517578 0.06596,0.02266 0.134874,0.04971 0.214843,0.07813 0.211447,0.07892 0.516534,0.208331 0.945313,0.423828 0.349986,0.179766 0.635077,0.271027 0.847656,0.400391 5.32e-4,0.004 0.0089,0.01145 0.0098,0.01758 0.0037,0.02731 -0.0076,0.136581 -0.03516,0.28125 -0.442263,1.125865 -1.167116,1.476556 -2.197265,1.443359 -1.038024,-0.03345 -2.354194,-0.571481 -3.564453,-1.408203 C 9.8932566,13.73945 8.7853091,12.612943 8.1015625,11.494141 7.4187934,10.376938 7.1875272,9.3125182 7.5097656,8.5273438 7.6345179,8.2426475 7.8532069,7.8457579 8.0957031,7.6328125 8.3397963,7.4184648 8.4971737,7.3261051 8.9238281,7.546875 Z"
     id="path4" />
</svg>
