<svg width="42" height="42" viewBox="0 0 42 42" fill="none" xmlns="http://www.w3.org/2000/svg">
<path d="M38.8512 9.73085C32.5784 -0.00398159 19.7326 -2.88837 9.79816 3.15082C0.10379 9.19002 -3.01762 22.3501 3.25521 32.0549L3.76544 32.836L1.66449 40.708L9.52803 38.6048L10.3084 39.1156C13.6999 40.9484 17.3916 42 21.0532 42C24.985 42 28.9168 40.9484 32.3083 38.8452C42.0027 32.5356 44.884 19.6459 38.8512 9.67076V9.73085ZM33.3588 29.9817C32.3083 31.5441 30.9877 32.5957 29.1569 32.8661C28.1064 32.8661 26.7858 33.3769 21.5635 31.3037C17.1215 29.2005 13.4298 25.7753 10.8186 21.8393C9.25791 20.0065 8.44755 17.6329 8.20744 15.2593C8.20744 13.1561 8.98779 11.3233 10.3084 10.0013C10.8186 9.49048 11.3589 9.22007 11.8691 9.22007H13.1897C13.6999 9.22007 14.2402 9.22007 14.5103 10.2717C15.0205 11.5937 16.3411 14.7485 16.3411 15.0189C16.6112 15.2893 16.4912 17.3024 15.2906 18.4441C14.6303 19.1953 14.5103 19.2253 14.7804 19.7661C15.8309 21.3285 17.1515 22.9209 18.442 24.243C20.0028 25.565 21.5935 26.6166 23.4243 27.3978C23.9345 27.6682 24.4748 27.6682 24.7449 27.1273C25.015 26.6166 26.3056 25.2946 26.8458 24.7537C27.3561 24.243 27.6262 24.243 28.1664 24.4833L32.3683 26.5865C32.8786 26.8569 33.4188 27.0973 33.6889 27.3677C33.959 28.1489 33.959 29.2005 33.4188 29.9817H33.3588Z" fill="#720806"/>
</svg>
