<svg xmlns="http://www.w3.org/2000/svg" width="51" height="51" viewBox="0 0 51 51" fill="none">
    <path
        d="M39.8438 17.5312H23.9062C23.4836 17.5312 23.0782 17.6992 22.7793 17.998C22.4804 18.2969 22.3125 18.7023 22.3125 19.125V25.5C22.3164 27.7577 23.1183 29.9414 24.5765 31.665C26.0347 33.3886 28.0554 34.5412 30.2812 34.9191V44.625H25.5V47.8125H38.25V44.625H33.4688V34.9191C35.6946 34.5412 37.7153 33.3886 39.1735 31.665C40.6317 29.9414 41.4336 27.7577 41.4375 25.5V19.125C41.4375 18.7023 41.2696 18.2969 40.9707 17.998C40.6718 17.6992 40.2664 17.5312 39.8438 17.5312ZM38.25 25.5C38.25 27.1908 37.5783 28.8123 36.3828 30.0078C35.1873 31.2033 33.5658 31.875 31.875 31.875C30.1842 31.875 28.5627 31.2033 27.3672 30.0078C26.1717 28.8123 25.5 27.1908 25.5 25.5V20.7188H38.25V25.5Z"
        fill="#290F0A" />
    <path
        d="M23.9071 1.59375H15.9384C15.5157 1.59375 15.1103 1.76166 14.8114 2.06055C14.5125 2.35943 14.3446 2.76481 14.3446 3.1875V14.9334C12.7959 15.8407 11.5292 17.1597 10.6851 18.7437C9.84105 20.3277 9.45275 22.1148 9.56338 23.9062V46.2188C9.56338 46.6414 9.73129 47.0468 10.0302 47.3457C10.3291 47.6446 10.7344 47.8125 11.1571 47.8125H19.1259V44.625H12.7509V23.9062C12.7509 18.827 16.3065 17.4994 16.442 17.45L17.5321 17.085V4.78125H22.3134V12.75H25.5009V3.1875C25.5009 2.76481 25.333 2.35943 25.0341 2.06055C24.7352 1.76166 24.3298 1.59375 23.9071 1.59375Z"
        fill="#290F0A" />
</svg>