<svg width="55" height="55" viewBox="0 0 55 55" fill="none" xmlns="http://www.w3.org/2000/svg">
<path d="M42.9688 18.9062H25.7812C25.3254 18.9062 24.8882 19.0873 24.5659 19.4097C24.2436 19.732 24.0625 20.1692 24.0625 20.625V27.5C24.0667 29.9348 24.9315 32.2897 26.5041 34.1485C28.0767 36.0073 30.2558 37.2503 32.6562 37.6578V48.125H27.5V51.5625H41.25V48.125H36.0938V37.6578C38.4942 37.2503 40.6733 36.0073 42.2459 34.1485C43.8185 32.2897 44.6833 29.9348 44.6875 27.5V20.625C44.6875 20.1692 44.5064 19.732 44.1841 19.4097C43.8618 19.0873 43.4246 18.9062 42.9688 18.9062ZM41.25 27.5C41.25 29.3234 40.5257 31.072 39.2364 32.3614C37.947 33.6507 36.1984 34.375 34.375 34.375C32.5516 34.375 30.803 33.6507 29.5136 32.3614C28.2243 31.072 27.5 29.3234 27.5 27.5V22.3438H41.25V27.5Z" fill="#E4E4E4" fill-opacity="0.8"/>
<path d="M25.7816 1.71875H17.1879C16.732 1.71875 16.2949 1.89983 15.9725 2.22216C15.6502 2.54449 15.4691 2.98166 15.4691 3.4375V16.1047C13.799 17.0831 12.4329 18.5055 11.5226 20.2138C10.6123 21.9221 10.1936 23.8493 10.3129 25.7812V49.8438C10.3129 50.2996 10.494 50.7368 10.8163 51.0591C11.1386 51.3814 11.5758 51.5625 12.0316 51.5625H20.6254V48.125H13.7504V25.7812C13.7504 20.3036 17.5849 18.8719 17.731 18.8186L18.9066 18.425V5.15625H24.0629V13.75H27.5004V3.4375C27.5004 2.98166 27.3193 2.54449 26.997 2.22216C26.6746 1.89983 26.2375 1.71875 25.7816 1.71875Z" fill="#E4E4E4" fill-opacity="0.8"/>
</svg>
