<svg xmlns="http://www.w3.org/2000/svg" width="43" height="43" viewBox="0 0 43 43" fill="none">
    <path
        d="M19.3861 13.4294C19.3861 15.0082 18.7589 16.5223 17.6426 17.6386C16.5262 18.755 15.0121 19.3822 13.4333 19.3822C11.8545 19.3822 10.3404 18.755 9.22401 17.6386C8.10764 16.5223 7.48047 15.0082 7.48047 13.4294C7.48047 11.8506 8.10764 10.3365 9.22401 9.2201C10.3404 8.10373 11.8545 7.47656 13.4333 7.47656C15.0121 7.47656 16.5262 8.10373 17.6426 9.2201C18.7589 10.3365 19.3861 11.8506 19.3861 13.4294Z"
        fill="#290F0A" />
    <path
        d="M34.9023 8.08438C26.6974 -0.105772 13.9613 -1.05043 6.44978 6.44501C-1.06313 13.9458 -0.101003 26.6819 8.10259 34.8855C16.3062 43.0891 29.0422 44.0512 36.5552 36.5383C44.0681 29.0254 43.1059 16.288 34.9023 8.08438ZM8.34984 8.34776C14.5983 2.11142 25.6197 2.61667 33.0023 9.98713C40.3862 17.3697 40.9035 28.3911 34.6551 34.6382C28.4067 40.8867 17.3879 40.3693 10.0027 32.9854C2.61875 25.6015 2.10409 14.5814 8.34984 8.34776Z"
        fill="#290F0A" />
</svg>