<svg width="59" height="59" viewBox="0 0 59 59" fill="none" xmlns="http://www.w3.org/2000/svg">
<path d="M29.5002 50.2065C28.4415 50.2065 27.5467 49.8411 26.8157 49.1101C26.0848 48.3792 25.7193 47.4843 25.7193 46.4256C25.7193 45.3669 26.0848 44.4712 26.8157 43.7387C27.5467 43.0061 28.4415 42.6406 29.5002 42.6422C30.5589 42.6439 31.4538 43.0094 32.1847 43.7387C32.9157 44.468 33.2811 45.3628 33.2811 46.4232C33.2811 47.4835 32.9157 48.3792 32.1847 49.1101C31.4538 49.8411 30.5589 50.2065 29.5002 50.2065ZM29.5002 28.3667C32.3847 28.3667 35.0995 28.8584 37.6447 29.8417C40.1899 30.825 42.4786 32.1927 44.5108 33.9447C44.9205 34.2757 45.1352 34.6912 45.1549 35.191C45.1762 35.6893 45.0074 36.1186 44.6485 36.4792C44.2977 36.8283 43.8708 36.9971 43.3677 36.9856C42.8645 36.9741 42.4073 36.8078 41.9959 36.4866C40.3128 35.0755 38.4027 33.9676 36.2656 33.1629C34.1284 32.3599 31.8733 31.9583 29.5002 31.9583C27.1271 31.9583 24.872 32.3599 22.7349 33.1629C20.5978 33.966 18.6885 35.0739 17.007 36.4866C16.5972 36.8078 16.1392 36.9717 15.6328 36.9782C15.1296 36.9848 14.7035 36.8127 14.3544 36.462C14.0037 36.1031 13.8357 35.6745 13.8505 35.1763C13.8652 34.6781 14.0783 34.2626 14.4896 33.9299C16.5219 32.1763 18.8114 30.8111 21.3582 29.8343C23.9018 28.8559 26.6158 28.3667 29.5002 28.3667ZM29.5002 13.6167C34.4956 13.6167 39.1467 14.4796 43.4537 16.2053C47.7607 17.9327 51.5908 20.3337 54.944 23.4082C55.3537 23.7557 55.5717 24.19 55.5979 24.7112C55.6225 25.2307 55.4553 25.6707 55.0964 26.0313C54.7145 26.4115 54.2638 26.5721 53.7443 26.5131C53.2231 26.4558 52.7421 26.2411 52.3013 25.869C49.2562 23.137 45.79 21.0105 41.9025 19.4897C38.0151 17.9688 33.881 17.2083 29.5002 17.2083C25.1195 17.2083 20.9854 17.9688 17.0979 19.4897C13.2105 21.0105 9.74423 23.137 6.69918 25.869C6.25668 26.2411 5.77648 26.4566 5.25859 26.5156C4.73743 26.5729 4.28673 26.4115 3.90651 26.0313C3.54595 25.6707 3.37879 25.2307 3.40501 24.7112C3.42959 24.1916 3.64675 23.7573 4.05647 23.4082C7.40964 20.3337 11.2397 17.9327 15.5467 16.2053C19.8537 14.4812 24.5049 13.6167 29.5002 13.6167Z" fill="#E4E4E4"/>
</svg>
