<svg width="36" height="36" viewBox="0 0 36 36" fill="none" xmlns="http://www.w3.org/2000/svg">
<path d="M18 9V31.5M18 9C18 6.51473 15.9854 4.5 13.5 4.5C11.0147 4.5 9 6.51473 9 9C9 11.4853 11.0147 13.5 13.5 13.5M18 9C18 6.51473 20.0146 4.5 22.5 4.5C24.9854 4.5 27 6.51473 27 9C27 11.4853 24.9854 13.5 22.5 13.5M7.5 19.5H28.5V30C28.5 30.8284 27.8284 31.5 27 31.5H9C8.17158 31.5 7.5 30.8284 7.5 30V19.5ZM4.5 13.5H31.5V19.5H4.5V13.5Z" stroke="white" stroke-linecap="round" stroke-linejoin="round"/>
</svg>
