<svg width="32" height="26" viewBox="0 0 32 26" fill="none" xmlns="http://www.w3.org/2000/svg">
    <path
        d="M16 1V25M1 13H31M7.34615 20.6364C9.33528 20.6364 11.2429 19.8893 12.6495 18.5595C14.056 17.2297 14.8462 15.4261 14.8462 13.5455V13M24.6538 20.6364C22.6647 20.6364 20.7571 19.8893 19.3505 18.5595C17.944 17.2297 17.1538 15.4261 17.1538 13.5455V13M14.1123 6.64364C16.28 8.69309 15.7431 12.8138 15.7431 12.8138C15.7431 12.8138 11.3846 13.32 9.21846 11.2705C8.89703 10.9666 8.64205 10.6059 8.46809 10.2088C8.29413 9.81172 8.20459 9.38615 8.20459 8.95636C8.20459 8.52658 8.29413 8.10101 8.46809 7.70394C8.64205 7.30687 8.89703 6.94608 9.21846 6.64218C9.5399 6.33828 9.9215 6.09721 10.3415 5.93274C10.7614 5.76827 11.2116 5.68362 11.6662 5.68362C12.1207 5.68362 12.5709 5.76827 12.9908 5.93274C13.4108 6.09721 13.7924 6.33828 14.1138 6.64218M3.30769 25H28.6923C29.3043 25 29.8913 24.7701 30.3241 24.361C30.7569 23.9518 31 23.3968 31 22.8182V3.18182C31 2.60316 30.7569 2.04821 30.3241 1.63904C29.8913 1.22987 29.3043 1 28.6923 1H3.30769C2.69565 1 2.10868 1.22987 1.67591 1.63904C1.24313 2.04821 1 2.60316 1 3.18182V22.8182C1 23.3968 1.24313 23.9518 1.67591 24.361C2.10868 24.7701 2.69565 25 3.30769 25ZM22.7246 11.2691C20.5569 13.32 16.1985 12.8124 16.1985 12.8124C16.1985 12.8124 15.6615 8.69164 17.8292 6.64218C18.4784 6.02842 19.3589 5.68362 20.2769 5.68362C21.195 5.68362 22.0754 6.02842 22.7246 6.64218C23.3738 7.25594 23.7385 8.08838 23.7385 8.95636C23.7385 9.82435 23.3738 10.6553 22.7246 11.2691Z"
        stroke="white" stroke-linecap="round" stroke-linejoin="round" />
</svg>
    