<svg xmlns="http://www.w3.org/2000/svg" width="56" height="56" viewBox="0 0 56 56" fill="none">
    <path
        d="M9.33333 51.333L18.6667 46.6663V39.6663H46.6667M25.6667 46.6663H46.6667M18.6667 32.6663L25.6667 27.9997L28 18.6663C35 20.9997 35 27.9997 35 32.6663M7 39.6663C7 40.2852 7.24583 40.8787 7.68342 41.3163C8.121 41.7538 8.71449 41.9997 9.33333 41.9997C9.95217 41.9997 10.5457 41.7538 10.9832 41.3163C11.4208 40.8787 11.6667 40.2852 11.6667 39.6663C11.6667 39.0475 11.4208 38.454 10.9832 38.0164C10.5457 37.5788 9.95217 37.333 9.33333 37.333C8.71449 37.333 8.121 37.5788 7.68342 38.0164C7.24583 38.454 7 39.0475 7 39.6663ZM18.6667 11.6663C18.6667 12.2852 18.9125 12.8787 19.3501 13.3163C19.7877 13.7538 20.3812 13.9997 21 13.9997C21.6188 13.9997 22.2123 13.7538 22.6499 13.3163C23.0875 12.8787 23.3333 12.2852 23.3333 11.6663C23.3333 11.0475 23.0875 10.454 22.6499 10.0164C22.2123 9.57884 21.6188 9.33301 21 9.33301C20.3812 9.33301 19.7877 9.57884 19.3501 10.0164C18.9125 10.454 18.6667 11.0475 18.6667 11.6663Z"
        stroke="#290F0A" stroke-width="3" stroke-linecap="round" stroke-linejoin="round" />
</svg>