<svg width="69" height="69" viewBox="0 0 69 69" fill="none" xmlns="http://www.w3.org/2000/svg">
<path d="M24.1558 35.1411L38.6429 36.685C39.4153 36.7578 40.1513 36.6658 40.8509 36.409C41.5524 36.1502 42.0871 35.6711 42.4551 34.9715L43.4412 33.0251L36.7339 29.4889L31.0989 29.0835L31.3116 26.2804L37.5734 26.6886L53.2939 35.0319C54.624 35.695 56.0088 36.0036 57.4482 35.9576C58.8877 35.9116 60.1507 35.4037 61.2375 34.4339L45.9339 19.9036C45.7499 19.756 45.5563 19.6362 45.3531 19.5442C45.15 19.4522 44.9382 19.4062 44.7178 19.4062H27.5942L22.6464 12.3395L12.3079 17.2327L18.2677 30.9379C18.7622 32.13 19.5385 33.1018 20.5965 33.8531C21.6564 34.6045 22.8428 35.0338 24.1558 35.1411ZM23.897 37.9989C22.0455 37.834 20.3857 37.2303 18.9175 36.1876C17.4493 35.143 16.3626 33.7678 15.6573 32.062L8.625 15.8125L23.6095 8.625L29.1381 16.5312H44.8615C45.4442 16.5312 46.0211 16.6501 46.5922 16.8878C47.1634 17.1254 47.657 17.4532 48.0729 17.871L65.4609 34.3907L64.0148 35.8397C62.4143 37.4382 60.5101 38.3717 58.3021 38.64C56.0941 38.9064 53.9743 38.5087 51.9426 37.4469L46.0374 34.3907L45.103 36.1991C44.5031 37.4105 43.5831 38.3065 42.343 38.8873C41.1068 39.468 39.7919 39.6865 38.3985 39.5427L23.897 37.9989ZM11.4425 57.4827L10.6346 54.7141L23.4054 51.5085C26.819 50.6709 30.2824 49.8937 33.7956 49.1769C37.3089 48.46 40.7991 48.1016 44.2664 48.1016C47.4174 48.1016 50.4093 48.7102 53.2421 49.9272C56.075 51.1424 58.7248 52.7879 61.1915 54.8636L59.2451 56.948C57.0965 55.0697 54.7438 53.6053 52.187 52.555C49.6302 51.5008 47.0082 50.9737 44.321 50.9737C40.8499 50.9737 37.3712 51.3427 33.8848 52.0806C30.3964 52.8147 26.9828 53.5833 23.644 54.3864L11.4425 57.4827Z" fill="#E4E4E4" fill-opacity="0.8"/>
</svg>
