<svg width="52" height="52" viewBox="0 0 52 52" fill="none" xmlns="http://www.w3.org/2000/svg">
<path fill-rule="evenodd" clip-rule="evenodd" d="M25.9622 0.00514509C46.9782 -0.00434365 51.7997 0.0241226 51.8943 0.11901C51.9794 0.213897 52.0077 6.25822 51.9983 25.9568C51.9983 41.2527 51.9699 51.7377 51.9132 51.8421C51.8281 51.9939 50.5046 52.0034 26.0662 52.0034C11.8948 52.0034 0.23816 51.9844 0.162529 51.956C0.0396281 51.918 0.0207191 48.9386 0.00181133 26.0233C-0.00764257 11.7807 0.0207203 0.100032 0.0679898 0.0715662C0.115259 0.0336113 11.7625 0.00514509 25.9622 0.00514509ZM1.268 2.14213V49.8631C1.268 50.4154 1.71571 50.8631 2.268 50.8631H49.8064C50.3587 50.8631 50.8064 50.4154 50.8064 49.8631V2.14213C50.8064 1.58984 50.3587 1.14213 49.8064 1.14213H2.268C1.71571 1.14213 1.268 1.58984 1.268 2.14213Z" fill="#E4C272"/>
<path fill-rule="evenodd" clip-rule="evenodd" d="M2.08009 1.92713C2.05225 2.03967 2.02441 12.8998 2.02441 26.0482C2.02441 45.2081 2.04297 49.9911 2.13578 50.1224C2.24714 50.2818 3.51851 50.2912 26.1713 50.2912C39.3212 50.3006 50.1047 50.2818 50.1419 50.2724C50.1697 50.2537 50.2068 39.4217 50.2254 26.1889C50.2439 12.956 50.2439 2.03967 50.2254 1.92713L50.1883 1.71143H2.13578L2.08009 1.92713ZM48.4347 3.52161C48.3605 3.36218 48.2584 3.30591 48.0357 3.31529C47.8687 3.32466 47.6459 3.34342 47.5439 3.37156C47.4418 3.39031 47.3675 3.47472 47.3861 3.54974C47.3954 3.62477 47.5439 3.79358 47.7202 3.94363C47.8121 4.02109 47.9238 4.11275 48.0242 4.19515C48.1061 4.26242 48.1805 4.32351 48.2306 4.36566C48.3327 4.45006 48.4533 4.49696 48.4997 4.46882C48.5368 4.44069 48.5647 4.2625 48.5554 4.07493C48.5461 3.88736 48.4997 3.63415 48.4347 3.52161ZM37.7069 3.58726C37.5492 3.4841 37.4007 3.39969 37.3636 3.39969C37.3264 3.39969 37.1501 3.57788 36.9645 3.79358C36.7789 4.00928 36.6212 4.27188 36.6304 4.37504C36.6304 4.48758 36.816 4.79706 37.0295 5.06903C37.2986 5.39728 37.4935 5.55671 37.642 5.55671C37.7533 5.55671 37.8647 5.48168 37.8925 5.39728C37.9204 5.30349 38.0317 5.1253 38.1524 4.99401C38.273 4.86271 38.4029 4.66577 38.4308 4.55323C38.4772 4.39379 38.4308 4.2625 38.2452 4.05617C38.0967 3.90612 37.8647 3.69042 37.7069 3.58726ZM44.9269 3.54037C44.5557 3.46534 43.8875 3.39969 43.442 3.40907C42.9873 3.41845 42.3934 3.47472 42.115 3.54037C41.8366 3.60601 41.4375 3.73731 41.2334 3.83109C41.0292 3.93426 40.6951 4.14058 40.491 4.29063C40.2868 4.45006 40.0177 4.6939 39.8878 4.84395C39.7839 4.9639 39.6623 5.10781 39.5892 5.19427C39.5708 5.21597 39.5556 5.23405 39.5444 5.24722C39.4794 5.31287 39.3588 5.51919 39.2845 5.69738C39.2103 5.87557 39.1453 6.07252 39.1453 6.11941C39.1453 6.17568 39.2289 6.17568 39.3588 6.10065C39.4701 6.04438 39.6836 5.87557 39.8228 5.72552C39.9713 5.58484 40.1198 5.46292 40.1476 5.46292C40.1847 5.46292 40.3796 5.31287 40.5838 5.13468C40.7879 4.94712 41.1313 4.72204 41.354 4.61887C41.5675 4.51571 41.9387 4.43131 42.1892 4.43131C42.514 4.42193 42.7182 4.48758 42.9966 4.67514C43.2008 4.81582 43.4328 5.02214 43.5163 5.1253C43.5611 5.18571 43.63 5.26773 43.7 5.35106C43.7604 5.42299 43.8216 5.49588 43.8689 5.55671C43.9988 5.70676 44.0731 5.91308 44.0638 6.14754C44.0638 6.39138 44.0267 6.49454 43.9246 6.49454C43.8504 6.49454 43.6462 6.34449 43.4884 6.15692C43.3214 5.97873 43.0337 5.78179 42.8574 5.72552C42.6811 5.67863 42.3841 5.65987 42.2078 5.688C42.0315 5.71614 41.7067 5.86619 41.4932 6.02562C41.1313 6.27884 41.0942 6.34449 41.0942 6.71024C41.1035 6.92594 41.1498 7.19792 41.2148 7.31046C41.2798 7.423 41.4283 7.59181 41.5582 7.68559C41.6881 7.78875 42.0407 8.00445 42.347 8.18264C42.6532 8.35145 42.9502 8.55777 43.0059 8.64218C43.0616 8.72658 43.1729 8.85788 43.2379 8.93291C43.3121 9.00793 43.4977 9.27991 43.6462 9.53312C43.8875 9.92701 43.9524 9.98328 44.1566 9.93639C44.2865 9.90825 44.6577 9.7582 44.9918 9.59877C45.3259 9.44872 45.7435 9.17674 45.9291 9.00793C46.1147 8.83912 46.3746 8.52964 46.5045 8.32332C46.6437 8.11699 46.7922 7.79813 46.8478 7.61994C46.9035 7.43237 46.9128 7.09475 46.8757 6.83216C46.82 6.49454 46.7086 6.26008 46.4581 5.95998C46.2168 5.688 46.0312 5.55671 45.8734 5.55671C45.725 5.55671 45.5579 5.65987 45.4094 5.83806C45.2795 5.99749 45.1217 6.11941 45.0661 6.11941C45.0011 6.12879 44.7691 5.85681 44.5464 5.53795C44.3237 5.20971 44.0174 4.76893 43.8504 4.55323C43.5812 4.19685 43.5627 4.14058 43.6926 3.9999C43.804 3.87799 43.9432 3.84985 44.3886 3.89674C44.7041 3.9155 45.131 4.03742 45.3816 4.15934C45.6136 4.28125 46.1054 4.64701 46.4674 4.97525C46.8293 5.29411 47.1263 5.6036 47.1263 5.65049C47.1263 5.70676 47.2283 5.90371 47.349 6.10065C47.4696 6.28822 47.6459 6.74776 47.7295 7.10413C47.8408 7.57305 47.8779 8.02321 47.8501 8.69845C47.8223 9.4112 47.7666 9.74882 47.6088 10.0864C47.4975 10.3303 47.2376 10.6867 47.0427 10.8836C46.8386 11.0712 46.5138 11.3338 46.3096 11.4651C46.1147 11.5964 45.8734 11.7933 45.7899 11.9152C45.7064 12.0278 45.66 12.2059 45.6878 12.3091C45.7188 12.4342 45.8116 12.4967 45.9662 12.4967C46.0962 12.4967 46.4766 12.2997 46.8293 12.0559C47.1727 11.8121 47.5439 11.5119 47.6645 11.3807C47.7759 11.2494 48.0171 10.8461 48.1842 10.4803C48.3605 10.124 48.5461 9.57063 48.6018 9.26115C48.6575 8.95166 48.7039 8.45461 48.7039 8.16388C48.7039 7.80751 48.6018 7.31983 48.4162 6.75713C48.2584 6.27884 48.0079 5.71614 47.8687 5.50982C47.7202 5.30349 47.4047 4.93774 47.1541 4.6939C46.9128 4.45944 46.4581 4.1312 46.1518 3.97177C45.8456 3.82172 45.2888 3.62477 44.9269 3.54037ZM9.68095 3.7842C9.47678 3.72793 9.08702 3.65291 8.8179 3.60601C8.54877 3.5685 8.08477 3.55912 7.79708 3.59664C7.5094 3.63415 6.98971 3.79358 6.64635 3.95301C6.19162 4.15934 5.83898 4.43131 5.39353 4.89085C4.9852 5.30349 4.64184 5.78179 4.41912 6.22257C4.22423 6.60708 4.03863 7.13227 4.01079 7.38548C3.97367 7.64808 3.89943 7.91067 3.84375 7.9857C3.78807 8.06072 3.73239 8.44523 3.72311 8.85788C3.69527 9.45809 3.74167 9.70193 3.93655 10.2271C4.06647 10.5741 4.29847 11.0243 4.44696 11.2306C4.58616 11.4369 4.86456 11.7839 5.05944 11.9996C5.25433 12.2247 5.46777 12.4029 5.53273 12.4029C5.58841 12.4029 5.64409 12.431 5.64409 12.4779C5.63481 12.5154 5.76473 12.6092 5.9225 12.6842C6.18234 12.8062 6.22874 12.8062 6.30298 12.6842C6.34938 12.6092 6.3865 12.5248 6.37722 12.4967C6.37722 12.4685 6.08026 12.2153 5.70905 11.9246C5.21721 11.5307 4.97592 11.2587 4.79032 10.893C4.65112 10.6116 4.4748 10.1333 4.40056 9.82385C4.31703 9.48623 4.27991 9.09234 4.30775 8.83912C4.33559 8.60467 4.46552 8.06072 4.59544 7.61994C4.74392 7.10413 4.9852 6.58832 5.25433 6.1663C5.49561 5.80992 5.79257 5.40665 5.93178 5.27536C6.0617 5.14406 6.2937 4.93774 6.44218 4.80644C6.59067 4.67514 6.87835 4.49696 7.08251 4.41255C7.28667 4.31877 7.62076 4.20623 7.82492 4.16871C8.06621 4.11244 8.27037 4.12182 8.40957 4.18747C8.52093 4.24374 8.61373 4.33752 8.61373 4.38442C8.61373 4.44069 8.47453 4.62825 8.30749 4.80644C8.13117 4.98463 7.93628 5.23784 7.86204 5.36914C7.7878 5.50044 7.62076 5.87557 7.49084 6.21319C7.34236 6.5977 7.20315 6.8134 7.11963 6.80403C7.04539 6.79465 6.86907 6.73838 6.71131 6.67273C6.56282 6.61646 6.32154 6.58832 6.18234 6.62584C6.03386 6.65397 5.82041 6.79465 5.69049 6.9447C5.56057 7.08538 5.37497 7.3761 5.27289 7.60118C5.17081 7.81689 5.08729 8.18264 5.08729 8.4171C5.08729 8.65156 5.13369 8.93291 5.18937 9.05483C5.25433 9.16737 5.43993 9.43934 5.60697 9.66442C5.82042 9.92701 6.11738 10.1521 6.5257 10.3397C6.85979 10.4991 7.23099 10.621 7.36092 10.621C7.50012 10.621 7.61148 10.5554 7.6486 10.4616C7.67644 10.3678 7.75068 10.1896 7.80636 10.0677C7.87132 9.94577 8.15901 9.68317 8.45597 9.48623C8.74365 9.27991 9.0499 9.12047 9.12414 9.12047C9.19838 9.12047 9.43966 8.94229 9.66239 8.72658C9.87583 8.5015 10.1078 8.21078 10.1728 8.0701C10.2378 7.92005 10.2656 7.71372 10.2378 7.60118C10.2099 7.47927 10.015 7.26356 9.80159 7.10413C9.45822 6.8603 9.30974 6.82278 8.68797 6.80403C8.28893 6.78527 7.96412 6.75713 7.96412 6.729C7.96412 6.70086 8.01052 6.48516 8.07549 6.24133C8.13117 5.98811 8.28893 5.64111 8.41885 5.46292C8.54877 5.28474 8.76221 5.0409 8.89214 4.92836C9.02206 4.80644 9.29118 4.66577 9.49534 4.6095C9.78303 4.51571 9.95007 4.52509 10.2378 4.6095C10.4419 4.67514 10.9059 4.87209 11.2586 5.0409C11.6205 5.21909 12.1587 5.55671 12.465 5.79117C12.8176 6.05376 13.1146 6.21319 13.2816 6.21319C13.4208 6.21319 13.5508 6.17568 13.5786 6.11941C13.6064 6.07252 13.5322 5.93184 13.4208 5.80992C13.3002 5.688 12.6877 5.30349 12.0474 4.93774C11.4071 4.58136 10.7018 4.19685 10.4698 4.08431C10.2378 3.98115 9.88511 3.84047 9.68095 3.7842ZM32.8813 3.72793C32.6029 3.62477 32.0182 3.54974 31.3964 3.53099C30.8396 3.51223 30.2364 3.54037 30.0787 3.58726C29.8652 3.65291 29.7817 3.72793 29.8003 3.84047C29.8095 3.92488 29.9209 4.02804 30.0508 4.05617C30.1807 4.08431 30.6169 4.06555 31.0252 4.01866C31.6377 3.95301 31.8697 3.97177 32.3245 4.10307C32.6307 4.18747 33.0483 4.31877 33.2525 4.39379C33.4566 4.45944 33.8928 4.72204 34.2269 4.97525C34.561 5.21909 34.9322 5.57546 35.0621 5.75365C35.1827 5.93184 35.3127 6.09127 35.3405 6.11941C35.3683 6.14754 35.4797 6.33511 35.5911 6.54143C35.6931 6.74776 35.8509 7.15102 35.9344 7.43237C36.0272 7.74186 36.0829 8.27642 36.0829 8.7641C36.0829 9.27053 36.0087 9.88012 35.8973 10.3397C35.7952 10.7523 35.6096 11.2494 35.4983 11.4463C35.3776 11.6339 35.0992 11.9715 34.895 12.1966C34.6816 12.4123 34.4403 12.5905 34.3661 12.5905C34.2918 12.5905 34.2269 12.6186 34.2269 12.6655C34.2269 12.703 33.9949 12.8531 33.6979 13.0031C33.4009 13.1532 32.8905 13.3501 32.5565 13.4439C32.2224 13.547 31.5635 13.6502 31.0902 13.6877C30.6262 13.7346 30.2364 13.8003 30.2364 13.8565C30.2364 13.9128 30.6169 13.9878 31.0809 14.0441C31.6934 14.1097 32.1017 14.1097 32.5843 14.0253C32.9555 13.9597 33.5401 13.7627 33.9021 13.5846C34.264 13.4064 34.793 13.0406 35.0992 12.7593C35.3962 12.4873 35.7395 12.0934 35.8602 11.8871C35.9808 11.6808 36.2035 11.1931 36.3613 10.8086C36.6304 10.1427 36.649 10.0302 36.6583 8.83912C36.6675 7.71372 36.649 7.5074 36.4448 7.01035C36.3242 6.70086 36.1015 6.24133 35.9437 5.97873C35.7859 5.72552 35.4333 5.30349 35.1642 5.0409C34.8858 4.78768 34.5795 4.52509 34.4682 4.45944C34.3661 4.3938 34.0692 4.24379 33.8094 4.11251L33.8093 4.11244C33.5587 3.98115 33.1411 3.81234 32.8813 3.72793ZM15.6806 3.73803C15.6129 3.70617 15.5596 3.68104 15.546 3.68104C15.5367 3.68104 15.3233 3.87799 15.0727 4.1312C14.7386 4.45944 14.6458 4.61887 14.6922 4.75955C14.7201 4.86271 14.9335 5.16282 15.1562 5.41603L15.5645 5.88495C16.1121 5.35038 16.3255 5.09717 16.3998 4.97525C16.5111 4.77831 16.4926 4.72204 16.2327 4.31877C16.075 4.06555 15.8615 3.82172 15.7594 3.77482C15.7321 3.76226 15.7054 3.7497 15.6806 3.73803ZM4.85528 3.96239C4.82744 3.9155 4.66968 3.86861 4.51192 3.87799C4.34487 3.87799 4.14071 3.90612 4.07575 3.93426C3.99223 3.95301 3.94583 4.07493 3.95511 4.20623C3.96439 4.32815 3.99223 4.49696 4.02007 4.57198C4.05719 4.68452 4.10359 4.6939 4.27991 4.60012C4.39128 4.54385 4.57688 4.39379 4.69752 4.27188C4.80888 4.15934 4.88312 4.01866 4.85528 3.96239ZM27.9164 4.09369C27.638 4.02804 27.0719 3.97177 26.6636 3.97177C26.2089 3.97177 25.8005 4.02804 25.6242 4.10307C25.4479 4.18747 25.2808 4.35628 25.2252 4.50633C25.1695 4.64701 25.1509 4.77831 25.188 4.80644C25.2159 4.83458 25.5407 4.88147 25.9026 4.9096C26.3481 4.94712 26.71 5.0409 26.9884 5.19095C27.3039 5.36914 27.4524 5.52857 27.6473 5.93184C27.7865 6.21319 27.935 6.56957 27.9814 6.729L28.0556 7.01035C30.719 7.09475 31.0252 7.14165 31.5728 7.33859C31.9254 7.46989 32.3616 7.71372 32.5657 7.90129C32.7606 8.07948 32.9648 8.35145 33.0205 8.51088C33.0854 8.67969 33.104 9.0642 33.0761 9.47685C33.0297 9.98328 33.0483 10.1521 33.1411 10.1521C33.1968 10.1521 33.3453 10.0583 33.4566 9.94577C33.568 9.82385 33.7258 9.49561 33.8093 9.21426C33.9021 8.87664 33.9392 8.56715 33.8928 8.32332C33.865 8.11699 33.7536 7.77937 33.6608 7.57305C33.568 7.36673 33.2339 6.93532 32.9091 6.62584C32.5843 6.30697 32.1481 5.93184 31.9347 5.80054C31.712 5.66925 31.2108 5.3879 30.8211 5.1722C30.422 4.96587 29.726 4.66577 29.262 4.50633C28.8073 4.3469 28.1948 4.15934 27.9164 4.09369ZM22.0699 4.30001C21.8008 4.20623 21.3553 4.15934 20.8171 4.15934C20.2603 4.15934 19.7963 4.22498 19.4251 4.3469C19.0632 4.45944 18.6548 4.70328 18.2651 5.02214C17.8939 5.32225 17.5134 5.75365 17.2814 6.11941C17.0772 6.45703 16.8266 6.9447 16.7338 7.19792C16.5854 7.57305 16.5482 7.91067 16.5482 8.93291C16.5482 9.92701 16.5854 10.3021 16.7153 10.6679C16.8081 10.9305 17.0215 11.4088 17.1793 11.7277C17.3649 12.0934 17.7083 12.5623 18.0795 12.9375C18.4135 13.2657 18.7755 13.5564 18.8961 13.5846C19.0075 13.6033 19.1003 13.6596 19.1003 13.7159C19.1003 13.7721 19.4251 13.894 19.8241 13.9972C20.2139 14.1004 20.7336 14.1848 20.9841 14.1848C21.2254 14.1848 21.5317 14.1379 21.6801 14.0722C21.9122 13.9785 21.8658 13.9597 21.1419 13.8565C20.7057 13.8003 20.1489 13.6596 19.8891 13.5377C19.6385 13.4251 19.2488 13.1907 19.026 13.0312C18.8033 12.8624 18.4507 12.4967 18.2465 12.2153C18.0331 11.934 17.7918 11.5307 17.699 11.3244C17.6062 11.1181 17.467 10.6398 17.3927 10.274C17.3092 9.89888 17.2442 9.33618 17.2442 9.02669C17.2442 8.71721 17.337 8.09824 17.4391 7.64808C17.5505 7.18854 17.6804 6.76651 17.7454 6.69149C17.8011 6.61646 17.8939 6.48516 17.9403 6.40076C17.9757 6.34699 18.0451 6.23234 18.1219 6.10529C18.1657 6.03288 18.212 5.95644 18.2558 5.88495C18.4043 5.64111 18.6363 5.45355 19.0446 5.26598C19.3787 5.09717 19.9726 4.92836 20.4923 4.84395C20.9841 4.75955 21.5966 4.72204 21.8843 4.75017C22.1627 4.77831 22.4411 4.76893 22.5061 4.73141C22.571 4.6939 22.5896 4.61887 22.5525 4.55323C22.5154 4.49696 22.3019 4.38442 22.0699 4.30001ZM23.7496 5.43479C23.6661 5.34101 23.5362 5.27536 23.4619 5.28474C23.3877 5.29411 23.2392 5.31287 23.1371 5.33163C23.1031 5.34101 23.034 5.35872 22.9419 5.38234C22.7577 5.42958 22.4813 5.50044 22.2091 5.57546C21.8008 5.688 21.411 5.8193 21.3461 5.87557C21.2811 5.93184 21.2533 5.99749 21.2904 6.02562C21.3182 6.05376 21.7265 6.10065 22.1906 6.12879C22.7845 6.1663 23.1742 6.24133 23.4619 6.382C23.6939 6.49454 24.0187 6.68211 24.1951 6.79465L24.5106 7.01035C24.3992 6.64459 24.26 6.33511 24.1394 6.07252C24.0095 5.8193 23.8331 5.52857 23.7496 5.43479ZM33.3267 5.4723C33.2061 5.41603 33.0761 5.36914 33.0205 5.36914C32.9741 5.36914 32.9648 5.44417 32.9926 5.53795C33.0297 5.62236 33.2246 5.87557 33.4288 6.08189C33.6422 6.2976 33.9763 6.80403 34.1805 7.20729C34.3846 7.61994 34.5702 8.16388 34.6074 8.4171C34.6445 8.67969 34.6259 9.12047 34.5795 9.40182C34.5238 9.68317 34.3939 10.0677 34.2733 10.2459C34.1619 10.4241 33.9856 10.6491 33.8928 10.7335C33.7907 10.818 33.4845 11.0055 33.2061 11.1462C32.9277 11.2869 32.3801 11.4557 31.9996 11.5213C31.5264 11.5964 31.2294 11.6057 31.0716 11.5401C30.9417 11.4932 30.6912 11.3807 30.5148 11.2962C30.3385 11.2118 30.1715 11.1087 30.1436 11.0712C30.1158 11.0243 29.9766 10.9961 29.8281 11.0149L29.5497 11.043C29.9023 11.4275 30.2179 11.6339 30.4684 11.7558C30.8489 11.934 31.0995 11.9715 31.8604 11.9715C32.6493 11.9715 32.8534 11.9434 33.2525 11.7464C33.5123 11.6245 33.9021 11.3244 34.1341 11.0899C34.3661 10.8461 34.6445 10.4616 34.7558 10.2365C34.8672 10.0114 35.0064 9.53312 35.0528 9.16737C35.127 8.61404 35.1178 8.40772 34.96 7.83564C34.8672 7.46051 34.6816 6.98221 34.5517 6.77589C34.4218 6.56957 34.1434 6.21319 33.9299 5.98811C33.7072 5.76303 33.4381 5.53795 33.3267 5.4723ZM26.478 6.02562C26.3017 5.92246 26.0604 5.83806 25.949 5.83806C25.8284 5.83806 25.6242 5.93184 25.4943 6.05376C25.3551 6.1663 25.2252 6.36324 25.1973 6.49454C25.1695 6.62584 25.188 6.8134 25.2437 6.91657C25.2994 7.01973 25.4293 7.17916 25.5407 7.26356C25.6428 7.35735 25.8284 7.43237 25.949 7.43237C26.0604 7.43237 26.2831 7.36673 26.4316 7.2917C26.5893 7.21667 26.7564 7.03848 26.8121 6.89781C26.8585 6.74776 26.8863 6.54143 26.8585 6.42889C26.8306 6.30697 26.6543 6.12879 26.478 6.02562ZM15.8986 6.44765C15.8708 6.37262 15.7965 6.30697 15.7409 6.31635C15.6759 6.31635 15.5181 6.35387 15.3882 6.40076C15.2583 6.43827 14.9057 6.53205 14.5994 6.5977C14.2932 6.66335 13.9405 6.77589 13.8106 6.84154C13.6807 6.90719 13.5229 6.96346 13.4672 6.96346C13.4023 6.96346 13.0404 7.11351 12.6784 7.30108C12.3072 7.48864 11.7319 7.82626 11.3978 8.05134C11.0637 8.26705 10.377 8.86726 9.87583 9.37369C9.36542 9.88012 8.79934 10.5178 8.62301 10.7992C8.52302 10.9457 8.42303 11.1004 8.34336 11.2237C8.27514 11.3292 8.22181 11.4117 8.19613 11.4463C8.14973 11.5307 8.04765 11.662 7.9734 11.7464C7.90844 11.8214 7.63932 12.3279 7.38876 12.8718L7.35329 12.9461C7.10647 13.4628 6.87581 13.9456 6.82267 14.0441C6.77627 14.1473 6.59067 14.6537 6.41434 15.1695C6.23802 15.6853 5.99674 16.5106 5.86682 16.9983C5.74617 17.4859 5.56057 18.4988 5.44921 19.2491C5.33785 19.9993 5.23577 21.1247 5.21721 21.7625C5.18937 22.7284 5.19865 22.9066 5.31929 22.9066C5.40281 22.9066 5.50489 22.7566 5.56057 22.5596C5.62553 22.3627 5.88538 21.7437 6.1545 21.1716C6.4329 20.6089 6.95259 19.718 7.31451 19.2022C7.68572 18.6864 8.27037 17.983 8.62301 17.636C8.97566 17.2796 9.26334 17.0264 9.26334 17.0733C9.26334 17.1108 9.31902 17.0733 9.38398 16.9983C9.44894 16.9139 9.81087 16.6607 10.1914 16.4168C10.5718 16.1824 11.1008 15.8916 11.3514 15.7791C11.5383 15.6981 11.7636 15.5978 11.9306 15.5234C11.9958 15.4944 12.0521 15.4693 12.0938 15.4508C12.2515 15.3758 12.7063 15.2539 13.1146 15.1695C13.5229 15.0851 13.8848 15.0476 13.9312 15.0945C13.9684 15.132 14.0983 15.629 14.2189 16.2011C14.3489 16.7732 14.4881 17.3359 14.5345 17.4672C14.565 17.5537 14.6278 17.7094 14.6937 17.8727C14.7277 17.9572 14.7626 18.0437 14.7943 18.1237C14.8778 18.3581 15.1191 18.9021 15.3233 19.3429C15.5274 19.7836 16.0007 20.562 16.3719 21.0778C16.7802 21.6499 17.2535 22.1845 17.5876 22.4377C17.8846 22.6722 18.2743 22.9629 18.4507 23.0848C18.627 23.2067 19.1188 23.4506 19.5457 23.6194C19.9633 23.7976 20.5294 23.9758 20.7985 24.032C21.0584 24.0789 21.3089 24.0977 21.3553 24.0508C21.3925 24.0133 21.2533 23.6006 21.0398 23.1411C20.8806 22.7828 20.7158 22.4187 20.6289 22.2269C20.6044 22.1727 20.586 22.1322 20.5758 22.1095C20.5294 22.0063 20.4273 21.6312 20.3531 21.2654C20.2789 20.8997 20.2139 20.2057 20.2232 19.718C20.2232 19.2303 20.2603 18.6582 20.3067 18.4519C20.3438 18.2456 20.4459 17.8705 20.5294 17.6079C20.6037 17.3547 20.7336 16.9514 20.8171 16.7169C20.9006 16.4825 20.947 16.2011 20.9192 16.0886C20.8913 15.9667 20.7707 15.8447 20.6593 15.8166C20.5387 15.7791 20.0468 15.5634 19.5643 15.3196C19.0817 15.0757 18.395 14.6724 18.0423 14.4192C17.6804 14.1566 17.1793 13.7346 16.9287 13.472C16.6689 13.2094 16.3998 12.8906 16.3255 12.7686C16.2538 12.6508 16.0521 12.2529 15.8628 11.8793L15.8429 11.8402C15.5367 11.2306 15.481 11.0243 15.4346 10.2928C15.3975 9.83323 15.4161 9.1111 15.4717 8.69845C15.5181 8.2858 15.6481 7.6387 15.7594 7.27294C15.8615 6.89781 15.9265 6.52268 15.8986 6.44765ZM37.6894 6.62863C37.5621 6.59678 37.4412 6.5665 37.3636 6.55081C37.1687 6.50392 37.0852 6.53205 37.0109 6.68211C36.9645 6.78527 36.946 7.06662 36.9738 7.31983C37.0016 7.56367 37.113 8.06072 37.2151 8.4171C37.3543 8.92353 37.3914 9.27053 37.3636 9.91763C37.3357 10.3865 37.2522 10.9961 37.1687 11.2775C37.0852 11.5588 36.8996 12.009 36.7696 12.2622C36.6397 12.5248 36.352 12.9656 36.1479 13.2469C35.9344 13.5283 35.5354 14.0066 35.2477 14.3067C34.895 14.6818 34.5146 14.9632 33.9949 15.2164C33.5865 15.4227 33.2153 15.5915 33.1597 15.5915C33.1133 15.5915 32.6678 15.7416 32.1853 15.9291C31.7027 16.1073 31.2665 16.2949 31.2294 16.323C31.1923 16.3605 31.2758 16.6607 31.4057 16.9983C31.5449 17.3359 31.6934 17.6548 31.7305 17.7016C31.7676 17.7579 31.8883 18.1612 31.9904 18.6207C32.1017 19.0709 32.1853 19.6242 32.1853 19.8587C32.1853 20.0931 32.1203 20.6089 32.0368 21.0122C31.9532 21.4061 31.7676 21.9969 31.6192 22.3252C31.4707 22.644 31.35 22.9254 31.35 22.9535C31.35 22.9817 31.2851 23.0661 31.2108 23.1411C31.1366 23.2161 31.0716 23.3568 31.0716 23.4506C31.0716 23.5912 31.1366 23.6006 31.7212 23.5444C32.0739 23.4975 32.5843 23.3849 32.8349 23.2818C33.0947 23.1786 33.3731 23.0942 33.4659 23.0942C33.5494 23.0942 34.0506 22.8879 34.5795 22.6253C35.0992 22.3721 35.5725 22.1564 35.6189 22.1564C35.6746 22.1564 35.721 22.1188 35.7395 22.0813C35.7488 22.0344 36.0087 21.8 36.3149 21.5468C36.6212 21.3029 36.9367 21.0028 37.0109 20.8903C37.0852 20.7777 37.2708 20.5527 37.4285 20.3932C37.5863 20.2244 37.7997 19.9149 37.9018 19.6992C38.0132 19.4742 38.1895 19.1084 38.2916 18.8739C38.3937 18.6395 38.57 18.1143 38.6813 17.7016C38.802 17.289 38.9041 16.6794 38.9319 16.3418C38.9505 16.0042 38.9876 15.5915 39.0061 15.4321C39.0525 15.1507 39.0804 15.1226 39.3588 15.1226C39.5165 15.1226 40.0362 15.1883 40.491 15.2633C40.955 15.3477 41.3726 15.4508 41.419 15.4977C41.4747 15.554 41.586 15.5915 41.6788 15.5915C41.7623 15.5915 41.9108 15.629 42.0036 15.6666C42.0416 15.6879 42.1467 15.7402 42.2876 15.8103C42.4565 15.8945 42.6769 16.0042 42.8945 16.1167C43.3028 16.3137 43.7854 16.6138 43.9617 16.7638C44.1473 16.9232 44.5 17.2609 44.7413 17.5141C44.9918 17.7767 45.3166 18.1706 45.4744 18.405C45.6321 18.6395 45.8363 18.9583 45.9198 19.1084C46.0034 19.2678 46.1982 19.6242 46.356 19.9056C46.4804 20.1273 46.6278 20.4132 46.7301 20.6116C46.7576 20.6649 46.7818 20.7119 46.8014 20.7496C46.9221 21.0122 46.9778 21.0497 47.0427 20.9372C47.0891 20.8621 47.0984 20.6089 47.0706 20.3745C47.0427 20.14 46.9406 19.4085 46.8386 18.7333C46.7365 18.0674 46.6066 17.3078 46.5509 17.0452C46.4952 16.792 46.3746 16.3043 46.2632 15.9667C46.1611 15.629 45.9941 15.1226 45.892 14.8413C45.7899 14.5599 45.5579 14.0535 45.3909 13.7159C45.2145 13.3782 44.9361 12.8906 44.7784 12.6186C44.6113 12.356 44.2773 11.8965 44.0174 11.5964C43.8517 11.3978 43.6615 11.1788 43.5196 11.0152C43.447 10.9315 43.3869 10.8624 43.3492 10.818C43.309 10.771 43.2678 10.7241 43.2292 10.6804C43.1523 10.5928 43.0863 10.5178 43.0616 10.4803C43.0152 10.4241 42.6532 10.0864 42.2449 9.72069C41.8459 9.34555 41.3076 8.85788 41.0478 8.62342C40.7972 8.38896 40.3146 8.01383 39.9806 7.77937C39.6465 7.55429 39.1453 7.23543 38.8669 7.08538C38.5885 6.92594 38.1895 6.75713 37.9853 6.70086C37.895 6.68013 37.7902 6.65389 37.6894 6.62863ZM22.339 7.18854C22.1163 7.076 21.7822 6.96346 21.6059 6.9447C21.4296 6.91657 21.0491 6.92594 20.7707 6.96346C20.4923 7.00097 20.1396 7.09475 19.9819 7.17916C19.8334 7.26356 19.62 7.40424 19.5179 7.5074C19.4158 7.60118 19.2209 7.80751 19.091 7.95756C18.9611 8.10761 18.7847 8.44523 18.7012 8.69845C18.6084 8.96104 18.5342 9.38307 18.5342 9.63628C18.5249 9.89888 18.5713 10.274 18.627 10.4803C18.6919 10.6867 18.9147 11.0524 19.1281 11.2869C19.3416 11.5213 19.7035 11.8027 19.9355 11.9152C20.1675 12.0184 20.5016 12.1497 20.6779 12.2059C20.8542 12.2622 21.244 12.3091 21.5409 12.3091C21.8286 12.3091 22.2926 12.2435 22.5618 12.1778C22.8216 12.1028 23.2578 11.8777 23.5083 11.6808C23.7682 11.4744 24.0651 11.1931 24.1672 11.043C24.2786 10.8836 24.4549 10.5741 24.5755 10.3397C24.7148 10.0489 24.789 9.73007 24.7983 9.29866C24.7983 8.90477 24.7612 8.59529 24.6684 8.42648C24.5941 8.29518 24.5013 8.18264 24.4642 8.18264C24.4178 8.18264 24.3899 8.34207 24.3899 8.53902C24.3899 8.72658 24.3435 9.15799 24.2879 9.49561C24.2322 9.83323 24.1023 10.2553 23.9909 10.4334C23.8795 10.6116 23.7032 10.8367 23.6011 10.9305C23.4991 11.0243 23.1557 11.2306 22.8402 11.3807C22.5154 11.5307 22.1163 11.6526 21.9586 11.6526C21.7915 11.6526 21.411 11.587 21.1233 11.5119C20.8264 11.4369 20.4737 11.2962 20.3345 11.2118C20.186 11.1181 19.9355 10.9117 19.7777 10.7429C19.6107 10.5741 19.4436 10.3209 19.4065 10.1802C19.3787 10.0302 19.3972 9.60815 19.4529 9.24239C19.5179 8.86726 19.62 8.49213 19.6849 8.40772C19.7406 8.32332 19.9448 8.08886 20.1211 7.90129C20.2974 7.70435 20.5758 7.51678 20.7243 7.47927C20.8821 7.44175 21.1697 7.43237 21.3739 7.46989C21.5781 7.49802 21.8286 7.60118 21.94 7.68559C22.0421 7.77937 22.1998 7.95756 22.2834 8.08886C22.3669 8.22015 22.4411 8.43586 22.4411 8.58591C22.4411 8.72658 22.339 8.97042 22.2091 9.12047C22.0606 9.29866 21.8936 9.40182 21.7451 9.40182C21.6152 9.40182 21.4203 9.29866 21.3089 9.16737C21.1883 9.04545 21.012 8.94229 20.9099 8.93291C20.7429 8.93291 20.7336 8.97042 20.7985 9.27991C20.8357 9.47685 20.9656 9.71131 21.0769 9.80509C21.1883 9.89888 21.4389 10.0114 21.6337 10.0583C21.8193 10.1146 22.0699 10.124 22.1906 10.0958C22.3019 10.0677 22.4968 9.99266 22.6174 9.93639C22.7381 9.87074 22.9144 9.65504 23.0165 9.44872C23.1186 9.24239 23.2114 8.85788 23.2206 8.59529C23.2299 8.22953 23.1742 8.03259 22.9886 7.75124C22.8494 7.53554 22.5896 7.30108 22.339 7.18854ZM28.7516 7.90129C28.6495 7.8544 28.3804 7.76999 28.1577 7.73248C27.935 7.69497 27.6101 7.68559 27.4431 7.7231C27.2668 7.75124 27.0162 7.82626 26.877 7.89191C26.7285 7.94818 26.4594 7.99507 26.2738 7.99507C26.0789 7.99507 25.7912 7.9388 25.6242 7.87316C25.4572 7.81689 25.2994 7.78875 25.2716 7.83564C25.2437 7.87316 25.3365 8.09824 25.485 8.35145C25.717 8.75472 25.7356 8.86726 25.717 9.68317C25.7077 10.4241 25.6613 10.6773 25.4572 11.1837C25.318 11.5213 25.021 12.0465 24.7983 12.356C24.5755 12.6655 24.0744 13.3407 23.6847 13.8565C23.6032 13.9644 23.5212 14.0727 23.4418 14.1777C23.1414 14.5748 22.8764 14.925 22.803 15.0288C22.7712 15.0739 22.723 15.141 22.6662 15.22C22.5576 15.3712 22.4177 15.5659 22.3019 15.7322C22.1256 15.9948 21.9122 16.3512 21.8286 16.5294C21.7739 16.6462 21.6952 16.8235 21.6213 16.9899C21.5825 17.0773 21.5451 17.1617 21.5131 17.2327C21.411 17.4391 21.2997 17.7954 21.244 18.0299C21.1976 18.2643 21.1326 18.8083 21.0955 19.2491C21.0491 19.8118 21.0769 20.3088 21.1883 20.9372C21.2718 21.4248 21.3832 21.9969 21.4481 22.2032C21.5038 22.4096 21.6987 22.8504 21.875 23.188C22.025 23.491 22.1973 23.8091 22.2713 23.9457C22.2798 23.9613 22.2869 23.9746 22.2926 23.9851C22.3483 24.0883 22.4968 24.3228 22.6267 24.5009C22.7566 24.6791 23.1278 25.1012 23.4619 25.4294C23.796 25.7576 24.3807 26.2734 24.7612 26.5548C25.1416 26.8455 25.5964 27.1456 25.7634 27.2207C25.9304 27.2957 26.0604 27.3801 26.0604 27.4082C26.0604 27.4364 26.1717 27.5114 26.3109 27.5864C26.4501 27.6521 26.6172 27.6896 26.6636 27.6614C26.7193 27.6333 26.8585 27.3332 26.9884 26.9862C27.1369 26.5736 27.3503 26.2266 27.5916 25.9827C27.7958 25.7764 28.2319 25.4669 28.566 25.2981C28.9001 25.1293 29.3455 24.8104 29.5683 24.5853C29.7817 24.3603 29.958 24.1446 29.958 24.1071C29.958 24.0602 30.0323 23.9195 30.1251 23.7788C30.2086 23.6288 30.3849 23.1974 30.5055 22.8128C30.5359 22.7162 30.5668 22.6172 30.5968 22.521C30.6862 22.2345 30.7678 21.9733 30.8025 21.875C30.8396 21.7437 30.9232 21.4155 30.9696 21.1529C31.0252 20.8809 31.0716 20.2994 31.0716 19.8587C31.0716 19.4179 31.0252 18.8646 30.9696 18.6207C30.9139 18.3675 30.719 17.7954 30.5334 17.3453C30.2921 16.7544 30.023 16.3137 29.6147 15.8166C29.2899 15.4321 28.8815 14.8131 28.6959 14.4474C28.4268 13.8847 28.3526 13.6221 28.3154 13.0125C28.269 12.3748 28.2876 12.1966 28.4639 11.7933C28.5753 11.5401 28.8166 10.818 28.9929 10.199C29.2249 9.39245 29.2991 8.9798 29.2527 8.74534C29.2249 8.56715 29.1414 8.32332 29.0671 8.21078C28.9929 8.08886 28.8537 7.95756 28.7516 7.90129ZM30.6633 8.61404C30.6726 8.14513 30.6447 7.99507 30.5519 7.99507C30.4777 7.99507 30.3385 8.07948 30.2364 8.18264C30.1065 8.31394 30.0508 8.49213 30.0508 8.77348C30.0508 9.01731 30.1436 9.31742 30.2828 9.57063C30.487 9.91763 30.5705 9.9739 31.0067 10.0677C31.2665 10.124 31.6192 10.1521 31.7676 10.1146C31.9254 10.0864 32.1388 9.96452 32.2595 9.85198C32.3894 9.72069 32.5008 9.45809 32.5379 9.1955C32.5936 8.82975 32.575 8.72658 32.4173 8.55777C32.3152 8.45461 32.1574 8.36083 32.0739 8.37021C31.9347 8.37021 31.9068 8.44523 31.9347 8.80161C31.944 9.13923 31.9161 9.26115 31.7676 9.36431C31.6656 9.43934 31.4614 9.49561 31.3036 9.49561C31.1552 9.49561 30.9417 9.43934 30.8396 9.36431C30.6819 9.25177 30.654 9.12985 30.6633 8.61404ZM48.4069 14.166C48.3883 13.2376 48.3419 12.5623 48.2863 12.4967C48.212 12.431 48.0357 12.5529 47.6831 12.9187C47.3211 13.2845 47.1819 13.4908 47.2005 13.6408C47.2098 13.7627 47.3304 14.1566 47.4511 14.513C47.581 14.8788 47.7016 15.1883 47.7295 15.2164C47.7573 15.2445 47.7851 15.3477 47.7851 15.4508C47.7851 15.554 47.8779 15.826 47.9986 16.0604L48.2213 16.4825C48.3976 15.8635 48.4255 15.1883 48.4069 14.166ZM5.50489 14.3817C4.7532 13.6502 4.44696 13.4345 4.34488 13.4345C4.16855 13.4345 4.15927 13.5002 4.15927 14.4661C4.15927 15.2351 4.18711 15.4977 4.27991 15.4977C4.33559 15.4884 4.4748 15.4133 4.57688 15.3196C4.67896 15.2351 4.92952 14.9819 5.13369 14.7662L5.50489 14.3817ZM13.2538 16.0229C13.1239 15.9948 13.0032 15.976 12.9754 15.976C12.9476 15.9854 12.8269 16.0135 12.697 16.0323C12.5671 16.0604 12.4279 16.1073 12.3907 16.1355C12.3443 16.173 12.4371 16.3418 12.5949 16.5106C12.7527 16.67 12.929 16.8107 12.9754 16.8107C13.0311 16.8107 13.0775 16.8576 13.096 16.9232C13.1053 16.9889 13.1796 17.0077 13.2816 16.9701C13.393 16.9232 13.4487 16.7826 13.458 16.4918C13.4765 16.1261 13.458 16.0792 13.2538 16.0229ZM42.1614 16.7451C42.0129 16.6888 41.6788 16.6138 41.419 16.595C41.1684 16.5669 40.7879 16.595 40.5838 16.6419C40.3703 16.6982 40.1383 16.8482 40.0084 17.0077C39.8785 17.1765 39.795 17.4109 39.795 17.6079C39.795 17.7861 39.8414 17.9361 39.8878 17.9361C39.9434 17.9361 40.1198 17.8329 40.2868 17.711C40.4446 17.5797 40.7694 17.4109 41.0014 17.3265C41.2334 17.2421 41.7531 17.1671 42.1707 17.1577C42.8945 17.1389 42.9131 17.1296 42.6811 16.9889C42.5512 16.9139 42.3191 16.8013 42.1614 16.7451ZM11.537 17.3547C11.2864 17.2609 10.8502 17.1858 10.5904 17.1858C10.1171 17.1858 10.0986 17.1952 10.0986 17.4484C10.0986 17.6829 10.1357 17.711 10.6275 17.8236C10.9245 17.8892 11.3885 18.0393 11.6576 18.1706C11.9175 18.3019 12.3165 18.5832 12.5299 18.8083C12.7341 19.024 13.0218 19.4366 13.1517 19.718C13.3466 20.14 13.3837 20.3745 13.3837 21.031C13.3837 21.7343 13.3559 21.9031 13.0775 22.4846C12.9104 22.8504 12.6599 23.2911 12.5114 23.4693C12.3722 23.6475 12.1309 23.8632 11.9824 23.9476C11.8432 24.032 11.4813 24.1071 11.1936 24.1071C10.7853 24.1258 10.5626 24.0695 10.2842 23.9195C10.08 23.7976 9.90367 23.6381 9.88511 23.5631C9.85727 23.4506 9.95935 23.4224 10.3677 23.4131C10.776 23.4131 10.9802 23.3474 11.3514 23.1223C11.6391 22.9441 11.8803 22.7097 11.9824 22.494C12.0659 22.3064 12.1402 21.9969 12.1402 21.8094C12.1402 21.6124 12.0567 21.2842 11.9639 21.0778C11.8711 20.8715 11.7133 20.6277 11.6205 20.5433C11.5277 20.4495 11.1565 20.3182 10.7946 20.2432C10.588 20.1992 10.3495 20.1456 10.152 20.1012C10.0124 20.0698 9.89318 20.043 9.82015 20.0275C9.64383 19.9806 9.27262 19.7743 9.0035 19.5773L8.51165 19.2022C7.93628 19.8587 7.57436 20.4495 7.33308 20.9372C6.95259 21.725 6.90619 21.9031 6.89691 22.4471C6.89691 22.916 6.93403 23.1223 7.05467 23.2442C7.14747 23.3474 7.22171 23.4599 7.22171 23.5162C7.22171 23.5725 7.29595 23.6569 7.38876 23.7225C7.47228 23.7882 7.71356 23.8445 7.91772 23.8445C8.17757 23.8445 8.34461 23.7882 8.47453 23.6569C8.57661 23.5537 8.72509 23.4693 8.79934 23.4693C8.87358 23.4693 9.16126 23.6288 9.43038 23.8257C9.69951 24.0133 9.96863 24.2946 10.0336 24.4353C10.1264 24.6604 10.1264 24.7166 10.0058 24.7917C9.93151 24.8386 9.66239 24.8667 9.40254 24.8479C9.15198 24.8198 8.75293 24.7542 8.52093 24.6979C8.28893 24.6322 7.85276 24.4165 7.54652 24.2102C7.24027 24.0039 6.97115 23.8351 6.94331 23.8351C6.91547 23.8351 6.82267 23.7788 6.73915 23.7038C6.64635 23.6288 6.53498 23.5819 6.4793 23.61C6.42362 23.6381 6.45146 23.7694 6.55354 23.9476C6.63707 24.0977 6.84123 24.3415 6.98971 24.4822C7.14747 24.6229 7.39804 24.8292 7.54652 24.9417C7.70428 25.0449 8.09405 25.2418 8.42813 25.3637C8.9107 25.5326 9.20766 25.5795 9.91295 25.5701C10.7296 25.5701 10.841 25.5419 11.4906 25.2231C11.936 25.0074 12.4 24.6698 12.7898 24.2946C13.1239 23.9664 13.5322 23.4693 13.69 23.188C13.8663 22.8691 14.024 22.4002 14.0983 21.9688C14.2004 21.3498 14.1911 21.1623 14.0519 20.4214C13.9591 19.9618 13.8106 19.4085 13.7085 19.2022C13.6157 18.9959 13.3095 18.5926 13.0218 18.3112C12.7434 18.0299 12.3907 17.7298 12.2515 17.6548C12.1123 17.5797 11.7968 17.4484 11.537 17.3547ZM43.3214 18.4144C43.1451 18.3581 42.8388 18.3112 42.6532 18.3112C42.347 18.3112 42.282 18.3488 42.1707 18.6207C42.0964 18.7802 41.9015 19.1272 41.7252 19.3804C41.5582 19.6336 41.0849 20.1025 40.6858 20.412C40.2775 20.7309 39.8785 21.1154 39.7857 21.2654C39.6929 21.4155 39.6186 21.6968 39.6186 21.875C39.6094 22.0532 39.6929 22.3439 39.795 22.5127C39.897 22.6722 40.1198 22.8785 40.2868 22.9629C40.5002 23.0754 40.7137 23.1036 41.0942 23.0661C41.3726 23.0285 41.7438 22.9723 41.9108 22.9348C42.0768 22.8953 42.1554 22.8766 42.1738 22.9018C42.1904 22.9246 42.158 22.983 42.0964 23.0942C42.0315 23.2255 41.8737 23.4693 41.7438 23.6381C41.6139 23.8163 41.4004 24.0133 41.2612 24.0883C41.1127 24.1633 40.8436 24.2196 40.658 24.2196C40.4631 24.2196 40.0826 24.107 39.8228 23.9851C39.4794 23.8257 39.2289 23.61 39.0154 23.3099C38.8391 23.0567 38.6071 22.5878 38.505 22.2501C38.4122 21.9125 38.3009 21.4905 38.273 21.3123C38.2359 21.1341 38.1802 20.9184 38.1245 20.8434C38.0781 20.7684 38.0224 20.7215 38.0039 20.7496C37.9961 20.7614 37.9544 20.8189 37.8908 20.9065C37.8022 21.0287 37.6711 21.2095 37.5306 21.4061C37.2893 21.7437 37.0944 22.1001 37.0944 22.2032C37.0944 22.3064 37.2244 22.569 37.3821 22.7941C37.5306 23.0098 37.9018 23.4318 38.1988 23.7319C38.4865 24.032 39.0433 24.4822 39.4237 24.7166C39.8878 25.0074 40.361 25.2137 40.8622 25.345C41.2705 25.4482 41.8366 25.5326 42.115 25.5326C42.3934 25.5326 42.978 25.4482 43.4142 25.3356C43.8504 25.2325 44.3237 25.073 44.4814 24.9792C44.6392 24.8948 44.8805 24.7166 45.0382 24.5853C45.1867 24.4634 45.4373 24.229 45.595 24.0789C45.7528 23.9289 45.9384 23.685 46.0126 23.535C46.124 23.3286 46.1333 23.2536 46.0312 23.1598C45.9384 23.0754 45.9198 23.0754 45.9198 23.1692C45.9198 23.2255 45.7992 23.4224 45.6507 23.5912C45.5022 23.7507 45.131 24.0414 44.8341 24.2196C44.5371 24.3978 44.0267 24.6041 43.6926 24.6791C43.3585 24.7448 42.9038 24.8104 42.6718 24.8198C42.282 24.8292 42.2542 24.8104 42.2542 24.5853C42.2542 24.4541 42.3934 24.1633 42.579 23.9382C42.7553 23.7132 42.9966 23.4318 43.1172 23.3099C43.2286 23.188 43.3956 23.1036 43.4792 23.1223C43.572 23.1317 43.6926 23.2442 43.7576 23.3755C43.8225 23.5068 43.9432 23.6663 44.036 23.7319C44.1288 23.7976 44.3422 23.8445 44.5093 23.8445C44.7227 23.8445 44.899 23.7507 45.1589 23.4975C45.363 23.3005 45.6229 22.9535 45.7435 22.7191C45.9291 22.3533 45.9662 22.1751 45.957 21.3592C45.957 20.4683 45.9384 20.3932 45.6693 19.9524C45.5022 19.6992 45.2795 19.4179 45.1774 19.3429C45.0661 19.2678 44.8805 19.1272 44.7784 19.0334C44.667 18.9396 44.5464 18.8739 44.5093 18.8739C44.4629 18.8739 44.2587 18.7895 44.0452 18.6958C43.8225 18.602 43.4977 18.4707 43.3214 18.4144ZM4.01079 20.7965C3.99223 20.4307 3.97367 20.1306 3.95511 20.1213C3.93655 20.1119 3.87159 20.2994 3.80663 20.5433C3.74167 20.7871 3.68599 21.256 3.67671 21.5937C3.66743 22.0438 3.72311 22.3064 3.87159 22.6065C3.97367 22.8222 4.11287 23.0192 4.15927 23.0473C4.21495 23.0754 4.27991 23.0379 4.31703 22.9817C4.35416 22.916 4.37272 22.6909 4.37272 22.4846C4.37272 22.2783 4.28919 21.9594 4.20567 21.7812C4.10359 21.5843 4.02935 21.1998 4.01079 20.7965ZM16.5297 22.3627C16.2049 22.1001 15.8801 21.875 15.8058 21.875C15.7316 21.875 15.6666 21.9594 15.6666 22.0626C15.6666 22.1657 15.713 22.3627 15.778 22.5127C15.8429 22.6534 16.0564 23.0004 16.2606 23.2818C16.4647 23.5631 16.8638 24.0226 17.1514 24.2946C17.4299 24.5666 17.8939 24.9511 18.1723 25.1387C18.4507 25.3262 18.7291 25.5044 18.7755 25.5326C18.8312 25.5607 19.0353 25.6826 19.2395 25.8139C19.4436 25.9452 19.7128 26.1046 19.8427 26.1609C19.9726 26.2172 20.2881 26.3391 20.5387 26.4141C20.7985 26.4985 21.1233 26.5642 21.2625 26.5642C21.411 26.5642 21.5781 26.5079 21.643 26.4516C21.6987 26.386 21.8194 26.2266 21.9029 26.0953C21.9864 25.964 22.0235 25.7858 21.9957 25.7014C21.9586 25.6076 21.7915 25.5138 21.6059 25.4857C21.4296 25.4575 20.947 25.3262 20.5387 25.2043C20.1304 25.073 19.5457 24.8104 19.2302 24.6229C18.924 24.4259 18.4507 24.0789 18.1815 23.8445C17.9557 23.6477 17.6709 23.3914 17.4865 23.2254C17.4512 23.1937 17.4196 23.1652 17.3927 23.1411C17.235 22.9817 16.8452 22.6347 16.5297 22.3627ZM36.5191 22.7003C36.4634 22.4752 36.4077 22.4377 36.1386 22.4377C35.8509 22.4377 35.8045 22.4752 35.6282 22.9066C35.5168 23.1692 35.4333 23.4318 35.4333 23.4975C35.4333 23.5537 35.3034 23.8632 35.1456 24.1727C34.9878 24.4822 34.728 24.8479 34.5702 24.9886C34.4032 25.1293 34.0506 25.3544 33.7907 25.4857C33.5216 25.617 33.0205 25.7576 32.6771 25.8045C32.3245 25.8514 31.7584 25.8608 31.3964 25.8327C30.9603 25.8045 30.7283 25.8233 30.6819 25.8983C30.6355 25.9546 30.6726 26.1046 30.7468 26.2359C30.8396 26.386 31.0252 26.5079 31.2851 26.5736C31.5171 26.6392 31.9811 26.658 32.4451 26.6204C32.9524 26.5829 33.4535 26.4704 33.9485 26.2828C34.3568 26.1328 34.8022 25.9077 34.9414 25.7952C35.0806 25.6732 35.3591 25.4106 35.5725 25.2043C35.8973 24.8948 36.0179 24.6698 36.2685 23.8913C36.4727 23.263 36.5562 22.8691 36.5191 22.7003ZM15.3697 23.5819C15.1655 22.6628 15.1469 22.6253 14.9149 22.6253C14.7572 22.6253 14.6365 22.7003 14.5716 22.841C14.5159 22.9535 14.3953 23.2067 14.3024 23.4131C14.2189 23.6194 14.154 23.957 14.1632 24.1821C14.1725 24.4072 14.2468 24.726 14.321 24.8761C14.3953 25.0261 14.553 25.1856 14.6737 25.2137C14.785 25.2418 15.0263 25.2512 15.2026 25.2325C15.4996 25.2043 15.5274 25.1762 15.5553 24.8761C15.5738 24.6979 15.4903 24.1164 15.3697 23.5819ZM37.5213 24.2008C37.4007 23.9007 37.28 23.7507 37.1687 23.7507C37.0852 23.7507 36.9738 23.8445 36.9274 23.9664C36.9042 24.0227 36.867 24.1165 36.8253 24.2221C36.7835 24.3275 36.7371 24.4447 36.6954 24.5478C36.5933 24.7823 36.5655 25.0261 36.6026 25.2043C36.6304 25.3544 36.7047 25.5419 36.7696 25.6076C36.8253 25.6732 36.9645 25.7295 37.0852 25.7201C37.1965 25.7201 37.3821 25.6357 37.5028 25.5232C37.642 25.3919 37.7069 25.2325 37.7069 24.9886C37.6976 24.801 37.6141 24.4447 37.5213 24.2008ZM47.2562 24.454C47.2933 24.2008 47.284 23.9289 47.2376 23.8632C47.1819 23.7694 47.1263 23.7882 46.987 23.9195C46.8942 24.0133 46.82 24.1258 46.8293 24.1539C46.8386 24.1915 46.7922 24.2946 46.7179 24.3884C46.6437 24.4728 46.3931 24.801 46.1611 25.1105C45.9291 25.42 45.6507 25.7764 45.5301 25.9077C45.4094 26.039 45.196 26.2359 45.0382 26.3391C44.8805 26.4423 44.5093 26.6204 44.203 26.733C43.8968 26.8455 43.5534 26.9393 43.442 26.9393C43.3214 26.9393 43.0337 26.9862 42.7924 27.0425C42.5419 27.0987 42.0129 27.2488 41.6046 27.3801C41.1963 27.5114 40.593 27.7646 40.259 27.9428C39.9249 28.1304 39.433 28.4492 39.1639 28.6649C38.8855 28.8712 38.6164 29.1338 38.5514 29.237C38.4865 29.3402 38.3751 29.4902 38.3009 29.5652C38.2266 29.6403 38.0781 29.8935 37.9668 30.1279C37.8647 30.3624 37.7255 30.7188 37.6698 30.9251C37.6141 31.1314 37.5677 31.5722 37.5677 31.9098C37.577 32.2474 37.6327 32.7539 37.6976 33.0352C37.7626 33.3166 38.0039 33.9262 38.2266 34.3857C38.5143 34.9765 38.8113 35.4173 39.2381 35.8675C39.5722 36.2145 39.9156 36.5052 40.0084 36.5052C40.129 36.5052 40.1476 36.4583 40.1012 36.2989C40.0734 36.177 39.9434 35.9331 39.8228 35.7549C39.7022 35.5768 39.6094 35.3704 39.6094 35.3142C39.6094 35.2485 39.5722 35.1829 39.5351 35.1735C39.498 35.1547 39.3309 34.8265 39.1732 34.442C39.0154 34.0575 38.8391 33.5698 38.7927 33.3635C38.7649 33.2603 38.7301 33.1244 38.6953 32.9885C38.6605 32.8524 38.6257 32.7164 38.5978 32.6132C38.5421 32.4069 38.4957 32.0317 38.4957 31.7691C38.4957 31.5159 38.5421 31.1314 38.5978 30.9251C38.6442 30.7188 38.7927 30.3436 38.9041 30.0811C39.034 29.7997 39.3495 29.3964 39.6929 29.0776C39.9991 28.7775 40.4538 28.4492 40.7044 28.3367C40.9457 28.2241 41.4097 28.0459 41.7438 27.9334C42.0779 27.8115 42.644 27.6614 42.9966 27.5958C43.3678 27.5301 43.8504 27.502 44.1102 27.5395C44.3701 27.577 44.8062 27.7083 45.0846 27.8396C45.428 27.9991 45.7992 28.2992 46.2261 28.7493C46.5694 29.1245 46.8571 29.4527 46.8478 29.4996C46.8478 29.5371 46.9314 29.659 47.0335 29.7809C47.1355 29.8935 47.2562 30.1655 47.3119 30.3905C47.3583 30.6062 47.4047 31.0283 47.4047 31.3284C47.4047 31.6191 47.3211 32.1255 47.2191 32.4538C47.117 32.7726 46.9592 33.129 46.8757 33.2322C46.7829 33.3447 46.6066 33.5323 46.4766 33.6542C46.3467 33.7761 46.0962 33.9074 45.9198 33.9355C45.7435 33.9731 45.3445 33.9824 45.0382 33.9543C44.732 33.9262 44.3329 33.8324 44.1566 33.7386C43.9803 33.6542 43.739 33.4666 43.6184 33.326C43.507 33.1947 43.4235 33.0446 43.442 32.9883C43.4606 32.9321 43.5812 32.9133 43.7019 32.9414C43.8225 32.9696 44.1752 32.9883 44.4814 32.9883C44.8712 32.979 45.1125 32.9227 45.3073 32.8008C45.4465 32.6976 45.6507 32.4819 45.7435 32.3319C45.8363 32.1818 45.9198 31.9192 45.9198 31.7691C45.9198 31.6191 45.8642 31.3284 45.7806 31.1408C45.7064 30.9439 45.5672 30.7094 45.4837 30.6156C45.3909 30.5125 44.9918 30.278 44.5835 30.0717C44.1752 29.8653 43.7204 29.5465 43.5441 29.3589C43.3678 29.162 43.2286 28.9181 43.2286 28.815C43.2286 28.7118 43.2008 28.6274 43.1636 28.6274C43.1172 28.6274 42.7924 28.7775 42.4398 28.965C42.0871 29.1432 41.5582 29.4715 41.2705 29.6872C40.9828 29.9029 40.6302 30.1842 40.4817 30.3155C40.3332 30.4468 40.0641 30.7844 39.8878 31.0658C39.5908 31.5441 39.563 31.6379 39.563 32.3319C39.5722 32.979 39.6001 33.1478 39.8321 33.551C39.9713 33.8136 40.2682 34.1794 40.4817 34.3857C40.8343 34.7233 40.89 34.7421 41.3355 34.7139C41.7438 34.6858 41.8644 34.6295 42.1521 34.3294C42.3377 34.1325 42.4862 33.9449 42.4862 33.9074C42.4862 33.8605 42.5233 33.7667 42.5697 33.6917C42.644 33.5792 42.6996 33.6073 42.9224 33.8699C43.0616 34.0481 43.3771 34.2825 43.6276 34.4045C43.8689 34.5264 44.1845 34.6295 44.3422 34.6295C44.5 34.6295 44.6392 34.6671 44.667 34.7233C44.6949 34.7796 44.6485 34.8828 44.5742 34.9578C44.5 35.0328 44.2123 35.1641 43.9524 35.2391C43.6833 35.3142 43.1636 35.3798 42.811 35.3798C42.3284 35.3704 42.1335 35.4079 42.05 35.5205C41.9479 35.633 41.9665 35.6799 42.1428 35.7831C42.282 35.8581 42.811 35.8956 43.7854 35.8956C45.2053 35.8956 45.2331 35.8956 45.7806 35.6143C46.0869 35.4548 46.4859 35.2298 46.6622 35.0985C46.8386 34.9765 47.117 34.7233 47.284 34.5451C47.4511 34.3576 47.7387 33.823 47.9336 33.3635C48.2306 32.6413 48.2863 32.3975 48.3141 31.6754C48.3327 31.0752 48.3048 30.7938 48.2213 30.7094C48.1563 30.6437 48.1285 30.5593 48.1656 30.5218C48.2027 30.4843 48.1749 30.353 48.1099 30.2217C48.0357 30.0904 47.8408 29.7809 47.6738 29.5184C47.5067 29.2651 47.1077 28.7775 46.7829 28.4398C46.4674 28.1022 46.0962 27.6708 45.9662 27.4833C45.8363 27.2863 45.7342 27.0612 45.7342 26.9862C45.7342 26.9112 45.7806 26.8455 45.827 26.8455C45.8827 26.8455 45.9198 26.7799 45.9198 26.7048C45.9198 26.6298 45.957 26.5548 45.9941 26.5454C46.0405 26.5267 46.2075 26.311 46.3838 26.0484C46.5602 25.7952 46.7643 25.5138 46.8386 25.4388C46.9128 25.3637 47.0242 25.2137 47.0891 25.1105C47.1448 25.0074 47.2283 24.7166 47.2562 24.454ZM6.87835 25.5794C6.45146 25.2981 6.08954 25.0636 6.0617 25.0636C6.03386 25.0636 6.0153 25.0918 6.0153 25.1387C6.0153 25.1762 6.16378 25.4763 6.3401 25.8139L6.65563 26.4235C6.34632 26.6611 6.16072 26.8069 6.04936 26.8945C5.99366 26.9383 5.95653 26.9674 5.93178 26.9862C5.86682 27.0331 5.49561 27.3707 5.11513 27.7365C4.73464 28.1022 4.29847 28.6274 4.13143 28.9088C3.97367 29.1901 3.78807 29.659 3.72311 29.9404C3.64887 30.2217 3.54678 30.7282 3.4911 31.0658C3.42614 31.4784 3.42614 31.8536 3.4911 32.2381C3.5375 32.5476 3.69527 33.0915 3.83447 33.4573C3.98295 33.823 4.13143 34.1231 4.17783 34.1419C4.21495 34.1512 4.25207 34.2169 4.25207 34.2825C4.25207 34.3388 4.39128 34.5451 4.55832 34.7233C4.72536 34.9015 5.0316 35.1547 5.22649 35.2954C5.43065 35.4267 5.78329 35.6049 6.0153 35.6893C6.2473 35.7737 6.67419 35.9144 6.97115 35.9894C7.25883 36.0644 7.7414 36.1301 8.03836 36.1301C8.32605 36.1301 8.83646 36.0738 9.17054 35.9988C9.50462 35.9331 9.98719 35.7643 10.2378 35.633C10.4976 35.5111 10.8874 35.211 11.1194 34.9859C11.3514 34.7515 11.5834 34.5076 11.6298 34.4326C11.6855 34.3576 11.7968 34.095 11.8896 33.8324C11.9731 33.5792 12.0474 33.2884 12.0474 33.204C12.0474 33.1103 12.0938 33.0352 12.1402 33.0352C12.1959 33.0352 12.2237 32.6413 12.2237 32.0317L12.2051 31.0189C12.0845 32.3975 11.9824 32.9133 11.9082 33.0634C11.8339 33.204 11.769 33.3822 11.769 33.4573C11.769 33.5323 11.7319 33.5979 11.6762 33.5979C11.6298 33.5979 11.5834 33.6636 11.5834 33.7386C11.5834 33.8136 11.472 34.0106 11.3328 34.17C11.1843 34.3294 10.9338 34.592 10.7667 34.7608C10.5904 34.9203 10.1542 35.1735 9.79231 35.3235C9.2819 35.5205 8.9571 35.5955 8.42813 35.6049C7.89916 35.6143 7.63004 35.5674 7.33308 35.4267C7.11963 35.3235 6.94331 35.1829 6.94331 35.1266C6.94331 35.0609 7.05467 34.9578 7.20315 34.9015C7.34236 34.8359 7.63004 34.7139 7.85276 34.6202C8.06621 34.517 8.34461 34.3482 8.46525 34.2357C8.58589 34.1137 8.80862 33.8136 8.9571 33.551C9.19838 33.1478 9.27262 33.0821 9.50462 33.1009C9.57027 33.105 9.67945 33.111 9.80731 33.118C9.96864 33.1268 10.1597 33.1373 10.3306 33.1478C10.7482 33.1571 10.9523 33.1196 11.1565 32.979C11.305 32.8852 11.4999 32.632 11.6019 32.4256C11.7319 32.1537 11.769 31.9192 11.7411 31.5816C11.7133 31.3284 11.6576 30.9626 11.6112 30.7844C11.5648 30.6062 11.3978 30.2686 11.2307 30.0342C11.073 29.7997 10.8224 29.4808 10.6832 29.3308C10.5347 29.1807 10.3398 28.9932 10.2378 28.9369C10.1357 28.8712 9.93151 28.7587 9.77375 28.6837C9.62527 28.6087 9.30974 28.4774 9.07774 28.4023C8.84574 28.3273 8.53949 28.2429 8.38173 28.2054C8.23325 28.1772 7.98268 28.1866 7.8342 28.2241C7.63004 28.2804 7.5094 28.4023 7.3702 28.7212C7.26811 28.9557 6.98043 29.3308 6.72059 29.5652C6.46074 29.7997 6.13594 30.1186 5.99674 30.2686C5.85754 30.4187 5.69049 30.7375 5.63481 30.972C5.56985 31.2065 5.54201 31.5253 5.56985 31.6754C5.59769 31.8254 5.71833 32.1161 5.83898 32.3037C5.9689 32.51 6.21018 32.707 6.4329 32.8008C6.67419 32.9039 6.91547 32.9414 7.11035 32.9039C7.26811 32.8758 7.49084 32.7445 7.59292 32.6132C7.695 32.4819 7.85276 32.3881 7.94556 32.4069C8.06621 32.4256 8.10333 32.5194 8.09405 32.8008C8.09405 33.0071 8.00124 33.3635 7.89916 33.5979C7.7878 33.8324 7.58364 34.095 7.43516 34.1981C7.28667 34.3013 6.91547 34.3951 6.5721 34.4326C6.23802 34.4701 5.84826 34.4607 5.69049 34.4138C5.54201 34.3669 5.29145 34.2544 5.13369 34.1794C4.9852 34.095 4.78104 33.9449 4.68824 33.8324C4.60472 33.7292 4.40984 33.4573 4.27991 33.2228C4.03863 32.8289 4.02007 32.7257 4.02935 31.816C4.03863 31.0095 4.08503 30.7 4.27991 30.1092C4.41912 29.7059 4.66968 29.1526 4.846 28.89C5.01304 28.618 5.35641 28.2054 5.60697 27.9709C5.85754 27.7458 6.2937 27.4551 6.5721 27.3332C6.96187 27.155 7.29595 27.0894 7.96412 27.0518C8.58589 27.0237 9.03134 27.0612 9.47678 27.1644C9.82015 27.2488 10.312 27.4176 10.5626 27.5489C10.8224 27.6802 11.0822 27.7834 11.1472 27.7834C11.2029 27.7834 11.3978 27.8959 11.5648 28.0178C11.7226 28.1491 11.8896 28.2523 11.936 28.2523C11.9731 28.2523 12.2144 28.468 12.465 28.7399C12.7248 29.0119 13.0682 29.4527 13.226 29.7059C13.3837 29.9685 13.5879 30.3905 13.6714 30.6438C13.7828 31.0001 13.8199 31.3753 13.792 32.1912C13.7642 33.1384 13.7364 33.3353 13.5136 33.7855C13.3744 34.0668 13.1053 34.4701 12.9104 34.6764C12.7155 34.8921 12.3722 35.2016 12.1402 35.3798C11.9175 35.558 11.5927 35.8487 11.4256 36.0175C11.1658 36.2707 11.1379 36.3458 11.24 36.4583C11.2957 36.5427 11.3978 36.6084 11.4442 36.6084C11.4999 36.6084 11.7875 36.4208 12.0938 36.1957C12.4 35.9706 12.8826 35.5768 13.161 35.3142C13.458 35.0422 13.8013 34.592 13.9869 34.245C14.1911 33.8605 14.3489 33.3822 14.4324 32.8946C14.5345 32.3131 14.5437 32.0036 14.4602 31.4878C14.4045 31.122 14.2746 30.5781 14.1632 30.2686C14.0612 29.9591 13.922 29.6403 13.8663 29.5652C13.8013 29.4902 13.6992 29.3214 13.6343 29.1901C13.5786 29.0588 13.4487 28.8712 13.3652 28.7681C13.2816 28.6555 12.9754 28.3836 12.697 28.1491C12.4186 27.924 11.8618 27.577 11.472 27.3801C11.073 27.1925 10.711 27.0331 10.6554 27.0331C10.609 27.0331 10.3213 26.9299 10.0336 26.808C9.73663 26.6861 9.07774 26.4704 8.56733 26.3391C7.82492 26.1421 7.49084 25.9921 6.87835 25.5794ZM4.58616 25.6076C4.45624 25.4575 4.28919 25.345 4.23351 25.345C4.16855 25.345 4.00151 25.4388 3.86231 25.5607C3.72311 25.6732 3.5839 25.8983 3.55606 26.0484C3.50966 26.2734 3.55606 26.3954 3.80663 26.6861C4.02935 26.9487 4.16855 27.0331 4.29847 26.9956C4.40056 26.9674 4.59544 26.8268 4.72536 26.6861C4.92952 26.4704 4.95736 26.3766 4.8924 26.1421C4.85528 25.9921 4.71608 25.7483 4.58616 25.6076ZM17.9217 25.7201C17.6526 25.617 17.2906 25.5326 17.1236 25.5326C16.938 25.5326 16.7153 25.617 16.5854 25.7295C16.3905 25.8983 16.3626 26.0015 16.3812 26.4516C16.3905 26.7611 16.4462 27.0331 16.5204 27.1081C16.5854 27.1644 16.7895 27.2488 16.9658 27.2769C17.17 27.3144 17.4763 27.2769 17.8011 27.1831C18.0795 27.0894 18.4228 26.9018 18.5713 26.7705C18.7105 26.6298 18.8219 26.4798 18.8219 26.4235C18.8219 26.3672 18.7291 26.2359 18.6177 26.1234C18.4971 26.0015 18.1815 25.8233 17.9217 25.7201ZM13.393 25.8608C13.2352 25.7014 13.0589 25.6263 12.8362 25.6263C12.6691 25.6263 12.5021 25.6639 12.465 25.7201C12.4371 25.7764 12.2701 25.8139 12.0938 25.8139C11.8154 25.8139 11.769 25.842 11.769 26.0296C11.769 26.1421 11.8247 26.3016 11.8896 26.386C11.9546 26.4704 12.168 26.6486 12.3722 26.7893C12.5763 26.9299 12.8455 27.0425 12.9754 27.0331C13.1053 27.0331 13.3002 26.9674 13.4208 26.8924C13.5693 26.7893 13.625 26.658 13.625 26.4235C13.625 26.1984 13.5508 26.0202 13.393 25.8608ZM15.4346 26.0484C15.4068 25.9733 15.2954 25.9077 15.1841 25.9077C15.0634 25.9171 14.85 25.9827 14.7015 26.0577C14.4973 26.1609 14.4324 26.2547 14.4417 26.4235C14.4602 26.5923 14.553 26.6955 14.785 26.7986C15.017 26.9018 15.1655 26.9112 15.2954 26.8455C15.4192 26.783 15.481 26.658 15.481 26.4704C15.481 26.3203 15.4625 26.1234 15.4346 26.0484ZM39.5444 26.1515C39.3217 26.0671 39.0711 26.0015 38.9876 26.0109C38.8948 26.0109 38.737 26.0484 38.6349 26.0859C38.5329 26.1234 38.4215 26.2266 38.3844 26.311C38.338 26.4047 38.338 26.5829 38.3844 26.7142C38.4215 26.8549 38.5236 27.005 38.6164 27.0425C38.6999 27.0894 38.9133 27.1269 39.0804 27.1269C39.2381 27.1269 39.5258 27.0894 39.7022 27.0425C39.8785 26.9862 40.0919 26.883 40.1662 26.7986C40.2868 26.6673 40.2868 26.6298 40.1198 26.4798C40.0177 26.386 39.7578 26.2359 39.5444 26.1515ZM23.4434 27.2019C23.4248 26.5267 23.3784 26.1421 23.3134 26.1234C23.2392 26.0953 23.2021 26.2359 23.1928 26.536C23.1928 26.7799 23.2114 27.2675 23.2578 27.6239C23.2949 27.9709 23.3506 28.2523 23.397 28.2523C23.4341 28.2523 23.4527 27.7834 23.4434 27.2019ZM36.12 26.3016C36.0179 26.2359 35.9251 26.189 35.8973 26.1984C35.8695 26.1984 35.7859 26.2266 35.7117 26.2547C35.6375 26.2828 35.4519 26.3579 35.2941 26.4235C35.2316 26.4511 35.1526 26.4838 35.0718 26.5172C34.9606 26.5631 34.8457 26.6106 34.7651 26.6486C34.6166 26.7048 34.4774 26.8174 34.4403 26.9018C34.3908 26.9956 34.4434 27.1144 34.5981 27.2582C34.728 27.3707 34.96 27.5114 35.1085 27.577C35.2663 27.6427 35.5075 27.6896 35.656 27.6708C35.8138 27.6521 35.9994 27.5395 36.1015 27.4082C36.1943 27.2769 36.2778 27.005 36.2778 26.7986C36.2871 26.5267 36.2407 26.386 36.12 26.3016ZM29.327 26.4985C29.262 26.3766 29.1692 26.2828 29.1228 26.2828C29.0671 26.2828 29.0114 26.3391 28.9929 26.4047C28.965 26.461 28.9279 26.9393 28.9001 27.4551C28.863 27.9709 28.8722 28.5336 28.9094 28.7024C28.9558 28.8712 29.03 29.0119 29.0764 29.0119C29.1321 29.0119 29.2342 28.8712 29.3084 28.7024C29.3919 28.4961 29.4383 28.1022 29.4383 27.5489C29.4383 27.0894 29.3827 26.6111 29.327 26.4985ZM48.2491 26.7517C48.1563 26.6204 47.9522 26.4704 47.7944 26.4047C47.581 26.3203 47.4789 26.3203 47.3211 26.4141C47.2191 26.4704 47.0798 26.6767 47.0149 26.8737C46.9035 27.1831 46.9128 27.2394 47.0891 27.4739C47.2005 27.6239 47.3768 27.7458 47.4882 27.7646C47.5903 27.774 47.8223 27.7177 47.9893 27.6427C48.1842 27.5583 48.3048 27.4176 48.3512 27.2488C48.3976 27.0612 48.3698 26.9206 48.2491 26.7517ZM37.4378 26.5923C37.4007 26.461 37.3079 26.3766 37.2058 26.3766C37.113 26.3766 36.9738 26.4423 36.9088 26.5267C36.8068 26.6392 36.8068 26.733 36.8717 26.9206C36.9367 27.0987 37.0388 27.1738 37.1965 27.1738C37.3543 27.1738 37.4378 27.1175 37.4564 26.9862C37.4749 26.883 37.4656 26.7048 37.4378 26.5923ZM30.2828 27.0612C30.2364 26.9299 30.1529 26.808 30.0972 26.7893C30.0508 26.7799 29.9395 26.7893 29.8745 26.8174C29.791 26.8455 29.7446 26.9674 29.7539 27.1081C29.7631 27.2488 29.8281 27.5114 29.9023 27.6896L30.0323 28.0178C30.3385 27.3895 30.3571 27.2582 30.2828 27.0612ZM24.4642 27.0143C24.3992 26.9768 24.3157 26.9393 24.2786 26.9393C24.2507 26.9393 24.1951 27.005 24.1672 27.08C24.1394 27.155 24.1394 27.4082 24.1858 27.6333C24.2229 27.8584 24.2971 28.0272 24.3435 28.0084C24.3992 27.9897 24.4735 27.774 24.5106 27.5301C24.5663 27.2019 24.557 27.0706 24.4642 27.0143ZM28.334 27.1269C28.3062 27.0706 28.2319 27.0331 28.1577 27.0331C28.0834 27.0331 27.9999 27.1269 27.9721 27.2488C27.9535 27.3613 27.9535 27.5958 27.9906 27.774C28.0278 27.9522 28.102 28.1116 28.1484 28.1304C28.2041 28.1491 28.269 27.9522 28.3154 27.6896C28.3526 27.4364 28.3618 27.1831 28.334 27.1269ZM33.0205 27.7365C32.4358 27.4645 31.7584 27.2113 31.5264 27.1738C31.2016 27.1269 31.0716 27.1363 31.0252 27.23C30.9974 27.3051 30.9788 27.4457 30.9974 27.5489C31.016 27.6896 31.2572 27.8302 31.9532 28.121C32.4637 28.3273 33.039 28.5711 33.2339 28.6555C33.4195 28.7399 33.6051 28.815 33.6515 28.815C33.6886 28.815 33.8 28.89 33.9021 28.9838C34.0042 29.0682 34.2362 29.2558 34.4125 29.3777C34.5888 29.509 34.9043 29.7997 35.1085 30.0248C35.3127 30.2499 35.6003 30.6531 35.7488 30.9157C35.9994 31.3565 36.0179 31.4784 36.0551 32.6132C36.0922 33.7105 36.0736 33.8887 35.888 34.3951C35.7767 34.7046 35.5447 35.1454 35.3776 35.3798C35.2199 35.6143 34.895 35.9706 34.663 36.177C34.4403 36.3833 34.1526 36.6271 34.032 36.7209C33.9114 36.8147 33.4566 37.0585 33.0205 37.2649L32.9599 37.2935C32.5463 37.4891 32.1632 37.6703 32.0924 37.715C32.0182 37.7525 31.9532 37.8463 31.9532 37.912C31.9532 37.9776 32.1667 38.1839 32.4358 38.3715C32.5031 38.4184 32.5862 38.4765 32.6786 38.5412C32.9557 38.735 33.3175 38.9882 33.5958 39.178C33.967 39.4406 34.5795 39.9564 34.9414 40.3316C35.3127 40.6973 35.8416 41.3538 36.1107 41.7852C36.3891 42.2072 36.7232 42.7699 36.8532 43.0232C37.0759 43.4358 37.1037 43.4639 37.1037 43.2388C37.1037 43.0888 36.9831 42.6105 36.8346 42.1603C36.6861 41.7008 36.4077 41.1006 36.2221 40.8192C36.0365 40.5379 35.6839 40.0971 35.4519 39.8439C35.2106 39.5907 34.8115 39.2437 34.5517 39.0843C34.3011 38.9154 34.0413 38.7279 33.9856 38.6528C33.9206 38.5778 33.7072 38.4371 33.4937 38.334C33.2803 38.2308 33.1133 38.1277 33.1133 38.0995C33.1133 38.0714 33.1504 38.0057 33.1875 37.9495C33.2246 37.9026 33.4845 37.7338 33.7629 37.5931C34.0413 37.443 34.3382 37.2742 34.4125 37.1992C34.4867 37.1336 34.5795 37.0679 34.6259 37.0679C34.663 37.0679 34.8022 36.9741 34.9414 36.8616C35.0806 36.7397 35.3591 36.4677 35.5632 36.2614C35.7767 36.0457 36.0643 35.7268 36.2128 35.558C36.3613 35.3798 36.5469 35.0703 36.6212 34.864C36.6861 34.6577 36.7882 34.4514 36.8253 34.3951C36.8717 34.3388 36.9645 33.9637 37.0202 33.551C37.113 32.979 37.113 32.6413 37.0295 32.1443C36.9738 31.7785 36.8624 31.3377 36.7789 31.1596C36.6954 30.9814 36.6026 30.7844 36.5655 30.7282C36.5567 30.7148 36.54 30.6887 36.5172 30.6531C36.4441 30.5388 36.3079 30.3259 36.1664 30.1186C35.9808 29.8372 35.7117 29.4808 35.5632 29.3308C35.4147 29.1807 35.0157 28.8619 34.6909 28.6368C34.3568 28.4117 33.6051 27.9991 33.0205 27.7365ZM21.4945 27.4551C21.4203 27.3613 21.244 27.3144 21.0491 27.3238C20.8728 27.3332 20.4737 27.3707 20.1675 27.4082C19.8612 27.4551 19.2952 27.6333 18.9147 27.8021C18.5342 27.9803 18.1166 28.2054 17.9867 28.3085C17.8567 28.4023 17.5412 28.7212 17.2721 29.0025C17.003 29.2839 16.7338 29.6215 16.6782 29.7528C16.6225 29.8841 16.5204 30.0904 16.4554 30.2217C16.3905 30.353 16.2698 30.7094 16.177 31.0189C16.075 31.4128 16.0286 31.9192 16.0286 32.707C16.0378 33.7761 16.0471 33.8605 16.3255 34.442C16.4926 34.7796 16.7524 35.2204 16.9009 35.4267C17.0586 35.633 17.4206 36.0269 17.699 36.3083C17.9867 36.5802 18.6084 37.096 19.0817 37.4524C19.5828 37.8369 19.9355 38.1652 19.9355 38.2683C19.9355 38.3809 19.7963 38.4747 19.4529 38.5872C19.1838 38.681 18.6734 38.8404 18.3115 38.9436C17.9588 39.0561 17.5041 39.2343 17.3092 39.3468C17.1236 39.4594 16.9658 39.5813 16.9658 39.6282C16.9658 39.6657 16.9102 39.6938 16.8545 39.6938C16.7895 39.6938 16.5482 39.8908 16.3162 40.1346C16.0842 40.3878 15.7873 40.7536 15.6481 40.9599C15.5089 41.1662 15.3047 41.6727 15.2026 42.0853C15.1005 42.498 15.017 42.9481 15.017 43.0982C15.017 43.2388 15.082 43.3701 15.1562 43.3983C15.2305 43.4264 15.3697 43.4452 15.4625 43.4452C15.546 43.4452 15.6759 43.342 15.7409 43.2107C15.7965 43.0794 15.8522 42.9012 15.8522 42.8168C15.8522 42.723 15.8986 42.498 15.9636 42.3198C16.0193 42.1416 16.1306 41.804 16.2142 41.5789C16.307 41.3257 16.5575 40.9787 16.873 40.6786C17.17 40.3878 17.6155 40.0784 17.9403 39.9377C18.1345 39.8485 18.3399 39.7555 18.4902 39.6874C18.5769 39.6482 18.6453 39.6172 18.6827 39.6001C18.7847 39.5438 19.1652 39.4406 19.5179 39.3562C19.8798 39.2718 20.2789 39.1405 20.4181 39.0561C20.5665 38.9623 20.7243 38.7935 20.78 38.6622C20.8357 38.5309 20.8542 38.2777 20.8264 38.0995C20.7893 37.8276 20.6686 37.6963 20.1025 37.2742C19.7313 37.0023 19.258 36.6459 19.0539 36.4771C18.859 36.3176 18.4692 35.9425 18.1908 35.6612C17.9217 35.3798 17.5783 34.9109 17.4299 34.6295C17.2721 34.3482 17.0772 33.8793 16.9844 33.5979C16.8823 33.2509 16.8266 32.7914 16.8359 32.1912C16.8359 31.591 16.8916 31.1689 16.9937 30.9063C17.0772 30.6813 17.3185 30.2311 17.5227 29.8935C17.7268 29.5559 17.9403 29.2839 17.9867 29.2839C18.0423 29.2839 18.1908 29.1526 18.3393 28.9932C18.4785 28.8337 18.924 28.5336 19.3323 28.3179C20.0004 27.9803 20.1489 27.9334 20.8171 27.9147C21.4203 27.9053 21.5595 27.8678 21.5873 27.7458C21.5966 27.6614 21.5502 27.5301 21.4945 27.4551ZM15.8986 27.7177C15.7965 27.5583 15.6666 27.502 15.4161 27.502C15.2212 27.502 14.9428 27.577 14.8036 27.6708C14.553 27.8209 14.5437 27.849 14.5994 28.3461C14.6365 28.6274 14.7572 29.0682 14.8593 29.312C14.9706 29.5559 15.1284 29.7809 15.2026 29.8091C15.2769 29.8372 15.4068 29.7622 15.4996 29.6403C15.5831 29.5183 15.6945 29.3402 15.7409 29.237C15.7873 29.1338 15.8708 28.8994 15.9265 28.7212C15.9914 28.543 16.0378 28.2898 16.0378 28.1585C16.0378 28.0272 15.9729 27.8302 15.8986 27.7177ZM37.6327 27.7552C37.4656 27.7177 37.2986 27.6896 37.2429 27.6896C37.1965 27.6896 37.048 27.7552 36.9274 27.8302C36.7975 27.924 36.714 28.0647 36.7232 28.1866C36.7232 28.2992 36.8439 28.6555 36.9831 28.9838C37.1316 29.3026 37.2615 29.5652 37.2893 29.5652C37.3172 29.5652 37.41 29.509 37.4935 29.4433C37.577 29.3777 37.7348 29.1338 37.8368 28.89C37.9668 28.5993 38.0132 28.3367 37.9853 28.1397C37.9389 27.8865 37.874 27.8209 37.6327 27.7552ZM25.6984 27.9991C25.6428 27.8771 25.5128 27.7834 25.4108 27.7834C25.2808 27.7834 25.2252 27.849 25.2252 27.9991C25.2159 28.1116 25.2808 28.271 25.3644 28.3461C25.4943 28.468 25.5314 28.468 25.652 28.3461C25.7634 28.2335 25.7727 28.1585 25.6984 27.9991ZM27.174 28.6743C27.174 28.5055 27.1276 28.4398 26.9977 28.4398C26.9049 28.4398 26.7657 28.5055 26.7007 28.5805C26.6265 28.6649 26.5151 28.7306 26.4594 28.7212C26.3945 28.7212 26.2645 28.8525 26.181 29.0025C26.0882 29.162 25.9861 29.2839 25.949 29.2839C25.9026 29.2839 25.8562 29.3589 25.8284 29.4527C25.8005 29.5371 25.6984 29.7622 25.5871 29.9404C25.4757 30.1186 25.3272 30.4843 25.253 30.7375C25.1695 31.0001 25.1045 31.5441 25.0952 31.9567C25.0952 32.3975 25.1416 32.8946 25.2252 33.1665C25.2994 33.4197 25.4293 33.6542 25.5036 33.6917C25.6242 33.7574 25.6428 33.6073 25.6428 32.5757C25.6428 31.6847 25.6799 31.2815 25.8098 30.9532C25.8933 30.7 26.0511 30.3436 26.1439 30.1561C26.246 29.9591 26.5151 29.6028 26.7471 29.3589C27.0255 29.0682 27.174 28.8244 27.174 28.6743ZM20.8449 29.0025C20.8264 28.8525 20.7521 28.7587 20.6315 28.7399C20.5294 28.7306 20.3253 28.7868 20.1675 28.8712C20.019 28.9463 19.722 29.162 19.5179 29.3308C19.3137 29.509 18.9982 29.7903 18.8126 29.9591C18.627 30.1279 18.3857 30.4187 18.2651 30.5969C18.1444 30.775 18.0145 30.9439 17.9867 30.972C17.9588 31.0001 17.866 31.1689 17.7825 31.3471C17.699 31.5253 17.5783 31.9661 17.5227 32.3319C17.4299 32.857 17.4299 33.1009 17.5319 33.551C17.634 33.9637 17.7547 34.2075 18.0331 34.517C18.3486 34.8734 18.4599 34.9296 18.7847 34.9484C19.091 34.9578 19.2302 34.9015 19.4993 34.6577C19.787 34.3951 19.8705 34.3669 20.0097 34.4607C20.0932 34.5264 20.2417 34.6483 20.3345 34.7421C20.4181 34.8359 20.8171 35.1266 21.2161 35.3986C21.6059 35.6705 22.1163 35.9613 22.3483 36.0457C22.5803 36.1395 22.9794 36.2332 23.2299 36.2708C23.4991 36.3083 24.0744 36.2707 24.6219 36.1863C25.2808 36.0926 25.6892 35.9706 26.014 35.7831C26.2645 35.6424 26.645 35.361 26.8492 35.1735C27.0533 34.9859 27.3039 34.6671 27.406 34.4701C27.5081 34.2732 27.6101 34.095 27.638 34.0668C27.6658 34.0387 27.7586 33.8136 27.8421 33.551C27.9442 33.2697 28.0092 32.7914 28.0092 32.3787C28.0092 31.9942 27.9442 31.4222 27.8607 31.1127C27.7865 30.8032 27.6194 30.4093 27.4895 30.2499C27.3689 30.081 27.2111 29.9404 27.1554 29.9404C27.075 29.9404 27.0564 30.0123 27.0997 30.1561C27.1057 30.174 27.1135 30.1979 27.1229 30.2267C27.1724 30.3783 27.266 30.665 27.3596 30.9251C27.5173 31.3659 27.5545 31.6472 27.5266 32.1912C27.4988 32.7445 27.4338 33.0352 27.1833 33.551C26.9884 33.9824 26.7007 34.3857 26.3573 34.7233C25.9861 35.0891 25.6613 35.3048 25.2716 35.4548C24.9653 35.5768 24.4827 35.6987 24.2043 35.7268C23.9259 35.7549 23.4434 35.7268 23.1371 35.6612C22.8309 35.6049 22.3298 35.4079 22.0235 35.2391C21.7173 35.0703 21.3646 34.8077 21.2347 34.6577C21.1048 34.517 20.8913 34.3107 20.7707 34.2075C20.6408 34.1044 20.4737 33.9074 20.3995 33.7667C20.3253 33.6261 20.2789 33.4854 20.3067 33.4573C20.3345 33.4291 20.4645 33.4479 20.6129 33.5041C20.7521 33.551 20.9749 33.5979 21.1233 33.5979C21.2625 33.5979 21.5873 33.4948 21.8379 33.3728C22.0978 33.2509 22.3762 33.0352 22.469 32.9039C22.5525 32.7726 22.6546 32.4819 22.6824 32.2662C22.7288 31.9661 22.6917 31.7504 22.5525 31.4409C22.4504 31.2065 22.1256 30.7844 21.8379 30.5031C21.5409 30.2217 21.2254 29.9029 21.1233 29.7997C21.0305 29.6965 20.9285 29.5277 20.9099 29.4246C20.8821 29.3214 20.8542 29.1338 20.8449 29.0025ZM25.0024 29.1245C24.9468 29.0494 24.8261 28.9369 24.7426 28.89C24.6127 28.8244 24.5199 28.8619 24.325 29.0682C24.1765 29.2182 24.028 29.4902 23.9909 29.6684C23.9538 29.8372 23.8981 30.4468 23.861 31.0189C23.8331 31.7316 23.7589 32.1818 23.6383 32.4725C23.5362 32.707 23.4619 32.9227 23.4619 32.9696C23.4619 33.0071 23.3134 33.3635 23.1278 33.7667C22.9422 34.1606 22.8216 34.5451 22.8494 34.6108C22.8773 34.6671 23.0536 34.789 23.2299 34.864C23.4063 34.939 23.7496 35.0047 24.0002 35.0047C24.2415 35.0047 24.5941 34.9484 24.789 34.864C25.0396 34.7608 25.1509 34.6483 25.188 34.4701C25.2252 34.2825 25.1416 33.9543 24.9004 33.3635C24.6405 32.7351 24.5384 32.3412 24.5013 31.816C24.4642 31.244 24.492 31.0095 24.6498 30.5781C24.7612 30.278 24.9004 30.0342 24.9468 30.0342C25.0024 30.0342 25.0581 29.8653 25.0767 29.659C25.0952 29.4433 25.0674 29.2089 25.0024 29.1245ZM28.501 29.5934C28.4361 29.5277 28.3618 29.4715 28.334 29.4715C28.3062 29.4715 28.2598 29.5465 28.2226 29.6403C28.1948 29.7247 28.2598 29.9873 28.3804 30.2217C28.4918 30.4562 28.5846 30.6531 28.5753 30.6719C28.5667 30.6806 28.6222 30.8837 28.6896 31.1307C28.6948 31.1495 28.7 31.1685 28.7052 31.1877C28.7794 31.4503 28.8444 32.0036 28.8444 32.4069C28.8444 32.9227 28.7887 33.2415 28.6681 33.5323C28.566 33.748 28.4639 34.02 28.4361 34.1419C28.399 34.2638 28.4268 34.3763 28.501 34.4045C28.5567 34.442 28.7887 34.442 29.0114 34.4045C29.2249 34.3763 29.4198 34.2919 29.4383 34.2357C29.4569 34.17 29.4476 33.5041 29.4012 32.7539C29.3455 31.7316 29.2713 31.2627 29.1228 30.8782C29.0207 30.5969 28.863 30.2123 28.7794 30.0342C28.6959 29.856 28.5753 29.6496 28.501 29.5934ZM32.3709 29.8653C32.0924 29.7059 31.7676 29.5652 31.6656 29.5652C31.5171 29.5652 31.4521 29.6403 31.4057 29.8466C31.3779 29.9966 31.2387 30.2874 31.0995 30.4749C30.951 30.6625 30.7376 30.9251 30.6076 31.0658C30.4777 31.1971 30.2921 31.4128 30.19 31.5347C30.0879 31.666 29.9487 31.8817 29.8931 32.0317C29.8281 32.1724 29.7724 32.4819 29.7724 32.7351C29.7724 33.0071 29.8374 33.2884 29.958 33.4854C30.0818 33.6855 30.2364 33.8011 30.422 33.8324C30.5798 33.8605 30.784 33.8418 30.886 33.7855C30.9881 33.7292 31.0809 33.6917 31.0995 33.6917C31.1088 33.6917 31.0995 33.823 31.0716 33.9918C31.0438 34.1512 30.9139 34.3857 30.7747 34.4982C30.6262 34.6202 30.3571 34.7608 30.1715 34.8171C29.9766 34.864 29.5311 34.9296 29.1692 34.9484C28.8166 34.9765 28.4268 35.0047 28.3154 35.0047C28.167 35.0047 28.102 35.0609 28.102 35.1922C28.102 35.2954 28.1484 35.4642 28.1948 35.5674C28.2505 35.6893 28.3804 35.7549 28.5474 35.7549C28.6866 35.7549 28.9001 35.6987 29.03 35.633C29.1599 35.5674 29.494 35.4361 29.7724 35.3517C29.957 35.2895 30.1864 35.2191 30.3715 35.1623C30.4656 35.1334 30.5482 35.108 30.6076 35.0891C30.8953 34.9953 30.9881 35.0141 31.4428 35.2579C31.7212 35.4173 32.1853 35.5861 32.4637 35.6518C32.8627 35.7362 33.0761 35.7362 33.4566 35.6424C33.8 35.558 34.0598 35.4079 34.3382 35.136C34.6074 34.8828 34.7837 34.6014 34.8765 34.2919C34.9507 34.0387 35.0157 33.5135 35.0064 33.129C35.0064 32.6882 34.9507 32.3225 34.8579 32.1443C34.7837 31.9942 34.4496 31.5816 34.1248 31.244C33.8 30.9063 33.3824 30.5218 33.2061 30.3999C33.0297 30.2686 32.6493 30.0248 32.3709 29.8653ZM26.8492 31.2815C26.8213 31.1596 26.7471 31.0658 26.6729 31.0658C26.5986 31.0658 26.4687 31.2627 26.3852 31.5159C26.3017 31.7598 26.2181 32.1349 26.1903 32.36C26.1717 32.5757 26.1996 32.8383 26.246 32.9414C26.3017 33.0446 26.4223 33.129 26.5244 33.129C26.6543 33.129 26.7378 33.0352 26.8028 32.8289C26.8585 32.6601 26.8956 32.285 26.8956 32.0036C26.8956 31.7223 26.877 31.394 26.8492 31.2815ZM15.3325 35.0328C15.249 34.7046 15.1562 34.5358 15.0634 34.5358C14.9799 34.5358 14.8778 34.6483 14.8221 34.7984C14.7665 34.939 14.6737 35.3048 14.618 35.6143C14.5252 36.1019 14.5345 36.2145 14.6737 36.4396C14.7757 36.6084 14.9149 36.6928 15.0634 36.6928C15.2026 36.6928 15.3511 36.6084 15.4253 36.4865C15.5181 36.3458 15.546 36.1395 15.5089 35.8956C15.481 35.6893 15.4068 35.2954 15.3325 35.0328ZM37.809 35.5674C37.6884 35.2298 37.5492 34.9484 37.5028 34.9296C37.4471 34.9109 37.345 35.0703 37.2615 35.286C37.1687 35.4923 37.0944 35.8487 37.0852 36.0832C37.0666 36.3833 37.1037 36.5427 37.1965 36.599C37.2708 36.6459 37.4192 36.6928 37.5213 36.6928C37.6234 36.6928 37.7533 36.6553 37.809 36.6177C37.8647 36.5802 37.9389 36.4677 37.976 36.3645C38.0132 36.252 37.9389 35.9238 37.809 35.5674ZM4.39128 35.7549C4.18711 35.6518 3.96439 35.5674 3.90871 35.5674C3.84375 35.5674 3.77879 35.6236 3.77879 35.6893C3.77061 35.7389 3.75521 35.9343 3.73897 36.1405C3.73678 36.1682 3.73459 36.1961 3.73239 36.2239C3.71383 36.4583 3.71383 36.8241 3.74167 37.0492C3.76951 37.2742 3.83447 37.443 3.90871 37.443C3.96439 37.443 4.21495 37.2836 4.45624 37.096C4.68824 36.8991 4.9388 36.6459 5.01304 36.5333C5.11513 36.3458 5.10585 36.2989 4.94808 36.1301C4.846 36.0175 4.59544 35.8487 4.39128 35.7549ZM48.1563 36.8616C48.1656 36.4114 48.1285 36.0269 48.0728 35.9988C48.0264 35.9706 47.8687 36.0269 47.7202 36.1207C47.5717 36.2145 47.3211 36.4114 47.1541 36.5615C46.987 36.7115 46.8478 36.8616 46.8478 36.9085C46.8478 36.946 47.0427 37.1523 47.2747 37.3774C47.516 37.5931 47.7759 37.8088 47.8594 37.8557C47.9584 37.9057 48.0295 37.8901 48.0728 37.8088C48.1099 37.7338 48.1471 37.3117 48.1563 36.8616ZM30.2735 36.5333C30.1622 36.2707 30.0972 36.2239 29.8467 36.2332C29.6796 36.2332 29.3455 36.3176 29.1042 36.4208C28.8537 36.5146 28.501 36.6084 28.3154 36.6177C28.1206 36.6177 27.7865 36.5896 27.5637 36.5427L27.174 36.4583C27.174 37.7994 27.2204 38.5215 27.2761 38.9248C27.3317 39.3187 27.4617 39.8158 27.5545 40.0221C27.6473 40.2284 27.8421 40.5285 27.9814 40.6879C28.1298 40.8474 28.5567 41.1287 28.9372 41.3163C29.3177 41.5039 29.7539 41.682 29.9023 41.7289C30.0508 41.7665 30.1807 41.8321 30.1993 41.879C30.2179 41.9165 30.3014 41.9446 30.3756 41.9446C30.4499 41.9446 30.8304 42.0947 31.2108 42.2729C31.8976 42.6011 31.9068 42.6105 32.2224 43.2857C32.3987 43.6515 32.6121 44.233 32.6957 44.5706C32.7792 44.9082 32.9277 45.349 33.0205 45.5553C33.1133 45.7616 33.3267 46.0617 33.503 46.2305C33.6701 46.39 33.9763 46.6338 34.1805 46.7651C34.3846 46.9058 34.7187 47.0371 34.9229 47.0558C35.127 47.084 35.9623 47.1402 36.7789 47.1871C38.2173 47.2715 38.3101 47.2809 39.6094 47.7311C40.3518 47.9937 41.2519 48.2563 41.6046 48.3219C42.0036 48.3969 42.5604 48.4251 43.043 48.3876C43.4792 48.3594 44.1009 48.2469 44.435 48.1437C44.7691 48.0406 45.3352 47.7686 45.6878 47.5341C46.0405 47.2997 46.4952 46.9527 46.6901 46.7557C46.885 46.5588 47.1727 46.2118 47.3397 45.9773C47.4975 45.7429 47.7109 45.3677 47.813 45.1333C47.9151 44.8988 48.0728 44.5049 48.1656 44.2423C48.2584 43.9891 48.3605 43.417 48.3884 42.9763C48.4347 42.3198 48.4162 42.0478 48.2399 41.4288C48.1285 41.0162 47.8965 40.4254 47.7295 40.1159C47.5624 39.8064 47.1819 39.3 46.885 38.9905C46.5787 38.681 46.1704 38.2965 45.9755 38.1464C45.7714 37.987 45.3816 37.7431 45.0939 37.6025C44.8062 37.4618 44.2773 37.2555 43.9246 37.1429C43.572 37.0398 42.9224 36.9272 42.4862 36.9085C41.8273 36.8803 41.6139 36.9085 41.187 37.0773C40.9086 37.1992 40.5281 37.3774 40.3518 37.4899C40.1754 37.6025 39.8878 37.8369 39.7207 38.0151C39.5444 38.1933 39.2938 38.5872 39.1453 38.8967C39.0061 39.2062 38.8391 39.6094 38.7834 39.7876C38.7277 39.9658 38.6813 40.5848 38.6813 41.1475C38.6813 41.9353 38.7277 42.3198 38.8762 42.7887C38.9783 43.1263 39.1453 43.5296 39.2381 43.6796C39.3309 43.8297 39.6093 44.1486 39.8599 44.383C40.1105 44.6175 40.3796 44.8144 40.4538 44.8238C40.4715 44.826 40.5003 44.8299 40.5372 44.8348C40.6553 44.8505 40.8569 44.8774 41.0478 44.8988C41.3726 44.9457 41.6695 44.9176 42.0222 44.8144C42.3006 44.73 42.7553 44.5237 43.0337 44.3549C43.3028 44.1861 43.7019 43.8484 43.9153 43.5952C44.2865 43.1544 44.2958 43.1263 44.2958 42.4698C44.2958 41.8977 44.2587 41.7289 44.0545 41.4195C43.9246 41.2225 43.6184 40.913 43.3585 40.7348C43.108 40.566 42.7739 40.3972 42.6068 40.3597C42.3748 40.3128 42.3006 40.3409 42.2542 40.4722C42.2263 40.566 42.3099 40.7536 42.4491 40.9412C42.6625 41.1944 42.6903 41.3069 42.644 41.6633C42.6068 41.9634 42.5047 42.1697 42.3099 42.3667C42.1614 42.5167 41.8737 42.7043 41.6788 42.7606C41.4839 42.8262 41.2148 42.8825 41.0756 42.8825C40.9178 42.8825 40.7137 42.7793 40.5466 42.6293C40.4074 42.4792 40.2311 42.1791 40.1569 41.9446C40.0919 41.7102 40.0362 41.2506 40.0455 40.913C40.0455 40.5004 40.1105 40.1815 40.2311 39.9283C40.3332 39.722 40.5838 39.4125 40.7786 39.2437C40.9828 39.0749 41.187 38.9061 41.2334 38.8592C41.2891 38.8217 41.4932 38.7373 41.6974 38.6716C41.9015 38.5966 42.2356 38.5684 42.4398 38.5966C42.644 38.6247 42.9316 38.681 43.0894 38.7185C43.2472 38.756 43.6184 38.9436 43.9246 39.1405C44.2309 39.3281 44.5928 39.6282 44.7227 39.797C44.8619 39.9752 45.0475 40.2003 45.1496 40.3034C45.2424 40.4066 45.4001 40.6223 45.493 40.7724C45.595 40.9224 45.7714 41.3163 45.892 41.6445C46.0312 42.029 46.1054 42.4229 46.1054 42.8356C46.1054 43.2295 46.0312 43.6327 45.9013 43.9891C45.7806 44.308 45.5579 44.6737 45.3259 44.9082C45.1125 45.1239 44.7598 45.424 44.5278 45.5928C44.2958 45.7616 43.8132 45.9867 43.4606 46.0899C42.9966 46.2399 42.5883 46.2962 42.0222 46.2868C41.586 46.2774 40.8622 46.2118 40.3982 46.1368C39.9434 46.0617 39.3309 45.9679 39.0525 45.9304C38.7649 45.9023 38.2823 45.7429 37.9575 45.5741C37.642 45.4052 37.3728 45.2458 37.3821 45.2083C37.3821 45.1614 37.345 45.1333 37.2893 45.1333C37.2429 45.1333 36.7882 44.8144 36.2963 44.4299C36.1541 44.3181 35.9992 44.1965 35.8432 44.0741C35.4496 43.7651 35.0494 43.451 34.8301 43.2764C34.5238 43.0325 34.0691 42.6105 33.8093 42.3292C33.5587 42.0572 33.2803 41.7289 33.2061 41.6164C33.1318 41.4945 32.9184 41.2413 32.7421 41.0443C32.5565 40.838 32.2688 40.4722 32.0924 40.2097L32.0698 40.1771C31.8997 39.9328 31.7181 39.6719 31.647 39.6001C31.5728 39.525 31.415 39.2906 31.3036 39.0843C31.1923 38.8779 30.9417 38.2871 30.7468 37.7713C30.5612 37.2555 30.3478 36.6928 30.2735 36.5333ZM24.1579 36.8522C23.397 36.8335 22.6824 36.7959 22.5803 36.7678C22.4782 36.7397 22.3112 36.7303 22.2091 36.7584C22.107 36.7772 21.9771 36.9085 21.9214 37.0492C21.8565 37.1898 21.7173 37.5743 21.6059 37.912C21.5038 38.2496 21.3646 38.6247 21.2997 38.756C21.244 38.8873 21.0677 39.2062 20.9099 39.4594C20.7614 39.722 20.5109 40.0784 20.3531 40.2565C20.2046 40.4347 19.7035 40.9599 19.2395 41.4195C18.7847 41.879 18.2558 42.3854 18.0795 42.5542C17.9031 42.723 17.3463 43.1451 16.8545 43.5014C16.3626 43.8578 15.7594 44.2798 15.5274 44.4299C15.2861 44.58 14.9799 44.7675 14.85 44.8425C14.7108 44.9176 14.3303 45.0864 13.9962 45.2083C13.5229 45.3959 13.1796 45.4521 12.4186 45.4803C11.6298 45.5084 11.3606 45.4803 10.9802 45.3302C10.7296 45.2364 10.247 45.0114 9.92223 44.8425C9.59743 44.6644 9.03134 44.233 8.66013 43.8672C8.28893 43.5014 7.82492 42.9387 7.62076 42.6011C7.4166 42.2635 7.17531 41.7852 7.08251 41.5226C6.98043 41.26 6.90619 40.8099 6.90619 40.491C6.90619 40.0502 6.95259 39.8627 7.12891 39.6001C7.24955 39.4219 7.4166 39.2249 7.50012 39.1687C7.57436 39.1124 7.70428 38.9998 7.77852 38.9248C7.85276 38.8498 8.16829 38.7466 8.47453 38.6997C8.85502 38.6341 9.17982 38.6341 9.49534 38.7091C9.75519 38.7654 10.1078 38.8967 10.2842 39.0092C10.4605 39.1124 10.7203 39.3656 10.8595 39.5625C10.9987 39.7689 11.1565 40.1534 11.2122 40.4254C11.2771 40.7724 11.2771 41.0537 11.1936 41.4101C11.1286 41.7196 10.9987 41.9822 10.8502 42.1228C10.7203 42.2354 10.4883 42.4042 10.3306 42.4792C10.1821 42.5636 9.79231 42.6574 9.4675 42.6855C9.15198 42.7137 8.90142 42.7793 8.91998 42.8356C8.93854 42.8919 9.0499 42.9763 9.17982 43.0419C9.30046 43.0982 9.65311 43.1732 9.95935 43.192C10.2656 43.2201 10.8317 43.1732 11.2122 43.0982C11.5927 43.0231 12.0195 42.9012 12.168 42.8262C12.3072 42.7512 12.5021 42.5542 12.5949 42.3948C12.697 42.226 12.8455 41.8321 12.929 41.5226C13.0404 41.1287 13.0775 40.7442 13.0496 40.2565C13.0218 39.7126 12.9476 39.4125 12.7248 38.9436C12.5578 38.606 12.2423 38.1464 12.0195 37.912C11.7968 37.6775 11.3421 37.3493 11.0173 37.1711C10.4512 36.8616 10.377 36.8428 9.49534 36.8522C8.58589 36.8522 8.54877 36.8522 7.7414 37.2649C7.29595 37.4899 6.85051 37.7431 6.76699 37.8182C6.75371 37.8301 6.73599 37.8461 6.71466 37.8652C6.60181 37.9668 6.38823 38.159 6.2009 38.3246C5.9689 38.5309 5.57913 38.953 5.32857 39.2624C5.078 39.5813 4.79032 40.0221 4.67896 40.2565C4.5676 40.491 4.46552 40.6973 4.43768 40.7255C4.40984 40.7536 4.31703 40.9412 4.22423 41.1475C4.14071 41.3538 4.02007 41.7946 3.96439 42.1322C3.91799 42.4698 3.87159 42.8262 3.86231 42.9294C3.86231 43.0325 3.90871 43.2951 3.96439 43.5202C4.02007 43.7359 4.21495 44.111 4.40056 44.3643C4.58616 44.6081 4.91096 44.9363 5.12441 45.0864C5.34713 45.2364 5.84826 45.5272 6.25658 45.7335C6.65563 45.9304 7.12891 46.1649 7.29595 46.2493C7.463 46.3337 8.04765 46.7651 8.59517 47.2153C9.47678 47.9374 9.66239 48.0406 10.2378 48.1906C10.841 48.3407 10.9523 48.3407 11.8154 48.2094C12.3258 48.125 12.8919 48.0124 13.0682 47.9562C13.1657 47.925 13.4023 47.8537 13.6932 47.7661C13.9283 47.6953 14.1989 47.6138 14.4602 47.5341C15.1748 47.3184 15.8151 47.1871 16.409 47.1496C16.8916 47.1121 17.4206 47.0465 17.5691 47.0089C17.7268 46.9621 17.9588 46.8401 18.1073 46.7276C18.2465 46.6244 18.4321 46.3806 18.5342 46.193C18.627 45.9961 18.7755 45.499 18.8683 45.0864C18.9611 44.6737 19.1003 44.1861 19.1745 44.0079C19.258 43.8297 19.4065 43.5858 19.5179 43.4733C19.62 43.3608 19.9355 43.1451 20.2139 42.995C20.4923 42.845 21.1419 42.6105 21.6523 42.4698C22.1627 42.3292 22.7938 42.1228 23.0443 42.0197C23.3042 41.9165 23.6754 41.7102 23.8795 41.5695C24.0837 41.4288 24.3343 41.2319 24.4363 41.1381C24.5477 41.0349 24.7147 40.8286 24.8168 40.6786C24.9189 40.5285 25.0767 40.2097 25.1602 39.9752C25.253 39.7407 25.3644 39.3187 25.4108 39.0374C25.4572 38.756 25.5221 38.3527 25.55 38.1464C25.5627 38.0046 25.5886 37.7875 25.6126 37.5864C25.6235 37.4949 25.6341 37.4067 25.6428 37.3305C25.6706 37.0773 25.6613 36.8803 25.6242 36.8803C25.6122 36.8803 25.5596 36.8791 25.475 36.8771C25.233 36.8713 24.7286 36.8592 24.1579 36.8522ZM13.8384 37.5274C13.8477 37.4149 13.8199 37.2273 13.7642 37.1054C13.69 36.9179 13.6064 36.8803 13.3466 36.8803C13.1703 36.8803 12.8547 36.9741 12.6599 37.0867C12.4557 37.1992 12.3072 37.3305 12.3072 37.368C12.3165 37.4055 12.3815 37.4993 12.4464 37.565C12.5021 37.6306 12.7341 37.7619 12.9476 37.8651C13.3188 38.0433 13.3466 38.0433 13.5693 37.8932C13.7085 37.7994 13.8199 37.6306 13.8384 37.5274ZM39.3681 37.2555C39.3217 37.2086 39.0989 37.1429 38.8577 37.1054C38.4865 37.0492 38.4308 37.0679 38.3751 37.2461C38.338 37.3493 38.3287 37.5274 38.3565 37.6306C38.3844 37.7338 38.4679 37.8369 38.5421 37.8651C38.6164 37.8932 38.8298 37.8463 39.0061 37.7713C39.1825 37.6963 39.3588 37.565 39.3959 37.4806C39.433 37.4055 39.4237 37.3024 39.3681 37.2555ZM37.7626 37.4149C37.6791 37.3211 37.5213 37.2461 37.4007 37.2555C37.2893 37.2555 37.1687 37.3305 37.1316 37.4243C37.1037 37.5087 37.113 37.6869 37.1594 37.8182C37.2244 37.9964 37.3172 38.0526 37.5213 38.0526C37.7348 38.0526 37.7997 38.0057 37.8461 37.8182C37.8925 37.6681 37.8554 37.5274 37.7626 37.4149ZM36.5283 37.6025C36.4634 37.4618 36.3706 37.3493 36.3149 37.3586C36.2685 37.3586 36.1015 37.4055 35.9437 37.4524C35.7952 37.4993 35.5168 37.6681 35.3405 37.8088C35.1642 37.9589 35.0342 38.0995 35.0621 38.1277C35.0899 38.1464 35.4147 38.1933 35.7859 38.2308C36.417 38.2871 36.4634 38.2777 36.5562 38.0808C36.6304 37.9213 36.6212 37.7994 36.5283 37.6025ZM15.2026 37.7244C15.2026 37.4712 15.1748 37.443 14.9242 37.443C14.6829 37.443 14.6458 37.4806 14.6458 37.7056C14.6458 37.8463 14.6644 37.9776 14.6829 38.0057C14.7108 38.0339 14.8407 38.0433 14.9706 38.0339C15.1655 38.0057 15.2026 37.9589 15.2026 37.7244ZM17.2257 37.6587C16.8545 37.5368 16.4369 37.443 16.2977 37.443C16.0564 37.443 16.0378 37.4712 16.0378 37.7994C16.0286 38.1089 16.0657 38.1652 16.3348 38.2777C16.5946 38.3903 16.7246 38.3903 17.1514 38.2965C17.4299 38.2308 17.7175 38.1558 17.7825 38.137C17.8382 38.1183 17.8939 38.0433 17.8939 37.987C17.8939 37.9213 17.5969 37.7713 17.2257 37.6587ZM15.2397 38.7841C15.1469 38.5591 15.0541 38.4747 14.8871 38.4747C14.7572 38.4747 14.5901 38.5403 14.5066 38.6247C14.4138 38.7185 14.3581 38.9154 14.3581 39.1593C14.3674 39.375 14.4509 39.8345 14.553 40.1909C14.6922 40.6598 14.7757 40.8099 14.8778 40.7724C14.9521 40.7442 15.017 40.6411 15.017 40.5379C15.017 40.4347 15.0541 40.2753 15.1098 40.1909C15.1562 40.0971 15.2397 39.8158 15.2861 39.5532C15.3511 39.1968 15.3418 39.0092 15.2397 38.7841ZM37.8368 39.0186C37.7812 38.8967 37.642 38.8498 37.3821 38.8498C37.0295 38.8498 37.0109 38.8685 37.0109 39.1311C37.0109 39.2812 37.0573 39.6001 37.1037 39.8345C37.1872 40.219 37.2151 40.2472 37.41 40.1721C37.5399 40.1252 37.6698 39.9377 37.7719 39.6376C37.8832 39.3187 37.9018 39.1311 37.8368 39.0186ZM26.8121 40.6598C26.5522 40.3878 26.2924 40.1628 26.2367 40.1628C26.1624 40.1628 26.147 40.2722 26.1903 40.491C26.2181 40.6692 26.3759 40.9974 26.5244 41.2225C26.6821 41.4382 26.8028 41.6727 26.8028 41.7383C26.8028 41.7946 26.8399 41.8602 26.877 41.879C26.9234 41.8884 27.0719 42.1416 27.2018 42.4417C27.341 42.7324 27.4988 43.2201 27.5545 43.5202C27.6101 43.8203 27.6287 44.3643 27.6009 44.7581C27.5637 45.1427 27.4524 45.8179 27.3596 46.2587C27.2204 46.8589 27.109 47.1215 26.9141 47.2997C26.7749 47.4403 26.5708 47.581 26.4594 47.6092C26.3017 47.6467 26.1903 47.5998 26.0418 47.4403C25.9212 47.3184 25.7356 46.9714 25.6242 46.6619C25.5221 46.3618 25.3736 45.8835 25.3087 45.6022C25.2344 45.2552 25.2159 44.7581 25.2623 44.1017C25.2994 43.5577 25.3458 43.0044 25.3644 42.8637C25.3922 42.7137 25.4572 42.498 25.5036 42.3667C25.5592 42.2354 25.5964 42.0478 25.5964 41.9446C25.5964 41.8415 25.5592 41.7571 25.5036 41.7571C25.4572 41.7571 25.2901 42.0197 25.1416 42.3479C24.9932 42.6668 24.8354 43.2013 24.7797 43.539C24.724 43.8766 24.6776 44.4205 24.6776 44.7581C24.6776 45.0958 24.7612 45.7241 24.8725 46.1649C24.9839 46.6057 25.1416 47.1402 25.2437 47.3653C25.3365 47.581 25.5592 47.9093 25.7356 48.0875C25.9861 48.3407 26.1346 48.4157 26.3852 48.4157C26.5615 48.4157 26.8028 48.3594 26.9234 48.3032C27.0348 48.2375 27.2482 48.0781 27.3874 47.9468C27.5266 47.8155 27.7494 47.4872 27.8793 47.2246C28.0092 46.9245 28.1206 46.4931 28.1391 46.1461C28.1577 45.8179 28.2134 45.3021 28.2505 44.9926C28.2876 44.6456 28.269 44.1767 28.2041 43.7734C28.1391 43.4077 28.0463 42.9669 27.9906 42.7887C27.9442 42.6105 27.7586 42.1697 27.5916 41.804C27.4153 41.4195 27.0905 40.9412 26.8121 40.6598ZM26.6821 43.1451C26.5986 42.9481 26.478 42.7887 26.4316 42.7887C26.3759 42.7887 26.2738 42.9387 26.2088 43.1169C26.1439 43.2951 26.0882 43.7453 26.0789 44.1204C26.0696 44.4955 26.1068 44.9926 26.1532 45.2271C26.1996 45.4615 26.2831 45.696 26.3295 45.7429C26.3852 45.8085 26.4873 45.696 26.6265 45.4146C26.7842 45.0864 26.8399 44.8238 26.8399 44.2423C26.8399 43.7265 26.7935 43.3795 26.6821 43.1451ZM30.2364 43.07C30.19 42.9669 30.0879 42.8825 30.0137 42.8825C29.9395 42.8825 29.7724 43.0231 29.6425 43.192C29.5679 43.2775 29.4932 43.371 29.4329 43.4467C29.3807 43.5121 29.3392 43.5641 29.3177 43.5858C29.2806 43.6421 29.1692 43.8953 29.0857 44.1486C28.9929 44.4111 28.9279 44.8894 28.9279 45.2271C28.9279 45.5647 28.9929 46.0242 29.0764 46.2587C29.1507 46.4931 29.3734 46.8776 29.559 47.1215C29.7539 47.3559 29.9766 47.6373 30.0508 47.7311C30.1251 47.8249 30.4591 48.0874 30.7932 48.3032C31.1273 48.5282 31.5635 48.7533 31.7676 48.819C31.9718 48.8752 32.4915 48.9221 32.9277 48.9315C33.503 48.9315 33.8 48.8846 34.0227 48.7627C34.1805 48.6783 34.4032 48.5095 34.5053 48.3969C34.6074 48.275 34.6909 48.1062 34.6909 48.0218C34.6909 47.928 34.6074 47.8061 34.5053 47.7592C34.3661 47.6842 34.1898 47.7217 33.7907 47.9093C33.3731 48.0968 33.1318 48.1437 32.6957 48.125C32.3894 48.1156 31.9347 48.0218 31.6748 47.928C31.4243 47.8342 31.1459 47.7029 31.0716 47.6373C31.0535 47.6212 31.0292 47.6001 31.0008 47.5754C30.9133 47.4993 30.787 47.3895 30.6819 47.2903C30.5427 47.159 30.4499 46.9996 30.4777 46.9433C30.4963 46.8776 30.6076 46.8214 30.7283 46.8214C30.8396 46.8214 30.9881 46.8683 31.0531 46.9339C31.1273 47.0089 31.4985 47.0746 31.9347 47.0933C32.6678 47.1309 32.7049 47.1215 32.8627 46.8776C32.9926 46.6807 33.0019 46.5775 32.9277 46.3337C32.872 46.1649 32.6771 45.8835 32.4822 45.7147C32.2966 45.5459 31.8883 45.2739 31.582 45.1051C31.2851 44.9457 30.8768 44.655 30.6819 44.4768C30.3756 44.1861 30.3385 44.0923 30.3292 43.7078C30.3292 43.4546 30.2921 43.1732 30.2364 43.07ZM23.0629 44.8988C23.0907 44.1767 23.0722 43.9141 22.9701 43.7734C22.8402 43.5952 22.8309 43.5952 22.6824 43.8953C22.5989 44.0548 22.3576 44.3174 22.1442 44.4674C21.9214 44.6175 21.411 44.8801 21.0027 45.0395C20.5944 45.2083 20.1211 45.4521 19.9448 45.5928C19.7777 45.7241 19.5828 45.9398 19.5179 46.0711C19.4436 46.2305 19.4344 46.3806 19.49 46.54C19.5457 46.6713 19.7128 46.8308 19.8798 46.9058C20.1025 46.9996 20.2139 47.0089 20.3809 46.9245C20.4923 46.8683 20.7336 46.8214 20.9099 46.8214C21.0862 46.8214 21.2347 46.8683 21.2347 46.9152C21.2347 46.9621 21.0955 47.1121 20.9377 47.234C20.7707 47.3559 20.3809 47.5998 20.0747 47.7686C19.555 48.0687 19.4622 48.0875 18.7291 48.0781C18.2929 48.0687 17.8567 48.0499 17.7547 48.0312C17.6433 48.003 17.5691 48.0499 17.5505 48.1625C17.5319 48.275 17.6619 48.3876 17.9867 48.5564C18.3764 48.7533 18.5806 48.7908 19.2673 48.7908C19.8334 48.7908 20.2324 48.7346 20.6129 48.6033C20.9006 48.5001 21.2997 48.3125 21.4945 48.1812C21.6801 48.0593 21.9029 47.8999 21.9771 47.8342C22.0514 47.7686 22.2277 47.5529 22.3762 47.3653C22.5154 47.1684 22.6267 46.9808 22.6267 46.9433C22.6267 46.8964 22.6917 46.737 22.7752 46.5869C22.8587 46.4369 22.9422 46.2024 22.9701 46.0711C22.9979 45.9398 23.035 45.4146 23.0629 44.8988ZM5.67193 46.3806C5.37497 46.2118 5.08729 46.0711 5.02232 46.0711C4.95736 46.0711 4.8924 46.118 4.85528 46.1649C4.82744 46.2118 4.90168 46.3618 5.02232 46.5025C5.13369 46.6338 5.37497 46.8401 5.55129 46.9527C5.72761 47.0746 6.2937 47.4497 6.80411 47.7873C7.3702 48.1531 7.85276 48.4063 8.04765 48.4251C8.25181 48.4532 8.38173 48.4157 8.40029 48.35C8.40957 48.2844 8.35389 48.1906 8.27037 48.1437C8.17757 48.1062 8.03836 48.003 7.96412 47.9374C7.88988 47.8624 7.67644 47.7029 7.50012 47.5716C7.32379 47.4403 7.01755 47.2528 6.82267 47.1496C6.63707 47.0465 6.4793 46.9339 6.4793 46.8964C6.4793 46.8495 6.41434 46.8214 6.3401 46.8214C6.26586 46.8214 6.2009 46.7932 6.2009 46.7557C6.2009 46.7088 5.95962 46.5494 5.67193 46.3806ZM4.60472 47.6279C4.382 47.3841 4.14071 47.1402 4.04791 47.0933C3.96439 47.0558 3.86231 47.0465 3.82519 47.0746C3.78807 47.1027 3.76023 47.3466 3.76951 47.6092C3.77879 47.8717 3.82519 48.1437 3.86231 48.2094C3.89943 48.275 4.07575 48.3313 4.25207 48.3313C4.4284 48.3407 4.66968 48.3407 4.79032 48.3313C4.90168 48.3313 4.99448 48.2656 4.99448 48.2094C4.99448 48.1437 4.81816 47.8811 4.60472 47.6279ZM48.3791 47.2246C48.3512 47.1027 48.277 47.0089 48.212 47.0089C48.1378 47.0089 47.7387 47.3653 47.3119 47.7967C46.885 48.2375 46.5416 48.6595 46.5509 48.7346C46.5602 48.819 46.6437 48.9034 46.7365 48.9127C46.82 48.9315 47.2005 48.9596 47.5717 48.9596C48.2027 48.9784 48.2491 48.969 48.3327 48.7439C48.3883 48.6126 48.4255 48.2656 48.4255 47.9749C48.4255 47.6748 48.4069 47.3372 48.3791 47.2246ZM24.0187 47.8811C23.9167 47.7123 23.8053 47.5716 23.7682 47.581C23.7218 47.5904 23.5362 47.7405 23.3506 47.928C23.1557 48.125 22.9979 48.3313 22.9979 48.3969C22.9979 48.4532 23.0907 48.5282 23.2114 48.5564C23.3227 48.5845 23.5919 48.6033 23.8146 48.6033C24.1579 48.6033 24.2043 48.5751 24.2043 48.3969C24.2043 48.275 24.1208 48.0406 24.0187 47.8811ZM28.9929 48.0687C28.863 47.8999 28.7145 47.7592 28.6774 47.7592C28.631 47.7592 28.5103 47.8717 28.399 48.0218C28.2876 48.1625 28.1948 48.35 28.1948 48.4438C28.1948 48.5282 28.2226 48.622 28.269 48.6502C28.3062 48.6689 28.5196 48.6595 28.7423 48.622C28.965 48.5845 29.1692 48.5095 29.1878 48.4626C29.2063 48.4157 29.1228 48.2281 28.9929 48.0687ZM16.1214 48.3032C15.9543 48.1719 15.7501 48.125 15.3325 48.1343C14.9985 48.1343 14.7201 48.1812 14.6551 48.2563C14.5994 48.3125 14.5809 48.4063 14.6273 48.4438C14.6644 48.4813 14.8221 48.5095 14.9706 48.5095C15.1284 48.5095 15.3325 48.5657 15.4346 48.6502C15.5367 48.7252 15.7594 48.7908 15.9265 48.7908C16.1214 48.7908 16.242 48.7346 16.2791 48.6314C16.3255 48.5376 16.2698 48.4157 16.1214 48.3032ZM38.3101 48.6783C38.3009 48.6126 38.208 48.4813 38.0967 48.3876C37.976 48.2844 37.744 48.2281 37.512 48.2281C37.28 48.2281 37.048 48.2938 36.9181 48.4063C36.8068 48.5001 36.714 48.6126 36.7232 48.6595C36.7232 48.7064 36.9924 48.819 37.3079 48.9127C37.8368 49.0628 37.9111 49.0628 38.106 48.9315C38.2173 48.8565 38.3101 48.7346 38.3101 48.6783Z" fill="#E4C272"/>
</svg>
