<svg width="30" height="30" viewBox="0 0 30 30" fill="none" xmlns="http://www.w3.org/2000/svg">
<path d="M9 12C8.80109 12 8.61032 11.921 8.46967 11.7803C8.32902 11.6397 8.25 11.4489 8.25 11.25C8.25 11.0511 8.32902 10.8603 8.46967 10.7197C8.61032 10.579 8.80109 10.5 9 10.5H21C21.1989 10.5 21.3897 10.579 21.5303 10.7197C21.671 10.8603 21.75 11.0511 21.75 11.25C21.75 11.4489 21.671 11.6397 21.5303 11.7803C21.3897 11.921 21.1989 12 21 12H9Z" fill="#E4E4E4"/>
<path fill-rule="evenodd" clip-rule="evenodd" d="M4.70009 8.01L14.4501 18.51C14.5203 18.5854 14.6052 18.6456 14.6997 18.6867C14.7942 18.7278 14.8961 18.749 14.9991 18.749C15.1021 18.749 15.204 18.7278 15.2985 18.6867C15.3929 18.6456 15.4779 18.5854 15.5481 18.51L25.2981 8.01C25.3973 7.90306 25.4631 7.76951 25.4876 7.62572C25.512 7.48193 25.494 7.33413 25.4357 7.20042C25.3775 7.0667 25.2815 6.95288 25.1595 6.87288C25.0376 6.79288 24.8949 6.75018 24.7491 6.75H5.24909C5.10324 6.75018 4.9606 6.79288 4.83864 6.87288C4.71668 6.95288 4.62069 7.0667 4.56243 7.20042C4.50417 7.33413 4.48616 7.48193 4.51061 7.62572C4.53506 7.76951 4.60091 7.90306 4.70009 8.01ZM6.96959 8.25H23.0286L14.9991 16.8975L6.96959 8.25Z" fill="#E4E4E4"/>
<path d="M14.25 17.8125H15.75L15.9375 18V27L15.75 27.1875H14.25L14.0625 27V18L14.25 17.8125Z" fill="#E4E4E4"/>
<path d="M21.75 30H8.25C8.25 27.7875 11.325 26.25 15 26.25C18.675 26.25 21.75 27.7875 21.75 30ZM19.3185 2.3505C19.1296 2.29869 18.9684 2.17501 18.8695 2.00591C18.7706 1.83682 18.7417 1.63573 18.7892 1.44565C18.8366 1.25557 18.9565 1.09159 19.1232 0.988781C19.29 0.88597 19.4904 0.852488 19.6815 0.895497L25.6815 2.3955C25.8704 2.44731 26.0316 2.57098 26.1305 2.74008C26.2294 2.90917 26.2583 3.11026 26.2108 3.30034C26.1634 3.49042 26.0435 3.6544 25.8768 3.75721C25.71 3.86002 25.5096 3.8935 25.3185 3.8505L19.3185 2.3505Z" fill="#E4E4E4"/>
<path d="M15.3031 14.6205C15.2349 14.8075 15.0952 14.9597 14.9147 15.0437C14.7343 15.1276 14.5279 15.1365 14.3409 15.0683C14.1539 15 14.0017 14.8603 13.9177 14.6799C13.8337 14.4994 13.8249 14.293 13.8931 14.106L18.5326 1.36651C18.5663 1.27393 18.6179 1.18889 18.6844 1.11625C18.751 1.0436 18.8312 0.984778 18.9205 0.943131C19.0098 0.901484 19.1064 0.87783 19.2048 0.873521C19.3032 0.869211 19.4015 0.88433 19.4941 0.918014C19.5867 0.951698 19.6717 1.00329 19.7444 1.06984C19.817 1.13639 19.8759 1.21659 19.9175 1.30588C19.9592 1.39516 19.9828 1.49177 19.9871 1.5902C19.9914 1.68862 19.9763 1.78693 19.9426 1.87951L15.3031 14.6205Z" fill="#E4E4E4"/>
</svg>
