<svg width="51" height="51" viewBox="0 0 51 51" fill="none" xmlns="http://www.w3.org/2000/svg">
<path d="M23.9062 0C24.3379 0 24.7114 0.157715 25.0269 0.473145C25.3423 0.788574 25.5 1.16211 25.5 1.59375V19.125C25.5 20.0049 25.334 20.8267 25.002 21.5903C24.6699 22.354 24.2134 23.0264 23.6323 23.6074C23.0513 24.1885 22.3706 24.645 21.5903 24.9771C20.8101 25.3091 19.9883 25.4834 19.125 25.5V49.4062C19.125 49.8379 18.9673 50.2114 18.6519 50.5269C18.3364 50.8423 17.9629 51 17.5312 51C17.0996 51 16.7261 50.8423 16.4106 50.5269C16.0952 50.2114 15.9375 49.8379 15.9375 49.4062V25.5C15.0576 25.5 14.2358 25.334 13.4722 25.002C12.7085 24.6699 12.0361 24.2134 11.4551 23.6323C10.874 23.0513 10.4175 22.3789 10.0854 21.6152C9.75342 20.8516 9.5791 20.0215 9.5625 19.125V1.59375C9.5625 1.16211 9.72021 0.788574 10.0356 0.473145C10.3511 0.157715 10.7246 0 11.1562 0C11.5879 0 11.9614 0.157715 12.2769 0.473145C12.5923 0.788574 12.75 1.16211 12.75 1.59375V19.125C12.75 19.5732 12.833 19.9883 12.999 20.3701C13.165 20.752 13.3892 21.084 13.6714 21.3662C13.9536 21.6484 14.2939 21.8809 14.6924 22.0635C15.0908 22.2461 15.5059 22.3291 15.9375 22.3125V1.59375C15.9375 1.16211 16.0952 0.788574 16.4106 0.473145C16.7261 0.157715 17.0996 0 17.5312 0C17.9629 0 18.3364 0.157715 18.6519 0.473145C18.9673 0.788574 19.125 1.16211 19.125 1.59375V22.3125C19.5732 22.3125 19.9883 22.2295 20.3701 22.0635C20.752 21.8975 21.084 21.6733 21.3662 21.3911C21.6484 21.1089 21.8809 20.7686 22.0635 20.3701C22.2461 19.9717 22.3291 19.5566 22.3125 19.125V1.59375C22.3125 1.16211 22.4702 0.788574 22.7856 0.473145C23.1011 0.157715 23.4746 0 23.9062 0ZM41.4375 0V49.4062C41.4375 49.8379 41.2798 50.2114 40.9644 50.5269C40.6489 50.8423 40.2754 51 39.8438 51C39.4121 51 39.0386 50.8423 38.7231 50.5269C38.4077 50.2114 38.25 49.8379 38.25 49.4062V35.0625C37.6357 35.0625 36.9717 35.0708 36.2578 35.0874C35.5439 35.104 34.8384 35.0957 34.1411 35.0625C33.4438 35.0293 32.7632 34.9297 32.0991 34.7637C31.4351 34.5977 30.854 34.3403 30.356 33.9917C29.8579 33.6431 29.4512 33.1699 29.1357 32.5723C28.8203 31.9746 28.6709 31.2109 28.6875 30.2812V11.1562C28.6875 9.6123 28.978 8.16797 29.5591 6.82324C30.1401 5.47852 30.937 4.2998 31.9497 3.28711C32.9624 2.27441 34.1411 1.47754 35.4858 0.896484C36.8306 0.31543 38.2832 0.0166016 39.8438 0H41.4375ZM38.25 3.33691C37.3203 3.51953 36.4736 3.85156 35.71 4.33301C34.9463 4.81445 34.2739 5.41211 33.6929 6.12598C33.1118 6.83984 32.6636 7.61182 32.3481 8.44189C32.0327 9.27197 31.875 10.1768 31.875 11.1562V30.2812C31.875 30.7129 32.0327 31.0864 32.3481 31.4019C32.6636 31.7173 33.0371 31.875 33.4688 31.875H38.25V3.33691Z" fill="#E4E4E4"/>
</svg>
