<svg width="28" height="27" viewBox="0 0 28 27" fill="none" xmlns="http://www.w3.org/2000/svg">
<path d="M4.0826 9.00005C4.08283 7.93346 4.36898 6.88503 4.91329 5.95651C5.45759 5.028 6.24156 4.25092 7.18913 3.7007C8.13669 3.15048 9.21566 2.8458 10.3213 2.81622C11.427 2.78665 12.5218 3.03318 13.4996 3.5319C14.4773 4.03062 15.3048 4.76459 15.9016 5.66258C16.4985 6.56057 16.8444 7.59209 16.906 8.65703C16.9675 9.72198 16.7426 10.7842 16.2529 11.7406C15.7632 12.6969 15.0255 13.515 14.1113 14.1154C16.08 14.8117 17.7876 16.0602 19.0143 17.7002C20.2411 19.3403 20.9307 21.2968 20.9946 23.3179C20.9919 23.5358 20.9019 23.7443 20.7436 23.8998C20.5852 24.0553 20.3707 24.1457 20.1448 24.1523C19.9189 24.1588 19.6991 24.0809 19.5313 23.9349C19.3636 23.7888 19.2609 23.5859 19.2446 23.3686C19.1751 21.1764 18.2232 19.0966 16.5906 17.5696C14.958 16.0427 12.773 15.1888 10.4987 15.1888C8.22432 15.1888 6.03933 16.0427 4.40673 17.5696C2.77414 19.0966 1.82224 21.1764 1.75277 23.3686C1.74108 23.5889 1.64039 23.796 1.47225 23.9456C1.30411 24.0952 1.08191 24.1753 0.853234 24.1689C0.624561 24.1624 0.407612 24.0698 0.248863 23.911C0.0901137 23.7521 0.00219136 23.5396 0.0039316 23.3191C0.0675748 21.2977 0.75714 19.341 1.98387 17.7007C3.21059 16.0605 4.91833 14.8118 6.88727 14.1154C6.02286 13.5477 5.31545 12.7849 4.82662 11.8934C4.3378 11.0018 4.08238 10.0085 4.0826 9.00005ZM10.4993 4.50005C9.26159 4.50005 8.0746 4.97416 7.19943 5.81807C6.32426 6.66199 5.8326 7.80658 5.8326 9.00005C5.8326 10.1935 6.32426 11.3381 7.19943 12.182C8.0746 13.0259 9.26159 13.5001 10.4993 13.5001C11.7369 13.5001 12.9239 13.0259 13.7991 12.182C14.6743 11.3381 15.1659 10.1935 15.1659 9.00005C15.1659 7.80658 14.6743 6.66199 13.7991 5.81807C12.9239 4.97416 11.7369 4.50005 10.4993 4.50005ZM20.1709 9.00005C19.999 9.00005 19.8303 9.0113 19.6646 9.0338C19.5489 9.05377 19.4303 9.05108 19.3157 9.02587C19.2012 9.00066 19.093 8.95346 18.9978 8.88709C18.9026 8.82071 18.8222 8.73652 18.7614 8.63954C18.7007 8.54255 18.6608 8.43476 18.6442 8.32259C18.6276 8.21042 18.6345 8.09617 18.6647 7.98666C18.6949 7.87715 18.7476 7.77462 18.8197 7.68518C18.8919 7.59575 18.982 7.52125 19.0846 7.46612C19.1873 7.41099 19.3004 7.37636 19.4173 7.3643C20.5776 7.20253 21.7608 7.4174 22.7806 7.97509C23.8004 8.53278 24.599 9.40164 25.0506 10.4449C25.5023 11.4882 25.5813 12.6467 25.2754 13.738C24.9694 14.8294 24.2958 15.7917 23.3606 16.4734C24.7354 17.067 25.9027 18.0316 26.7216 19.2506C27.5406 20.4697 27.9762 21.8913 27.9759 23.3438C27.9759 23.5676 27.8837 23.7822 27.7197 23.9404C27.5556 24.0987 27.333 24.1876 27.1009 24.1876C26.8689 24.1876 26.6463 24.0987 26.4822 23.9404C26.3181 23.7822 26.2259 23.5676 26.2259 23.3438C26.2264 22.0883 25.8071 20.8662 25.0304 19.8586C24.2536 18.851 23.1608 18.1117 21.9139 17.7503L21.2909 17.5703V15.6848L21.7693 15.4497C22.4783 15.1033 23.0456 14.5367 23.3796 13.8412C23.7136 13.1457 23.7948 12.362 23.6101 11.6165C23.4253 10.8711 22.9855 10.2074 22.3615 9.73268C21.7375 9.25795 20.9658 8.99985 20.1709 9.00005Z" fill="#E4E4E4"/>
</svg>
