<svg width="44" height="44" viewBox="0 0 44 44" fill="none" xmlns="http://www.w3.org/2000/svg">
<path d="M22 38.5C31.1127 38.5 38.5 31.1127 38.5 22C38.5 12.8873 31.1127 5.5 22 5.5C12.8873 5.5 5.5 12.8873 5.5 22C5.5 31.1127 12.8873 38.5 22 38.5Z" stroke="#E4E4E4" stroke-width="1.5" stroke-linecap="round" stroke-linejoin="round"/>
<path d="M19 15H20.7V29H19V15ZM19.84 16.6V15H22.9C23.8067 15 24.64 15.1333 25.4 15.4C26.1733 15.6667 26.7933 16.1 27.26 16.7C27.7267 17.3 27.96 18.1 27.96 19.1C27.96 20.0867 27.7267 20.8867 27.26 21.5C26.7933 22.1 26.1733 22.5333 25.4 22.8C24.64 23.0667 23.8067 23.2 22.9 23.2H19.84V21.6H22.9C23.6067 21.6 24.2133 21.5133 24.72 21.34C25.24 21.1533 25.64 20.88 25.92 20.52C26.2133 20.1467 26.36 19.6733 26.36 19.1C26.36 18.5267 26.2133 18.06 25.92 17.7C25.64 17.3267 25.24 17.0533 24.72 16.88C24.2133 16.6933 23.6067 16.6 22.9 16.6H19.84ZM20.4 26.9V25.4H24.4V26.9H20.4ZM16.6 23.2V21.7H20.6V23.2H16.6ZM16.6 26.9V25.4H20.6V26.9H16.6Z" fill="#E4E4E4"/>
</svg>
