<svg width="27" height="25" viewBox="0 0 27 25" fill="none" xmlns="http://www.w3.org/2000/svg">
<rect x="1" y="1" width="25" height="23" rx="4" stroke="#E4E4E4" stroke-width="2"/>
<path d="M21.1835 20.0028C21.5969 19.977 21.9111 19.6209 21.8853 19.2075L21.4642 12.4706C21.4384 12.0572 21.0823 11.743 20.6689 11.7689C20.2555 11.7947 19.9413 12.1508 19.9671 12.5642L20.3414 18.5525L14.3531 18.9268C13.9397 18.9526 13.6255 19.3087 13.6513 19.7221C13.6772 20.1355 14.0332 20.4497 14.4466 20.4239L21.1835 20.0028ZM5.81871 5.03112C5.4053 5.05696 5.09112 5.41304 5.11696 5.82645L5.53801 12.5633C5.56385 12.9767 5.91993 13.2909 6.33333 13.2651C6.74674 13.2392 7.06093 12.8831 7.03509 12.4697L6.66082 6.48142L12.6491 6.10715C13.0625 6.08131 13.3767 5.72523 13.3509 5.31183C13.3251 4.89842 12.969 4.58423 12.5556 4.61007L5.81871 5.03112ZM21.1367 19.2543L21.6329 18.6919L6.36171 5.21728L5.8655 5.77966L5.36928 6.34204L20.6405 19.8167L21.1367 19.2543Z" fill="#E4E4E4"/>
</svg>
