<svg preserveAspectRatio="none" width="100%" height="100%" overflow="visible" style="display: block;" viewBox="0 0 19 19" fill="none" xmlns="http://www.w3.org/2000/svg">
<g id="ion:calendar-outline">
<path id="Vector" d="M15.4375 2.96875H3.5625C2.57874 2.96875 1.78125 3.76624 1.78125 4.75V15.4375C1.78125 16.4213 2.57874 17.2188 3.5625 17.2188H15.4375C16.4213 17.2188 17.2188 16.4213 17.2188 15.4375V4.75C17.2188 3.76624 16.4213 2.96875 15.4375 2.96875Z" stroke="#290F0A" stroke-linejoin="round"/>
<path id="Vector_2" d="M10.9844 9.5C11.4763 9.5 11.875 9.10125 11.875 8.60938C11.875 8.1175 11.4763 7.71875 10.9844 7.71875C10.4925 7.71875 10.0938 8.1175 10.0938 8.60938C10.0938 9.10125 10.4925 9.5 10.9844 9.5Z" fill="#290F0A"/>
<path id="Vector_3" d="M13.9531 9.5C14.445 9.5 14.8438 9.10125 14.8438 8.60938C14.8438 8.1175 14.445 7.71875 13.9531 7.71875C13.4612 7.71875 13.0625 8.1175 13.0625 8.60938C13.0625 9.10125 13.4612 9.5 13.9531 9.5Z" fill="#290F0A"/>
<path id="Vector_4" d="M10.9844 12.4688C11.4763 12.4688 11.875 12.07 11.875 11.5781C11.875 11.0862 11.4763 10.6875 10.9844 10.6875C10.4925 10.6875 10.0938 11.0862 10.0938 11.5781C10.0938 12.07 10.4925 12.4688 10.9844 12.4688Z" fill="#290F0A"/>
<path id="Vector_5" d="M13.9531 12.4688C14.445 12.4688 14.8438 12.07 14.8438 11.5781C14.8438 11.0862 14.445 10.6875 13.9531 10.6875C13.4612 10.6875 13.0625 11.0862 13.0625 11.5781C13.0625 12.07 13.4612 12.4688 13.9531 12.4688Z" fill="#290F0A"/>
<path id="Vector_6" d="M5.04688 12.4688C5.53875 12.4688 5.9375 12.07 5.9375 11.5781C5.9375 11.0862 5.53875 10.6875 5.04688 10.6875C4.555 10.6875 4.15625 11.0862 4.15625 11.5781C4.15625 12.07 4.555 12.4688 5.04688 12.4688Z" fill="#290F0A"/>
<path id="Vector_7" d="M8.01562 12.4688C8.5075 12.4688 8.90625 12.07 8.90625 11.5781C8.90625 11.0862 8.5075 10.6875 8.01562 10.6875C7.52375 10.6875 7.125 11.0862 7.125 11.5781C7.125 12.07 7.52375 12.4688 8.01562 12.4688Z" fill="#290F0A"/>
<path id="Vector_8" d="M5.04688 15.4375C5.53875 15.4375 5.9375 15.0388 5.9375 14.5469C5.9375 14.055 5.53875 13.6562 5.04688 13.6562C4.555 13.6562 4.15625 14.055 4.15625 14.5469C4.15625 15.0388 4.555 15.4375 5.04688 15.4375Z" fill="#290F0A"/>
<path id="Vector_9" d="M8.01562 15.4375C8.5075 15.4375 8.90625 15.0388 8.90625 14.5469C8.90625 14.055 8.5075 13.6562 8.01562 13.6562C7.52375 13.6562 7.125 14.055 7.125 14.5469C7.125 15.0388 7.52375 15.4375 8.01562 15.4375Z" fill="#290F0A"/>
<path id="Vector_10" d="M10.9844 15.4375C11.4763 15.4375 11.875 15.0388 11.875 14.5469C11.875 14.055 11.4763 13.6562 10.9844 13.6562C10.4925 13.6562 10.0938 14.055 10.0938 14.5469C10.0938 15.0388 10.4925 15.4375 10.9844 15.4375Z" fill="#290F0A"/>
<path id="Vector_11" d="M4.75 1.78125V2.96875M14.25 1.78125V2.96875" stroke="#290F0A" stroke-linecap="round" stroke-linejoin="round"/>
<path id="Vector_12" d="M17.2188 5.9375H1.78125" stroke="#290F0A" stroke-linejoin="round"/>
</g>
</svg>
