<svg width="102" height="38" viewBox="0 0 102 38" fill="none" xmlns="http://www.w3.org/2000/svg">
<path d="M46.8506 37.002C46.9901 37.002 47.1086 37.0484 47.1973 37.1455C47.2859 37.2343 47.332 37.3487 47.332 37.4795C47.3319 37.606 47.2857 37.7156 47.1973 37.8125C47.1086 37.9097 46.9901 37.957 46.8506 37.957C46.7196 37.957 46.6057 37.9097 46.5127 37.8125C46.4242 37.7197 46.378 37.606 46.3779 37.4795C46.3779 37.3486 46.4241 37.2385 46.5127 37.1455C46.6099 37.0484 46.7196 37.002 46.8506 37.002ZM41.1377 32.9834C41.4164 32.9834 41.6618 33.0339 41.873 33.1309C42.08 33.2324 42.2581 33.3596 42.3975 33.5117C42.541 33.6637 42.6552 33.8285 42.7354 33.9932L42.085 34.3604C42.0259 34.2421 41.949 34.1323 41.8604 34.0352C41.7717 33.9296 41.6614 33.8492 41.5391 33.79C41.4208 33.7268 41.2811 33.6934 41.125 33.6934C40.9012 33.6934 40.7404 33.744 40.6348 33.8496C40.5294 33.9509 40.4786 34.065 40.4785 34.2041C40.4785 34.3266 40.517 34.4367 40.5889 34.5381C40.6648 34.6352 40.7829 34.7241 40.9434 34.8086C41.0997 34.8931 41.307 34.9823 41.5605 35.0752C41.6999 35.1259 41.8398 35.1886 41.9834 35.2646C42.1271 35.3406 42.2577 35.4384 42.376 35.5566C42.4943 35.6707 42.5876 35.8017 42.6553 35.958C42.727 36.11 42.7646 36.2918 42.7646 36.5029C42.7646 36.7268 42.7226 36.926 42.6338 37.1035C42.5494 37.2806 42.4311 37.4283 42.2793 37.5508C42.1314 37.6691 41.9578 37.7579 41.7676 37.8213C41.5817 37.8889 41.3873 37.9228 41.1846 37.9229C40.9015 37.9229 40.6432 37.8677 40.4023 37.7578C40.1661 37.6438 39.9593 37.4962 39.7861 37.3105C39.6088 37.1247 39.4689 36.9215 39.3633 36.7061L39.9629 36.2959C40.0684 36.4774 40.1787 36.638 40.2969 36.7773C40.4193 36.9124 40.5548 37.0184 40.6982 37.0986C40.8419 37.1704 41.0069 37.2089 41.1885 37.209C41.4039 37.209 41.5816 37.1495 41.7168 37.0312C41.8519 36.9129 41.9198 36.761 41.9199 36.5752C41.9199 36.3979 41.8777 36.2579 41.7891 36.1523C41.7045 36.0425 41.5818 35.9536 41.4297 35.8818C41.2818 35.8057 41.1038 35.73 40.9053 35.6582C40.787 35.616 40.6563 35.5607 40.5127 35.4932C40.369 35.4214 40.2296 35.3323 40.0986 35.2266C39.9677 35.1168 39.8579 34.986 39.7734 34.834C39.689 34.6734 39.6426 34.4834 39.6426 34.2637C39.6426 34.0102 39.7098 33.7859 39.8408 33.5957C39.9718 33.4015 40.1495 33.254 40.3691 33.1484C40.5972 33.0386 40.8505 32.9834 41.1377 32.9834ZM56.1631 32.9922C56.5347 32.9922 56.8602 33.0933 57.1348 33.2959C57.4178 33.4987 57.634 33.7859 57.7861 34.1533C57.9382 34.5208 58.0185 34.9522 58.0186 35.4463C58.0186 35.9405 57.9424 36.3718 57.7861 36.7393C57.634 37.1069 57.4137 37.3906 57.1348 37.5977C56.8602 37.8003 56.5347 37.9014 56.1631 37.9014C55.7999 37.9013 55.479 37.8003 55.2002 37.5977C54.9256 37.3948 54.7052 37.1069 54.5488 36.7393C54.3927 36.3718 54.3164 35.9404 54.3164 35.4463C54.3164 34.9522 54.3926 34.5208 54.5488 34.1533C54.7094 33.7858 54.9257 33.503 55.2002 33.2959C55.4832 33.0932 55.8041 32.9922 56.1631 32.9922ZM60.4102 32.9922C60.7818 32.9922 61.1073 33.0931 61.3818 33.2959C61.6648 33.4987 61.8801 33.786 62.0322 34.1533C62.1843 34.5208 62.2646 34.9522 62.2646 35.4463C62.2646 35.9405 62.1885 36.3717 62.0322 36.7393C61.8801 37.1068 61.6607 37.3906 61.3818 37.5977C61.1073 37.8004 60.7818 37.9013 60.4102 37.9014C60.0468 37.9014 59.7252 37.8005 59.4463 37.5977C59.1717 37.3948 58.9522 37.1068 58.7959 36.7393C58.6397 36.3717 58.5635 35.9405 58.5635 35.4463C58.5635 34.9522 58.6396 34.5208 58.7959 34.1533C58.9565 33.786 59.1718 33.5029 59.4463 33.2959C59.7294 33.0931 60.051 32.9922 60.4102 32.9922ZM46.4277 33.8115H45.1689V37.8301H44.3623V33.8115H43.1113V33.0723H46.4277V33.8115ZM38.666 33.0684V33.7734H36.5576V34.9316H38.5312V35.624H36.5576V37.1201H38.666V37.8252H35.7676V33.0684H38.666ZM50.0791 37.8252V37.8213H50.083L50.0791 37.8252ZM62.6748 37.8252V37.8213H62.6787L62.6748 37.8252ZM64.6143 32.9834C64.8889 32.9834 65.13 33.0294 65.3369 33.1182C65.5398 33.2027 65.7089 33.3177 65.8398 33.457C65.9748 33.5963 66.0763 33.7524 66.1396 33.917C66.2072 34.086 66.2412 34.2467 66.2412 34.4072C66.2412 34.6565 66.182 34.8976 66.0596 35.1299C65.9413 35.3623 65.7841 35.5697 65.5898 35.7471L64.2383 37.0732H66.3037V37.8213H62.6787L64.876 35.5059C64.9901 35.3834 65.0877 35.2654 65.168 35.1514C65.2483 35.0373 65.3116 34.9224 65.3496 34.8125C65.3918 34.6987 65.4082 34.5805 65.4082 34.4541C65.4082 34.3654 65.3916 34.2762 65.3535 34.1875C65.324 34.0988 65.269 34.0142 65.1973 33.9424C65.1297 33.8706 65.0448 33.8114 64.9434 33.7734C64.8422 33.7271 64.7283 33.7061 64.5977 33.7061C64.416 33.7061 64.2589 33.7482 64.1279 33.8369C63.997 33.9172 63.896 34.0401 63.8242 34.1963C63.7567 34.3568 63.7227 34.5383 63.7227 34.7451H62.9277C62.9278 34.4072 62.9915 34.1028 63.1182 33.8408C63.2491 33.5748 63.4393 33.3636 63.6885 33.2158C63.942 33.0636 64.2509 32.9834 64.6143 32.9834ZM52.0186 32.9834C52.2931 32.9834 52.5342 33.0294 52.7412 33.1182C52.944 33.2027 53.1132 33.3177 53.2441 33.457C53.3791 33.5963 53.4806 33.7524 53.5439 33.917C53.6115 34.086 53.6455 34.2467 53.6455 34.4072C53.6455 34.6565 53.5854 34.8976 53.4629 35.1299C53.3446 35.3622 53.1885 35.5697 52.9941 35.7471L51.6426 37.0732H53.708V37.8213H50.083L52.2803 35.5059C52.3943 35.3834 52.492 35.2654 52.5723 35.1514C52.6525 35.0373 52.7159 34.9224 52.7539 34.8125C52.796 34.6987 52.8125 34.5805 52.8125 34.4541C52.8125 34.3654 52.7958 34.2762 52.7578 34.1875C52.724 34.0988 52.6734 34.0142 52.6016 33.9424C52.534 33.8706 52.4491 33.8114 52.3477 33.7734C52.2463 33.727 52.1319 33.7061 52.001 33.7061C51.8194 33.7061 51.6631 33.7483 51.5322 33.8369C51.4013 33.9172 51.3003 34.04 51.2285 34.1963C51.161 34.3568 51.127 34.5382 51.127 34.7451H50.332C50.3321 34.4072 50.3957 34.1028 50.5225 33.8408C50.6533 33.5748 50.8436 33.3636 51.0928 33.2158C51.3463 33.0636 51.6553 32.9834 52.0186 32.9834ZM56.1631 33.71C56.0028 33.71 55.8593 33.7523 55.7285 33.8408C55.5975 33.9211 55.4835 34.04 55.3906 34.1963C55.3018 34.3485 55.2294 34.534 55.1787 34.7451C55.128 34.9605 55.1026 35.1929 55.1025 35.4463C55.1025 35.6999 55.128 35.9329 55.1787 36.1484C55.2294 36.3596 55.2977 36.5452 55.3906 36.6973C55.4877 36.8494 55.5975 36.9722 55.7285 37.0566C55.8594 37.1368 56.0027 37.1787 56.1631 37.1787C56.3321 37.1787 56.4806 37.1369 56.6074 37.0566C56.7383 36.9722 56.8475 36.8493 56.9404 36.6973C57.0375 36.5452 57.1097 36.3595 57.1562 36.1484C57.207 35.9371 57.2324 35.6999 57.2324 35.4463C57.2324 35.1929 57.2069 34.9605 57.1562 34.7451C57.1056 34.534 57.0333 34.3484 56.9404 34.1963C56.8517 34.0442 56.7384 33.9253 56.6074 33.8408C56.4806 33.7563 56.3321 33.71 56.1631 33.71ZM60.4141 33.71C60.2535 33.71 60.1095 33.7521 59.9785 33.8408C59.8476 33.9211 59.7335 34.04 59.6406 34.1963C59.5519 34.3484 59.4803 34.5341 59.4297 34.7451C59.379 34.9605 59.3535 35.1929 59.3535 35.4463C59.3535 35.6999 59.379 35.9329 59.4297 36.1484C59.4804 36.3594 59.5477 36.5453 59.6406 36.6973C59.7377 36.8494 59.8476 36.9721 59.9785 37.0566C60.1095 37.1369 60.2535 37.1787 60.4141 37.1787C60.5829 37.1787 60.7307 37.1368 60.8574 37.0566C60.9884 36.9721 61.0984 36.8495 61.1914 36.6973C61.2886 36.5452 61.3607 36.3595 61.4072 36.1484C61.4579 35.9371 61.4834 35.6999 61.4834 35.4463C61.4834 35.1929 61.4579 34.9605 61.4072 34.7451C61.3565 34.534 61.2842 34.3484 61.1914 34.1963C61.1026 34.0442 60.9884 33.9253 60.8574 33.8408C60.7307 33.7565 60.5829 33.71 60.4141 33.71ZM86.8604 20.9746C86.9027 20.7676 87.0256 20.7129 87.4648 20.8691C88.1788 21.1184 88.1784 21.2449 87.8066 21.3125C87.6884 21.3336 87.5182 21.364 86.0195 21.917C86.0321 22.2381 86.0192 22.6017 85.998 22.9355C86.8177 22.8595 87.7819 22.7033 88.2129 22.585C88.5086 22.5174 88.8422 22.5301 89.0449 22.585L89.041 22.5723C89.497 22.6991 89.4798 22.8803 89.125 22.9141C88.504 22.9731 88.0052 23.016 87.625 23.0498C87.6546 26.2683 87.5747 26.8857 87.3721 27.2998C87.2664 27.5236 87.1565 27.5156 87.0889 27.2412C87.0424 27.0976 87.0294 25.1323 87.0674 24.1309C87.0842 23.9615 87.0338 23.3702 87 23.1084C86.4638 23.1464 86.1891 23.147 85.9863 23.126C85.8974 24.6382 85.2508 25.4837 84.0723 26.0752C83.8695 26.1639 83.8098 26.0956 83.9873 25.9561C84.6842 25.39 85.1281 24.8411 85.3057 24.2031C85.5381 23.375 85.4573 21.9969 85.3516 21.8955C85.0775 21.6212 85.1793 21.5072 85.9688 21.7393C86.6658 21.3506 86.8224 21.1774 86.8604 20.9746ZM28.7031 20.7129C28.5129 20.5101 28.6231 20.3746 29.0752 20.5098V20.5186C29.6323 20.6959 29.6788 20.7677 29.6113 21.0293C29.531 21.3293 29.5059 21.4356 29.5059 22.1455C29.5059 23.996 29.5478 24.8625 29.5732 25.1963C29.6112 25.7371 29.6409 26.6916 29.4551 27.0254C29.3368 27.2408 29.1893 27.2916 29.0625 26.9795C28.8598 26.5148 28.8298 26.4213 28.9648 26.0625C29.1043 25.6737 29.121 24.0089 29.0449 22.2217C28.9984 21.1655 28.9396 20.9453 28.7031 20.7129ZM67.7998 22.3945C67.9773 22.31 68.0749 22.2846 68.2988 22.3564L68.3066 22.3525C68.4545 22.4032 68.7254 22.5594 68.8057 22.665C68.9027 22.8001 68.8731 22.8506 68.6201 22.9561C68.337 23.0745 68.2603 23.1209 67.2041 23.835C67.2632 23.9617 67.3097 24.1015 67.3477 24.2197C67.4491 24.5324 67.4873 24.8579 67.4873 25.4873C67.4873 26.1549 67.3392 26.5309 66.8828 26.9492C66.7139 27.1054 66.5364 27.1229 66.4307 26.9668C66.2955 26.7724 66.0591 26.5483 65.8057 26.3877C65.662 26.2863 65.6408 26.2101 65.9238 26.248C66.6843 26.341 66.8661 26.1971 66.9844 25.4365C67.0393 25.0224 66.963 24.4644 66.8447 24.1855C66.7645 23.9872 66.6754 23.831 66.5107 23.6748C66.3168 23.4932 66.5451 23.3753 67.1279 23.709C67.4278 23.4344 67.6349 23.134 67.7617 22.9102C67.8927 22.6862 67.8587 22.6606 67.5967 22.707C67.153 22.779 66.2868 22.9565 65.7715 23.0918C65.3916 23.1931 65.303 23.1716 65.1172 23.0703C64.8046 22.9013 64.8549 22.7959 65.0576 22.8086C65.4378 22.8128 65.7759 22.7834 66.3926 22.6904C66.9206 22.6018 67.6938 22.458 67.7998 22.3945ZM37.8672 20.7676C37.614 20.4468 37.7114 20.3492 38.3066 20.5645C38.8052 20.742 38.8566 20.8104 38.7002 21.123C38.5947 21.3134 38.5268 21.7612 38.5352 22.4961C38.9025 22.4412 39.2024 22.378 39.3672 22.3398C39.7855 22.2511 40.0691 22.2635 40.3818 22.4072H40.3857V22.4111C40.6983 22.5674 40.7997 22.8466 39.9082 22.7705C39.6503 22.7452 39.122 22.7705 38.5391 22.8086C38.5475 23.4169 38.6195 25.0854 38.666 25.7617C38.6914 26.2307 38.5477 26.5822 38.2139 26.9414C38.0578 27.1143 37.9605 27.1056 37.7959 26.9199C37.5594 26.675 37.2042 26.3457 36.9043 26.1006C36.7352 25.9696 36.7693 25.9435 37.0312 26.0068C37.9646 26.218 38.0069 26.1339 38.0322 25.8721C38.1336 24.9975 38.1377 23.5565 38.1123 22.8467C37.4956 22.9101 36.9129 22.9822 36.5791 23.0498C36.2284 23.1259 36.0124 23.0956 35.7969 23.0322C35.3494 22.9055 35.4507 22.8382 35.915 22.8213C36.2573 22.8044 37.2467 22.6821 38.1045 22.5596C38.0833 21.3258 38.0067 20.9535 37.8672 20.7676ZM45.2617 20.6963C44.9913 20.3583 45.0971 20.244 45.6084 20.3623C46.183 20.4975 46.255 20.5991 46.0986 20.916C46.0479 21.0188 45.963 21.9102 45.8828 23.0879C46.5926 23.0161 47.1379 22.9652 47.4336 22.9482C47.7632 22.9228 48.1313 22.8767 48.2158 22.8555C48.5832 22.7584 48.7013 22.7583 49.1787 22.9736L49.2041 22.9561C49.7153 23.1801 49.7024 23.282 49.4404 23.5947C49.3434 23.6969 49.2846 24.2547 49.2383 25.3857C49.2171 25.9097 48.8953 26.455 48.5742 26.6748C48.2195 26.8985 48.1602 26.907 48.0039 26.6748C47.8391 26.4339 47.5646 26.1083 47.459 26.0322C47.1634 25.8295 47.1848 25.7411 47.5439 25.8467C48.2451 26.0536 48.4519 25.9944 48.5576 25.3945C48.6632 24.8071 48.6806 24.2279 48.6426 23.7969C48.5919 23.2607 48.4731 23.1889 47.7129 23.2227C46.6481 23.2523 45.0883 23.3786 43.1826 23.6025C43.2333 24.1222 43.2592 24.7228 43.2803 25.2637C43.2888 25.6101 43.2883 25.7794 43.2207 26.0752C43.1361 26.4507 42.8493 26.442 42.6846 26.0068C42.6424 25.9013 42.6424 25.8164 42.71 25.5039C42.7986 25.0937 42.7984 23.8646 42.583 23.5479C42.3338 23.1887 42.431 23.113 43.0479 23.375C43.9181 23.2904 44.7251 23.1975 45.418 23.1299C45.4857 21.6682 45.4433 20.9288 45.2617 20.6963ZM55.2383 20.6914C54.9002 20.3237 55.1326 20.2012 55.6904 20.4463C56.2353 20.6913 56.2943 20.789 56.1084 20.9834C55.9859 21.1187 55.9264 21.5879 55.9053 22.7158C56.0193 22.8214 56.138 22.9309 56.2646 23.0322C57.4562 22.1703 57.7774 21.6 57.752 21.4395C57.7182 21.2536 57.8749 21.1942 58.3945 21.4561C58.8128 21.6928 58.8629 21.8067 58.6094 21.9082C58.3473 22.0181 57.857 22.2761 56.4209 23.1758C57.8195 24.3884 58.7623 24.6885 60.2285 24.9463C60.5578 24.997 60.5703 25.1195 60.1943 25.1533C58.378 25.3519 58.3182 25.3353 57.8877 24.9512C57.2666 24.3724 56.4932 23.6286 55.8975 23.0371C55.8975 23.6498 55.9096 24.4655 55.9561 25.2471C55.994 25.986 55.9478 26.21 55.6143 26.666C55.4918 26.835 55.3517 26.8356 55.208 26.6582C55.0305 26.4553 54.5873 26.0204 54.3506 25.8809C54.2112 25.8006 54.2454 25.7236 54.4482 25.7617C55.2294 25.9095 55.2889 25.8888 55.3564 25.3906C55.3859 25.1794 55.4619 23.6324 55.4619 22.9014C55.4619 21.2029 55.3946 20.8688 55.2383 20.6914ZM76.0439 23.9795C76.8549 23.8317 76.9817 23.831 77.459 23.9746L77.4629 23.9668C77.7798 24.0682 77.9149 24.266 76.998 24.2998C76.4065 24.3167 75.3506 24.4101 74.4805 24.5029C75.1266 24.7184 75.1816 24.8918 74.8818 24.9932C74.6918 25.0523 73.8552 25.6434 73.3945 25.9688C74.0409 25.9012 74.6922 25.842 76.1582 25.7236C76.0399 25.5715 75.8995 25.3904 75.7559 25.2129C75.5997 25.0271 75.6678 24.9765 75.9424 25.0947C77.2774 25.6989 77.4806 26.1089 77.375 26.6074C77.3369 26.7805 77.1081 26.8264 76.9434 26.6406C76.7281 26.4 76.5127 26.1552 76.2891 25.8809C74.7046 26.0753 73.5756 26.3369 73.1826 26.5312C72.7944 26.7254 72.7266 26.7255 72.6084 26.4639C72.4309 26.0583 72.4437 26.0202 73.0479 25.8809C73.2634 25.8217 73.9441 25.2127 74.1807 24.8789C74.2777 24.7395 74.3111 24.6252 74.2773 24.5322C73.838 24.5787 73.4577 24.6215 73.2422 24.6553C72.9464 24.7018 72.6464 24.6636 72.4014 24.5791C72.1014 24.4777 72.1186 24.3893 72.4609 24.3936C72.7629 24.3975 75.2837 24.1357 76.0439 23.9795ZM68.459 21.1611C68.7928 21.2244 68.7928 21.3635 68.4336 21.4395V21.4355C66.3633 21.8919 65.3488 21.9761 64.6348 21.8535C64.694 22.3985 64.5171 23.6956 64.2637 24.3379C63.8623 25.3478 63.3632 26.0242 62.4463 26.5439C62.1042 26.7381 62.0202 26.6577 62.4004 26.3408C63.1185 25.7702 63.6849 24.6714 63.9004 23.8223C63.1652 24.2195 62.7252 24.4863 62.4717 24.6934C62.2774 24.8622 62.1379 24.8489 61.876 24.6758C61.3906 24.3633 61.5673 24.2457 61.8291 24.2793C62.1038 24.3046 62.7385 24.0969 63.9385 23.6406C64.1031 22.9308 64.1827 22.0475 64.0645 21.832C63.9086 21.5578 64.0399 21.5072 64.5635 21.71C65.3324 21.7099 66.0679 21.5704 67.627 21.207C67.8931 21.1438 68.214 21.1147 68.459 21.1611ZM83.7041 20.9531C83.7379 20.7169 83.8099 20.6541 84.2617 20.8779C84.8195 21.1441 84.7733 21.3301 84.4775 21.3682C84.3592 21.3809 84.1812 21.4309 82.6221 21.9717C82.6305 22.2971 82.6436 22.6564 82.6309 22.9902C83.0196 22.9607 83.4295 22.8425 83.7422 22.665C83.9788 22.5256 84.0254 22.5299 84.5029 22.7031C84.8069 22.8045 84.8068 22.8844 84.6211 23.0195C84.5323 23.0745 84.376 23.2947 84.2197 23.5947C84.1226 23.7847 84.144 23.8526 84.2285 23.8906C84.5026 24.03 84.4729 24.1522 84.2617 24.207C83.6956 24.3634 83.0113 24.4606 82.4072 24.4648C82.1663 25.3521 81.6883 26.02 81.084 26.3369C80.9027 26.4338 80.8353 26.3743 81 26.2012C81.4394 25.7829 81.845 25.0354 82.0098 24.2539C82.2168 23.3159 82.1068 22.1871 81.8828 21.9463C81.5748 21.6043 81.6932 21.5281 82.584 21.8066C83.5474 21.2658 83.6829 21.1306 83.7041 20.9531ZM25.2002 21.7861C25.0439 21.6341 25.1198 21.4824 25.5801 21.6006H25.5762V21.6045C26.0283 21.7355 26.079 21.7946 26.041 21.9678C26.0199 22.0522 26.0068 22.259 25.9941 22.4531C25.9476 23.7334 25.8546 24.4612 25.7109 24.8584C25.4277 25.6313 24.7898 26.1384 24.2744 26.3496C24.1226 26.4211 24.0132 26.3412 24.1904 26.2061C25.2044 25.4752 25.4324 24.4735 25.5 23.6201C25.5719 22.7456 25.4748 22.0271 25.2002 21.7861ZM23.666 24.1143C23.8604 23.8016 23.941 23.8185 23.8311 24.1523C23.7001 24.5368 23.4176 25.6047 23.4385 25.9053C23.4723 26.4039 23.2273 26.476 22.8555 25.8506C22.6653 25.5041 22.6733 25.4491 22.7705 25.3857C22.9268 25.2844 23.0364 25.1492 23.2012 24.8662C23.3236 24.6339 23.4887 24.3931 23.666 24.1143ZM17.6074 21.1523C18.5538 20.9919 18.8537 20.9878 19.1875 21.1484C19.5084 21.309 19.5085 21.4181 18.748 21.4814C18.2494 21.5237 17.7252 21.5707 17.2139 21.6172C17.7125 21.8623 17.7551 21.9131 17.6748 22.1074C17.6156 22.2643 17.5524 22.9284 17.375 25.4746C17.9031 25.445 18.3298 25.4118 18.5664 25.3906C19.6186 25.2892 19.9526 25.3399 20.4131 25.585V25.5762H20.417C20.9113 25.838 20.7297 26.0876 20.2188 26.0117C19.1075 25.8384 18.3635 25.7661 16.2764 25.8379C15.8158 25.8548 14.3035 26.0161 13.7793 26.1006C13.268 26.1893 13.1111 26.1715 12.79 25.9941C12.5073 25.8378 12.4697 25.7116 12.7695 25.7158C13.1624 25.72 13.6356 25.7154 14.0664 25.6816C14.4383 25.6478 14.9496 25.6227 15.4355 25.5889C15.4355 22.9861 15.3804 22.1746 15.2959 21.8027C14.7086 21.8534 14.3874 21.8244 14.1338 21.7188C13.9016 21.6005 13.9269 21.5242 14.2012 21.5156C15.2828 21.4691 16.7581 21.296 17.6074 21.1523ZM34.5967 21.4648C34.7994 21.3762 34.9394 21.3804 35.3701 21.583L35.3574 21.5752C35.6362 21.7146 35.6829 21.7859 35.4424 21.9717C35.2734 22.0943 35.2055 22.9522 35.2646 24.5029C35.2942 25.2381 35.2647 25.5089 35.1084 25.792C34.9564 26.0832 34.8426 26.0405 34.7031 25.7236C34.6399 25.6012 34.6182 25.5168 34.6182 25.4492C34.4999 25.2339 34.4022 25.2258 33.3799 25.3271C33.2745 25.8719 33.0718 25.9179 32.9746 25.6855C32.8523 25.3817 32.8522 25.2463 32.9492 25.0225C33.0633 24.7435 33.0547 23.0835 33.0166 22.5088C33.0124 22.3103 32.9196 21.9179 32.873 21.8584C32.6956 21.6386 32.7212 21.4991 33.3379 21.7061C33.7474 21.7441 34.1447 21.6802 34.5967 21.4648ZM54.1182 22.4453C54.3379 22.3059 54.4603 22.3229 54.7432 22.4834C55.0558 22.6565 55.0567 22.7498 54.9385 22.8428C54.7948 22.9526 54.7565 23.0157 54.5791 23.3662C54.4439 23.6366 54.215 24.0174 53.9531 24.3428C53.4292 25.0185 52.6815 25.4789 52.0479 25.6943C51.8113 25.7703 51.6677 25.7455 51.8916 25.6104C52.593 25.1963 53.1888 24.6044 53.5479 24.1016C53.7168 23.8566 53.9952 23.3203 54.1221 23.0244C54.2108 22.8429 54.2112 22.8295 54.0254 22.8633C53.7932 22.9013 53.3245 23.0026 53.1299 23.0576C52.7708 23.1632 52.6517 23.1505 52.2715 22.9561C52.1156 22.8759 52.1538 22.7536 52.3311 22.7705C52.665 22.8042 53.8561 22.6185 54.1182 22.4453ZM46.1406 24.0127C46.3982 23.8564 46.5716 23.8691 46.8164 23.9746V23.9834C47.3615 24.2285 47.3616 24.3505 47.1377 24.4688C46.9899 24.5448 46.8843 24.6385 46.8252 24.7314C46.7071 24.9214 46.699 25.0266 46.8047 25.1279C46.9482 25.2715 46.8887 25.3688 46.627 25.373C46.1791 25.3899 45.3417 25.4496 44.8896 25.4961C44.8727 25.6649 44.8179 25.7285 44.7334 25.7285C44.649 25.7283 44.5309 25.6268 44.5098 25.4033C44.4802 25.0062 44.3195 24.5161 44.1758 24.3301C44.0617 24.1864 44.1172 24.0845 44.6074 24.207C45.2241 24.169 46.0346 24.0761 46.1406 24.0127ZM15.6807 21.7773C16.065 21.9463 16.1076 22.0862 16.0273 22.2637C15.9724 22.3904 15.9301 22.8762 15.9512 25.5508C16.3229 25.5297 16.6443 25.513 16.8682 25.4961C16.9991 22.9149 16.9904 21.9849 16.8975 21.6426C16.4793 21.6933 16.0609 21.7309 15.6807 21.7773ZM27.0596 21.5918C26.9413 21.4354 27.0809 21.3722 27.3936 21.4736H27.3975C27.7774 21.5961 27.849 21.693 27.8027 21.9082C27.7604 22.0728 27.7479 22.2887 27.7354 22.7236C27.7142 23.4207 27.6885 24.2155 27.6885 24.4775C27.6885 24.9211 27.63 25.2555 27.5244 25.4795C27.4778 25.5848 27.3588 25.5677 27.2617 25.4072C27.0928 25.1496 27.0847 25.0309 27.1904 24.6465C27.3129 24.2239 27.3721 23.5056 27.334 22.6143C27.3129 22.1623 27.237 21.8157 27.0596 21.5918ZM45.9336 24.2959C45.6421 24.3212 45.2319 24.351 44.7715 24.3975C44.8517 24.7227 44.8896 25.0189 44.8896 25.2598C45.2023 25.2302 45.5916 25.1832 45.8662 25.1367C46.014 25.1156 46.1621 25.0609 46.2002 24.9766C46.2425 24.8921 46.306 24.6759 46.3271 24.5576V24.5537C46.3651 24.3298 46.3055 24.2748 45.9336 24.2959ZM34.8213 22.1152C34.8001 21.7733 34.7151 21.7265 34.2041 21.8193C33.7942 21.8996 33.676 21.9043 33.4141 21.9043C33.4226 22.1831 33.4355 22.7787 33.4355 23.3828C34.1153 23.1929 34.2337 23.2016 34.4111 23.248C34.6139 23.2945 34.6515 23.4171 34.3896 23.4805C33.9718 23.5775 33.6805 23.594 33.4355 23.5391C33.444 24.1772 33.4355 24.8073 33.4229 25.0693C34.3479 24.9807 34.424 24.9888 34.7197 25.1748H34.7236V25.1875C34.8588 24.7312 34.8677 22.8969 34.8213 22.1152ZM36.0342 23.7598C35.899 23.5569 35.8985 23.4889 36.2109 23.5732C36.739 23.7127 36.9798 23.8987 37.001 24.1943C37.0348 24.5788 36.7177 24.6508 36.5234 24.4395C36.4052 24.3169 36.2368 24.0719 36.0342 23.7598ZM18.752 22.6357C18.7224 22.4625 18.8958 22.3864 19.3564 22.5977C19.8719 22.83 19.8717 22.978 19.6689 23.0625C19.5168 23.1259 19.352 23.2396 19.0986 23.4424C18.655 23.8142 18.2408 24.131 17.7168 24.4268C17.5395 24.5323 17.4721 24.4564 17.5986 24.3213C18.6126 23.2651 18.7899 22.8552 18.752 22.6396V22.6357ZM13.585 23.3281C13.5005 23.1888 13.5802 23.1302 13.7236 23.168C14.5687 23.3708 14.9624 23.7678 14.8652 24.1523C14.7892 24.4565 14.6243 24.4774 14.3877 24.3379H14.3828C14.2264 24.2446 13.9438 23.8643 13.585 23.3281ZM24.626 23.2227C24.664 23.0327 24.79 22.9947 24.9082 23.1885C25.0688 23.4463 24.9255 23.9493 24.71 24.207C24.5156 24.4394 24.3004 24.3466 24.2793 24.1143C24.2666 23.9791 24.288 23.9113 24.3809 23.793C24.4696 23.6746 24.5668 23.4675 24.626 23.2227ZM83.8223 23.2227C83.8349 23.0537 83.7761 23.0371 83.1934 23.1553C82.9103 23.2018 82.7743 23.2227 82.6348 23.2227C82.6137 23.586 82.5757 23.9282 82.4785 24.2451C83.632 24.0718 83.6704 24.059 83.7168 23.8857C83.7759 23.6957 83.8011 23.4845 83.8223 23.2227ZM74.6621 20.3623C74.6156 20.1045 74.7378 20.0583 75.1982 20.2441C75.6208 20.4046 75.6971 20.5988 75.376 20.7002C75.338 20.7129 75.2618 20.7845 75.1816 20.8857C77.6322 22.842 78.0802 23.0156 79.7109 23.417V23.4258H79.7031C80.1168 23.5271 80.1418 23.6117 79.7236 23.6328C78.0849 23.7342 77.9999 23.7255 77.5693 23.4004C77.2566 23.1511 75.6843 21.697 75.0801 21.0547C74.3618 22.1237 72.7987 23.6834 71.041 24.2031C70.8297 24.2623 70.7581 24.1604 70.9736 24.0674C72.3508 23.404 73.5424 22.2425 74.1973 21.3721C74.5182 20.9456 74.6957 20.5061 74.6621 20.3623ZM26.2266 23.2393C26.1467 23.1044 26.2479 23.0501 26.3828 23.0879H26.3789V23.0957C26.8097 23.1844 26.9955 23.404 26.9746 23.6152C26.9535 23.8138 26.7 23.882 26.5732 23.7217C26.4633 23.5738 26.3322 23.4253 26.2266 23.2393ZM27.9766 22.8594C28.4158 22.9016 28.7496 23.0793 28.7285 23.3623C28.7242 23.4889 28.5592 23.5607 28.3818 23.4678C28.2424 23.396 27.9509 23.1715 27.8115 22.9941C27.7527 22.9139 27.8204 22.8425 27.9766 22.8594ZM74.8477 22.9814C75.5618 22.7955 75.8831 22.796 76.0986 22.8594C76.3943 22.9439 76.3817 23.0624 76.0986 23.1553C75.9846 23.1891 75.3089 23.3242 74.9961 23.3623C74.3415 23.4383 73.8341 23.4382 73.627 23.3623C73.3651 23.2525 73.4239 23.1846 73.6855 23.1846C73.8629 23.1846 74.5011 23.0744 74.8477 22.9814ZM22.665 22.5762C23.2015 22.5973 23.4843 22.7535 23.5225 23.0322C23.569 23.3069 23.4129 23.4297 23.1172 23.2734H23.1133V23.2773C22.9739 23.1971 22.7538 23.0537 22.5088 22.7793C22.344 22.5976 22.4115 22.5719 22.665 22.5762ZM62.3027 22.2969C62.2228 22.1239 62.3159 22.1073 62.5186 22.1621C63.055 22.31 63.3004 22.5976 63.2793 22.7539C63.2202 23.1593 63.021 23.227 62.7676 22.9863V22.9902C62.586 22.8086 62.4379 22.5884 62.3027 22.2969ZM43.5596 21.8496C43.3948 21.5877 43.538 21.5787 43.7744 21.6631C44.5095 21.9038 44.666 22.1873 44.5479 22.4619C44.4296 22.69 44.2519 22.7237 44.0576 22.5293C43.8593 22.3351 43.7538 22.1788 43.5596 21.8496ZM47.5859 21.207C47.6536 20.9664 47.7632 20.9117 48.084 21.0889C48.6376 21.3932 48.6379 21.5034 48.3379 21.5879C48.1943 21.626 48.0001 21.7098 47.8818 21.7646C47.3242 22.0139 46.9058 22.1877 46.5635 22.2891C46.365 22.344 46.3056 22.2424 46.4912 22.1494C47.0743 21.8325 47.5395 21.393 47.5859 21.207ZM23.5645 21.0635C24.1474 21.1269 24.4012 21.2663 24.4814 21.583C24.5406 21.8238 24.3294 22.0102 24.0801 21.875C23.8309 21.7609 23.6412 21.5405 23.4258 21.249C23.2908 21.0676 23.3494 21.0425 23.5645 21.0635ZM65.873 20.3281C66.5237 20.2731 66.7899 20.447 66.8955 20.6709C67.0262 20.9369 66.7985 21.0678 66.5029 20.9834C66.2073 20.8947 65.8101 20.6541 65.6367 20.5146C65.531 20.4302 65.5605 20.3492 65.873 20.3281ZM90.8584 5.74707C91.184 5.75559 91.5263 5.78487 91.8682 5.83984C92.2059 5.89473 92.5435 5.98339 92.8643 6.10156C93.1903 6.22416 93.5031 6.40129 93.7861 6.62109C93.9601 6.76469 94.0906 6.98091 94.1836 7.25977V7.25488C94.2716 7.51258 94.3359 7.79609 94.3779 8.11719C94.4199 8.42972 94.4404 8.76335 94.4404 9.09277C94.4404 9.42237 94.4283 9.73575 94.4023 10.0146C94.3734 10.2891 94.3475 10.5297 94.3096 10.7324C94.2676 10.9648 94.2215 11.092 94.1445 11.168C94.0015 11.3665 93.7352 11.5824 93.3213 11.8232C92.9743 12.0302 92.4539 12.2753 91.7402 12.5752C91.073 12.8624 90.1476 13.1875 88.9775 13.5635V18.5918H87.541V6.2959L87.6758 6.25391C88.411 6.02161 89.1593 5.85666 89.8818 5.78906C90.1987 5.75946 90.5246 5.74287 90.8584 5.74707ZM69.8418 6.43066C69.8419 6.43272 69.843 6.44589 69.8545 6.47656C69.8671 6.51455 69.8972 6.59073 69.9521 6.70898C70.0112 6.83571 70.0911 7.02173 70.1924 7.2666C70.298 7.50733 70.4372 7.84163 70.623 8.25977C70.8089 8.68657 71.0414 9.21942 71.3076 9.87012L72.123 11.8174L72.1484 11.8096L74.54 6.22754H75.876L72.8291 13.6855C72.7193 14.0827 72.5458 14.5514 72.3262 15.0625C72.1023 15.5779 71.8067 16.0851 71.4434 16.5498C71.0716 17.023 70.6149 17.4455 70.0742 17.8047C69.5333 18.1681 68.8742 18.4175 68.1221 18.54H68.0879C67.953 18.5399 67.8599 18.498 67.8135 18.4053C67.784 18.363 67.7589 18.266 67.8389 18.1436C67.86 18.1056 67.8984 18.0543 67.9365 18.0078L67.9697 17.9658L68.0166 17.9492C68.5785 17.7253 69.0641 17.4375 69.457 17.0869C69.8542 16.7362 70.1921 16.3513 70.4541 15.9541C70.7203 15.5527 70.9315 15.1387 71.0752 14.7373C71.2146 14.3401 71.3211 13.9812 71.4014 13.6602L68.5488 7.13184L68.7305 7.05566C68.8402 7.00502 68.9288 6.96681 68.9922 6.94141C69.0344 6.92035 69.0811 6.8953 69.1191 6.85742C69.1571 6.81942 69.2084 6.76848 69.2549 6.69238C69.314 6.6037 69.3987 6.48111 69.5 6.3291L69.8418 5.82617V6.43066ZM2.03223 5.91992C2.78013 5.81002 3.44785 5.80164 4.04785 5.88184C4.29289 5.91993 4.55487 5.97862 4.8125 6.05469C5.0787 6.14339 5.32425 6.25708 5.54395 6.40918C5.77212 6.56546 5.95797 6.76431 6.11426 7.00098V6.99707C6.26626 7.23787 6.37186 7.52088 6.42676 7.85449V13.8291H4.97363V13.6348C4.6737 13.7192 4.33958 13.8123 3.98047 13.8926C3.51147 14.0025 3.03385 14.0622 2.56055 14.0664H2.49707C2.0408 14.0664 1.61397 14.0025 1.22949 13.8799C0.802949 13.7405 0.465107 13.4872 0.228516 13.124L0.210938 13.0898C0.12648 12.8744 0.0634119 12.6378 0.0253906 12.376C0.0127252 12.207 9.1137e-06 12.0126 0 11.793V11.6318C0.00849014 11.3404 0.0806562 11.0146 0.21582 10.6895L0.236328 10.6475L0.274414 10.6143C0.561734 10.3735 0.933981 10.1317 1.39453 9.87402C1.7706 9.66706 2.2694 9.43048 2.88184 9.17285C3.45643 8.93201 4.15768 8.69553 4.96875 8.45898C4.94336 8.08298 4.83396 7.74497 4.65234 7.44922C4.57204 7.30982 4.46167 7.17465 4.30957 7.04785C4.17019 6.92538 4.00157 6.81496 3.78613 6.73047C3.57491 6.646 3.31714 6.57453 3.02148 6.53223C2.73838 6.49003 2.39983 6.49003 2.01953 6.53223C1.95201 6.55757 1.88853 6.57031 1.8252 6.57031H1.7666C1.6779 6.57031 1.58841 6.55373 1.50391 6.51562L1.39062 6.46875V6.34668C1.39062 6.24948 1.43254 6.10989 1.65234 6.02539C1.76627 5.97893 1.89293 5.94521 2.03223 5.91992ZM20.54 5.91992C21.2879 5.81002 21.9557 5.80164 22.5557 5.88184C22.8092 5.91994 23.0714 5.97861 23.3291 6.05469C23.5951 6.14333 23.84 6.25725 24.0596 6.40918C24.2876 6.56541 24.4736 6.76441 24.6299 7.00098L24.6133 6.99707C24.7695 7.23788 24.8708 7.52085 24.9258 7.85449V13.8291H23.4727V13.6348C23.1727 13.7193 22.8386 13.8123 22.4795 13.8926C22.0105 14.0025 21.5328 14.0622 21.0596 14.0664H20.9961C20.5399 14.0664 20.1129 14.0025 19.7285 13.8799C19.3019 13.7405 18.968 13.4873 18.7314 13.124L18.7148 13.0898C18.6304 12.8744 18.5663 12.6337 18.5283 12.376C18.5029 12.169 18.4987 11.9276 18.5029 11.6318C18.5157 11.3404 18.5842 11.0146 18.7236 10.6895L18.7441 10.6475L18.7783 10.6143C19.0741 10.3735 19.4369 10.1317 19.8975 9.87402C20.2778 9.66702 20.777 9.43055 21.3896 9.17285C21.9642 8.93202 22.6655 8.69552 23.4766 8.45898C23.4512 8.08301 23.3375 7.74495 23.1602 7.44922C23.0757 7.30984 22.9611 7.17464 22.8174 7.04785C22.678 6.9254 22.5093 6.81496 22.2939 6.73047C22.0868 6.64597 21.8283 6.57453 21.5283 6.53223C21.2453 6.49009 20.9075 6.49005 20.5273 6.53223C20.4598 6.55761 20.3964 6.57031 20.333 6.57031H20.2695C20.1851 6.57031 20.0962 6.55371 20.0117 6.51562L19.8975 6.46875V6.34668C19.8975 6.24948 19.9405 6.10989 20.1602 6.02539C20.2742 5.97894 20.4007 5.9452 20.54 5.91992ZM48.3271 5.91992C49.0707 5.81007 49.738 5.80167 50.3379 5.88184C50.5871 5.91992 50.8449 5.97863 51.1025 6.05469C51.3687 6.14337 51.6143 6.25713 51.834 6.40918C52.0663 6.56541 52.2519 6.76022 52.4082 7.00098H52.4062C52.4055 6.99975 52.4051 6.9983 52.4043 6.99707V7.00098H52.4062C52.557 7.24099 52.6622 7.52255 52.7168 7.85449V13.8291H51.2637V13.6348C50.9637 13.7193 50.6297 13.8123 50.2705 13.8926C49.8015 14.0025 49.3238 14.0622 48.8506 14.0664H48.7871C48.3309 14.0664 47.904 14.0025 47.5195 13.8799C47.0972 13.7405 46.759 13.4873 46.5225 13.124L46.5059 13.0898C46.4172 12.8744 46.3573 12.6337 46.3193 12.376C46.2939 12.1647 46.2897 11.9234 46.2939 11.6318C46.3025 11.3404 46.3752 11.0146 46.5146 10.6895L46.5312 10.6475L46.5693 10.6143C46.8651 10.3735 47.228 10.1317 47.6885 9.87402C48.0645 9.66705 48.5717 9.43052 49.1758 9.17285C49.7505 8.93195 50.4524 8.69558 51.2637 8.45898C51.2299 8.08289 51.1279 7.74502 50.9463 7.44922C50.8617 7.30989 50.7481 7.17459 50.6045 7.04785C50.4651 6.92535 50.2956 6.81497 50.0801 6.73047C49.8647 6.64605 49.6071 6.57451 49.3115 6.53223C49.0284 6.49003 48.6899 6.49003 48.3096 6.53223C48.2421 6.55755 48.1785 6.57031 48.1152 6.57031H48.0518C47.9674 6.57026 47.8784 6.55366 47.7939 6.51562L47.6807 6.46875V6.34668C47.6807 6.24948 47.7227 6.11839 47.9424 6.02539C48.0607 5.97889 48.1877 5.94522 48.3271 5.91992ZM97.5557 5.91992C98.2996 5.81005 98.9714 5.80165 99.5713 5.88184C99.8161 5.91991 100.078 5.97865 100.335 6.05469C100.602 6.14336 100.847 6.25716 101.066 6.40918C101.29 6.56546 101.486 6.76012 101.642 7.00098C101.794 7.23758 101.899 7.52558 101.954 7.85938V13.8213H100.492V13.627C100.192 13.7114 99.8579 13.8045 99.499 13.8848C99.0302 13.9945 98.5439 14.0534 98.0791 14.0576H98.0166C97.5596 14.0576 97.133 13.9946 96.748 13.8721C96.3212 13.7326 95.9829 13.4786 95.751 13.1152L95.7344 13.0898C95.6494 12.8703 95.5868 12.6337 95.5488 12.3721C95.5238 12.1481 95.5234 11.8941 95.5234 11.6279C95.5314 11.3279 95.6032 11.0066 95.7422 10.6855L95.7598 10.6436L95.7979 10.6094C96.0857 10.3687 96.4523 10.1276 96.917 9.87012C97.293 9.66303 97.7924 9.42662 98.4043 9.16895C98.9792 8.92808 99.6803 8.69165 100.492 8.45508C100.466 8.07919 100.357 7.74099 100.176 7.44531C100.096 7.31011 99.976 7.18305 99.833 7.04785C99.693 6.9254 99.5245 6.81494 99.3096 6.73047C99.0977 6.64602 98.8407 6.57454 98.5449 6.53223C98.2619 6.49003 97.923 6.49003 97.542 6.53223C97.4752 6.55749 97.4114 6.57029 97.3486 6.57031H97.2852C97.2003 6.57028 97.1112 6.55366 97.0273 6.51562L96.9092 6.46875V6.34668C96.9092 6.24948 96.9558 6.10989 97.1758 6.02539C97.2897 5.98312 97.4168 5.94521 97.5557 5.91992ZM43.1709 5.81738C43.5299 5.82589 43.8424 5.85531 44.1338 5.91016C44.4338 5.96085 44.7002 6.06658 44.9326 6.19336C45.1777 6.34126 45.3641 6.54016 45.4697 6.78516L45.4863 6.78125C45.5919 7.01771 45.6811 7.25838 45.7275 7.51172C45.7739 7.73991 45.7818 7.99357 45.7607 8.27246C45.7438 8.56394 45.6469 8.87688 45.4863 9.20215L45.4648 9.23535L45.4316 9.26074C45.1696 9.47624 44.8141 9.70872 44.3789 9.93262C44.0072 10.1397 43.5213 10.3636 42.9258 10.6045C42.3553 10.8411 41.6622 11.0655 40.8594 11.2852C40.8974 11.6907 41.0035 12.0536 41.1768 12.3662C41.2613 12.5183 41.3668 12.6544 41.502 12.7812C41.6287 12.9121 41.8023 13.0221 42.0049 13.1191C42.2119 13.2078 42.4567 13.2839 42.7354 13.3262C43.0185 13.3684 43.357 13.3684 43.75 13.3262L43.9102 13.292C43.9648 13.2752 44.007 13.2754 44.0449 13.2754C44.2264 13.2754 44.3113 13.4016 44.3115 13.5156C44.3115 13.5873 44.2822 13.6511 44.2148 13.748C44.1387 13.8536 44.0029 13.9174 43.7959 13.9512C43.3608 14.0188 42.9421 14.0566 42.5576 14.0566C42.2831 14.0566 42.0125 14.04 41.7676 14.002C41.5059 13.9682 41.2484 13.9093 40.9951 13.8291C40.729 13.7488 40.4833 13.6303 40.2637 13.4697C40.0397 13.3092 39.8536 13.1106 39.6973 12.874C39.541 12.6373 39.4397 12.3413 39.3848 11.999V6.3457L39.5283 6.30762C40.4746 6.08366 41.3535 5.93188 42.1436 5.86426C42.435 5.83467 42.7311 5.81739 43.0352 5.81738H43.1709ZM83.3799 5.80859C84.0051 5.86779 84.6766 6.0164 85.3779 6.25293L85.4121 6.26562L85.4463 6.29883C85.535 6.3791 85.6364 6.4808 85.6279 6.62012C85.6195 6.69181 85.5768 6.76344 85.5137 6.80566C85.4249 6.86906 85.3022 6.90332 85.1416 6.90332H85.04C84.9134 6.9033 84.7653 6.88661 84.6006 6.86133C83.9838 6.77675 83.4892 6.74257 83.1133 6.77637C82.7501 6.81446 82.4671 6.87356 82.2559 6.95801C82.0404 7.04251 81.8967 7.15289 81.8037 7.27539C81.7235 7.51619 81.6807 7.73184 81.6807 7.90918C81.6807 8.10754 81.6938 8.28063 81.7275 8.41992C81.7613 8.54242 81.8041 8.66979 81.8633 8.77539C82.3828 8.89365 82.8477 9.01191 83.2617 9.11328C83.6968 9.22735 84.0689 9.3247 84.373 9.40918C84.715 9.49361 85.0443 9.58646 85.3271 9.6709L85.4062 9.69434L85.4414 9.77246C85.7498 10.5075 85.9026 11.1411 85.8857 11.6396C85.8688 12.1424 85.7752 12.5571 85.6104 12.874C85.4245 13.2414 85.1461 13.5414 84.7871 13.7568L84.7617 13.7734C84.4534 13.896 84.1531 13.9765 83.8701 14.0146C83.6673 14.0442 83.4642 14.0566 83.2656 14.0566H83.0801C82.8223 14.0524 82.5725 14.0103 82.3486 13.9512C82.1205 13.8878 81.9092 13.8159 81.7275 13.7314C81.2923 13.537 80.891 13.2749 80.5361 12.958L80.5195 12.9375C80.2746 12.6293 80.3202 12.409 80.4131 12.2822C80.4976 12.1512 80.5998 12.0879 80.7139 12.0879C80.7687 12.088 80.8362 12.105 80.9121 12.1641L80.9375 12.1895C80.9797 12.2359 81.0223 12.2866 81.0771 12.333C81.1236 12.3751 81.1743 12.4132 81.2207 12.4385C81.2967 12.4976 81.3475 12.5314 81.4023 12.5566C82.0488 12.882 82.5725 13.0598 82.9697 13.0811C83.3584 13.1022 83.6673 13.0643 83.8828 12.9629C84.1405 12.8488 84.3218 12.6705 84.4443 12.417C84.5203 12.1679 84.5585 11.9399 84.5459 11.7246C84.5332 11.5007 84.5041 11.306 84.4492 11.1455C84.3985 10.9764 84.3342 10.8325 84.2539 10.71C83.7809 10.6043 83.3375 10.4988 82.9404 10.3848C82.5221 10.2707 82.1499 10.1614 81.8457 10.0684C81.4782 9.95008 81.1443 9.83605 80.8486 9.73047L80.7852 9.70898L80.752 9.6543C80.5407 9.3163 80.4048 8.97774 80.3457 8.65234C80.2951 8.33993 80.2696 8.05702 80.2822 7.80371C80.2991 7.49531 80.3501 7.2158 80.4346 6.9707C80.5907 6.67517 80.7767 6.45157 81.0088 6.29102C81.2243 6.13472 81.4741 6.01194 81.7402 5.93164C82.0022 5.85134 82.2687 5.80889 82.5645 5.79199C82.839 5.77511 83.1138 5.7833 83.3799 5.80859ZM11.2568 5.80859C11.882 5.86782 12.5578 6.01639 13.2549 6.25293L13.293 6.26562L13.3184 6.29883C13.407 6.37912 13.5126 6.48075 13.5 6.62012C13.4915 6.6919 13.4491 6.76346 13.3857 6.80566C13.2969 6.86906 13.1743 6.90332 13.0137 6.90332H12.9131C12.7865 6.90332 12.6383 6.88659 12.4736 6.86133C11.8569 6.77676 11.3581 6.74262 10.9863 6.77637C10.6229 6.81447 10.3307 6.87351 10.1279 6.95801C9.9125 7.0425 9.76026 7.15292 9.67578 7.27539C9.59137 7.51195 9.55371 7.72767 9.55371 7.90918C9.55372 8.10749 9.56589 8.28065 9.59961 8.41992C9.63341 8.54242 9.68035 8.66979 9.73535 8.77539C10.255 8.89367 10.7197 9.01189 11.1338 9.11328C11.5731 9.22735 11.9448 9.32469 12.249 9.40918C12.6039 9.49796 12.9252 9.58641 13.2041 9.6709L13.2891 9.69629V9.6748L13.3223 9.75586C13.639 10.4951 13.7876 11.1285 13.7666 11.627C13.7497 12.1298 13.656 12.5444 13.4912 12.8613C13.3054 13.2287 13.0268 13.5287 12.668 13.7441L12.6426 13.7607C12.3343 13.8832 12.034 13.9639 11.751 14.002C11.5481 14.0316 11.3451 14.0439 11.1465 14.0439H10.9609C10.7032 14.0354 10.4535 13.9977 10.2295 13.9385C10.0056 13.8751 9.79399 13.8032 9.6123 13.7188C9.17722 13.5244 8.77572 13.2621 8.4209 12.9453L8.40039 12.9248C8.15544 12.6166 8.20116 12.3964 8.29395 12.2695C8.37845 12.1385 8.48063 12.0752 8.59473 12.0752C8.64539 12.0753 8.71315 12.0923 8.78906 12.1514L8.81445 12.1768C8.85669 12.2316 8.90673 12.2827 8.95312 12.3291C8.99527 12.3671 9.05032 12.4008 9.09668 12.4346C9.16428 12.4937 9.2202 12.5274 9.2793 12.5527C9.92131 12.878 10.4408 13.055 10.8379 13.0762C11.2266 13.0974 11.5355 13.0594 11.751 12.958C12.0127 12.844 12.19 12.6665 12.3125 12.4131C12.3886 12.1764 12.4268 11.9352 12.4141 11.7197C12.4056 11.4962 12.3761 11.302 12.3213 11.1416C12.279 10.9726 12.2072 10.8286 12.127 10.7061C11.6538 10.6005 11.2097 10.495 10.8125 10.3809C10.3944 10.2668 10.0229 10.1564 9.71875 10.0635C9.35121 9.9452 9.02135 9.83127 8.72559 9.72559L8.66602 9.70508L8.63281 9.64941C8.42575 9.31146 8.28576 8.98219 8.22656 8.64844C8.17587 8.33156 8.15049 8.04841 8.16309 7.79492C8.17579 7.49492 8.22253 7.2158 8.31543 6.9707C8.46754 6.67512 8.65354 6.45157 8.88574 6.29102C9.10124 6.13472 9.35099 6.01194 9.61719 5.93164C9.86641 5.85558 10.145 5.80889 10.4365 5.79199C10.7153 5.77509 10.9906 5.78329 11.2568 5.80859ZM66.0596 5.59863H67.7158V6.69727H66.0596V9.13086C66.0343 9.80696 66.0506 10.4324 66.0928 11.0029C66.1097 11.2564 66.1225 11.5098 66.1562 11.7549C66.1815 12.0126 66.2155 12.2496 66.2578 12.4736C66.2958 12.6847 66.3468 12.8831 66.4102 13.0479C66.4609 13.2043 66.533 13.3266 66.6133 13.4111L66.7988 13.665C66.8368 13.7453 66.8408 13.8215 66.8154 13.8848L66.7822 13.9648L66.6807 14.0117C66.6513 14.0286 66.6215 14.0283 66.5879 14.0283C66.5414 14.0283 66.4609 14.0194 66.2666 13.9434L66.2324 13.9268C65.8988 13.7198 65.6115 13.3988 65.375 12.9766C65.1637 12.6217 64.9779 12.1351 64.8174 11.5225C64.6568 10.9098 64.5762 10.1069 64.5762 9.13086V6.69727H62.9199V5.59863H64.5762V1.09473H64.7617C64.918 1.09473 65.0916 1.0565 65.2773 0.993164C65.4632 0.929771 65.6034 0.832736 65.709 0.693359L66.0469 0.257812H66.0596V5.59863ZM32.9492 6.24512C34.1071 6.58322 35.0332 6.89591 35.7051 7.16211C36.4189 7.45365 36.9388 7.68171 37.2979 7.87598C37.7372 8.1125 38.0119 8.32363 38.1514 8.52637C38.2021 8.58556 38.2484 8.68727 38.2949 8.94922L38.2988 8.95312C38.3369 9.15166 38.3705 9.39709 38.3916 9.67578C38.4169 9.95468 38.4213 10.2638 38.417 10.5977C38.4128 10.9355 38.3925 11.2653 38.3545 11.5693C38.3207 11.8775 38.2573 12.173 38.1729 12.4307C38.0799 12.7179 37.944 12.9291 37.7793 13.0645C37.5385 13.2884 37.2721 13.4621 36.9805 13.5889C36.7017 13.7071 36.4144 13.7956 36.123 13.8506C35.8357 13.9097 35.5522 13.9355 35.2734 13.9482H35.1602C34.9236 13.9482 34.6908 13.9267 34.4668 13.9014C33.9682 13.8422 33.4567 13.7202 32.958 13.5469V13.8291H31.5215V0.980469L31.6865 0.955078C31.8471 0.929689 32.0248 0.904587 32.2275 0.862305C32.3795 0.832743 32.5022 0.735016 32.6035 0.570312L32.9492 0V6.24512ZM61.6445 13.8252H60.208V12.71C60.1659 12.7268 60.1192 12.7436 60.0645 12.7646C59.8067 12.866 59.5281 12.9762 59.2324 13.0986L58.2939 13.4824C58.2095 13.5205 58.1503 13.5417 58.1123 13.5586C58.0785 13.5797 58.0197 13.6017 57.8975 13.6396C57.7834 13.6776 57.6479 13.7198 57.5 13.7578C57.3479 13.8 57.2039 13.838 57.0645 13.876C56.9082 13.9139 56.794 13.9346 56.7139 13.9346C56.6547 13.9472 56.5784 13.9473 56.5107 13.9473C56.2067 13.9472 55.9531 13.8712 55.7715 13.7275C55.5603 13.5586 55.3996 13.3641 55.2939 13.1572C55.1757 12.9207 55.1041 12.6374 55.0957 12.3037V6.20703H56.5322V10.415C56.5322 10.6304 56.5406 10.8714 56.5449 11.1289C56.5575 11.3824 56.5661 11.6238 56.583 11.8477C56.6083 12.08 56.63 12.2789 56.6553 12.4395C56.6793 12.6271 56.714 12.6751 56.7178 12.6797C56.853 12.7938 57.0352 12.8535 57.2549 12.8535C57.3055 12.8535 57.3562 12.8486 57.4111 12.8486C57.7363 12.8106 58.0869 12.7221 58.4502 12.5869C58.8136 12.4474 59.1604 12.2872 59.4941 12.1055C59.794 11.9366 60.0306 11.814 60.208 11.7295V6.21484H60.3945C60.5507 6.2148 60.6984 6.18537 60.8545 6.12207C61.0065 6.0629 61.1546 5.94912 61.3193 5.78027L61.6445 5.43359V13.8252ZM16.9326 13.8291H15.5V6.26172L15.6777 6.24902C15.8297 6.24051 16.0069 6.2059 16.2012 6.14258C16.3617 6.09618 16.4929 5.99458 16.5859 5.84668L16.9326 5.28516V13.8291ZM4.96875 9.60449C4.44912 9.81143 3.97971 10.0095 3.57422 10.208C3.10953 10.4319 2.70815 10.6311 2.39551 10.8086C2.03656 11.0071 1.73194 11.1931 1.49121 11.3662C1.4279 11.5309 1.39454 11.6918 1.40723 11.8311C1.41993 11.9957 1.44505 12.1393 1.5 12.2617C1.55487 12.4137 1.62262 12.553 1.71973 12.6797C1.89291 12.8656 2.15072 12.9756 2.49707 13.001C2.63227 13.0179 2.76382 13.0186 2.89062 13.0186C3.14397 13.0185 3.40193 13.001 3.65527 12.9629C4.07347 12.8953 4.51746 12.7985 4.97363 12.6592V9.6084H4.96875V9.60449ZM23.4805 9.60449C22.9652 9.8072 22.4921 10.0095 22.0908 10.208C21.6133 10.4319 21.2248 10.6354 20.9121 10.8086C20.5529 11.0072 20.2486 11.193 20.0078 11.3662C19.9445 11.5309 19.9103 11.6917 19.9229 11.8311C19.9356 11.9956 19.9608 12.1393 20.0156 12.2617C20.0663 12.4138 20.1431 12.553 20.2402 12.6797C20.4049 12.8656 20.6711 12.9756 21.0176 13.001C21.1484 13.0179 21.2835 13.0186 21.4102 13.0186C21.6635 13.0186 21.9213 13.0009 22.1748 12.9629C22.5888 12.8953 23.033 12.7986 23.4893 12.6592V9.6084L23.4805 9.60449ZM51.2676 9.60449C50.748 9.80726 50.2787 10.0094 49.873 10.208C49.4041 10.4319 49.007 10.6354 48.6943 10.8086C48.3311 11.0072 48.0312 11.193 47.7861 11.3662C47.7228 11.5309 47.6885 11.6917 47.7012 11.8311C47.7139 11.9957 47.7476 12.1393 47.7939 12.2617C47.8489 12.4138 47.9174 12.553 48.0146 12.6797C48.1795 12.8656 48.4413 12.9756 48.792 13.001C48.9229 13.0178 49.0495 13.0186 49.1846 13.0186C49.438 13.0186 49.6958 13.001 49.9492 12.9629C50.3675 12.8953 50.8112 12.7986 51.2676 12.6592V9.60449ZM99.7666 9.90918C99.5335 10.0096 99.3154 10.1087 99.1143 10.208C98.6283 10.4446 98.2405 10.6354 97.9355 10.8086C97.5726 11.0072 97.2683 11.193 97.0273 11.3662C96.9595 11.5308 96.9305 11.6869 96.9424 11.8262C96.9554 11.9951 96.9892 12.1392 97.0352 12.2617C97.0951 12.4223 97.1668 12.553 97.2598 12.6797C97.4247 12.8655 97.6863 12.9755 98.0371 13.001C98.1641 13.0179 98.2959 13.0186 98.4219 13.0186C98.6717 13.0185 98.9378 13.001 99.1826 12.9629C99.6004 12.8953 100.044 12.7985 100.5 12.6592V9.6084L99.7666 9.90918ZM32.9492 12.5615C33.3633 12.6968 33.7819 12.782 34.1875 12.8242C34.5635 12.858 34.991 12.8406 35.4473 12.7646C35.8781 12.6927 36.2835 12.5069 36.6553 12.207C36.7651 11.9493 36.8585 11.6659 36.9219 11.3701C36.9809 11.0955 37.0107 10.7788 37.0234 10.4199H37.0273C37.0395 10.0789 36.9887 9.71272 36.8877 9.32129C36.8454 9.28329 36.7317 9.18551 36.415 9.00391C36.1405 8.85186 35.7176 8.64529 35.1602 8.40039C34.6236 8.16369 33.8831 7.8594 32.9492 7.4834V12.5615ZM90.2031 6.95898C89.7976 6.99278 89.3876 7.06074 88.9736 7.1748V12.3213C89.9284 11.9536 90.6467 11.6579 91.1787 11.417C91.7496 11.1593 92.1754 10.9519 92.4424 10.7998C92.7504 10.6181 92.8527 10.5338 92.8857 10.5C92.9747 10.1199 93.013 9.75249 93 9.40625C92.992 9.04713 92.9574 8.72583 92.8984 8.45117C92.8435 8.15125 92.7757 7.868 92.6787 7.61035C92.3117 7.32305 91.9053 7.13684 91.4873 7.05664H91.4785C91.0227 6.97218 90.6002 6.93791 90.2031 6.95898ZM43.2471 6.87402C42.8584 6.84442 42.4689 6.85223 42.1055 6.90723C41.7 6.96633 41.273 7.06855 40.8379 7.20801V10.2705H40.8467C41.3706 10.0677 41.8397 9.8691 42.2412 9.6748C42.7016 9.45515 43.0989 9.25257 43.4199 9.0752C43.7664 8.87663 44.0706 8.69505 44.3242 8.51758C44.3875 8.35708 44.4176 8.20024 44.4092 8.05664C44.3965 7.88783 44.3619 7.74028 44.3154 7.62207C44.2605 7.47417 44.1844 7.33442 44.083 7.19922C43.8803 7.01345 43.6017 6.90785 43.2471 6.87402ZM85.4121 9.69629L85.4062 9.69434L85.4033 9.6875L85.4121 9.69629ZM16.3281 2.1377C16.4589 2.15041 16.6111 2.1758 16.7715 2.21387L16.8857 2.23926L16.9111 2.35352L16.9238 2.34082C16.9703 2.56031 16.9997 2.72489 17.0039 2.86426C17.0081 3.00366 17.0081 3.13073 16.9912 3.23633C16.9743 3.37151 16.9399 3.47743 16.8936 3.55762L16.8555 3.62109L16.7881 3.6416C16.5304 3.71768 16.3315 3.75586 16.1709 3.75586C16.0021 3.75582 15.8666 3.73493 15.7695 3.68848C15.6473 3.62095 15.5628 3.53227 15.5078 3.42676C15.4319 3.2622 15.394 3.11403 15.3896 2.9873C15.3855 2.8523 15.3941 2.74223 15.4277 2.64941C15.4488 2.56921 15.4871 2.48451 15.5293 2.4043C15.6263 2.27337 15.7572 2.19301 15.9219 2.15918C16.0529 2.13388 16.1886 2.125 16.3281 2.1377Z" fill="white"/>
</svg>
