<svg xmlns="http://www.w3.org/2000/svg" width="56" height="57" viewBox="0 0 56 57" fill="none">
    <path d="M36 1.06067L42.4286 7.48924L48.8571 1.06067M42.4286 8.77495V26.775M14.1429 44.775H27L42.75 39.9278C43.7531 39.6203 44.8143 39.5522 45.8484 39.7291C46.8826 39.9059 47.8608 40.3228 48.7047 40.9461C49.5486 41.5695 50.2346 42.382 50.7077 43.3184C51.1807 44.2549 51.4276 45.2892 51.4286 46.3384V47.3464L27 55.0607H0M27 44.775V37.0607L10.8257 34.5715C9.72526 34.4021 8.60118 34.4726 7.53054 34.7783C6.4599 35.084 5.46803 35.6176 4.62293 36.3425C3.77783 37.0674 3.0995 37.9666 2.63443 38.9782C2.16937 39.9898 1.92858 41.0901 1.92857 42.2035M30.8571 8.77495H54V26.775H30.8571V8.77495Z" stroke="#290F0A" stroke-width="3"/>
  </svg>