<svg xmlns="http://www.w3.org/2000/svg" width="59" height="59" viewBox="0 0 59 59" fill="none">
    <path d="M23.3488 36.875L41.7863 18.4375M23.3488 38.1042V43.5789C23.3488 49.415 23.3488 52.3305 25.0942 52.7976C26.8396 53.2647 28.6784 50.8359 32.3561 45.9807L34.4113 43.0208M19.6809 18.8775L37.6784 10.3717C45.1566 6.83663 48.8958 5.06909 51.2803 6.84155C53.6649 8.614 52.984 12.6555 51.6196 20.736L49.2743 34.6551C48.382 39.9381 47.937 42.5783 45.9679 43.7313C43.9988 44.8843 41.4396 43.9993 36.3238 42.2293L20.6766 36.816C11.1087 33.5071 6.3248 31.8526 6.1478 28.6052C5.96588 25.3602 10.5384 23.1968 19.6809 18.8775Z" stroke="#290F0A" stroke-width="3" stroke-linecap="round" stroke-linejoin="round"/>
  </svg>