<svg xmlns="http://www.w3.org/2000/svg" width="42" height="42" viewBox="0 0 42 42" fill="none">
    <path d="M41.9999 13.1453C41.9999 11.6957 40.8247 10.5203 39.375 10.5203H34.8941C36.0537 9.3765 36.7959 7.87701 36.7959 6.03029C36.7959 3.75638 35.49 1.28625 31.8242 1.28625C27.0007 1.28625 22.9714 6.42207 21.0781 9.30104C19.1835 6.42272 15.0308 1.28691 10.208 1.28691C6.54216 1.28691 5.23622 3.75704 5.23622 6.03094C5.23622 7.87697 5.99878 9.37716 7.182 10.521H2.625C1.17534 10.521 0 11.6963 0 13.146V21.0033H2.64797V38.0888C2.64797 39.5384 3.82327 40.7138 5.27297 40.7138H36.7598C38.2095 40.7138 39.3848 39.5384 39.3848 38.0888V21.0026H42V13.1453H41.9999ZM31.8242 3.91191C33.4471 3.91191 34.1709 4.5938 34.1709 6.03098C34.1709 8.9467 30.9166 10.5197 27.8558 10.5197H23.4124C25.2774 7.74966 28.56 3.91191 31.8242 3.91191ZM10.2079 3.91195C13.4728 3.91195 16.8793 7.7497 18.7444 10.5191H14.2996C11.2389 10.5191 7.86114 8.90536 7.86114 5.98964C7.86114 4.55311 8.58498 3.91195 10.2079 3.91195ZM39.375 18.3776H22.3125V13.1453H39.375V18.3776ZM2.62496 13.1453H19.6875V18.3776H2.62496V13.1453ZM5.27293 21.0026H19.6875V38.0881H5.27293V21.0026ZM36.7605 38.0881H22.3125V21.0026H36.7605V38.0881Z" fill="#290F0A"/>
  </svg>