<svg xmlns="http://www.w3.org/2000/svg" width="61" height="61" viewBox="0 0 61 61" fill="none">
    <path d="M49.5625 9.53125H11.4375C8.27912 9.53125 5.71875 12.0916 5.71875 15.25V49.5625C5.71875 52.7209 8.27912 55.2812 11.4375 55.2812H49.5625C52.7209 55.2812 55.2812 52.7209 55.2812 49.5625V15.25C55.2812 12.0916 52.7209 9.53125 49.5625 9.53125Z" stroke="#290F0A" stroke-width="3" stroke-linejoin="round"/>
    <path d="M35.2656 30.5C36.8448 30.5 38.125 29.2198 38.125 27.6406C38.125 26.0614 36.8448 24.7812 35.2656 24.7812C33.6864 24.7812 32.4062 26.0614 32.4062 27.6406C32.4062 29.2198 33.6864 30.5 35.2656 30.5Z" fill="#290F0A"/>
    <path d="M44.7969 30.5C46.3761 30.5 47.6562 29.2198 47.6562 27.6406C47.6562 26.0614 46.3761 24.7812 44.7969 24.7812C43.2177 24.7812 41.9375 26.0614 41.9375 27.6406C41.9375 29.2198 43.2177 30.5 44.7969 30.5Z" fill="#290F0A"/>
    <path d="M35.2656 40.0312C36.8448 40.0312 38.125 38.7511 38.125 37.1719C38.125 35.5927 36.8448 34.3125 35.2656 34.3125C33.6864 34.3125 32.4062 35.5927 32.4062 37.1719C32.4062 38.7511 33.6864 40.0312 35.2656 40.0312Z" fill="#290F0A"/>
    <path d="M44.7969 40.0312C46.3761 40.0312 47.6562 38.7511 47.6562 37.1719C47.6562 35.5927 46.3761 34.3125 44.7969 34.3125C43.2177 34.3125 41.9375 35.5927 41.9375 37.1719C41.9375 38.7511 43.2177 40.0312 44.7969 40.0312Z" fill="#290F0A"/>
    <path d="M16.2031 40.0312C17.7823 40.0312 19.0625 38.7511 19.0625 37.1719C19.0625 35.5927 17.7823 34.3125 16.2031 34.3125C14.6239 34.3125 13.3438 35.5927 13.3438 37.1719C13.3438 38.7511 14.6239 40.0312 16.2031 40.0312Z" fill="#290F0A"/>
    <path d="M25.7344 40.0312C27.3136 40.0312 28.5938 38.7511 28.5938 37.1719C28.5938 35.5927 27.3136 34.3125 25.7344 34.3125C24.1552 34.3125 22.875 35.5927 22.875 37.1719C22.875 38.7511 24.1552 40.0312 25.7344 40.0312Z" fill="#290F0A"/>
    <path d="M16.2031 49.5625C17.7823 49.5625 19.0625 48.2823 19.0625 46.7031C19.0625 45.1239 17.7823 43.8438 16.2031 43.8438C14.6239 43.8438 13.3438 45.1239 13.3438 46.7031C13.3438 48.2823 14.6239 49.5625 16.2031 49.5625Z" fill="#290F0A"/>
    <path d="M25.7344 49.5625C27.3136 49.5625 28.5938 48.2823 28.5938 46.7031C28.5938 45.1239 27.3136 43.8438 25.7344 43.8438C24.1552 43.8438 22.875 45.1239 22.875 46.7031C22.875 48.2823 24.1552 49.5625 25.7344 49.5625Z" fill="#290F0A"/>
    <path d="M35.2656 49.5625C36.8448 49.5625 38.125 48.2823 38.125 46.7031C38.125 45.1239 36.8448 43.8438 35.2656 43.8438C33.6864 43.8438 32.4062 45.1239 32.4062 46.7031C32.4062 48.2823 33.6864 49.5625 35.2656 49.5625Z" fill="#290F0A"/>
    <path d="M15.25 5.71875V9.53125M45.75 5.71875V9.53125" stroke="#290F0A" stroke-linecap="round" stroke-linejoin="round"/>
    <path d="M55.2812 19.0625H5.71875" stroke="#290F0A" stroke-width="3" stroke-linejoin="round"/>
  </svg>