<svg xmlns="http://www.w3.org/2000/svg" width="130" height="47" viewBox="0 0 130 47" fill="none">
  <g clip-path="url(#clip0_82_5480)">
    <path fill-rule="evenodd" clip-rule="evenodd"
      d="M111.474 27.2379C111.222 27.1713 110.796 27.1446 110.438 27.2379C109.893 27.3845 108.683 27.5844 107.647 27.6776C107.673 27.2512 107.687 26.7981 107.673 26.3984C109.56 25.7054 109.773 25.6654 109.919 25.6388C110.384 25.5455 110.384 25.3989 109.494 25.0791C108.936 24.8792 108.776 24.9458 108.736 25.2124C108.683 25.4656 108.484 25.6788 107.62 26.1851C106.623 25.892 106.504 26.0386 106.849 26.385C106.982 26.5183 107.075 28.2506 106.783 29.2901C106.557 30.0896 105.999 30.7825 105.122 31.5021C104.896 31.6754 104.975 31.7686 105.228 31.6487C106.716 30.9025 107.527 29.8364 107.633 27.9308C107.886 27.9575 108.231 27.9575 108.909 27.9175C108.949 28.2506 109.016 28.9969 108.989 29.2101C108.936 30.476 108.949 32.9546 109.016 33.1412C109.095 33.4877 109.241 33.501 109.374 33.2212C109.627 32.7014 109.733 31.9152 109.693 27.8509C110.172 27.8109 110.796 27.7576 111.58 27.6776C112.019 27.6377 112.046 27.3978 111.474 27.2512V27.2379ZM104.909 28.0374C104.882 28.3706 104.843 28.6371 104.776 28.877C104.71 29.0902 104.67 29.1168 103.221 29.33C103.341 28.9303 103.394 28.4905 103.421 28.0374C103.593 28.0374 103.766 28.0108 104.125 27.9441C104.856 27.7976 104.936 27.8109 104.922 28.0374H104.909ZM105.427 28.877C105.321 28.8236 105.294 28.7437 105.427 28.5038C105.627 28.1174 105.826 27.8509 105.932 27.7842C106.158 27.611 106.158 27.5044 105.786 27.3845C105.188 27.1713 105.122 27.1579 104.829 27.3312C104.431 27.5577 103.926 27.7043 103.434 27.7443C103.434 27.3178 103.434 26.8781 103.434 26.465C105.401 25.7854 105.613 25.7187 105.773 25.7054C106.145 25.6521 106.198 25.4256 105.507 25.0924C104.949 24.8126 104.843 24.8925 104.803 25.1857C104.776 25.4123 104.603 25.5722 103.394 26.2651C102.278 25.9186 102.131 26.0119 102.504 26.4383C102.783 26.7448 102.916 28.1574 102.663 29.3434C102.45 30.3295 101.945 31.2756 101.401 31.7953C101.188 32.0085 101.281 32.0885 101.507 31.9685C102.264 31.5688 102.876 30.7292 103.181 29.6099C103.939 29.6099 104.803 29.4766 105.52 29.2901C105.773 29.2234 105.813 29.0635 105.467 28.8903L105.427 28.877ZM96.8953 28.9836C96.2973 28.797 96.1378 28.797 95.1145 28.9836C94.1576 29.1834 90.9947 29.5166 90.6093 29.5033C90.184 29.5033 90.1574 29.6099 90.5295 29.7431C90.8352 29.8497 91.2206 29.903 91.5794 29.8364C91.8452 29.7964 92.3236 29.7431 92.8818 29.6765C92.9217 29.7964 92.8818 29.943 92.7622 30.1163C92.4698 30.5427 91.606 31.3156 91.3402 31.3822C90.5827 31.5554 90.5694 31.6087 90.782 32.1151C90.9282 32.4483 91.008 32.4483 91.513 32.2084C92.018 31.9685 93.4267 31.6354 95.4202 31.3822C95.6992 31.7287 95.9783 32.0352 96.2441 32.3417C96.4567 32.5815 96.7358 32.5149 96.789 32.3017C96.9219 31.6754 96.6694 31.1557 94.9816 30.3961C94.6361 30.2495 94.5563 30.3028 94.7557 30.5427C94.9417 30.7692 95.1145 30.9957 95.2607 31.1823C93.4134 31.3289 92.5894 31.4088 91.7788 31.4888C92.3502 31.0757 93.4134 30.3295 93.6393 30.2495C94.0247 30.1163 93.945 29.903 93.1343 29.6365C94.2241 29.5166 95.553 29.3967 96.2973 29.3833C97.4535 29.3434 97.2807 29.0902 96.882 28.9569L96.8953 28.9836ZM99.7393 28.2906C97.6927 27.7842 97.1212 27.571 94.038 25.1058C94.1311 24.9725 94.2374 24.8925 94.2905 24.8659C94.7025 24.7326 94.5962 24.4928 94.0646 24.2929C93.4931 24.053 93.3204 24.1197 93.3868 24.4395C93.4267 24.626 93.2008 25.1724 92.8021 25.7054C91.9781 26.7981 90.4764 28.264 88.7487 29.1168C88.4829 29.2367 88.5627 29.3567 88.8284 29.2901C91.0345 28.6371 93.0014 26.6649 93.9051 25.319C94.6626 26.1318 96.6428 27.9575 97.0415 28.2773C97.5864 28.6904 97.6927 28.7037 99.7526 28.5705C100.284 28.5438 100.244 28.4372 99.726 28.3039L99.7393 28.2906ZM93.7988 28.2107C94.1975 28.1574 95.0348 27.9975 95.1809 27.9441C95.5398 27.8242 95.553 27.6776 95.1809 27.571C94.9151 27.4911 94.5032 27.4911 93.6128 27.7309C93.1742 27.8509 92.3768 27.9841 92.1509 27.9841C91.8186 27.9841 91.7522 28.0774 92.0711 28.2107C92.3236 28.3039 92.9616 28.3039 93.7855 28.2107H93.7988ZM85.3731 26.9447C85.094 26.8514 84.9611 26.8914 84.7485 26.998C84.6156 27.078 83.6455 27.2645 82.981 27.3711C82.2102 27.4911 81.7716 27.531 81.2932 27.5177C81.0407 27.5177 80.9742 27.6377 81.3729 27.8509C81.5988 27.9841 81.7185 28.0108 82.1969 27.8775C82.8481 27.7043 83.9378 27.4911 84.496 27.3845C84.8282 27.3312 84.8681 27.3578 84.7086 27.6377C84.5492 27.9175 84.2967 28.3039 83.9113 28.6504C83.1803 28.224 82.8879 28.3706 83.1405 28.6104C83.3531 28.8103 83.4594 28.9969 83.5524 29.2501C83.6986 29.5965 83.8049 30.3028 83.7252 30.8225C83.579 31.782 83.3398 31.9685 82.3829 31.8353C82.0241 31.782 82.0507 31.8886 82.2368 32.0085C82.5557 32.2084 82.8481 32.5016 83.0208 32.7414C83.1537 32.9413 83.3797 32.9147 83.5923 32.7148C84.1638 32.1817 84.3498 31.7153 84.3498 30.8625C84.3498 30.0763 84.2967 29.6632 84.177 29.2634C84.1239 29.1168 84.0707 28.9436 83.991 28.7703C85.32 27.8642 85.413 27.8109 85.7718 27.6643C86.0908 27.531 86.1306 27.4644 85.9977 27.3045C85.9047 27.1713 85.5592 26.9714 85.3731 26.9181V26.9447ZM83.1139 25.2124C83.486 25.319 83.7784 25.1591 83.6056 24.8259C83.4727 24.5461 83.1404 24.3195 82.3165 24.3995C81.9178 24.4261 81.8912 24.5327 82.0241 24.6394C82.25 24.8126 82.7551 25.1191 83.1139 25.2257V25.2124ZM85.5459 25.7854C85.9977 25.6921 85.9977 25.5055 85.5858 25.4389C85.2801 25.3856 84.8681 25.4123 84.5492 25.4922C82.5823 25.9453 81.6653 26.1318 80.6951 26.1318C80.0307 25.8787 79.8712 25.9453 80.0705 26.2918C80.2167 26.5716 80.1237 27.6776 79.9111 28.5705C78.396 29.1435 77.5986 29.41 77.2531 29.37C76.9209 29.33 76.6949 29.4766 77.3196 29.8764C77.6518 30.0896 77.8246 30.1163 78.0638 29.903C78.3827 29.6365 78.9409 29.3034 79.8579 28.8103C79.5921 29.8764 78.8745 31.2623 77.9707 31.9952C77.4923 32.395 77.5986 32.5016 78.0372 32.2484C79.1934 31.5954 79.818 30.7426 80.323 29.4633C80.642 28.6504 80.8679 27.0113 80.7882 26.3317C81.6786 26.4916 82.9677 26.385 85.5592 25.7987L85.5459 25.7854ZM78.4226 27.7443C78.7416 28.0508 78.9941 27.9575 79.0605 27.4511C79.0871 27.2512 78.7814 26.8914 78.1036 26.7049C77.8511 26.6382 77.7315 26.6515 77.8379 26.8781C78.0106 27.2379 78.1967 27.5177 78.4226 27.7443ZM75.2331 30.2095C73.3858 29.8897 72.203 29.5033 70.4488 27.9841C72.2562 26.8514 72.8675 26.5183 73.1997 26.385C73.5187 26.2518 73.4523 26.1052 72.934 25.812C72.2828 25.4789 72.0834 25.5588 72.1233 25.7854C72.1631 25.9853 71.7512 26.7049 70.2627 27.7976C70.1032 27.6643 69.9571 27.531 69.8109 27.3978C69.8374 25.9853 69.9039 25.3856 70.0634 25.2124C70.2893 24.9725 70.2228 24.8526 69.5318 24.5327C68.8274 24.2263 68.5351 24.3728 68.9736 24.8392C69.173 25.0658 69.2527 25.4789 69.2527 27.6243C69.2527 28.5438 69.1597 30.5027 69.1198 30.7692C69.0401 31.3955 68.9603 31.4222 67.9769 31.2356C67.7244 31.1823 67.6845 31.2889 67.8573 31.3822C68.1497 31.5554 68.7211 32.1018 68.9337 32.355C69.1198 32.5815 69.2926 32.5815 69.452 32.355C69.864 31.782 69.9305 31.4888 69.8773 30.556C69.8109 29.5699 69.7976 28.5438 69.7976 27.7709C70.5418 28.5172 71.512 29.45 72.3093 30.1829C72.8542 30.6759 72.9207 30.6893 75.2065 30.4361C75.6716 30.3828 75.6583 30.2362 75.2464 30.1562L75.2331 30.2095ZM68.5749 27.5577C68.7211 27.4378 68.7211 27.3178 68.3224 27.1046C67.9636 26.9047 67.8041 26.8781 67.5383 27.0513C67.2061 27.2645 65.7043 27.5044 65.2924 27.4644C65.0664 27.4378 65.0266 27.5977 65.2126 27.7043C65.6911 27.9441 65.8372 27.9708 66.2891 27.8375C66.5416 27.7709 67.1263 27.6377 67.4187 27.5977C67.6446 27.5577 67.6446 27.571 67.5383 27.7976C67.3788 28.1707 67.02 28.8503 66.8074 29.1568C66.3555 29.7964 65.598 30.5427 64.7209 31.0624C64.4418 31.2356 64.6279 31.2623 64.9202 31.169C65.7176 30.8891 66.6612 30.3161 67.3124 29.4633C67.6446 29.0502 67.9237 28.5705 68.0965 28.224C68.3224 27.7842 68.3623 27.7043 68.5483 27.5577H68.5749ZM57.7438 29.7165C57.7172 29.8631 57.6375 30.1429 57.5843 30.2495C57.5312 30.3561 57.3584 30.4227 57.1723 30.4494C56.8268 30.5027 56.3351 30.5693 55.9497 30.6093C55.9497 30.3028 55.8965 29.9297 55.8035 29.5166C56.375 29.4633 56.8933 29.4233 57.2654 29.3833C57.7305 29.3567 57.8103 29.4233 57.7571 29.7032L57.7438 29.7165ZM58.3551 28.9836C58.0495 28.8503 57.8235 28.837 57.5046 29.0369C57.3717 29.1168 56.3484 29.2367 55.5776 29.2767C54.9663 29.1168 54.8865 29.2501 55.0327 29.4366C55.2188 29.6765 55.4181 30.2895 55.4447 30.7825C55.4713 31.0624 55.6175 31.1956 55.7238 31.1956C55.8301 31.1956 55.8965 31.1157 55.9231 30.9025C56.4813 30.8492 57.5445 30.7692 58.1159 30.7426C58.4482 30.7426 58.5279 30.6093 58.3418 30.4361C58.2089 30.3028 58.2222 30.1696 58.3684 29.9297C58.4482 29.8098 58.5811 29.6898 58.7671 29.5965C59.0462 29.45 59.0462 29.2901 58.3684 28.9836H58.3551ZM58.0362 26.8648C58.4614 26.7315 58.993 26.5183 59.6974 26.1985C59.8436 26.1318 60.0961 26.0252 60.2688 25.9719C60.6543 25.8653 60.6543 25.7321 59.9499 25.3456C59.5379 25.1191 59.405 25.1857 59.3253 25.4922C59.2588 25.7321 58.6874 26.2784 57.9431 26.6915C57.7172 26.8115 57.7837 26.9314 58.0229 26.8648H58.0362ZM61.3187 27.7309C60.7207 27.4511 60.5745 27.4511 60.0961 27.5844C59.9898 27.611 59.5379 27.6776 59.1126 27.7043C58.7405 27.7309 58.0628 27.7976 57.1591 27.8775C57.2521 26.385 57.3717 25.2657 57.4249 25.1324C57.6242 24.7326 57.5312 24.5994 56.8135 24.4395C56.1756 24.2929 56.0427 24.4395 56.375 24.8659C56.6009 25.1591 56.654 26.0919 56.5743 27.9441C55.6972 28.0374 54.6872 28.144 53.5841 28.2506C52.8133 27.9175 52.6937 28.0108 52.9994 28.4639C53.2652 28.8636 53.2652 30.4094 53.1589 30.9291C53.0791 31.3156 53.0791 31.4222 53.119 31.5688C53.3316 32.1151 53.6904 32.1284 53.7968 31.662C53.8765 31.2889 53.8765 31.0757 53.8765 30.6493C53.8499 29.9697 53.8101 29.2101 53.7569 28.5571C56.149 28.2773 58.1159 28.1174 59.4582 28.0774C60.415 28.0374 60.5612 28.1307 60.6277 28.797C60.6808 29.33 60.6543 30.0629 60.5214 30.8092C60.3885 31.5688 60.1227 31.6487 59.2455 31.3822C58.7937 31.2489 58.7671 31.3555 59.1392 31.6221C59.2721 31.7153 59.6177 32.1284 59.8303 32.4349C60.0296 32.7281 60.0961 32.7148 60.5479 32.4349C60.9599 32.1551 61.3586 31.4622 61.3852 30.8092C61.4516 29.3833 61.5181 28.6771 61.6377 28.5438C61.9699 28.1574 61.9832 28.0241 61.3453 27.7443L61.3187 27.7309ZM54.8732 27.1713C55.1257 27.4111 55.3384 27.3711 55.4846 27.078C55.6307 26.7315 55.4314 26.3717 54.5144 26.0652C54.222 25.9586 54.036 25.9719 54.2486 26.3051C54.5011 26.7182 54.634 26.9181 54.8732 27.1713ZM45.9957 29.2634C45.9691 28.8903 45.6635 28.6504 44.999 28.4772C44.6003 28.3706 44.6003 28.4505 44.773 28.717C45.0255 29.1035 45.2382 29.4233 45.3844 29.5832C45.6369 29.8497 46.0223 29.7565 45.9824 29.2767L45.9957 29.2634ZM50.2484 27.0113C49.8497 26.8248 49.5042 26.8115 48.9726 26.9181C48.76 26.9714 48.3878 27.0513 47.936 27.118C47.9227 26.1851 48.0157 25.6255 48.1486 25.3856C48.348 24.9992 48.2815 24.9059 47.6569 24.6793C46.9127 24.3995 46.7798 24.5327 47.0987 24.9325C47.2715 25.1724 47.3645 25.6388 47.3911 27.1979C46.3146 27.3578 45.0654 27.5044 44.6401 27.531C44.0554 27.5577 43.9225 27.6377 44.494 27.7976C44.7598 27.8775 45.0388 27.9175 45.4774 27.8242C45.8894 27.7309 46.6336 27.651 47.4044 27.571C47.4443 28.4639 47.431 30.2762 47.3114 31.3955C47.2715 31.7287 47.2316 31.8353 46.0489 31.5688C45.7166 31.4888 45.6767 31.5155 45.8894 31.6887C46.2748 31.9952 46.7133 32.4083 47.0057 32.7281C47.2183 32.968 47.338 32.968 47.5373 32.7548C47.9493 32.3017 48.1353 31.8619 48.0955 31.2623C48.029 30.4094 47.9493 28.3039 47.936 27.531C48.6669 27.4777 49.3314 27.4511 49.6504 27.4777C50.7667 27.571 50.6471 27.2246 50.2484 27.0247V27.0113ZM43.1251 30.5027C42.753 30.2628 42.66 30.2628 41.4905 30.3694C41.4905 30.0363 41.5171 29.2501 41.4905 28.4372C41.7961 28.5038 42.1683 28.4905 42.6998 28.3572C43.0321 28.2773 42.9789 28.1174 42.7264 28.0641C42.5005 28.0108 42.3543 27.9975 41.5038 28.2373C41.5038 27.4777 41.5038 26.7182 41.4772 26.3717C41.8094 26.3717 41.9556 26.3717 42.4739 26.2651C43.1118 26.1452 43.2181 26.2118 43.2447 26.6382C43.3112 27.6243 43.2979 29.943 43.1251 30.516V30.5027ZM43.9491 25.9719C43.4042 25.7187 43.2314 25.7054 42.9789 25.8253C42.4075 26.1052 41.9025 26.1718 41.3975 26.1318C40.6266 25.8653 40.5868 26.0386 40.8127 26.3184C40.8792 26.3984 40.9855 26.8914 40.9988 27.1446C41.0519 27.8642 41.0652 29.9697 40.919 30.3161C40.7994 30.596 40.7994 30.7692 40.9589 31.1557C41.0785 31.4488 41.3443 31.3955 41.4772 30.7026C42.7663 30.5693 42.8859 30.5827 43.0321 30.8625C43.0321 30.9558 43.0587 31.0491 43.1384 31.209C43.3112 31.6087 43.4574 31.662 43.6567 31.3022C43.856 30.9424 43.8826 30.6093 43.8561 29.6765C43.7763 27.7176 43.856 26.6382 44.082 26.4916C44.3876 26.2518 44.3345 26.1718 43.9757 25.9853L43.9491 25.9719ZM28.533 28.1041C28.9051 28.3039 29.0912 28.144 29.0513 27.7976C28.9981 27.4511 28.6393 27.2512 27.9748 27.2246C27.6559 27.2246 27.5761 27.2512 27.7755 27.4777C28.0812 27.8242 28.3602 28.0108 28.533 28.1041ZM31.6295 25.9986C31.0581 25.852 30.9517 26.0386 31.1511 26.2384C31.4966 26.5449 31.6162 27.4511 31.5365 28.5438C31.4567 29.6232 31.1644 30.8891 29.8886 31.8086C29.6626 31.9819 29.8088 32.0885 29.9949 31.9952C30.6461 31.7287 31.4435 31.089 31.8023 30.1163C31.9883 29.6099 32.0947 28.7037 32.1611 27.078C32.1611 26.8381 32.201 26.5716 32.2275 26.465C32.2807 26.2518 32.2275 26.1718 31.6428 26.0119L31.6295 25.9986ZM36.0151 24.626C35.4569 24.4528 35.2975 24.626 35.55 24.8792C35.8424 25.1724 35.9221 25.4522 35.9752 26.7848C36.0683 29.0369 36.055 31.1423 35.8822 31.6354C35.7095 32.0885 35.7493 32.2084 36.0018 32.7947C36.1613 33.1812 36.3474 33.1279 36.4935 32.848C36.7195 32.4216 36.6929 31.2223 36.6397 30.5427C36.5999 30.1162 36.56 29.0235 36.56 26.6915C36.56 25.7987 36.5999 25.6654 36.6929 25.279C36.7726 24.9458 36.7195 24.8526 36.0151 24.6394V24.626ZM30.2341 25.9719C30.1411 25.5722 29.8221 25.3989 29.0779 25.319C28.8121 25.2923 28.7324 25.319 28.9051 25.5588C29.1709 25.9186 29.4234 26.1985 29.7291 26.3451C30.048 26.5183 30.3005 26.2784 30.2341 25.9719ZM29.9816 29.1701C30.0082 29.4633 30.274 29.5832 30.5265 29.2901C30.7923 28.9702 30.9783 28.3306 30.779 28.0108C30.6328 27.7709 30.4733 27.8109 30.4201 28.0508C30.3404 28.3572 30.2208 28.6238 30.1145 28.7703C30.0082 28.9303 29.9816 29.0102 29.9949 29.1834L29.9816 29.1701ZM32.6395 27.8775C32.4668 27.8242 32.3472 27.9042 32.4402 28.0641C32.5731 28.3039 32.7326 28.4905 32.8787 28.6771C33.0382 28.877 33.3572 28.797 33.3838 28.5438C33.4103 28.2773 33.1711 28.0108 32.6395 27.8908V27.8775ZM34.633 27.5844C34.4336 27.5577 34.3539 27.651 34.4204 27.7576C34.5931 27.9841 34.9652 28.264 35.138 28.3572C35.3639 28.4772 35.5633 28.3839 35.5766 28.224C35.6031 27.8775 35.1779 27.651 34.633 27.5977V27.5844ZM29.2108 29.1701C28.9849 29.5166 28.7855 29.8231 28.626 30.1163C28.4134 30.476 28.2805 30.6493 28.0812 30.7692C27.9615 30.8492 27.9483 30.9158 28.1875 31.3555C28.6526 32.1418 28.9583 32.0485 28.9184 31.4222C28.8918 31.0357 29.2507 29.7032 29.4101 29.2101C29.543 28.7837 29.45 28.7703 29.1975 29.1568L29.2108 29.1701ZM33.9021 25.8387C33.5034 25.7054 33.3439 25.7854 33.4901 25.9853C33.716 26.2651 33.809 26.7049 33.8356 27.2779C33.8888 28.3972 33.809 29.3034 33.6495 29.8364C33.5167 30.3295 33.5299 30.476 33.7293 30.7959C33.8489 30.9958 33.9951 31.0224 34.0615 30.8891C34.1944 30.6093 34.2742 30.1829 34.2742 29.6232C34.2742 29.2901 34.314 28.2906 34.3406 27.4111C34.3406 26.8648 34.3805 26.5849 34.4204 26.385C34.4868 26.1052 34.3805 25.9986 33.9021 25.8387ZM23.0311 27.3045C23.0842 27.5844 22.8583 28.0907 21.5825 29.4233C21.423 29.5965 21.5027 29.6898 21.7287 29.5566C22.3932 29.1834 22.9115 28.7837 23.4696 28.3173C23.7886 28.0641 24.0012 27.9175 24.1873 27.8375C24.4398 27.7309 24.4398 27.5444 23.7886 27.2512C23.2171 26.9847 22.9912 27.078 23.0311 27.3045ZM17.5424 29.45C17.8348 29.6232 18.0474 29.5965 18.1404 29.2101C18.2601 28.717 17.7683 28.224 16.7052 27.9708C16.5191 27.9175 16.4261 27.9975 16.5324 28.1707C16.9842 28.8503 17.3431 29.33 17.5424 29.4366V29.45ZM20.6522 30.9025C20.3731 30.9291 19.9611 30.9424 19.496 30.9691C19.4694 27.5977 19.5226 26.9847 19.589 26.8115C19.6821 26.5849 19.6422 26.4117 19.1505 26.1985C19.6289 26.1452 20.1605 26.0919 20.6788 26.0252C20.7984 26.4517 20.8117 27.6243 20.6389 30.8891L20.6522 30.9025ZM25.1175 31.0091C24.5461 30.7026 24.1208 30.636 22.7918 30.7692C22.4995 30.7959 21.9546 30.8358 21.2901 30.8758C21.516 27.6643 21.5958 26.8248 21.6755 26.6249C21.7685 26.385 21.7287 26.3184 21.1041 26.0119C21.742 25.9586 22.4064 25.892 23.0311 25.8387C23.9879 25.7587 23.9879 25.6255 23.5892 25.4123C23.1773 25.2124 22.7919 25.2124 21.5958 25.4123C20.5193 25.5988 18.672 25.812 17.3032 25.8653C16.9577 25.8653 16.9178 25.9719 17.2235 26.1185C17.5424 26.2518 17.9544 26.2918 18.6853 26.2251C18.7916 26.6915 18.8581 27.7176 18.8581 31.0091C18.2468 31.0491 17.6089 31.089 17.1437 31.129C16.5988 31.169 16.0008 31.1823 15.5091 31.169C15.1237 31.169 15.1768 31.3289 15.5357 31.5155C15.9476 31.742 16.1337 31.7553 16.7716 31.6487C17.4361 31.5421 19.3365 31.3422 19.9213 31.3156C22.5526 31.2223 23.4829 31.3156 24.8783 31.5288C25.5162 31.6221 25.7555 31.3156 25.1308 30.9824L25.1175 31.0091Z"
      fill="#F9F0E2" />
    <path
      d="M7.78757 16.7638H6.40544V16.4173C5.95359 16.5639 5.422 16.7105 4.82397 16.8438C4.22593 16.977 3.62789 17.057 3.04315 17.057C2.4584 17.057 1.91352 16.9904 1.40851 16.8304C0.903502 16.6705 0.5181 16.3774 0.252306 15.9509C0.145988 15.6978 0.0662495 15.4046 0.0263804 15.0848C-0.000199054 14.8316 -0.0134888 14.5251 -0.0134888 14.1653C-0.0134888 13.8055 0.0795392 13.4324 0.252306 13.0459C0.611128 12.7394 1.08956 12.4329 1.66102 12.1131C2.13945 11.8333 2.77735 11.5401 3.56144 11.2203C4.34554 10.9005 5.28911 10.5673 6.40544 10.2475C6.39215 9.63453 6.23268 9.1015 5.95359 8.6351C5.83399 8.43521 5.67451 8.24865 5.46187 8.06209C5.26253 7.87553 5.01002 7.72895 4.71765 7.60901C4.42528 7.48908 4.07974 7.3958 3.68105 7.32917C3.28236 7.26254 2.81722 7.26254 2.28563 7.32917C2.21918 7.35583 2.16602 7.36915 2.09958 7.36915C1.99326 7.38248 1.88694 7.36915 1.78062 7.32917C1.78062 7.24922 1.84707 7.18259 1.97997 7.14261C2.11287 7.08931 2.25905 7.04933 2.41853 7.02268C3.33552 6.88942 4.17277 6.8761 4.93029 6.9827C5.24924 7.02268 5.56819 7.10264 5.88714 7.19592C6.2061 7.2892 6.49847 7.43578 6.76427 7.62234C7.03006 7.8089 7.25599 8.03544 7.42875 8.31528C7.61481 8.59512 7.73442 8.92827 7.78757 9.32804V16.7638ZM1.78062 15.6711C2.05971 15.9776 2.44511 16.1508 2.96341 16.1775C3.48171 16.2175 3.98672 16.1908 4.50501 16.1242C5.11634 16.0309 5.74096 15.8843 6.40544 15.6711V11.1936C5.59477 11.5135 4.87713 11.82 4.2658 12.1131C3.65447 12.4063 3.13617 12.6728 2.73748 12.8993C2.23247 13.1792 1.82049 13.4324 1.48825 13.6722C1.36864 13.9521 1.31548 14.2053 1.32877 14.4451C1.34206 14.685 1.39522 14.8982 1.46167 15.0848C1.54141 15.298 1.64773 15.4979 1.78062 15.6711Z"
      fill="#F9F0E2" />
    <path
      d="M10.8045 8.23533C10.9773 7.91551 11.1899 7.66232 11.4557 7.47576C11.7215 7.2892 12.0139 7.14262 12.3329 7.04934C12.6518 6.95606 12.984 6.88943 13.3296 6.8761C13.6751 6.86277 14.0206 6.8761 14.3529 6.90275C15.137 6.98271 15.9742 7.16927 16.8646 7.47576C17.0108 7.60902 17.0507 7.7023 16.971 7.7556C16.8912 7.8089 16.7849 7.83556 16.6254 7.83556C16.4527 7.84888 16.24 7.83556 15.9742 7.79558C15.1636 7.67565 14.4991 7.63567 14.0074 7.68897C13.5156 7.74228 13.1169 7.82223 12.8246 7.94216C12.4923 8.07542 12.2531 8.24865 12.1202 8.46187C12.0006 8.80834 11.9342 9.11483 11.9342 9.39467C11.9342 9.67451 11.9607 9.90105 12.0006 10.1009C12.0671 10.3275 12.1468 10.5274 12.2531 10.7139C12.9708 10.8872 13.5954 11.0337 14.1535 11.1803C14.7117 11.3269 15.1901 11.4468 15.5888 11.5534C16.054 11.6734 16.466 11.7933 16.8115 11.8999C17.2102 12.8194 17.3829 13.5923 17.3697 14.2053C17.3431 14.8183 17.2368 15.3113 17.0374 15.6978C16.8115 16.1375 16.4792 16.484 16.0673 16.7372C15.6819 16.8838 15.323 16.9904 14.9775 17.0303C14.632 17.0703 14.2997 17.097 13.9941 17.0703C13.6884 17.0437 13.3827 17.0037 13.1037 16.9371C12.8246 16.8571 12.5721 16.7638 12.3461 16.6572C11.8013 16.4174 11.3095 16.0975 10.871 15.6978C10.6849 15.4712 10.6451 15.2847 10.7514 15.1381C10.8444 14.9915 10.9374 14.9648 11.0305 15.0315C11.0969 15.1114 11.1634 15.1781 11.2298 15.2447C11.2963 15.3113 11.376 15.3646 11.4557 15.4179C11.5355 15.4845 11.6152 15.5245 11.7082 15.5778C12.5721 16.0176 13.2764 16.2574 13.8213 16.2841C14.3662 16.3107 14.7915 16.2574 15.1104 16.0975C15.4825 15.9243 15.7616 15.6578 15.9477 15.2847C16.0673 14.9249 16.1204 14.5784 16.1071 14.2719C16.0938 13.9654 16.0407 13.6989 15.9742 13.459C15.8945 13.1792 15.7882 12.9527 15.6287 12.7528C14.9908 12.6195 14.406 12.4729 13.8612 12.3263C13.3163 12.1798 12.8512 12.0332 12.4525 11.9132C11.9873 11.7667 11.562 11.6201 11.1766 11.4868C10.9241 11.0737 10.7514 10.6739 10.6849 10.2742C10.6185 9.8744 10.5919 9.52793 10.6052 9.23476C10.6185 8.87497 10.6849 8.54182 10.7912 8.23533H10.8045Z"
      fill="#F9F0E2" />
    <path
      d="M21.5427 2.22541C21.6091 2.47859 21.6357 2.69181 21.649 2.86504C21.649 3.03828 21.649 3.17153 21.649 3.29147C21.6357 3.42472 21.6091 3.53133 21.556 3.61129C21.2503 3.70457 21.0111 3.74454 20.825 3.74454C20.639 3.74454 20.5061 3.71789 20.413 3.67791C20.3067 3.61129 20.227 3.54466 20.1871 3.45138C20.1074 3.26482 20.0675 3.10491 20.0675 2.97165C20.0675 2.83839 20.0675 2.71846 20.1074 2.62518C20.134 2.51857 20.1738 2.42529 20.2137 2.34534C20.2934 2.23873 20.3997 2.1721 20.5592 2.14545C20.7054 2.1188 20.8649 2.10547 21.0111 2.1188C21.1838 2.13212 21.3566 2.15878 21.556 2.21208L21.5427 2.22541ZM20.2004 7.46243C20.4263 7.44911 20.6655 7.3958 20.9446 7.31585C21.2104 7.2359 21.4098 7.06266 21.5692 6.8228V16.7638H20.2137V7.46243H20.2004Z"
      fill="#F9F0E2" />
    <path
      d="M31.9884 16.7638H30.6062V16.4173C30.1544 16.5639 29.6228 16.7105 29.0248 16.8438C28.4267 16.977 27.8287 17.057 27.244 17.057C26.6592 17.057 26.1143 16.9904 25.6093 16.8304C25.1043 16.6705 24.7189 16.3774 24.4531 15.9509C24.3468 15.6978 24.2671 15.4046 24.2272 15.0848C24.2006 14.8316 24.1873 14.5251 24.1873 14.1653C24.1873 13.8055 24.2803 13.4324 24.4531 13.0459C24.8119 12.7394 25.2904 12.4329 25.8618 12.1131C26.3402 11.8333 26.9782 11.5401 27.7622 11.2203C28.5463 10.9005 29.4899 10.5673 30.6062 10.2475C30.593 9.63453 30.4335 9.1015 30.1544 8.6351C30.0348 8.43521 29.8753 8.24865 29.6627 8.06209C29.4633 7.87553 29.2108 7.72895 28.9185 7.60901C28.6261 7.48908 28.2805 7.3958 27.8819 7.32917C27.4832 7.26254 27.018 7.26254 26.4864 7.32917C26.42 7.35583 26.3668 7.36915 26.3004 7.36915C26.1941 7.38248 26.0877 7.36915 25.9814 7.32917C25.9814 7.24922 26.0479 7.18259 26.1808 7.14261C26.3137 7.08931 26.4599 7.04933 26.6193 7.02268C27.5363 6.88942 28.3736 6.8761 29.1311 6.9827C29.45 7.02268 29.769 7.10264 30.0879 7.19592C30.4069 7.2892 30.6993 7.43578 30.9651 7.62234C31.2309 7.8089 31.4568 8.03544 31.6296 8.31528C31.8156 8.59512 31.9352 8.92827 31.9884 9.32804V16.7638ZM25.9814 15.6711C26.2605 15.9776 26.6459 16.1508 27.1642 16.1775C27.6825 16.2175 28.1875 16.1908 28.7058 16.1242C29.3171 16.0309 29.9418 15.8843 30.6062 15.6711V11.1936C29.7956 11.5135 29.0779 11.82 28.4666 12.1131C27.8553 12.4063 27.337 12.6728 26.9383 12.8993C26.4333 13.1792 26.0213 13.4324 25.6891 13.6722C25.5694 13.9521 25.5163 14.2053 25.5296 14.4451C25.5429 14.685 25.596 14.8982 25.6625 15.0848C25.7422 15.298 25.8485 15.4979 25.9814 15.6711Z"
      fill="#F9F0E2" />
    <path
      d="M39.4173 0.612986C39.6299 0.586334 39.8691 0.546357 40.1349 0.493054C40.4007 0.43975 40.6134 0.279841 40.7861 0V7.3958C42.3543 7.84888 43.5903 8.26198 44.494 8.62177C45.3977 8.98157 46.0754 9.28806 46.5273 9.52793C47.0589 9.82109 47.3911 10.0743 47.5506 10.3008C47.5905 10.3408 47.6436 10.4874 47.6835 10.7406C47.7234 10.9938 47.7632 11.3003 47.7898 11.6467C47.8164 11.9932 47.8297 12.393 47.8297 12.8194C47.8297 13.2458 47.7898 13.6589 47.75 14.0454C47.7101 14.4451 47.6303 14.7916 47.524 15.1114C47.4177 15.4312 47.2715 15.6711 47.0988 15.8177C46.7931 16.0975 46.4741 16.2974 46.1286 16.4573C45.7831 16.6172 45.4242 16.7238 45.0787 16.7905C44.7332 16.8571 44.3744 16.8971 44.0288 16.8971C43.6833 16.8971 43.3511 16.8971 43.0321 16.8438C42.2879 16.7505 41.5437 16.5639 40.8127 16.2708V16.7505H39.4572V0.612986H39.4173ZM40.7861 15.5379C41.3975 15.7511 41.9955 15.8843 42.6068 15.9509C43.1251 15.9909 43.6833 15.9643 44.2946 15.871C44.906 15.7777 45.4774 15.4979 46.009 15.0581C46.1818 14.6983 46.3014 14.2986 46.3944 13.8721C46.4741 13.5123 46.514 13.0859 46.5273 12.5929C46.5406 12.1131 46.4741 11.5934 46.328 11.0471C46.2482 10.9405 46.0223 10.7672 45.6236 10.5407C45.2781 10.3408 44.7332 10.0743 43.9757 9.74114C43.2314 9.408 42.1683 8.96824 40.7861 8.42189V15.5112V15.5379Z"
      fill="#F9F0E2" />
    <path
      d="M55.0726 16.6039L55.2985 16.5639C55.4447 16.5373 55.5244 16.5506 55.5244 16.6039C55.5244 16.6306 55.4978 16.6839 55.4447 16.7638C55.3915 16.8438 55.2719 16.8971 55.0726 16.9237C54.1423 17.0703 53.2917 17.097 52.5342 16.9904C52.2153 16.9504 51.8963 16.8704 51.5774 16.7771C51.2584 16.6839 50.966 16.5373 50.7002 16.3507C50.4345 16.1642 50.2085 15.9243 50.0358 15.6445C49.8497 15.3646 49.7301 15.0181 49.6769 14.605V7.52906C50.8863 7.2359 52.0026 7.04933 53.0127 6.95605C53.4379 6.91608 53.8632 6.88943 54.3018 6.90275C54.7403 6.90275 55.139 6.94273 55.5111 7.00936C55.8832 7.07599 56.1889 7.19592 56.468 7.35583C56.7471 7.51574 56.9331 7.72895 57.0527 8.00879C57.1856 8.30196 57.2919 8.59512 57.3451 8.90162C57.385 9.16813 57.3983 9.47463 57.385 9.8211C57.3584 10.1676 57.2521 10.5274 57.0527 10.9271C56.7205 11.207 56.2819 11.4868 55.737 11.7667C55.2719 12.0198 54.6473 12.313 53.8898 12.6195C53.1323 12.926 52.1887 13.2325 51.0724 13.539C51.0989 14.1919 51.2584 14.765 51.5242 15.2447C51.6438 15.4579 51.8033 15.6578 51.9893 15.831C52.1754 16.0043 52.4146 16.1775 52.707 16.3107C52.9994 16.444 53.3316 16.5506 53.717 16.6039C54.1024 16.6572 54.5543 16.6705 55.0859 16.6039H55.0726ZM51.0591 12.7528C51.8697 12.4463 52.5874 12.1531 53.1987 11.8599C53.81 11.5668 54.3151 11.3003 54.727 11.0737C55.2055 10.7939 55.6307 10.5407 55.9763 10.3008C56.0959 10.021 56.149 9.76779 56.1357 9.52793C56.1225 9.28806 56.0693 9.07485 56.0028 8.88829C55.9231 8.67508 55.8168 8.47519 55.6573 8.27531C55.3516 7.98214 54.9397 7.82223 54.4214 7.76893C53.9031 7.72895 53.3848 7.74227 52.893 7.8089C52.3083 7.90218 51.6837 8.04877 51.0591 8.26198V12.7394V12.7528Z"
      fill="#F9F0E2" />
    <path
      d="M66.4751 16.7638H65.093V16.4173C64.6412 16.5639 64.1096 16.7105 63.5115 16.8438C62.9135 16.977 62.3155 17.057 61.7307 17.057C61.146 17.057 60.6011 16.9904 60.0961 16.8304C59.5911 16.6705 59.2057 16.3774 58.9399 15.9509C58.8335 15.6978 58.7538 15.4046 58.7139 15.0848C58.6874 14.8316 58.6741 14.5251 58.6741 14.1653C58.6741 13.8055 58.7671 13.4324 58.9399 13.0459C59.2987 12.7394 59.7771 12.4329 60.3486 12.1131C60.827 11.8333 61.4649 11.5401 62.249 11.2203C63.0331 10.9005 63.9767 10.5673 65.093 10.2475C65.0797 9.63453 64.9202 9.1015 64.6412 8.6351C64.5215 8.43521 64.3621 8.24865 64.1494 8.06209C63.9501 7.87553 63.6976 7.72895 63.4052 7.60901C63.1128 7.48908 62.7673 7.3958 62.3686 7.32917C61.9699 7.26254 61.5048 7.26254 60.9732 7.32917C60.9067 7.35583 60.8536 7.36915 60.7871 7.36915C60.6808 7.38248 60.5745 7.36915 60.4682 7.32917C60.4682 7.24922 60.5346 7.18259 60.6675 7.14261C60.8004 7.08931 60.9466 7.04933 61.1061 7.02268C62.0231 6.88942 62.8603 6.8761 63.6178 6.9827C63.9368 7.02268 64.2558 7.10264 64.5747 7.19592C64.8937 7.2892 65.186 7.43578 65.4518 7.62234C65.7176 7.8089 65.9435 8.03544 66.1163 8.31528C66.3024 8.59512 66.422 8.92827 66.4751 9.32804V16.7638ZM60.4682 15.6711C60.7473 15.9776 61.1327 16.1508 61.651 16.1775C62.1693 16.2175 62.6743 16.1908 63.1926 16.1242C63.8039 16.0309 64.4285 15.8843 65.093 15.6711V11.1936C64.2823 11.5135 63.5647 11.82 62.9534 12.1131C62.342 12.4063 61.8237 12.6728 61.425 12.8993C60.92 13.1792 60.508 13.4324 60.1758 13.6722C60.0562 13.9521 60.003 14.2053 60.0163 14.4451C60.0296 14.685 60.0828 14.8982 60.1492 15.0848C60.229 15.298 60.3353 15.4979 60.4682 15.6711Z"
      fill="#F9F0E2" />
    <path
      d="M77.4126 7.27587C77.6385 7.18259 77.8645 7.02268 78.0904 6.76949V16.7505H76.7348V15.2047C76.7348 15.2047 76.5488 15.2713 76.2165 15.3913C75.8843 15.5245 75.5255 15.6711 75.1401 15.8177C74.7547 15.9643 74.4091 16.1242 74.1035 16.2441C73.7978 16.364 73.6516 16.4307 73.6782 16.4174C73.6649 16.4307 73.5852 16.4573 73.439 16.5106C73.2928 16.5639 73.1333 16.6039 72.934 16.6572C72.7479 16.7105 72.5619 16.7638 72.3758 16.8038C72.1898 16.8438 72.0701 16.8704 71.9904 16.8704C71.5253 16.9104 71.1664 16.8438 70.9272 16.6572C70.688 16.4707 70.502 16.2574 70.3824 16.0043C70.2495 15.7244 70.1697 15.3913 70.1564 15.0048V7.38248H71.512V12.5662C71.512 12.8594 71.512 13.1659 71.512 13.499C71.512 13.8322 71.5386 14.152 71.5519 14.4451C71.5784 14.7383 71.605 15.0048 71.6449 15.2314C71.6847 15.4579 71.7246 15.6045 71.7911 15.6578C72.0834 15.8976 72.4423 15.9909 72.8941 15.9376C73.346 15.8843 73.7978 15.7644 74.2895 15.5912C74.768 15.4046 75.2331 15.1914 75.6717 14.9515C76.1102 14.7117 76.4558 14.5251 76.7083 14.4052V7.38248C76.9342 7.38248 77.1601 7.3425 77.386 7.24922L77.4126 7.27587Z"
      fill="#F9F0E2" />
    <path
      d="M83.8714 10.9405C83.8448 11.8066 83.8581 12.6195 83.9113 13.3791C83.9246 13.6989 83.9512 14.0187 83.991 14.3519C84.0309 14.685 84.0708 15.0048 84.1239 15.298C84.1771 15.5912 84.2435 15.8577 84.3233 16.0842C84.403 16.3107 84.5093 16.4973 84.6289 16.6306C84.722 16.7505 84.7884 16.8438 84.8283 16.9104C84.8549 16.977 84.8549 17.0037 84.8283 17.017C84.8017 17.0303 84.6688 17.0037 84.4827 16.9237C84.084 16.6839 83.7518 16.2974 83.4594 15.791C83.2069 15.3513 82.9677 14.7516 82.7684 13.9654C82.569 13.1925 82.4627 12.1798 82.4627 10.9405V7.55571H80.3231V6.62291H82.4627V0.799547C82.6886 0.799547 82.9411 0.746244 83.2069 0.652964C83.4727 0.559683 83.6986 0.399774 83.8581 0.186562V6.62291H85.9845V7.55571H83.8581V10.9405H83.8714Z"
      fill="#F9F0E2" />
    <path
      d="M92.7224 16.7372C92.5762 17.2702 92.3503 17.8565 92.0712 18.5095C91.7921 19.1625 91.42 19.7888 90.9548 20.3751C90.4897 20.9614 89.9315 21.4945 89.2538 21.9475C88.576 22.4006 87.7786 22.7071 86.835 22.8537C86.7021 22.8537 86.6623 22.8137 86.7287 22.7204C86.7553 22.6805 86.7952 22.6272 86.835 22.5605C87.5925 22.254 88.2304 21.8676 88.762 21.4012C89.2936 20.9348 89.7322 20.4284 90.091 19.8954C90.4498 19.3623 90.7289 18.816 90.915 18.2696C91.1143 17.7233 91.2605 17.2302 91.3668 16.7638L87.7653 8.48852C87.9115 8.42189 88.0311 8.38191 88.1108 8.34193C88.1906 8.30196 88.2703 8.26198 88.3368 8.19535C88.4032 8.12872 88.4829 8.04876 88.5494 7.92883C88.6291 7.82223 88.7355 7.66232 88.8684 7.46243C88.8684 7.48908 88.8684 7.52906 88.8949 7.58236C88.9082 7.63567 88.9614 7.74227 89.0278 7.91551C89.1076 8.08874 89.2006 8.31528 89.3335 8.6351C89.4664 8.94159 89.6524 9.38134 89.8917 9.91437C90.1309 10.4607 90.4232 11.1537 90.7821 11.9799C91.1276 12.8194 91.5529 13.8321 92.0579 15.0315L95.3006 7.43578H96.5099L92.7224 16.7372Z"
      fill="#F9F0E2" />
    <path
      d="M102.504 8.23533C102.676 7.91551 102.889 7.66232 103.155 7.47576C103.421 7.2892 103.713 7.14262 104.032 7.04934C104.351 6.95606 104.683 6.88943 105.029 6.8761C105.374 6.86277 105.72 6.8761 106.052 6.90275C106.836 6.98271 107.673 7.16927 108.564 7.47576C108.71 7.60902 108.75 7.7023 108.67 7.7556C108.59 7.8089 108.484 7.83556 108.324 7.83556C108.152 7.84888 107.939 7.83556 107.673 7.79558C106.863 7.67565 106.198 7.63567 105.706 7.68897C105.201 7.72895 104.816 7.82223 104.524 7.94216C104.191 8.07542 103.952 8.24865 103.819 8.46187C103.7 8.80834 103.633 9.11483 103.633 9.39467C103.633 9.67451 103.66 9.90105 103.7 10.1009C103.766 10.3275 103.846 10.5274 103.952 10.7139C104.67 10.8872 105.294 11.0337 105.853 11.1803C106.411 11.3269 106.889 11.4468 107.288 11.5534C107.753 11.6734 108.165 11.7933 108.511 11.8999C108.909 12.8194 109.082 13.5923 109.069 14.2053C109.042 14.8183 108.936 15.3113 108.736 15.6978C108.511 16.1375 108.178 16.484 107.766 16.7372C107.381 16.8838 107.022 16.9904 106.677 17.0303C106.331 17.0703 105.999 17.097 105.693 17.0703C105.387 17.0437 105.082 17.0037 104.803 16.9371C104.524 16.8571 104.271 16.7638 104.045 16.6572C103.5 16.4174 103.009 16.0975 102.57 15.6978C102.384 15.4712 102.344 15.2847 102.45 15.1381C102.543 14.9915 102.636 14.9648 102.729 15.0315C102.796 15.1114 102.862 15.1781 102.929 15.2447C102.995 15.3113 103.075 15.3646 103.155 15.4179C103.235 15.4845 103.314 15.5245 103.407 15.5778C104.271 16.0176 104.975 16.2574 105.52 16.2841C106.065 16.3107 106.49 16.2574 106.809 16.0975C107.182 15.9243 107.461 15.6578 107.647 15.2847C107.766 14.9249 107.819 14.5784 107.806 14.2719C107.793 13.9654 107.74 13.6989 107.673 13.459C107.594 13.1792 107.487 12.9527 107.328 12.7528C106.69 12.6195 106.105 12.4729 105.56 12.3263C105.015 12.1798 104.55 12.0332 104.151 11.9132C103.686 11.7667 103.261 11.6201 102.876 11.4868C102.623 11.0737 102.45 10.6739 102.384 10.2742C102.318 9.8744 102.291 9.52793 102.304 9.23476C102.318 8.87497 102.384 8.54182 102.49 8.23533H102.504Z"
      fill="#F9F0E2" />
    <path
      d="M113.162 22.9203H111.806V7.46243C112.737 7.15594 113.667 6.95605 114.597 6.8761C114.996 6.83612 115.395 6.80947 115.82 6.82279C116.245 6.82279 116.67 6.86277 117.096 6.9294C117.521 6.99603 117.933 7.10264 118.332 7.26255C118.73 7.40913 119.102 7.62234 119.461 7.90218C119.647 8.04877 119.78 8.28863 119.887 8.60845C119.993 8.92827 120.073 9.28806 120.126 9.67451C120.179 10.0743 120.205 10.4741 120.205 10.9005C120.205 11.3269 120.192 11.7134 120.166 12.0731C120.139 12.4329 120.099 12.7261 120.059 12.9793C120.019 13.2325 119.966 13.3791 119.9 13.4191C119.754 13.6456 119.421 13.9121 118.903 14.2186C118.465 14.4718 117.8 14.7916 116.896 15.1781C115.993 15.5645 114.757 15.9909 113.189 16.4973V22.9337L113.162 22.9203ZM113.162 15.4179C114.544 14.8849 115.594 14.4451 116.351 14.112C117.109 13.7788 117.641 13.499 117.999 13.2991C118.398 13.0726 118.624 12.8993 118.677 12.7927C118.797 12.2597 118.85 11.7533 118.837 11.2736C118.823 10.7939 118.77 10.3675 118.704 9.99433C118.624 9.5679 118.518 9.18146 118.385 8.80834C117.853 8.38191 117.282 8.11539 116.684 7.99546C116.072 7.88886 115.514 7.83555 114.983 7.87553C114.371 7.91551 113.773 8.03544 113.162 8.222V15.4046V15.4179Z"
      fill="#F9F0E2" />
    <path
      d="M130 16.7638H128.618V16.4173C128.166 16.5639 127.634 16.7105 127.036 16.8438C126.438 16.977 125.84 17.057 125.256 17.057C124.671 17.057 124.126 16.9904 123.621 16.8304C123.116 16.6705 122.731 16.3774 122.465 15.9509C122.358 15.6978 122.279 15.4046 122.239 15.0848C122.212 14.8316 122.199 14.5251 122.199 14.1653C122.199 13.8055 122.292 13.4324 122.465 13.0459C122.824 12.7394 123.302 12.4329 123.873 12.1131C124.352 11.8333 124.99 11.5401 125.774 11.2203C126.558 10.9005 127.502 10.5673 128.618 10.2475C128.605 9.63453 128.445 9.1015 128.166 8.6351C128.046 8.43521 127.887 8.24865 127.674 8.06209C127.475 7.87553 127.222 7.72895 126.93 7.60901C126.638 7.48908 126.292 7.3958 125.894 7.32917C125.495 7.26254 125.03 7.26254 124.498 7.32917C124.432 7.35583 124.378 7.36915 124.312 7.36915C124.206 7.38248 124.099 7.36915 123.993 7.32917C123.993 7.24922 124.06 7.18259 124.192 7.14261C124.325 7.08931 124.472 7.04933 124.631 7.02268C125.548 6.88942 126.385 6.8761 127.143 6.9827C127.462 7.02268 127.781 7.10264 128.1 7.19592C128.419 7.2892 128.711 7.43578 128.977 7.62234C129.243 7.8089 129.468 8.03544 129.641 8.31528C129.827 8.59512 129.947 8.92827 130 9.32804V16.7638ZM123.98 15.6711C124.259 15.9776 124.644 16.1508 125.163 16.1775C125.681 16.2175 126.186 16.1908 126.704 16.1242C127.316 16.0309 127.94 15.8843 128.605 15.6711V11.1936C127.794 11.5135 127.076 11.82 126.465 12.1131C125.854 12.4063 125.335 12.6728 124.937 12.8993C124.432 13.1792 124.02 13.4324 123.687 13.6722C123.568 13.9521 123.515 14.2053 123.528 14.4451C123.541 14.685 123.594 14.8982 123.661 15.0848C123.741 15.298 123.847 15.4979 123.98 15.6711Z"
      fill="#F9F0E2" />
    <path
      d="M47.6968 40.3504V46.8534H46.9127V40.3504H47.6968ZM47.338 40.3504H50.6073V41.0967H47.338V40.3504ZM47.338 42.9623H50.4212V43.7085H47.338V42.9623ZM47.338 46.1072H50.6073V46.8534H47.338V46.1072Z"
      fill="#F9F0E2" />
    <path
      d="M52.295 45.5741C52.4545 45.774 52.6406 45.9206 52.8399 46.0405C53.0393 46.1471 53.2785 46.2138 53.531 46.2138C53.8765 46.2138 54.1556 46.1205 54.3682 45.9206C54.5809 45.734 54.6872 45.4809 54.6872 45.1877C54.6872 44.8945 54.6207 44.668 54.4878 44.4948C54.3549 44.3215 54.1689 44.1749 53.9562 44.0683C53.7436 43.9617 53.5044 43.8684 53.2519 43.7752C53.0924 43.7219 52.9064 43.6419 52.7203 43.5619C52.521 43.4687 52.3349 43.3621 52.1621 43.2155C51.9894 43.0689 51.8299 42.909 51.7236 42.6958C51.604 42.4959 51.5508 42.2427 51.5508 41.9362C51.5508 41.6164 51.6305 41.3232 51.79 41.07C51.9495 40.8168 52.1754 40.617 52.4545 40.4704C52.7336 40.3238 53.0658 40.2572 53.4247 40.2572C53.7835 40.2572 54.0891 40.3238 54.3416 40.457C54.6074 40.5903 54.8334 40.7635 55.0194 40.9634C55.2055 41.1766 55.3517 41.3898 55.458 41.6164L54.7802 42.0028C54.7005 41.8429 54.5942 41.683 54.4745 41.5364C54.3549 41.3765 54.1955 41.2566 54.0227 41.15C53.8499 41.0567 53.6373 41.0034 53.3848 41.0034C53.0393 41.0034 52.7735 41.0834 52.614 41.2566C52.4545 41.4298 52.3748 41.6164 52.3748 41.8296C52.3748 42.0028 52.4279 42.1761 52.521 42.3227C52.614 42.4692 52.7735 42.6158 52.9861 42.7491C53.1987 42.8823 53.5044 43.0156 53.8765 43.1489C54.0493 43.2155 54.2353 43.2954 54.4214 43.3887C54.6074 43.482 54.7935 43.6153 54.953 43.7618C55.1125 43.9084 55.2454 44.095 55.3517 44.3082C55.458 44.5214 55.5111 44.7746 55.5111 45.0811C55.5111 45.3876 55.458 45.6274 55.3517 45.854C55.2454 46.0805 55.0992 46.2804 54.9131 46.4403C54.7271 46.6002 54.5144 46.7202 54.2752 46.8134C54.036 46.9067 53.7835 46.9467 53.531 46.9467C53.1854 46.9467 52.8532 46.8667 52.5475 46.7202C52.2419 46.5736 51.9894 46.3737 51.7634 46.1205C51.5375 45.8673 51.3515 45.6008 51.2186 45.3209L51.8432 44.8945C51.9894 45.161 52.1488 45.3876 52.3083 45.5875L52.295 45.5741Z"
      fill="#F9F0E2" />
    <path
      d="M55.5909 40.3504H59.7107V41.0967H58.0362V46.8534H57.2521V41.0967H55.5776V40.3504H55.5909Z"
      fill="#F9F0E2" />
    <path
      d="M59.4981 46.1205C59.6044 46.0272 59.724 45.9739 59.8569 45.9739C60.0031 45.9739 60.1227 46.0272 60.2157 46.1205C60.3088 46.2138 60.3619 46.3337 60.3619 46.4803C60.3619 46.6269 60.3088 46.7335 60.2157 46.8401C60.1227 46.9467 60.0031 47 59.8569 47C59.7107 47 59.6044 46.9467 59.4981 46.8401C59.3918 46.7335 59.3386 46.6136 59.3386 46.4803C59.3386 46.347 59.3918 46.2138 59.4981 46.1205Z"
      fill="#F9F0E2" />
    <path
      d="M66.4486 43.5753C66.5948 43.4154 66.7144 43.2688 66.8207 43.1222C66.927 42.9756 66.9935 42.8157 67.0466 42.6558C67.0998 42.4959 67.1264 42.336 67.1264 42.1627C67.1264 42.0162 67.0998 41.8829 67.0466 41.7496C66.9935 41.6164 66.9137 41.4831 66.7941 41.3765C66.6878 41.2699 66.5549 41.1766 66.3954 41.11C66.236 41.0434 66.0632 41.0034 65.8639 41.0034C65.5848 41.0034 65.3456 41.07 65.1462 41.19C64.9469 41.3232 64.7874 41.4965 64.6944 41.7363C64.588 41.9762 64.5349 42.256 64.5349 42.5892H63.7508C63.7508 42.1228 63.8305 41.723 64.0033 41.3632C64.1761 41.0167 64.4153 40.7369 64.7342 40.5503C65.0532 40.3638 65.4386 40.2572 65.8771 40.2572C66.236 40.2572 66.5416 40.3238 66.8074 40.4437C67.0732 40.5637 67.2726 40.7236 67.4453 40.9101C67.6181 41.0967 67.7377 41.2966 67.8174 41.5231C67.8972 41.7363 67.937 41.9495 67.937 42.1494C67.937 42.4826 67.8573 42.8157 67.6978 43.1489C67.5384 43.482 67.3257 43.7752 67.0732 44.0284L65.0133 46.1338H67.9636V46.8801H63.392L66.4619 43.6019L66.4486 43.5753Z"
      fill="#F9F0E2" />
    <path
      d="M68.7211 41.8829C68.9205 41.3765 69.2128 40.9901 69.5717 40.6969C69.9305 40.4037 70.3558 40.2705 70.8209 40.2705C71.286 40.2705 71.7113 40.4171 72.0701 40.6969C72.429 40.9768 72.708 41.3765 72.9207 41.8829C73.12 42.3893 73.2263 42.9623 73.2263 43.6153C73.2263 44.2682 73.12 44.8412 72.9207 45.3476C72.7213 45.854 72.429 46.2404 72.0701 46.5336C71.7113 46.8268 71.286 46.96 70.8209 46.96C70.3558 46.96 69.9305 46.8134 69.5717 46.5336C69.2128 46.2538 68.9338 45.854 68.7211 45.3476C68.5218 44.8412 68.4155 44.2682 68.4155 43.6153C68.4155 42.9623 68.5218 42.3893 68.7211 41.8829ZM69.3192 44.6547C69.3989 44.9745 69.5052 45.2543 69.6381 45.4809C69.7843 45.7074 69.9571 45.894 70.1564 46.0139C70.3558 46.1338 70.5817 46.2005 70.8209 46.2005C71.0601 46.2005 71.2993 46.1338 71.4987 46.0139C71.698 45.894 71.8708 45.7074 72.0037 45.4809C72.1366 45.2543 72.2562 44.9745 72.3226 44.6547C72.3891 44.3348 72.429 43.9884 72.429 43.6153C72.429 43.2421 72.3891 42.8823 72.3226 42.5758C72.2562 42.2694 72.1366 41.9762 72.0037 41.7496C71.8575 41.5231 71.698 41.3365 71.4987 41.2166C71.2993 41.0967 71.0734 41.0301 70.8209 41.0301C70.5684 41.0301 70.3558 41.0967 70.1564 41.2166C69.9571 41.3499 69.7843 41.5231 69.6381 41.7496C69.4919 41.9762 69.3856 42.256 69.3192 42.5758C69.2527 42.8957 69.2129 43.2421 69.2129 43.6153C69.2129 43.9884 69.2527 44.3482 69.3192 44.6547Z"
      fill="#F9F0E2" />
    <path
      d="M73.8643 41.8829C74.0636 41.3765 74.356 40.9901 74.7148 40.6969C75.0736 40.4037 75.4989 40.2705 75.964 40.2705C76.4292 40.2705 76.8544 40.4171 77.2133 40.6969C77.5721 40.9768 77.8512 41.3765 78.0638 41.8829C78.2632 42.3893 78.3695 42.9623 78.3695 43.6153C78.3695 44.2682 78.2632 44.8412 78.0638 45.3476C77.8645 45.854 77.5721 46.2404 77.2133 46.5336C76.8544 46.8268 76.4292 46.96 75.964 46.96C75.4989 46.96 75.0736 46.8134 74.7148 46.5336C74.356 46.2538 74.0769 45.854 73.8643 45.3476C73.6649 44.8412 73.5586 44.2682 73.5586 43.6153C73.5586 42.9623 73.6649 42.3893 73.8643 41.8829ZM74.449 44.6547C74.5287 44.9745 74.6351 45.2543 74.768 45.4809C74.9141 45.7074 75.0869 45.894 75.2863 46.0139C75.4856 46.1338 75.7115 46.2005 75.9507 46.2005C76.19 46.2005 76.4292 46.1338 76.6285 46.0139C76.8279 45.894 77.0006 45.7074 77.1335 45.4809C77.2664 45.2543 77.386 44.9745 77.4525 44.6547C77.5189 44.3348 77.5588 43.9884 77.5588 43.6153C77.5588 43.2421 77.5189 42.8823 77.4525 42.5758C77.386 42.2694 77.2664 41.9762 77.1335 41.7496C76.9873 41.5231 76.8279 41.3365 76.6285 41.2166C76.4292 41.0967 76.2033 41.0301 75.9507 41.0301C75.6982 41.0301 75.4856 41.0967 75.2863 41.2166C75.0869 41.3499 74.9141 41.5231 74.768 41.7496C74.6218 41.9762 74.5155 42.256 74.449 42.5758C74.3826 42.8957 74.3427 43.2421 74.3427 43.6153C74.3427 43.9884 74.3826 44.3482 74.449 44.6547Z"
      fill="#F9F0E2" />
    <path
      d="M81.5856 43.5753C81.7318 43.4154 81.8514 43.2688 81.9577 43.1222C82.064 42.9756 82.1304 42.8157 82.1836 42.6558C82.2368 42.4959 82.2633 42.336 82.2633 42.1627C82.2633 42.0162 82.2368 41.8829 82.1836 41.7496C82.1304 41.6164 82.0507 41.4831 81.9311 41.3765C81.8248 41.2699 81.6919 41.1766 81.5324 41.11C81.3729 41.0434 81.2002 41.0034 81.0008 41.0034C80.7217 41.0034 80.4825 41.07 80.2832 41.19C80.0838 41.3099 79.9244 41.4965 79.8313 41.7363C79.725 41.9762 79.6718 42.256 79.6718 42.5892H78.8878C78.8878 42.1228 78.9675 41.723 79.1403 41.3632C79.313 41.0167 79.5522 40.7369 79.8712 40.5503C80.1901 40.3638 80.5755 40.2572 81.0141 40.2572C81.3729 40.2572 81.6786 40.3238 81.9444 40.4437C82.2102 40.5637 82.4095 40.7236 82.5823 40.9101C82.7551 41.0967 82.8747 41.2966 82.9544 41.5231C83.0341 41.7363 83.074 41.9495 83.074 42.1494C83.074 42.4826 82.9943 42.8157 82.8348 43.1489C82.6753 43.482 82.4627 43.7752 82.2102 44.0284L80.1503 46.1338H83.1006V46.8801H78.5289L81.5989 43.6019L81.5856 43.5753Z"
      fill="#F9F0E2" />
  </g>
  <defs>
    <clipPath id="clip0_82_5480">
      <rect width="130" height="47" fill="white" />
    </clipPath>
  </defs>
</svg>