<svg width="42" height="56" viewBox="0 0 42 56" fill="none" xmlns="http://www.w3.org/2000/svg">
<path d="M20.7 0C9.27188 0 0 9.09938 0 20.3334C0 33.1955 12.9591 48.6127 18.3713 54.4884C19.6434 55.8684 21.7566 55.8684 23.0288 54.4884C28.4409 48.6127 41.4 33.1955 41.4 20.3334C41.4 9.09938 32.1281 0 20.7 0Z" fill="#720806"/>
<path fill-rule="evenodd" clip-rule="evenodd" d="M9.38924 17.6747L9.38099 17.6384L9.34391 17.6303C9.29174 17.6182 9.24228 17.6101 9.19974 17.6061C9.1544 17.6021 9.11046 17.6048 9.06788 17.6128C9.01432 17.6236 8.97175 17.6491 8.94019 17.6908C8.92644 17.7164 8.91409 17.7432 8.90724 17.7688C8.89625 17.7983 8.89349 17.8333 8.89485 17.8763C8.89625 17.9167 8.9086 17.9637 8.9333 18.0161C8.95118 18.0498 8.97864 18.078 9.01845 18.0995C9.05004 18.1143 9.09398 18.121 9.14891 18.121C9.2011 18.121 9.26565 18.1089 9.3494 18.0847L9.37137 18.078L9.38375 18.0578C9.39883 18.0323 9.40982 17.9987 9.41531 17.9557C9.4208 17.9221 9.4208 17.8817 9.41944 17.8374C9.41807 17.793 9.40845 17.7406 9.39334 17.6706L9.38924 17.6747Z" fill="white"/>
<path fill-rule="evenodd" clip-rule="evenodd" d="M5.51084 19.9832V20.9538C5.36254 20.9982 5.21834 21.0291 5.08239 21.0506C5 21.0627 4.91622 21.0681 4.83383 21.0681C4.79262 21.0681 4.75005 21.0681 4.70611 21.0627C4.59353 21.0547 4.50974 21.0197 4.45345 20.9605C4.42186 20.9202 4.39989 20.8758 4.38205 20.8275C4.36417 20.7885 4.35595 20.7428 4.35182 20.6903C4.3477 20.646 4.35868 20.5949 4.37929 20.5424C4.45755 20.4873 4.55644 20.4282 4.67315 20.365C4.77478 20.3085 4.90523 20.2453 5.05629 20.1741C5.18811 20.1109 5.34054 20.0477 5.50947 19.9818V19.9832H5.51084ZM5.8816 19.1537C5.8308 19.0783 5.77038 19.0152 5.69622 18.9654C5.62481 18.917 5.54516 18.8807 5.45864 18.8525C5.37489 18.8283 5.28974 18.8095 5.21008 18.7974C5.01508 18.7718 4.79811 18.7745 4.55504 18.8095C4.50974 18.8175 4.46853 18.8283 4.43148 18.8431C4.36005 18.87 4.34633 18.9143 4.34633 18.9452V18.9843L4.38341 18.999C4.41087 19.0111 4.4397 19.0165 4.46853 19.0165C4.47679 19.0165 4.48777 19.0165 4.48777 19.0165C4.50837 19.0165 4.52898 19.0125 4.55095 19.0044C4.67455 18.991 4.7844 18.991 4.8764 19.0044C4.97254 19.0179 5.05629 19.0407 5.12496 19.0676C5.195 19.0945 5.24993 19.1294 5.29523 19.1684C5.34466 19.2088 5.38038 19.2518 5.40648 19.2961C5.46553 19.3903 5.50122 19.4978 5.50947 19.6175C5.2458 19.6928 5.01785 19.768 4.83107 19.8447C4.63197 19.9267 4.46993 20.002 4.3477 20.0679C4.19802 20.1499 4.07717 20.2265 3.98379 20.3031L3.97143 20.3139L3.96457 20.3273C3.92062 20.4308 3.89728 20.5344 3.89453 20.6271C3.89453 20.6419 3.89453 20.6567 3.89453 20.6702V20.6782C3.89453 20.7481 3.89865 20.81 3.90277 20.8638C3.91513 20.9471 3.93573 21.0224 3.96319 21.091L3.96869 21.1017C4.04559 21.2174 4.15545 21.298 4.29414 21.3424C4.4191 21.3814 4.55781 21.4015 4.70611 21.4015H4.72671C4.88053 21.4002 5.03569 21.3814 5.18811 21.3464C5.30485 21.3209 5.41334 21.2913 5.51084 21.2644V21.3262H5.98323V19.4252C5.96538 19.319 5.93103 19.2289 5.8816 19.1523V19.1537Z" fill="white"/>
<path fill-rule="evenodd" clip-rule="evenodd" d="M8.21367 20.0113L8.18621 20.0032C8.09557 19.9763 7.99121 19.9481 7.87587 19.9199C7.77697 19.893 7.65613 19.8621 7.51333 19.8258C7.37875 19.7935 7.22769 19.7558 7.05878 19.7182C7.04091 19.6846 7.02583 19.6443 7.01484 19.6053C7.00386 19.5609 6.99973 19.5058 6.99973 19.4426C6.99973 19.3848 7.01208 19.3162 7.03954 19.2409C7.06701 19.2019 7.11644 19.167 7.18648 19.1401C7.25239 19.1132 7.34716 19.0944 7.46526 19.0823C7.5861 19.0715 7.74814 19.0823 7.94863 19.1092C8.00219 19.1172 8.05026 19.1226 8.09144 19.1226C8.10519 19.1226 8.11754 19.1226 8.12439 19.1226C8.17659 19.1226 8.2164 19.1119 8.24526 19.0917C8.26587 19.0783 8.27958 19.0554 8.28234 19.0325C8.28644 18.9882 8.25212 18.9559 8.22329 18.9304L8.21504 18.9196L8.20269 18.9156C7.9761 18.8403 7.75636 18.7932 7.55314 18.7744C7.46663 18.7664 7.37735 18.7637 7.28674 18.769C7.19197 18.7744 7.10136 18.7892 7.02034 18.8134C6.93382 18.839 6.8528 18.8779 6.78276 18.9277C6.70723 18.9788 6.64681 19.05 6.59735 19.1441C6.56716 19.2221 6.55204 19.3109 6.54792 19.4063C6.54382 19.487 6.55204 19.5771 6.56852 19.6779C6.58776 19.7841 6.63307 19.889 6.70037 19.9965L6.71136 20.014L6.73057 20.0207C6.8267 20.0543 6.93382 20.0906 7.05329 20.1283C7.15216 20.1578 7.27299 20.1928 7.40894 20.2291C7.53803 20.2654 7.68223 20.299 7.83602 20.3326C7.86212 20.3716 7.88545 20.4173 7.8992 20.4711C7.91704 20.5222 7.92666 20.584 7.92939 20.6553C7.93352 20.7238 7.92117 20.8005 7.89644 20.8758C7.85663 20.9564 7.79894 21.0129 7.71382 21.0492C7.64378 21.0814 7.54352 21.0936 7.41719 21.0868C7.2881 21.0801 7.1192 21.0237 6.91045 20.9201C6.89125 20.9121 6.87337 20.9013 6.8514 20.8825C6.83632 20.8717 6.81845 20.861 6.80473 20.8489C6.78962 20.8341 6.77314 20.818 6.75939 20.8005L6.75117 20.7924C6.72644 20.7736 6.70447 20.7682 6.68799 20.7682C6.65091 20.7682 6.61795 20.7884 6.59049 20.8301C6.5603 20.8704 6.54519 20.9403 6.62484 21.0384L6.6317 21.0452C6.74704 21.146 6.8775 21.2293 7.01894 21.2912C7.07799 21.3181 7.14666 21.3409 7.21943 21.3611C7.29223 21.3799 7.37325 21.392 7.45701 21.3947C7.47761 21.3947 7.49685 21.3947 7.51742 21.3947C7.58197 21.3947 7.64788 21.3907 7.71382 21.3813C7.80583 21.3692 7.90333 21.3436 8.00356 21.3047L8.01181 21.2993C8.12852 21.2307 8.21916 21.1353 8.27958 21.0183C8.33314 20.9175 8.36337 20.7857 8.36886 20.6257C8.37572 20.4671 8.32765 20.2654 8.22466 20.0301L8.21367 20.0046V20.0113Z" fill="white"/>
<path fill-rule="evenodd" clip-rule="evenodd" d="M9.16158 18.8806C9.0984 18.9008 9.04071 18.9116 8.99128 18.9143L8.93359 18.9183V21.3262H9.39912V18.6077L9.28654 18.7865C9.25632 18.8336 9.21374 18.8659 9.16158 18.8806Z" fill="white"/>
<path fill-rule="evenodd" clip-rule="evenodd" d="M11.5271 19.9832V20.9538C11.3788 20.9982 11.2346 21.0291 11.1001 21.0506C11.0177 21.0627 10.9339 21.0681 10.8515 21.0681C10.8103 21.0681 10.7664 21.0681 10.7238 21.0627C10.6112 21.0547 10.5247 21.0197 10.4711 20.9605C10.4395 20.9202 10.4148 20.8758 10.3983 20.8275C10.3805 20.7885 10.3722 20.7428 10.3681 20.6903C10.364 20.646 10.375 20.5949 10.3956 20.5424C10.4739 20.4873 10.5727 20.4282 10.6895 20.365C10.7911 20.3099 10.9174 20.2453 11.0726 20.1741C11.2031 20.1109 11.3569 20.0463 11.5244 19.9818L11.5271 19.9832ZM11.8979 19.1537C11.8471 19.0783 11.7867 19.0152 11.7125 18.9654C11.6411 18.917 11.5615 18.8807 11.475 18.8525C11.3912 18.8283 11.3061 18.8095 11.2236 18.7974C11.0286 18.7718 10.8117 18.7745 10.5686 18.8095C10.5233 18.8175 10.4821 18.8283 10.445 18.8431C10.3736 18.87 10.3599 18.9143 10.3599 18.9452V18.9843L10.397 18.999C10.4244 19.0111 10.4533 19.0165 10.4807 19.0165C10.4917 19.0165 10.5 19.0165 10.5013 19.0165C10.5219 19.0165 10.5425 19.0125 10.5645 19.0044C10.6881 18.991 10.798 18.991 10.89 19.0044C10.9875 19.0179 11.0712 19.0407 11.1385 19.0676C11.2086 19.0945 11.2635 19.1294 11.3088 19.1684C11.3555 19.2088 11.3926 19.2518 11.42 19.2961C11.4777 19.3903 11.5148 19.4978 11.523 19.6175C11.2594 19.6928 11.0314 19.768 10.8446 19.8447C10.6455 19.9267 10.4835 20.002 10.3599 20.0679C10.2102 20.1499 10.0921 20.2265 9.99599 20.3031L9.985 20.3139L9.97815 20.3273C9.93281 20.4308 9.91084 20.5344 9.90671 20.6271C9.90535 20.7212 9.90671 20.7979 9.91497 20.8638C9.92732 20.9458 9.94792 21.0224 9.97538 21.091L9.98088 21.1017C10.0578 21.2174 10.1663 21.298 10.305 21.3424C10.4299 21.3814 10.5686 21.4015 10.7169 21.4015H10.7375C10.8913 21.4002 11.0465 21.3814 11.1989 21.3464C11.3157 21.3209 11.4241 21.2913 11.5216 21.2644V21.3262H11.9941V19.4252C11.9762 19.319 11.9432 19.2289 11.8924 19.1523L11.8979 19.1537Z" fill="white"/>
<path fill-rule="evenodd" clip-rule="evenodd" d="M15.9286 20.2412C15.9245 20.3555 15.9149 20.4563 15.8957 20.5437C15.8751 20.6378 15.8449 20.7279 15.8092 20.8099C15.6883 20.9053 15.5565 20.9645 15.4164 20.9874C15.2681 21.0116 15.1294 21.0169 15.0072 21.0062C14.8754 20.9927 14.7394 20.9659 14.6048 20.9228V19.3068C14.9083 19.4265 15.1486 19.5233 15.323 19.5986C15.5043 19.6765 15.6416 19.7424 15.7309 19.7908C15.8339 19.8486 15.871 19.8796 15.8847 19.8916C15.9177 20.0167 15.9341 20.1337 15.93 20.2425V20.2412H15.9286ZM16.342 19.7733C16.3269 19.69 16.3118 19.6577 16.2953 19.6389C16.25 19.5744 16.1607 19.5071 16.0179 19.4318C15.9012 19.37 15.7322 19.2974 15.5002 19.2046C15.2818 19.1199 14.9811 19.0205 14.6048 18.9129V16.9258L14.4922 17.1073C14.4592 17.1598 14.4194 17.1907 14.37 17.2001C14.3041 17.2135 14.2464 17.2216 14.1942 17.2297L14.1406 17.2377V21.3261H14.6076V21.2361C14.7696 21.2912 14.9358 21.3302 15.0978 21.349C15.1706 21.3571 15.2461 21.3638 15.323 21.3638H15.3601C15.4507 21.3598 15.5427 21.3517 15.6361 21.3329C15.7309 21.3154 15.8243 21.2872 15.9149 21.2495C16.0097 21.2092 16.0962 21.1541 16.1744 21.0828C16.228 21.0398 16.2719 20.9726 16.3022 20.8812C16.3296 20.7991 16.3502 20.705 16.3612 20.6069C16.3736 20.5101 16.3804 20.4052 16.3818 20.2977C16.3832 20.1914 16.3818 20.0933 16.3736 20.0046C16.3667 19.9159 16.3557 19.8379 16.3433 19.7747L16.342 19.7733Z" fill="white"/>
<path fill-rule="evenodd" clip-rule="evenodd" d="M17.1677 20.1941V19.2194C17.3091 19.175 17.4478 19.1428 17.5797 19.124C17.6978 19.1065 17.8241 19.1038 17.9505 19.1132C18.0658 19.124 18.1564 19.1576 18.2224 19.2167C18.2553 19.2597 18.28 19.3041 18.2979 19.3512C18.313 19.3888 18.324 19.4359 18.3281 19.4897C18.3308 19.5354 18.3212 19.5851 18.3006 19.6362C18.2182 19.6927 18.1194 19.7505 18.0068 19.8137C17.9024 19.8701 17.7733 19.9347 17.6236 20.0046C17.4932 20.0664 17.3407 20.1296 17.1705 20.1941H17.1677ZM18.6728 19.085C18.6385 19.007 18.578 18.9438 18.4984 18.8968C18.4229 18.8564 18.3363 18.8228 18.2388 18.8067C18.1441 18.7892 18.0425 18.7798 17.9257 18.7771H17.8818C17.7829 18.7771 17.6868 18.7825 17.5921 18.7919C17.3352 18.8134 17.0496 18.8618 16.742 18.9331L16.6953 18.9452V20.744C16.7132 20.8529 16.7461 20.947 16.7969 21.0223C16.8477 21.0976 16.9082 21.1608 16.981 21.2119C17.0524 21.263 17.132 21.3006 17.2185 21.3261C17.3009 21.3517 17.3847 21.3705 17.4698 21.3813C17.5495 21.3934 17.6374 21.3988 17.7266 21.3988C17.8516 21.3988 17.9875 21.3866 18.129 21.3651C18.1963 21.3544 18.2402 21.3342 18.2649 21.3006C18.2869 21.2697 18.2965 21.2495 18.2965 21.2267C18.2965 21.1903 18.2691 21.15 18.21 21.15C18.1977 21.15 18.1839 21.15 18.1661 21.1554L18.1139 21.1662C17.9861 21.1796 17.8763 21.1796 17.7843 21.1662C17.6936 21.1527 17.614 21.1285 17.5467 21.1003C17.4808 21.0694 17.4245 21.0344 17.3833 20.9927C17.3394 20.9524 17.305 20.9094 17.2776 20.861C17.2213 20.7615 17.1869 20.6459 17.1746 20.5168C17.4355 20.4469 17.6607 20.3756 17.8461 20.3004C18.0397 20.2237 18.1977 20.1525 18.3185 20.0866C18.4599 20.0153 18.5753 19.9414 18.6604 19.8728L18.6714 19.8647L18.6783 19.854C18.7305 19.7505 18.7621 19.651 18.7675 19.5582C18.7744 19.4695 18.7716 19.3888 18.7566 19.3162C18.7414 19.2356 18.7126 19.1589 18.6783 19.0836L18.6728 19.085Z" fill="white"/>
<path fill-rule="evenodd" clip-rule="evenodd" d="M20.5582 19.9832V20.9538C20.4099 20.9982 20.2657 21.0291 20.1297 21.0506C20.0474 21.0627 19.9636 21.0681 19.8812 21.0681C19.8372 21.0681 19.796 21.0681 19.7535 21.0627C19.6395 21.0547 19.5544 21.0197 19.5008 20.9605C19.4692 20.9202 19.4472 20.8758 19.4294 20.8275C19.4143 20.7885 19.4033 20.7428 19.3992 20.6903C19.395 20.646 19.406 20.5949 19.4266 20.5424C19.5063 20.4873 19.6038 20.4282 19.7219 20.365C19.8235 20.3099 19.9526 20.2453 20.105 20.1741C20.2369 20.1109 20.3893 20.0463 20.5582 19.9818V19.9832ZM20.9289 19.1537C20.8782 19.077 20.8177 19.0152 20.7422 18.9654C20.6708 18.917 20.5911 18.8807 20.5046 18.8525C20.4209 18.8283 20.3371 18.8095 20.2561 18.7974C20.0611 18.7718 19.8441 18.7745 19.6024 18.8095C19.5571 18.8175 19.5159 18.8283 19.4774 18.8431C19.406 18.8727 19.3923 18.9143 19.3923 18.9452V18.9843L19.4294 18.999C19.4569 19.0111 19.4857 19.0165 19.5132 19.0165C19.5241 19.0165 19.5324 19.0165 19.5338 19.0165C19.5544 19.0165 19.5749 19.0125 19.5969 19.0044C19.7205 18.991 19.8304 18.991 19.9224 19.0044C20.0185 19.0179 20.1023 19.0407 20.1723 19.0676C20.2424 19.0945 20.2973 19.1294 20.3426 19.1684C20.3893 19.2088 20.4263 19.2518 20.4538 19.2961C20.5129 19.3903 20.5458 19.4978 20.5568 19.6175C20.2932 19.6928 20.0652 19.768 19.8784 19.8447C19.6821 19.9267 19.5173 20.002 19.395 20.0679C19.2454 20.1499 19.1273 20.2265 19.0311 20.3031L19.0188 20.3139L19.0133 20.3273C18.968 20.4308 18.9446 20.5344 18.9419 20.6271C18.9405 20.7199 18.9419 20.7965 18.9501 20.8638C18.9625 20.9458 18.9817 21.0224 19.0105 21.091L19.016 21.1017C19.0929 21.2174 19.2028 21.298 19.3401 21.3424C19.4651 21.3814 19.6038 21.4015 19.7521 21.4015H19.7727C19.9265 21.4002 20.0817 21.3814 20.2341 21.3464C20.3508 21.3209 20.4593 21.2913 20.5568 21.2644V21.3262H21.0292V19.4252C21.0114 19.319 20.977 19.2289 20.9276 19.1523V19.1537H20.9289Z" fill="white"/>
<path fill-rule="evenodd" clip-rule="evenodd" d="M23.6725 18.874C23.6217 18.8942 23.5736 18.9035 23.5228 18.9035H23.4624V20.658C23.4047 20.6849 23.3278 20.7239 23.2303 20.7777C23.1218 20.8355 23.0092 20.8866 22.8911 20.931C22.773 20.974 22.659 21.0022 22.5533 21.0143C22.5354 21.0143 22.519 21.0157 22.5025 21.0157C22.4311 21.0157 22.372 20.9968 22.3281 20.9605C22.3281 20.9605 22.3157 20.9471 22.3075 20.8839C22.2993 20.8328 22.2924 20.7696 22.2842 20.6957C22.2787 20.6244 22.2759 20.5478 22.2718 20.4671C22.2704 20.3851 22.2677 20.3085 22.2677 20.2399V18.9009H21.8008V20.8409C21.8035 20.9471 21.8268 21.0372 21.8653 21.1125C21.8996 21.1783 21.9518 21.2402 22.0205 21.2939C22.0795 21.3397 22.1619 21.3638 22.2608 21.3638C22.2828 21.3638 22.3075 21.3638 22.3267 21.3598C22.3528 21.3598 22.3899 21.3531 22.4407 21.341C22.486 21.3289 22.5327 21.3168 22.5821 21.3034C22.6302 21.2913 22.6742 21.2778 22.7112 21.2657C22.751 21.2536 22.7703 21.2469 22.7813 21.2402C22.7936 21.2348 22.8128 21.2281 22.8403 21.216L23.1452 21.0936C23.2413 21.0546 23.3319 21.0197 23.4157 20.9874C23.4335 20.9807 23.4487 20.9753 23.4624 20.9699V21.3249H23.9293V18.6548L23.8235 18.7651C23.77 18.8188 23.7219 18.8551 23.6725 18.874Z" fill="white"/>
<path fill-rule="evenodd" clip-rule="evenodd" d="M25.3599 17.0078L25.2501 17.1463C25.2158 17.1906 25.1704 17.2216 25.11 17.2417C25.0496 17.2619 24.9933 17.274 24.9425 17.274H24.882V18.7072H24.3438V19.0567H24.882V19.8311C24.882 20.1417 24.9081 20.3971 24.9603 20.5921C25.0125 20.787 25.0729 20.9416 25.1416 21.0545C25.2185 21.189 25.3119 21.2912 25.4203 21.357L25.4313 21.3624C25.4945 21.3866 25.5206 21.3893 25.5357 21.3893C25.5467 21.3893 25.5563 21.3893 25.5659 21.3839L25.5989 21.3691L25.6099 21.3436C25.6181 21.3234 25.6167 21.2992 25.6044 21.2737L25.5439 21.193C25.5178 21.1661 25.4945 21.1272 25.478 21.0774C25.4574 21.025 25.4409 20.9618 25.4286 20.8946C25.4149 20.8233 25.4039 20.748 25.3956 20.666C25.3847 20.588 25.3805 20.5074 25.375 20.4267C25.3613 20.2452 25.3558 20.0462 25.3641 19.8311V19.0567H25.9024V18.7072H25.3641V17.0078H25.3599Z" fill="white"/>
<path fill-rule="evenodd" clip-rule="evenodd" d="M27.3358 20.6863L27.0707 20.0665C26.9842 19.8595 26.9087 19.6901 26.8483 19.5543C26.7878 19.4212 26.7425 19.315 26.7082 19.2384C26.6752 19.1604 26.6491 19.1012 26.6299 19.0609C26.612 19.0233 26.6024 18.999 26.5983 18.9869C26.5942 18.9762 26.5942 18.9722 26.5942 18.9722V18.7799L26.483 18.9399C26.45 18.9883 26.4225 19.0273 26.4033 19.0555C26.3882 19.0797 26.3717 19.0959 26.3594 19.108C26.347 19.12 26.3319 19.1281 26.3182 19.1348C26.2976 19.1429 26.2687 19.155 26.233 19.1711L26.174 19.1953L27.1009 21.2725C27.0748 21.3746 27.0405 21.4889 26.9952 21.6153C26.9485 21.743 26.8798 21.8748 26.7933 22.0025C26.7082 22.1289 26.5983 22.2512 26.4692 22.3628C26.3415 22.4744 26.1836 22.5658 26.0009 22.6371L25.9859 22.6425L25.9749 22.6559C25.9625 22.6707 25.9501 22.6868 25.9433 22.6989C25.9172 22.7379 25.9254 22.7688 25.935 22.7823C25.9501 22.8118 25.9804 22.8253 26.0243 22.8253H26.0353C26.2797 22.7863 26.4939 22.707 26.6697 22.5914C26.8455 22.4771 26.9938 22.3427 27.1147 22.1921C27.2328 22.0442 27.3289 21.8828 27.4017 21.7188C27.4731 21.5562 27.5294 21.4069 27.5651 21.2806L28.5552 18.9076H28.1212L27.344 20.6836L27.3358 20.6863Z" fill="white"/>
<path fill-rule="evenodd" clip-rule="evenodd" d="M31.6525 20.0113L31.6251 20.0032C31.533 19.9763 31.426 19.9467 31.3147 19.9199C31.2158 19.893 31.095 19.8621 30.9536 19.8258C30.819 19.7935 30.6679 19.7558 30.499 19.7182C30.4798 19.6846 30.466 19.6443 30.4551 19.6053C30.4441 19.5609 30.44 19.5058 30.44 19.4426C30.44 19.3861 30.4537 19.3176 30.4798 19.2409C30.51 19.2019 30.5567 19.167 30.6267 19.1401C30.6954 19.1132 30.7874 19.0944 30.9055 19.0823C31.0277 19.0715 31.1884 19.0823 31.3889 19.1092C31.4424 19.1172 31.4905 19.1226 31.5317 19.1226C31.5454 19.1226 31.5578 19.1226 31.5646 19.1226C31.6168 19.1226 31.6566 19.1119 31.6855 19.0917C31.7061 19.0783 31.7198 19.0554 31.7226 19.0325C31.7253 18.9882 31.6924 18.9559 31.6635 18.9304L31.6525 18.9196L31.6416 18.9156C31.4136 18.8403 31.1952 18.7932 30.992 18.7744C30.9055 18.7664 30.8162 18.7637 30.727 18.769C30.6308 18.7744 30.5443 18.7879 30.4592 18.8134C30.3727 18.839 30.2916 18.8779 30.2216 18.9277C30.1461 18.9788 30.0857 19.05 30.0349 19.1441C30.0074 19.2221 29.9909 19.3109 29.9854 19.409C29.9813 19.4896 29.9896 19.5797 30.006 19.6792C30.0252 19.7828 30.0692 19.8903 30.1379 19.9978L30.1488 20.0153L30.1694 20.0221C30.2655 20.0557 30.3741 20.092 30.4935 20.1296C30.5924 20.1592 30.7132 20.1941 30.8492 20.2304C30.9783 20.2667 31.1225 20.3003 31.2763 20.334C31.3024 20.373 31.323 20.4186 31.3394 20.4724C31.3573 20.5235 31.3669 20.5854 31.371 20.6566C31.3751 20.7252 31.3628 20.7978 31.338 20.8771C31.2982 20.9578 31.2392 21.0142 31.1554 21.0506C31.0854 21.0828 30.9851 21.0949 30.8588 21.0882C30.7297 21.0814 30.5594 21.025 30.3493 20.9215C30.3315 20.9134 30.315 20.9027 30.2903 20.8838C30.2752 20.8758 30.2587 20.8637 30.2436 20.8502C30.2257 20.8354 30.212 20.8193 30.1983 20.8045L30.19 20.7965C30.1653 20.7776 30.1433 20.7722 30.1255 20.7722C30.0884 20.7722 30.0555 20.7924 30.028 20.8341C29.9978 20.8744 29.9827 20.9443 30.0623 21.0425L30.0678 21.0492C30.1832 21.15 30.3136 21.2334 30.4551 21.2952C30.5141 21.3221 30.5828 21.345 30.6569 21.3651C30.7297 21.3839 30.8107 21.3974 30.8945 21.3987C30.9151 21.3987 30.9343 21.3987 30.9549 21.3987C31.0195 21.3987 31.0854 21.3947 31.1513 21.3853C31.2433 21.3732 31.3408 21.3477 31.441 21.3087L31.4493 21.3033C31.566 21.2347 31.6566 21.1393 31.7171 21.0223C31.7706 20.9215 31.8008 20.7897 31.8063 20.6297C31.8118 20.4711 31.7624 20.2694 31.6621 20.0355L31.6498 20.0086L31.6525 20.0113Z" fill="white"/>
<path fill-rule="evenodd" clip-rule="evenodd" d="M33.6264 19.1711C33.7623 19.1966 33.8942 19.2558 34.0135 19.3472C34.045 19.4292 34.0671 19.5193 34.085 19.6147C34.1042 19.7021 34.1152 19.8043 34.1178 19.9186C34.1221 20.0288 34.1097 20.1458 34.0808 20.2668C34.0701 20.2775 34.0369 20.3044 33.9368 20.3622C33.85 20.4106 33.7116 20.4765 33.526 20.5585C33.3531 20.6352 33.1196 20.7292 32.8093 20.8462V19.2087C32.9438 19.1724 33.077 19.1509 33.2089 19.1402C33.338 19.1334 33.4753 19.1442 33.6235 19.1711H33.6264ZM34.5026 19.2356C34.4724 19.1469 34.4298 19.0783 34.3733 19.0326C34.2813 18.9627 34.1799 18.9062 34.074 18.8672C33.9696 18.8296 33.8598 18.8014 33.7499 18.7839C33.6388 18.7664 33.5276 18.757 33.4217 18.7543C33.3133 18.753 33.2075 18.7583 33.1045 18.7678C32.8697 18.7893 32.6266 18.8417 32.3877 18.9156L32.3438 18.9291V22.8414H32.8106V21.2415C33.191 21.1218 33.4918 21.0183 33.7087 20.9269C33.9407 20.8314 34.1097 20.7535 34.2225 20.6876C34.357 20.6109 34.4435 20.5424 34.49 20.4792C34.515 20.455 34.5299 20.4147 34.5436 20.3407C34.5559 20.2762 34.5644 20.1996 34.5738 20.1122C34.5823 20.0234 34.5862 19.924 34.5862 19.8191C34.5862 19.7142 34.5793 19.608 34.5657 19.5085C34.552 19.4063 34.5312 19.3163 34.5026 19.2343V19.2356Z" fill="white"/>
<path fill-rule="evenodd" clip-rule="evenodd" d="M36.5589 19.9832V20.9538C36.4107 20.9982 36.2664 21.0291 36.1306 21.0506C36.051 21.0627 35.9645 21.0681 35.8833 21.0681C35.8423 21.0681 35.7997 21.0681 35.7585 21.0627C35.6444 21.0547 35.5592 21.0197 35.5056 20.9605C35.4754 20.9202 35.4523 20.8786 35.4328 20.8275C35.4179 20.7885 35.4068 20.7428 35.4026 20.689C35.3987 20.6446 35.4081 20.5949 35.4302 20.5424C35.5085 20.4873 35.6073 20.4282 35.7253 20.365C35.8244 20.3099 35.9505 20.2493 36.1085 20.1741C36.2391 20.1109 36.3916 20.0477 36.5619 19.9818L36.5589 19.9832ZM37.0315 21.3276V19.4266C37.0136 19.3204 36.9792 19.2289 36.9298 19.1537C36.8791 19.077 36.8157 19.0152 36.7429 18.9654C36.6717 18.917 36.5921 18.8807 36.5053 18.8525C36.4218 18.8283 36.3366 18.8095 36.257 18.7974C36.062 18.7718 35.8436 18.7745 35.6018 18.8095C35.5566 18.8175 35.5154 18.8296 35.4783 18.8431C35.4068 18.87 35.3919 18.9143 35.3919 18.9452V18.9843L35.4302 18.999C35.4575 19.0111 35.4864 19.0165 35.5141 19.0165C35.5248 19.0165 35.5332 19.0165 35.5345 19.0165C35.555 19.0165 35.5758 19.0125 35.5976 19.0044C35.7214 18.991 35.8313 18.991 35.9232 19.0044C36.0194 19.0179 36.103 19.0407 36.1719 19.0676C36.2417 19.0945 36.2967 19.1294 36.3422 19.1684C36.3886 19.2114 36.4273 19.2518 36.4533 19.2948C36.5121 19.3889 36.5479 19.4965 36.5563 19.6161C36.2924 19.6914 36.0646 19.7667 35.8777 19.8433C35.6788 19.9253 35.5167 20.0006 35.3945 20.0665C35.2433 20.1485 35.1241 20.2252 35.0305 20.3018L35.0181 20.3125L35.0126 20.326C34.9674 20.4282 34.944 20.5303 34.9414 20.6258C34.9414 20.7105 34.9414 20.7911 34.9495 20.8624C34.9619 20.9458 34.9824 21.0211 35.01 21.091L35.0155 21.099C35.0909 21.2146 35.2008 21.2953 35.3395 21.3397C35.4647 21.3787 35.6031 21.3988 35.7516 21.3988H35.7721C35.9232 21.3975 36.0812 21.3787 36.2336 21.3437C36.3503 21.3182 36.4588 21.2886 36.5563 21.2617V21.3236H37.0315V21.3276Z" fill="white"/>
<path fill-rule="evenodd" clip-rule="evenodd" d="M32.834 24.1118C32.7681 24.0943 32.6596 24.0903 32.5635 24.1118C32.4234 24.1494 32.1103 24.1992 31.8439 24.2234C31.8508 24.1172 31.8549 24.0015 31.8508 23.8994C32.3383 23.7233 32.3932 23.7138 32.4317 23.7071C32.5525 23.6856 32.5525 23.6453 32.3204 23.566C32.1776 23.5162 32.1378 23.5337 32.1241 23.5996C32.1117 23.6641 32.0609 23.7192 31.8343 23.8429C31.5775 23.769 31.5445 23.8053 31.6338 23.8927C31.6681 23.9249 31.6942 24.3632 31.6187 24.6267C31.561 24.8297 31.4168 25.0045 31.1903 25.1846C31.1326 25.229 31.1518 25.2505 31.2177 25.2223C31.6008 25.0341 31.8109 24.7652 31.8398 24.2839C31.9057 24.2906 31.995 24.2906 32.1694 24.2785C32.1803 24.3619 32.1968 24.5501 32.1913 24.6039C32.179 24.9225 32.1831 25.5477 32.1982 25.5933C32.2202 25.6807 32.2559 25.6834 32.2902 25.6122C32.3561 25.4804 32.3822 25.2841 32.3726 24.2597C32.4962 24.2489 32.6583 24.2355 32.8601 24.2167C32.9755 24.2059 32.9809 24.1481 32.8327 24.1078L32.834 24.1118ZM31.1367 24.3148C31.1298 24.3982 31.1216 24.4654 31.1024 24.5259C31.0873 24.581 31.0749 24.585 30.7 24.6402C30.7316 24.5393 30.7439 24.4304 30.7508 24.3148C30.7961 24.3148 30.8401 24.3081 30.9321 24.2933C31.1216 24.2556 31.1408 24.261 31.1367 24.3148ZM31.2685 24.5272C31.2411 24.5151 31.2342 24.4936 31.2658 24.4331C31.3166 24.3377 31.3674 24.2678 31.3962 24.2503C31.4567 24.2072 31.4567 24.1817 31.3578 24.1494C31.2026 24.0943 31.1875 24.093 31.1106 24.1373C31.009 24.1938 30.8758 24.2315 30.7494 24.2408C30.7536 24.1346 30.7494 24.0204 30.7467 23.9168C31.2534 23.7448 31.3111 23.7286 31.3495 23.7246C31.4457 23.7125 31.4608 23.6534 31.2795 23.5687C31.1326 23.4974 31.1092 23.5176 31.0983 23.5928C31.0914 23.6493 31.0474 23.6923 30.7343 23.8644C30.4446 23.7757 30.4061 23.7999 30.5064 23.9088C30.5792 23.9854 30.6149 24.3444 30.5476 24.6428C30.494 24.8916 30.3622 25.1295 30.2194 25.2626C30.1658 25.3178 30.1878 25.3366 30.2468 25.3056C30.4432 25.2048 30.5984 24.9924 30.6767 24.7101C30.873 24.7087 31.0955 24.6778 31.2795 24.628C31.3482 24.6106 31.3578 24.5716 31.2685 24.5272ZM29.0686 24.5541C28.9134 24.5084 28.8722 24.5084 28.6086 24.5555C28.3614 24.6052 27.5416 24.6886 27.4441 24.6872C27.3328 24.6859 27.3273 24.7141 27.4248 24.7464C27.5045 24.7733 27.602 24.7854 27.6981 24.7706C27.7681 24.7598 27.8917 24.7464 28.0345 24.7316C28.0455 24.7612 28.0345 24.7974 28.003 24.8418C27.9261 24.948 27.705 25.1416 27.6349 25.1605C27.4386 25.2048 27.4344 25.2169 27.4921 25.346C27.5306 25.4294 27.5525 25.4294 27.6789 25.3675C27.8066 25.3056 28.1733 25.2223 28.6882 25.1605C28.761 25.2478 28.831 25.3258 28.9011 25.4025C28.9546 25.4616 29.0288 25.4468 29.0411 25.3917C29.0755 25.2331 29.0095 25.1026 28.5756 24.9104C28.4863 24.8728 28.4644 24.8889 28.5152 24.948C28.5619 25.0045 28.6072 25.0623 28.6456 25.1107C28.1691 25.1484 27.9577 25.1672 27.7475 25.1887C27.8972 25.0852 28.1691 24.8969 28.2309 24.8781C28.3284 24.8459 28.3106 24.7907 28.1005 24.7222C28.3833 24.6926 28.7267 24.663 28.9189 24.6576C29.2169 24.6469 29.173 24.5837 29.07 24.5514L29.0686 24.5541ZM29.8005 24.3766C29.2705 24.2489 29.1249 24.1938 28.3284 23.5713C28.3545 23.5391 28.3792 23.5162 28.3916 23.5122C28.496 23.4799 28.4712 23.4181 28.3339 23.367C28.1842 23.3078 28.1444 23.3226 28.1595 23.4046C28.1705 23.4503 28.1128 23.5902 28.0085 23.7259C27.7956 24.0029 27.4083 24.3726 26.9607 24.5837C26.8906 24.6133 26.914 24.6455 26.9827 24.6267C27.5539 24.4613 28.062 23.9652 28.2955 23.6251C28.4918 23.8295 29.0027 24.2919 29.1043 24.3713C29.2444 24.4748 29.2718 24.4775 29.8047 24.4452C29.9406 24.4385 29.9324 24.4116 29.7978 24.3794H29.8005V24.3766ZM28.268 24.3592C28.3696 24.3471 28.5893 24.304 28.6264 24.2933C28.7184 24.2637 28.7225 24.2261 28.6264 24.1992C28.5564 24.179 28.452 24.179 28.2199 24.2382C28.1073 24.2678 27.9 24.3027 27.8423 24.3027C27.7572 24.3027 27.7379 24.3242 27.8231 24.3592C27.8903 24.3834 28.0552 24.3834 28.268 24.3592ZM26.0914 24.0392C26.0186 24.0163 25.987 24.0244 25.9294 24.0513C25.895 24.0715 25.6438 24.1172 25.4721 24.1454C25.2716 24.175 25.1617 24.1844 25.0381 24.1831C24.9722 24.179 24.9558 24.2126 25.0574 24.2664C25.1178 24.2987 25.1466 24.3054 25.2702 24.2731C25.4378 24.2301 25.7193 24.1736 25.8635 24.1508C25.9486 24.136 25.9596 24.1441 25.917 24.2153C25.8758 24.2866 25.8085 24.382 25.711 24.4694C25.5215 24.3632 25.4474 24.4009 25.5105 24.4587C25.5641 24.5084 25.5929 24.5581 25.619 24.6213C25.6575 24.7101 25.6822 24.8875 25.6643 25.0193C25.6259 25.2613 25.5668 25.307 25.3197 25.2774C25.2277 25.2653 25.2345 25.2895 25.2812 25.3218C25.3636 25.3729 25.4405 25.4441 25.4844 25.506C25.5188 25.5557 25.5764 25.5503 25.6314 25.5006C25.7797 25.3675 25.8278 25.2478 25.8278 25.0354C25.8278 24.8351 25.8154 24.7316 25.7824 24.6321C25.7701 24.5944 25.755 24.5501 25.7358 24.5097C26.0791 24.2825 26.1038 24.2678 26.1958 24.2301C26.2782 24.1965 26.2878 24.1804 26.2562 24.1373C26.2301 24.1037 26.1422 24.054 26.0942 24.0378L26.0914 24.0392ZM25.5078 23.6023C25.6039 23.6291 25.6781 23.5875 25.6355 23.5028C25.6012 23.4315 25.5147 23.3764 25.3032 23.3939C25.2016 23.4006 25.1919 23.4261 25.2263 23.453C25.2826 23.4974 25.4117 23.574 25.5078 23.6023ZM26.1353 23.7474C26.2521 23.7233 26.2521 23.6789 26.1436 23.6587C26.0639 23.6439 25.9596 23.6534 25.8731 23.6735C25.3663 23.7891 25.1274 23.8335 24.8775 23.8335C24.7072 23.769 24.6646 23.7851 24.7154 23.8725C24.7539 23.9411 24.7278 24.222 24.6742 24.4479C24.2842 24.5931 24.0783 24.659 23.989 24.6509C23.9038 24.6402 23.8462 24.6778 24.0041 24.7773C24.0892 24.8324 24.1345 24.8365 24.1977 24.7827C24.2801 24.7168 24.4229 24.6321 24.6619 24.5057C24.5918 24.7759 24.4078 25.1255 24.1744 25.307C24.0508 25.4078 24.0783 25.4334 24.1895 25.3715C24.4875 25.2062 24.6495 24.9911 24.78 24.6697C24.8624 24.4654 24.92 24.0526 24.9008 23.8792C25.1329 23.9182 25.4625 23.8913 26.1353 23.7461V23.7474ZM24.2938 24.2395C24.3762 24.3162 24.4408 24.2947 24.46 24.1656C24.4669 24.1158 24.3872 24.0244 24.2128 23.9774C24.1469 23.9599 24.1167 23.9652 24.1428 24.0204C24.1867 24.1131 24.2348 24.1831 24.2938 24.2408V24.2395ZM23.4685 24.8633C22.992 24.7813 22.6858 24.6859 22.2312 24.3C22.6981 24.0137 22.8574 23.9316 22.9426 23.8967C23.025 23.8644 23.0085 23.8281 22.8725 23.7528C22.7036 23.6695 22.6528 23.6883 22.6638 23.7474C22.672 23.7985 22.5677 23.98 22.1804 24.2543C22.1392 24.222 22.1008 24.1871 22.0637 24.1535C22.0706 23.7945 22.0898 23.6453 22.1296 23.6023C22.19 23.5404 22.1708 23.5095 21.9937 23.4315C21.8124 23.3535 21.7369 23.3925 21.8467 23.5095C21.8975 23.566 21.9195 23.6722 21.9195 24.2126C21.9195 24.4452 21.8948 24.9373 21.8852 25.0045C21.8632 25.1631 21.844 25.1699 21.5899 25.1228C21.524 25.1107 21.513 25.1349 21.5583 25.1605C21.6353 25.2048 21.7794 25.3433 21.8371 25.4078C21.8838 25.4643 21.9291 25.4643 21.9689 25.4105C22.0774 25.2653 22.0925 25.1941 22.0802 24.9588C22.0651 24.7101 22.0609 24.4506 22.0609 24.2556C22.2546 24.4439 22.5059 24.6805 22.7078 24.8647C22.8478 24.987 22.867 24.9924 23.4575 24.9292C23.5798 24.9184 23.5756 24.8795 23.4685 24.8633ZM21.7492 24.1938C21.7877 24.1642 21.7877 24.1346 21.6861 24.0795C21.5941 24.0284 21.5542 24.0231 21.4828 24.0674C21.3977 24.1225 21.0104 24.1817 20.9019 24.1709C20.8443 24.1656 20.8319 24.2046 20.8827 24.2301C21.0063 24.2919 21.0448 24.296 21.1615 24.2624C21.2247 24.2449 21.3771 24.2126 21.4526 24.2005C21.513 24.1898 21.513 24.1938 21.4842 24.2516C21.443 24.3457 21.3524 24.5165 21.2974 24.5944C21.1807 24.7544 20.9871 24.9427 20.7591 25.0744C20.6863 25.1174 20.733 25.1255 20.8099 25.1013C21.0159 25.0327 21.259 24.8862 21.4293 24.6711C21.5144 24.5676 21.5886 24.4466 21.6325 24.3605C21.6902 24.2489 21.7025 24.2288 21.7492 24.1938ZM18.9506 24.7397C18.9437 24.7773 18.9231 24.8459 18.9094 24.8728C18.897 24.8996 18.8489 24.9171 18.8009 24.9238C18.7116 24.9386 18.5853 24.9534 18.4837 24.9628C18.4837 24.8862 18.4713 24.7921 18.4452 24.6886C18.5949 24.6738 18.7281 24.6643 18.8228 24.6563C18.9437 24.6496 18.9629 24.6671 18.9506 24.7383V24.7397ZM19.1099 24.5541C19.0302 24.5205 18.9739 24.5165 18.8902 24.5662C18.8558 24.5864 18.5922 24.616 18.3917 24.628C18.2324 24.5891 18.2145 24.6213 18.2516 24.6671C18.2983 24.7262 18.3505 24.8821 18.3601 25.0085C18.3669 25.0798 18.4054 25.1121 18.4328 25.1121C18.4603 25.1121 18.4782 25.0919 18.4837 25.0381C18.6306 25.0233 18.9025 25.0045 19.0481 24.9991C19.1332 24.9978 19.1524 24.9668 19.1058 24.9212C19.0714 24.8889 19.0742 24.8553 19.1126 24.7948C19.1318 24.7652 19.1662 24.7356 19.2142 24.7114C19.287 24.6738 19.287 24.6348 19.1099 24.5568V24.5541ZM19.0275 24.0177C19.1387 23.9854 19.2747 23.9303 19.4559 23.851C19.4944 23.8335 19.5575 23.8066 19.6042 23.7945C19.7017 23.7676 19.7017 23.7327 19.5218 23.6359C19.4175 23.5794 19.3818 23.5969 19.3598 23.6735C19.3447 23.7327 19.1936 23.8725 19.0041 23.9733C18.9437 24.0029 18.9629 24.0352 19.0275 24.0177ZM19.8775 24.2355C19.7223 24.1669 19.6839 24.1669 19.5644 24.1978C19.5369 24.2046 19.4175 24.2193 19.3103 24.2274C19.2142 24.2328 19.0371 24.2489 18.8064 24.2718C18.8325 23.8967 18.8599 23.613 18.8764 23.5807C18.9272 23.4799 18.9039 23.4477 18.7171 23.4046C18.5509 23.367 18.5166 23.4033 18.6045 23.5108C18.6636 23.5848 18.6773 23.8201 18.6553 24.2852C18.4301 24.3067 18.1678 24.3363 17.8849 24.3632C17.6844 24.2799 17.6528 24.304 17.7339 24.4183C17.8039 24.5192 17.8039 24.9104 17.7751 25.0408C17.7531 25.1403 17.7531 25.1672 17.7668 25.2008C17.8204 25.3393 17.9138 25.3419 17.9412 25.2223C17.9632 25.1282 17.9632 25.0744 17.9605 24.9642C17.9536 24.7921 17.9453 24.6012 17.9289 24.4358C18.5482 24.3646 19.0549 24.3242 19.401 24.3148C19.6482 24.304 19.6866 24.3269 19.7031 24.4977C19.7155 24.6348 19.71 24.819 19.6756 25.0059C19.6413 25.1968 19.574 25.2156 19.3461 25.1497C19.2293 25.1161 19.2225 25.1443 19.3186 25.2089C19.3529 25.2331 19.4422 25.3366 19.4958 25.4132C19.5466 25.4871 19.5658 25.4845 19.6811 25.4132C19.7855 25.3433 19.8899 25.1699 19.8967 25.0031C19.9118 24.6428 19.9311 24.4654 19.9627 24.4331C20.0478 24.3336 20.0519 24.3014 19.8858 24.2301L19.8775 24.2355ZM18.2131 24.0943C18.2763 24.1562 18.334 24.1454 18.3724 24.0728C18.4109 23.9854 18.3601 23.8953 18.1211 23.8187C18.0442 23.7918 17.9975 23.7945 18.0511 23.8779C18.1143 23.9827 18.1486 24.0325 18.2131 24.0943ZM15.9198 24.624C15.913 24.5299 15.8347 24.4708 15.663 24.4264C15.5614 24.3995 15.5614 24.421 15.6053 24.4856C15.6713 24.585 15.7262 24.663 15.7647 24.702C15.8278 24.7692 15.9308 24.7464 15.9198 24.624ZM17.0184 24.0553C16.9168 24.0096 16.8248 24.0056 16.6888 24.0338C16.6353 24.0459 16.5378 24.0661 16.4183 24.0836C16.4156 23.8496 16.4375 23.7071 16.4719 23.6466C16.5227 23.5471 16.5062 23.5256 16.3442 23.4692C16.1505 23.4006 16.1189 23.4315 16.2013 23.5337C16.2467 23.5928 16.2714 23.7112 16.2783 24.1037C15.9995 24.1427 15.6781 24.1817 15.5669 24.1871C15.4158 24.1925 15.3829 24.214 15.5284 24.2543C15.5985 24.2745 15.6685 24.2839 15.7825 24.2597C15.891 24.2382 16.0805 24.2153 16.281 24.1952C16.2892 24.421 16.2878 24.8795 16.2549 25.1578C16.2467 25.2411 16.2329 25.268 15.9294 25.2008C15.8443 25.1806 15.8333 25.1887 15.8883 25.2304C15.9858 25.3083 16.1011 25.4132 16.178 25.4912C16.2316 25.5503 16.2631 25.553 16.3139 25.4979C16.4224 25.3836 16.4691 25.272 16.4609 25.1228C16.4458 24.9077 16.4224 24.3766 16.4197 24.1831C16.6092 24.1709 16.7808 24.1629 16.8646 24.1709C17.1544 24.1952 17.1214 24.1064 17.0198 24.0567V24.0553H17.0184ZM15.1783 24.9359C15.0822 24.8768 15.0574 24.8741 14.7567 24.9023C14.7608 24.819 14.7636 24.6187 14.7608 24.4156C14.8405 24.4331 14.9352 24.4277 15.0712 24.3968C15.1563 24.3766 15.1439 24.3377 15.078 24.3229C15.0203 24.3081 14.9819 24.3054 14.7608 24.3659C14.7608 24.1736 14.7567 23.9841 14.7539 23.8953C14.8391 23.8953 14.8775 23.894 15.0108 23.8684C15.1769 23.8389 15.2044 23.8537 15.2112 23.9626C15.2263 24.2113 15.2236 24.7948 15.1797 24.94V24.9359H15.1783ZM15.3898 23.7932C15.2497 23.7286 15.2044 23.7273 15.1384 23.7555C14.9915 23.8241 14.8624 23.8443 14.7293 23.8321C14.5288 23.7663 14.5206 23.8106 14.5782 23.8806C14.5934 23.8994 14.6236 24.0244 14.6249 24.0876C14.6373 24.2704 14.64 24.7988 14.6029 24.8875C14.5714 24.9588 14.5714 25.0018 14.6112 25.0986C14.6428 25.1725 14.7087 25.1578 14.743 24.9843C15.0753 24.9521 15.1069 24.9548 15.1453 25.0233C15.1453 25.0448 15.1522 25.0717 15.1728 25.1107C15.2181 25.2116 15.2552 25.225 15.3046 25.1322C15.3554 25.0422 15.365 24.9561 15.3554 24.7222C15.3362 24.2288 15.3582 23.9559 15.4131 23.9168C15.4914 23.8577 15.4763 23.8348 15.3856 23.7905L15.3898 23.7932ZM11.4074 24.3309C11.5036 24.3807 11.5544 24.3417 11.5393 24.2543C11.5269 24.1656 11.4349 24.1158 11.2605 24.1091C11.1781 24.1078 11.1561 24.1158 11.2097 24.1736C11.2893 24.261 11.3607 24.3067 11.4061 24.3323V24.3309H11.4074ZM12.208 23.7985C12.0584 23.7609 12.0336 23.8093 12.0844 23.8577C12.1737 23.9343 12.2053 24.1629 12.1819 24.4412C12.16 24.7127 12.0858 25.0314 11.7562 25.264C11.6986 25.307 11.7343 25.3325 11.7837 25.3097C11.9512 25.2425 12.1586 25.0811 12.2506 24.8351C12.2973 24.7087 12.3275 24.4775 12.3426 24.0701C12.3467 24.0083 12.3509 23.9424 12.3577 23.9155C12.3701 23.8604 12.3536 23.8416 12.2067 23.7999V23.7985H12.208ZM13.3437 23.4517C13.1968 23.4087 13.1611 23.4517 13.2229 23.5162C13.2998 23.5902 13.319 23.6601 13.3341 23.9962C13.3588 24.5649 13.3533 25.0946 13.308 25.2183C13.264 25.3325 13.2737 25.3621 13.3396 25.51C13.3808 25.6095 13.4289 25.5934 13.4673 25.5248C13.5277 25.4186 13.5181 25.1147 13.5057 24.9427C13.4975 24.8365 13.4838 24.5608 13.4838 23.972C13.4838 23.7461 13.492 23.7125 13.5181 23.6171C13.5401 23.5337 13.525 23.5108 13.3437 23.4544V23.4517ZM11.851 23.7932C11.8249 23.6923 11.7425 23.648 11.553 23.6278C11.4829 23.6211 11.4637 23.6291 11.5077 23.687C11.5777 23.7797 11.6395 23.8496 11.7205 23.8859C11.8015 23.929 11.8702 23.8698 11.851 23.7932ZM11.7851 24.5985C11.7919 24.6724 11.862 24.702 11.9251 24.628C11.9952 24.546 12.0419 24.3861 11.9897 24.304C11.9512 24.2422 11.91 24.2543 11.8977 24.3148C11.8784 24.3928 11.8469 24.4587 11.818 24.4963C11.7878 24.534 11.7809 24.5555 11.7851 24.5985ZM12.4689 24.2718C12.425 24.2597 12.392 24.2772 12.4181 24.3202C12.4525 24.3794 12.495 24.4264 12.5307 24.4734C12.5719 24.5245 12.6543 24.503 12.6612 24.4398C12.6681 24.3726 12.6076 24.3027 12.4676 24.2745V24.2718H12.4689ZM12.9867 24.1992C12.9359 24.1938 12.9139 24.2167 12.9331 24.2422C12.9784 24.2987 13.0732 24.3699 13.1185 24.3928C13.1762 24.4224 13.2297 24.3995 13.2311 24.3592C13.2379 24.2691 13.1295 24.2126 12.9867 24.1992ZM11.5859 24.5985C11.5283 24.6872 11.4747 24.7638 11.4349 24.8378C11.3814 24.9279 11.3456 24.9709 11.2948 25.0031C11.2632 25.0233 11.2605 25.0408 11.3223 25.151C11.4431 25.35 11.5228 25.3272 11.5118 25.1685C11.5049 25.0731 11.5969 24.7329 11.6395 24.6106C11.6752 24.5044 11.6491 24.499 11.5859 24.5985ZM12.7971 23.7582C12.6955 23.7259 12.6502 23.7461 12.6887 23.7959C12.7464 23.8671 12.7711 23.9774 12.7779 24.1212C12.7903 24.4049 12.7711 24.6334 12.7312 24.7679C12.6969 24.8902 12.6996 24.9279 12.7546 25.0099C12.7862 25.061 12.8246 25.0663 12.8397 25.0327C12.874 24.9615 12.8933 24.8553 12.8933 24.7141C12.8933 24.6307 12.9015 24.378 12.9084 24.1562C12.9125 24.0177 12.9166 23.9491 12.9304 23.8967C12.9454 23.8281 12.9221 23.7972 12.7985 23.7582H12.7971ZM9.98889 24.1293C10.0012 24.1978 9.94355 24.3283 9.61397 24.6643C9.57279 24.7074 9.59476 24.7316 9.65242 24.698C9.82272 24.6039 9.9573 24.503 10.1015 24.3847C10.1839 24.3202 10.2374 24.2839 10.2869 24.2637C10.3528 24.2368 10.3528 24.1898 10.1853 24.1158C10.0356 24.0486 9.97927 24.0728 9.98889 24.1279V24.1293ZM8.57033 24.6697C8.64722 24.7141 8.70078 24.7074 8.72548 24.6106C8.75707 24.4882 8.62938 24.3619 8.35472 24.2973C8.30802 24.2852 8.28192 24.304 8.30939 24.3484C8.42613 24.5192 8.51813 24.6402 8.56893 24.6697H8.57033ZM9.37639 25.0381C9.30363 25.0435 9.19927 25.0489 9.0784 25.0556C9.07154 24.2046 9.08529 24.0499 9.10313 24.0096C9.12923 23.9531 9.11548 23.9088 8.99052 23.855C9.11412 23.8402 9.25007 23.8281 9.38601 23.812C9.41624 23.9209 9.41897 24.2167 9.37639 25.0381ZM10.5286 25.0663C10.3789 24.9884 10.2704 24.9722 9.92844 25.0045C9.85154 25.0112 9.71287 25.022 9.5412 25.0314C9.59889 24.2207 9.61946 24.0096 9.6387 23.9599C9.6648 23.898 9.65105 23.8819 9.48901 23.8039C9.65518 23.7891 9.82545 23.7744 9.98749 23.7609C10.2347 23.7407 10.2347 23.7058 10.1303 23.6547C10.0218 23.6036 9.92434 23.605 9.61673 23.656C9.34071 23.7018 8.86143 23.7569 8.50991 23.7717C8.42063 23.7744 8.41241 23.7985 8.48791 23.8362C8.57033 23.8698 8.67469 23.8792 8.86556 23.8631C8.89302 23.9814 8.9109 24.2395 8.9109 25.0677C8.75295 25.0784 8.58681 25.0865 8.46594 25.0973C8.3259 25.108 8.17207 25.1094 8.04438 25.108C7.94688 25.1067 7.95923 25.147 8.05124 25.1968C8.1556 25.2532 8.20639 25.2586 8.37257 25.2304C8.54287 25.2035 9.03446 25.1524 9.18416 25.147C9.86253 25.1242 10.1042 25.147 10.4654 25.2021C10.6315 25.2263 10.6906 25.147 10.5299 25.0637H10.5286V25.0663Z" fill="white"/>
<path d="M15.6816 28.9612V28.7367H16.4616V28.9612H15.6816ZM15.6816 27.6719V27.4474H16.4616V27.6719H15.6816ZM15.6816 28.2608V28.0403H16.4176V28.2608H15.6816ZM15.5195 27.4474H15.7763V28.9612H15.5195V27.4474ZM16.8832 28.4745C16.9175 28.5324 16.9532 28.5835 16.9917 28.6278C17.0315 28.6708 17.0754 28.7045 17.1221 28.73C17.1688 28.7529 17.2224 28.7649 17.2814 28.7649C17.3514 28.7649 17.4091 28.7461 17.4531 28.7085C17.497 28.6708 17.519 28.6224 17.519 28.5633C17.519 28.5068 17.5052 28.4624 17.4764 28.4288C17.4489 28.3939 17.4091 28.3657 17.3597 28.3428C17.3116 28.3186 17.2539 28.2944 17.1894 28.2715C17.1509 28.2581 17.1084 28.2406 17.0617 28.2191C17.015 28.1963 16.9697 28.168 16.9271 28.1344C16.8845 28.0995 16.8488 28.0578 16.8214 28.0094C16.7939 27.9583 16.7788 27.8978 16.7788 27.8279C16.7788 27.7472 16.8008 27.676 16.8434 27.6154C16.8859 27.5536 16.9436 27.5066 17.015 27.473C17.0892 27.438 17.1715 27.4205 17.2649 27.4205C17.3556 27.4205 17.4352 27.4367 17.5039 27.4676C17.5712 27.4999 17.6288 27.5402 17.6742 27.5886C17.7209 27.637 17.7579 27.6894 17.784 27.7418L17.5725 27.8588C17.5533 27.8212 17.5286 27.7862 17.4998 27.7553C17.4709 27.7217 17.4352 27.6961 17.3954 27.6773C17.3569 27.6571 17.3116 27.6464 17.2608 27.6464C17.188 27.6464 17.1359 27.6625 17.1015 27.6961C17.0672 27.7284 17.0507 27.7647 17.0507 27.8091C17.0507 27.848 17.0631 27.883 17.0864 27.9153C17.1111 27.9462 17.1496 27.9744 17.2018 28.0013C17.2526 28.0282 17.3199 28.0565 17.4023 28.086C17.4476 28.1021 17.4929 28.1223 17.5396 28.1465C17.5863 28.1707 17.6288 28.2016 17.6673 28.2393C17.7057 28.2756 17.7359 28.3173 17.7579 28.367C17.7813 28.4154 17.7936 28.4732 17.7936 28.5404C17.7936 28.6117 17.7799 28.6749 17.751 28.7313C17.7236 28.7878 17.6851 28.8349 17.6357 28.8739C17.5876 28.9115 17.5313 28.9397 17.4695 28.9599C17.4091 28.9814 17.3459 28.9922 17.28 28.9922C17.188 28.9922 17.1043 28.9747 17.026 28.9397C16.9491 28.9034 16.8818 28.8564 16.8255 28.7972C16.7678 28.7381 16.7225 28.6735 16.6882 28.605L16.8832 28.4745ZM17.9062 27.684V27.4488H18.9842V27.684H18.575V28.9626H18.3127V27.684H17.9062ZM18.9677 28.851C18.9677 28.8093 18.9829 28.7744 19.0117 28.7448C19.0433 28.7139 19.079 28.6991 19.1215 28.6991C19.1669 28.6991 19.2053 28.7139 19.2342 28.7448C19.263 28.773 19.2781 28.8093 19.2781 28.851C19.2781 28.8913 19.263 28.9263 19.2342 28.9572C19.2053 28.9881 19.1669 29.0029 19.1215 29.0029C19.079 29.0029 19.0419 28.9881 19.0117 28.9572C18.9829 28.9276 18.9677 28.8913 18.9677 28.851ZM20.1707 28.9612L20.8862 28.2231C20.9232 28.1842 20.9548 28.1465 20.9809 28.1102C21.007 28.0739 21.0276 28.0376 21.0399 28.0026C21.0537 27.9664 21.0592 27.9287 21.0592 27.8884C21.0592 27.8602 21.0537 27.8319 21.0413 27.8037C21.0304 27.7755 21.0139 27.7485 20.9905 27.7257C20.9685 27.7029 20.9411 27.684 20.9081 27.6719C20.8752 27.6571 20.8381 27.6504 20.7955 27.6504C20.7365 27.6504 20.6857 27.6639 20.6431 27.6921C20.6005 27.7177 20.5676 27.7566 20.5442 27.8064C20.5223 27.8575 20.5113 27.9153 20.5113 27.9811H20.2531C20.2531 27.8736 20.2737 27.7768 20.3149 27.6934C20.3574 27.6087 20.4193 27.5415 20.5003 27.4945C20.5827 27.4461 20.6829 27.4205 20.801 27.4205C20.8903 27.4205 20.9685 27.4353 21.0359 27.4636C21.1018 27.4904 21.1567 27.5267 21.1993 27.5711C21.2432 27.6154 21.2762 27.6652 21.2968 27.7177C21.3187 27.7714 21.3297 27.8225 21.3297 27.8736C21.3297 27.9529 21.3105 28.0296 21.2707 28.1035C21.2322 28.1774 21.1814 28.2433 21.1182 28.2998L20.6788 28.7219H21.3503V28.9599H20.1707V28.9612ZM21.8035 28.2043C21.8035 28.285 21.8117 28.3589 21.8282 28.4275C21.8447 28.4947 21.8667 28.5539 21.8969 28.6023C21.9284 28.6507 21.9642 28.6897 22.0067 28.7166C22.0493 28.7421 22.096 28.7555 22.1482 28.7555C22.2031 28.7555 22.2512 28.7421 22.2924 28.7166C22.3349 28.6897 22.3706 28.6507 22.4009 28.6023C22.4324 28.5539 22.4558 28.4947 22.4709 28.4275C22.4874 28.3603 22.4956 28.285 22.4956 28.2043C22.4956 28.1237 22.4874 28.0497 22.4709 27.9811C22.4544 27.9139 22.431 27.8548 22.4009 27.8064C22.372 27.758 22.3349 27.7203 22.2924 27.6934C22.2512 27.6666 22.2031 27.6518 22.1482 27.6518C22.096 27.6518 22.0493 27.6652 22.0067 27.6934C21.9642 27.719 21.9271 27.7566 21.8969 27.8064C21.868 27.8548 21.8447 27.9139 21.8282 27.9811C21.8117 28.0497 21.8035 28.1237 21.8035 28.2043ZM21.5481 28.2043C21.5481 28.047 21.5728 27.9099 21.6236 27.7929C21.6758 27.676 21.7458 27.5859 21.8351 27.52C21.9271 27.4555 22.0314 27.4232 22.1482 27.4232C22.269 27.4232 22.3748 27.4555 22.464 27.52C22.556 27.5846 22.626 27.676 22.6755 27.7929C22.7249 27.9099 22.751 28.047 22.751 28.2043C22.751 28.3616 22.7263 28.4988 22.6755 28.6157C22.626 28.7327 22.5546 28.8228 22.464 28.8887C22.3748 28.9532 22.269 28.9854 22.1482 28.9854C22.0301 28.9854 21.9257 28.9532 21.8351 28.8887C21.7458 28.8241 21.6744 28.7327 21.6236 28.6157C21.5728 28.4988 21.5481 28.3616 21.5481 28.2043ZM23.1849 28.2043C23.1849 28.285 23.1932 28.3589 23.2097 28.4275C23.2262 28.4947 23.2481 28.5539 23.2784 28.6023C23.3099 28.6507 23.3456 28.6897 23.3882 28.7166C23.4308 28.7421 23.4774 28.7555 23.5296 28.7555C23.5846 28.7555 23.6326 28.7421 23.6738 28.7166C23.7164 28.6897 23.7521 28.6507 23.7823 28.6023C23.8139 28.5539 23.8373 28.4947 23.8524 28.4275C23.8688 28.3603 23.8771 28.285 23.8771 28.2043C23.8771 28.1237 23.8688 28.0497 23.8524 27.9811C23.8359 27.9139 23.8125 27.8548 23.7823 27.8064C23.7535 27.758 23.7164 27.7203 23.6738 27.6934C23.6326 27.6666 23.5846 27.6518 23.5296 27.6518C23.4774 27.6518 23.4308 27.6652 23.3882 27.6934C23.3456 27.719 23.3085 27.7566 23.2784 27.8064C23.2495 27.8548 23.2262 27.9139 23.2097 27.9811C23.1932 28.0497 23.1849 28.1237 23.1849 28.2043ZM22.9282 28.2043C22.9282 28.047 22.9529 27.9099 23.0037 27.7929C23.0559 27.676 23.1259 27.5859 23.2152 27.52C23.3072 27.4555 23.4115 27.4232 23.5283 27.4232C23.6491 27.4232 23.7549 27.4555 23.8441 27.52C23.9361 27.5846 24.0062 27.676 24.0556 27.7929C24.105 27.9099 24.1311 28.047 24.1311 28.2043C24.1311 28.3616 24.1064 28.4988 24.0556 28.6157C24.0062 28.7327 23.9348 28.8228 23.8441 28.8887C23.7549 28.9532 23.6491 28.9854 23.5283 28.9854C23.4102 28.9854 23.3058 28.9532 23.2152 28.8887C23.1259 28.8241 23.0545 28.7327 23.0037 28.6157C22.9529 28.4988 22.9282 28.3616 22.9282 28.2043ZM24.2643 28.9612L24.9798 28.2231C25.0169 28.1842 25.0484 28.1465 25.0745 28.1102C25.1006 28.0739 25.1212 28.0376 25.1336 28.0026C25.1473 27.9664 25.1528 27.9287 25.1528 27.8884C25.1528 27.8602 25.1473 27.8319 25.1349 27.8037C25.1254 27.7755 25.1075 27.7485 25.0842 27.7257C25.0622 27.7029 25.0347 27.684 25.0018 27.6719C24.9688 27.6571 24.9317 27.6504 24.8892 27.6504C24.8301 27.6504 24.7793 27.6639 24.7367 27.6921C24.6942 27.7177 24.6612 27.7566 24.6379 27.8064C24.6159 27.8575 24.6049 27.9153 24.6049 27.9811H24.3467C24.3467 27.8736 24.3673 27.7768 24.4085 27.6934C24.4511 27.6087 24.5129 27.5415 24.5939 27.4945C24.6763 27.4461 24.7765 27.4205 24.8946 27.4205C24.9839 27.4205 25.0622 27.4353 25.1295 27.4636C25.1954 27.4904 25.2503 27.5267 25.2929 27.5711C25.3368 27.6154 25.3698 27.6652 25.3904 27.7177C25.4124 27.7714 25.4234 27.8225 25.4234 27.8736C25.4234 27.9529 25.4041 28.0296 25.3643 28.1035C25.3259 28.1774 25.275 28.2433 25.2119 28.2998L24.7724 28.7219H25.4439V28.9599H24.2643V28.9612Z" fill="white"/>
</svg>
